<svg xmlns="http://www.w3.org/2000/svg" xmlns:xlink="http://www.w3.org/1999/xlink" viewBox="0 0 513.67 343.78"><defs><style>.cls-1{fill:none}.cls-2{fill:url(#linear-gradient)}.cls-3{clip-path:url(#clip-path)}.cls-4{fill:#fff;fill-rule:evenodd}.cls-5{fill:#f8c35b}.cls-6{fill:#cecece}</style><linearGradient id="linear-gradient" x1="167.86" x2="376.48" y1="57.29" y2="189.63" gradientUnits="userSpaceOnUse"><stop offset="0" stop-color="#f8c35b"/><stop offset=".48" stop-color="#f9ae5c"/><stop offset=".98" stop-color="#fb955d"/></linearGradient><clipPath id="clip-path" transform="translate(-3.72)"><rect width="165.86" height="171.68" x="176.38" y="33.43" class="cls-1"/></clipPath></defs><g id="Layer_2" data-name="Layer 2"><g id="Layer_1-2" data-name="Layer 1"><g id="logo"><g id="logo-icon"><path id="icon-base" d="M309.93,0A28,28,0,0,1,334.2,14l50.38,87.5a28,28,0,0,1,0,27.94L334.2,217a28,28,0,0,1-24.27,14H209.31a28,28,0,0,1-24.26-14l-50.38-87.5a28,28,0,0,1,0-27.94L185.05,14A28,28,0,0,1,209.31,0Z" class="cls-2" transform="translate(-3.72)"/><g class="cls-3"><path d="M282.23,47.27c28.83,5.69,41.52,71.73,9.33,78.85,2.63,2.34,9.83,5.27,15.72,13.46,13.35,18.57,6.43,31.55,6.81,39.19a61,61,0,0,0,11.54-11.66c13.31-17.14,19.71-37.78,15.15-59.74-1.42,1.76-1.51,3-3.64,5,.69-27.45-24.58-66.6-54.91-65.09m-15,135.1c-20.55-8.35-70.28-10.11-88.6-33.79,9.47,20.49,31.82,28.12,53.42,32.86,20.09,4.41,44.89,1.35,51,23.67,3.84-9.35-5.87-18.71-15.79-22.74m13.28,22.37c-5-17.16-43.86-16.66-75.45-26.13-4.53-1.36-16.55-5.68-18.33-7,33.1,25.39,65,14.62,87.63,27.93,4,2.43,3.43,2.85,6.15,5.22M293.61,98.49c-.17-15.65-12.78-15.78-21.5-16.19-2-.1-12.66-3.65-20.29.12l-4.92-.07c-3.28,0-7.71.37-10.5-1.74l-2.35-2.33c-.11-.11-.29-.31-.45-.45a15.44,15.44,0,0,0,3.85,10c1.39,1.55,5.31,4.6,8.14,4.66l-3.39,10.1c-6.7,26.67,10.69,31.07,28.34,43.86,9.33,6.75,20,16.52,18.47,29.26,0-3-4.4-10.28-6-12.53-18.09-24.71-95.67-41.77-53.45-104.44,10.53-15.62,28.31-25.68,49.14-23.95-1.86-.36-3.87-.78-5.17-.91-48.75-5-89.23,31.34-91.08,79.88l-3.83-8.49c-3.27,7.27-2.84,24.6.89,32.22,7.75,19.17,33.07,27.41,51.35,32,25.33,6.29,60.1,5.45,54.41,33.75,11.17-2.73,27.13-29,25.2-43.14a41.32,41.32,0,0,0-31.34-34.67c-3.17-.74-4.57-.81-7.23-2.52-2.29-1.46-3.63-3.68-5.37-4.42-.88-2.3-2.19-4.28-2.64-7a17.29,17.29,0,0,1,6.39-16.11c7.92-6.5,16.22-1.94,23.37,3.16M265,85.86l1,.7a.89.89,0,0,1,0,1.48l-1,.64a1,1,0,0,1-.5.14l-4.09-.13a.79.79,0,0,1-.49-.17l-1-.7a.88.88,0,0,1,.05-1.47l1-.64a.9.9,0,0,1,.5-.14l4.1.13A.84.84,0,0,1,265,85.86Z" class="cls-4" transform="translate(-3.72)"/></g></g><g id="logo-text"><path d="M3.72,257.12h26q6.51,0,9.45,2.95t2.95,9.45v6.2q0,6.51-2.95,9.46t-9.45,2.94H14.88v12.4H3.72ZM31,269.52q0-3.72-3.72-3.72H14.88v13.64h12.4q3.72,0,3.72-3.72Z" class="cls-5" transform="translate(-3.72)"/><path d="M85.56,300.52H74.4V282.85H58.9v17.67H47.74v-43.4H58.9v17.05H74.4V257.12H85.56Z" class="cls-5" transform="translate(-3.72)"/><path d="M127.41,300.52H93v-43.4h34.41v8.68H104.16v8.37h18.29v8.68H104.16v9h23.25Z" class="cls-5" transform="translate(-3.72)"/><path d="M170.19,300.52H158.41l-14.88-26v26H132.37v-43.4h11.78l14.88,26v-26h11.16Z" class="cls-5" transform="translate(-3.72)"/><path d="M198.09,300.52H175.77v-8.68h5.58v-26h-5.58v-8.68h22.32v8.68h-5.58v26h5.58Z" class="cls-5" transform="translate(-3.72)"/><path d="M228.78,257.12h12.4l-14,21.7,14.26,21.7h-12.4l-8.68-13.64-8.68,13.64h-12.4l14.26-21.7-14-21.7H212l8.43,13.64Z" class="cls-5" transform="translate(-3.72)"/><path d="M284.27,300.52H273.11V265.8h-13v-8.68h37.2v8.68h-13Z" class="cls-5" transform="translate(-3.72)"/><path d="M339.45,300.52H328.29V282.85h-15.5v17.67H301.63v-43.4h11.16v17.05h15.5V257.12h11.16Z" class="cls-5" transform="translate(-3.72)"/><path d="M381.3,300.52H346.89v-43.4H381.3v8.68H358.05v8.37h18.29v8.68H358.05v9H381.3Z" class="cls-5" transform="translate(-3.72)"/><path d="M423.46,276.34l-8.68,15.5H406.1l-8.68-15.5v24.18H386.26v-43.4H398l12.4,22.94,12.4-22.94h11.78v43.4H423.46Z" class="cls-5" transform="translate(-3.72)"/><path d="M476.47,300.52H442.06v-43.4h34.41v8.68H453.22v8.37h18.29v8.68H453.22v9h23.25Z" class="cls-5" transform="translate(-3.72)"/><path d="M480.12,291.53q17,.93,23,.93a2.88,2.88,0,0,0,3.1-3.1v-5.58H492q-6.51,0-9.46-2.94t-2.94-9.46v-1.86q0-6.51,2.94-9.45t9.46-2.95h21.76v8.68H494.45q-3.72,0-3.72,3.72v1.24q0,3.72,3.72,3.72h11.16q6.08,0,8.92,2.85c1.9,1.91,2.86,4.88,2.86,8.93v3.1c0,4.05-1,7-2.86,8.93s-4.87,2.85-8.92,2.85q-3.17,0-6.7-.12l-5.7-.25q-6.33-.31-13.09-.87Z" class="cls-5" transform="translate(-3.72)"/><path d="M56.45,336.29v7.23H54V325h6.81a6.82,6.82,0,0,1,4.76,1.55,5.24,5.24,0,0,1,1.72,4.1,5.18,5.18,0,0,1-1.68,4.14,7.16,7.16,0,0,1-4.82,1.46Zm0-2h4.38a4.34,4.34,0,0,0,3-.92,3.37,3.37,0,0,0,1-2.66,3.49,3.49,0,0,0-1-2.65A4.13,4.13,0,0,0,61,327H56.45Z" class="cls-6" transform="translate(-3.72)"/><path d="M95,343.52H92.58V335H83.26v8.54H80.82V325h2.44V333h9.32V325H95Z" class="cls-6" transform="translate(-3.72)"/><path d="M120.2,335h-8v6.55h9.31v2H109.75V325h11.62v2h-9.18v6h8Z" class="cls-6" transform="translate(-3.72)"/><path d="M149.14,343.52h-2.45l-9.31-14.24v14.24h-2.45V325h2.45l9.33,14.31V325h2.43Z" class="cls-6" transform="translate(-3.72)"/><path d="M166.48,343.52H164V325h2.44Z" class="cls-6" transform="translate(-3.72)"/><path d="M187.58,332.12,192,325h2.86L189,334.2l6,9.32h-2.89l-4.55-7.21L183,343.52h-2.88l6-9.32L180.27,325h2.86Z" class="cls-6" transform="translate(-3.72)"/><path d="M221,327h-5.95v16.49h-2.42V327h-5.93v-2H221Z" class="cls-6" transform="translate(-3.72)"/><path d="M248.37,343.52h-2.45V335h-9.31v8.54h-2.44V325h2.44V333h9.31V325h2.45Z" class="cls-6" transform="translate(-3.72)"/><path d="M273.55,335h-8v6.55h9.31v2H263.1V325h11.62v2h-9.18v6h8Z" class="cls-6" transform="translate(-3.72)"/><path d="M291.43,325l6,15.08,6-15.08h3.16v18.48h-2.44v-7.2l.23-7.76-6.07,15h-1.87l-6-14.93.24,7.73v7.2h-2.44V325Z" class="cls-6" transform="translate(-3.72)"/><path d="M331.83,335h-8v6.55h9.3v2H321.38V325H333v2h-9.18v6h8Z" class="cls-6" transform="translate(-3.72)"/><path d="M352,335.28a11.5,11.5,0,0,1-4.56-2.21,4.26,4.26,0,0,1-1.43-3.25,4.47,4.47,0,0,1,1.75-3.61,6.93,6.93,0,0,1,4.54-1.43,7.54,7.54,0,0,1,3.39.74,5.53,5.53,0,0,1,2.31,2,5.18,5.18,0,0,1,.82,2.83h-2.45a3.34,3.34,0,0,0-1.07-2.64,4.32,4.32,0,0,0-3-1,4.46,4.46,0,0,0-2.82.79,2.67,2.67,0,0,0-1,2.21,2.38,2.38,0,0,0,1,1.91,9.41,9.41,0,0,0,3.27,1.43,15.59,15.59,0,0,1,3.6,1.43,5.42,5.42,0,0,1,1.93,1.83,4.63,4.63,0,0,1,.63,2.45,4.3,4.3,0,0,1-1.75,3.59,7.43,7.43,0,0,1-4.69,1.36,8.77,8.77,0,0,1-3.55-.73,6.09,6.09,0,0,1-2.55-2,4.94,4.94,0,0,1-.89-2.88h2.45a3.16,3.16,0,0,0,1.24,2.64,5.16,5.16,0,0,0,3.3,1,4.81,4.81,0,0,0,3-.78,2.78,2.78,0,0,0,.08-4.25A11.11,11.11,0,0,0,352,335.28Z" class="cls-6" transform="translate(-3.72)"/><path d="M372.06,342.29a1.48,1.48,0,0,1,.37-1,1.34,1.34,0,0,1,1.08-.41,1.4,1.4,0,0,1,1.1.41,1.43,1.43,0,0,1,.37,1,1.36,1.36,0,0,1-.37,1,1.46,1.46,0,0,1-1.1.39,1.31,1.31,0,0,1-1.45-1.37Z" class="cls-6" transform="translate(-3.72)"/><path d="M403.22,337.66a6.82,6.82,0,0,1-2.16,4.52,7.08,7.08,0,0,1-4.85,1.6,6.54,6.54,0,0,1-5.25-2.35,9.49,9.49,0,0,1-2-6.29v-1.77a10.64,10.64,0,0,1,.92-4.54,6.85,6.85,0,0,1,2.61-3,7.26,7.26,0,0,1,3.91-1.05,6.66,6.66,0,0,1,4.72,1.65,6.82,6.82,0,0,1,2.07,4.55h-2.45a5.27,5.27,0,0,0-1.38-3.21,4.15,4.15,0,0,0-3-1,4.33,4.33,0,0,0-3.66,1.73,7.88,7.88,0,0,0-1.33,4.91v1.79A8.12,8.12,0,0,0,392.7,340a4.05,4.05,0,0,0,3.51,1.78,4.65,4.65,0,0,0,3.12-.92,5.07,5.07,0,0,0,1.44-3.2Z" class="cls-6" transform="translate(-3.72)"/><path d="M431.17,334.88a11.42,11.42,0,0,1-.92,4.74,6.9,6.9,0,0,1-2.59,3.09,7.15,7.15,0,0,1-10.4-3.07,11,11,0,0,1-1-4.6v-1.33a11.25,11.25,0,0,1,.93-4.71,7.27,7.27,0,0,1,10.41-3.14,6.88,6.88,0,0,1,2.61,3.11,11.49,11.49,0,0,1,.92,4.74Zm-2.43-1.2a8.27,8.27,0,0,0-1.32-5,4.7,4.7,0,0,0-7.33,0,8.11,8.11,0,0,0-1.36,4.88v1.36a8.35,8.35,0,0,0,1.33,5,4.7,4.7,0,0,0,7.35.1,8.24,8.24,0,0,0,1.33-4.93Z" class="cls-6" transform="translate(-3.72)"/><path d="M448.37,325l6,15.08,6-15.08h3.16v18.48h-2.44v-7.2l.23-7.76-6.07,15h-1.86l-6.06-14.93.24,7.73v7.2h-2.44V325Z" class="cls-6" transform="translate(-3.72)"/></g></g></g></g></svg>