<svg xmlns="http://www.w3.org/2000/svg" xmlns:xlink="http://www.w3.org/1999/xlink" viewBox="0 0 257 230.27"><defs><style>.cls-1{fill:none}.cls-2{fill:#f8c35b}.cls-3{fill:#cecece}.cls-4{fill:url(#linear-gradient)}.cls-5{clip-path:url(#clip-path)}.cls-6{fill:#fff;fill-rule:evenodd}</style><linearGradient id="linear-gradient" x1="72.61" x2="204.91" y1="36.33" y2="120.26" gradientUnits="userSpaceOnUse"><stop offset="0" stop-color="#f8c35b"/><stop offset=".48" stop-color="#f9ae5c"/><stop offset=".98" stop-color="#fb955d"/></linearGradient><clipPath id="clip-path" transform="translate(-1.35)"><rect width="105.18" height="108.87" x="78.01" y="21.2" class="cls-1"/></clipPath></defs><g id="Layer_2" data-name="Layer 2"><g id="Layer_1-2" data-name="Layer 1"><g id="logo"><g id="logo-text"><path d="M10,208.54A13.07,13.07,0,0,1,6.1,208a6,6,0,0,1-2.58-1.48,3.16,3.16,0,0,1-.92-2.27,18.74,18.74,0,0,0,4.93-.55,8.27,8.27,0,0,0,3.08-1.48,6.57,6.57,0,0,0,1.73-2.1,11,11,0,0,0,.9-2.44c.09-.38.21-1,.36-1.81s.31-1.78.49-2.84.36-2.17.54-3.32.36-2.24.52-3.28.29-1.94.4-2.69l.21,2.55-2.28-5.71a18.71,18.71,0,0,1,3.23-1.87,6.93,6.93,0,0,1,2.75-.61,3.66,3.66,0,0,1,2.37.71,2.38,2.38,0,0,1,.86,1.91c0,.2,0,.53-.08,1s-.15,1.12-.29,2-.34,2.19-.6,3.82-.59,3.73-1,6.29a46.51,46.51,0,0,1-1.67,7.36,14.29,14.29,0,0,1-2.22,4.47,6.84,6.84,0,0,1-3,2.23A11,11,0,0,1,10,208.54Zm9.76-33.49a3.17,3.17,0,0,1-2.21-.73,2.44,2.44,0,0,1-.82-1.89,3.65,3.65,0,0,1,1.18-2.84,4.21,4.21,0,0,1,2.94-1.07,3.26,3.26,0,0,1,2.22.73,2.43,2.43,0,0,1,.84,1.92A3.6,3.6,0,0,1,22.74,174,4.25,4.25,0,0,1,19.77,175.05ZM23.61,197a3.08,3.08,0,0,1-2.43-.87,3.86,3.86,0,0,1-.76-2.63l2.48,1.73H18.21l3.26-6.12a2.51,2.51,0,0,0,.61,1.77,2.39,2.39,0,0,0,1.7.61l2.55,0L25.45,197Zm1.84,0,.88-5.47c.41,0,.65.24.73.73a6.88,6.88,0,0,1-.08,2,7.79,7.79,0,0,1-.56,2A1.08,1.08,0,0,1,25.45,197Z" class="cls-2" transform="translate(-1.35)"/><path d="M25.48,197c-.41,0-.65-.25-.73-.75a6.46,6.46,0,0,1,.09-2,7,7,0,0,1,.56-2,1.07,1.07,0,0,1,1-.73Zm0,0,.89-5.47h2.31a4.13,4.13,0,0,0,1.8-.36,3.65,3.65,0,0,0,1.21-.9,2.49,2.49,0,0,0,.56-1l1.53-9.35a22.28,22.28,0,0,1,3.31-2.45A13.69,13.69,0,0,1,40.41,176a13.55,13.55,0,0,1,3.6-.46,12.49,12.49,0,0,1,5.53,1.14A8.53,8.53,0,0,1,53.16,180a9.36,9.36,0,0,1,1.29,5,12.69,12.69,0,0,1-.83,4.48,14.47,14.47,0,0,1-2.47,4.13,17.11,17.11,0,0,1-4,3.43H34.59l-.47-1.77h-.27a3.61,3.61,0,0,1-1.14,1.16,3.77,3.77,0,0,1-2.23.61Zm12.79-3.26-1.91-2.21H46.9l-3,.44a4.93,4.93,0,0,0,1.55-1.26,9.29,9.29,0,0,0,1.58-2.52,8.32,8.32,0,0,0,.68-3.4,4.37,4.37,0,0,0-.78-2.7,3.38,3.38,0,0,0-2.86-1,7.64,7.64,0,0,0-2.87.55,8,8,0,0,0-2.16,1.22l1.36-2.89ZM42.58,197l.85-5.47H56.76L55.88,197Zm13.3,0,.88-5.47c.41,0,.65.24.73.73a6.88,6.88,0,0,1-.08,2,7.79,7.79,0,0,1-.56,2A1.08,1.08,0,0,1,55.88,197Z" class="cls-2" transform="translate(-1.35)"/><path d="M58.09,206.23a3.22,3.22,0,0,1-2.21-.73,2.41,2.41,0,0,1-.82-1.89,3.67,3.67,0,0,1,1.17-2.84,4.24,4.24,0,0,1,2.94-1.07,3.24,3.24,0,0,1,2.23.73,2.43,2.43,0,0,1,.84,1.92,3.65,3.65,0,0,1-1.18,2.81A4.25,4.25,0,0,1,58.09,206.23ZM55.91,197c-.41,0-.65-.25-.73-.75a6.46,6.46,0,0,1,.09-2,7,7,0,0,1,.56-2,1.07,1.07,0,0,1,1-.73Zm0,0,.88-5.47h6.33l-2.24,2.24v-2.31a12.46,12.46,0,0,1,.15-2,16.42,16.42,0,0,1,.37-1.73c.15-.55.3-1.08.44-1.6s.28-1,.38-1.58a9.05,9.05,0,0,0,.15-1.68,7.86,7.86,0,0,0-.19-1.79,3.28,3.28,0,0,0-.52-1.27,17.37,17.37,0,0,1,2.94-1.23,9.12,9.12,0,0,1,2.6-.44,2.45,2.45,0,0,1,1.89.63,2.6,2.6,0,0,1,.56,1.78,8.8,8.8,0,0,1-.26,2c-.17.73-.37,1.47-.61,2.23s-.44,1.51-.61,2.24a9.22,9.22,0,0,0-.26,2.06,2.64,2.64,0,0,0,.56,1.83,2.23,2.23,0,0,0,1.72.62h2.93L72.23,197H68.76a3.08,3.08,0,0,1-2.43-.87,3.86,3.86,0,0,1-.76-2.63l1.63,1.73H65.53L64.38,197Zm9.86,9.25a3.23,3.23,0,0,1-2.21-.73,2.44,2.44,0,0,1-.81-1.89,3.67,3.67,0,0,1,1.17-2.84,4.21,4.21,0,0,1,2.94-1.07,3.26,3.26,0,0,1,2.23.73,2.45,2.45,0,0,1,.83,1.92,3.64,3.64,0,0,1-1.17,2.81A4.29,4.29,0,0,1,65.77,206.23ZM72.23,197l.89-5.47c.4,0,.65.24.73.73a6.61,6.61,0,0,1-.09,2,7.4,7.4,0,0,1-.56,2A1.08,1.08,0,0,1,72.23,197Z" class="cls-2" transform="translate(-1.35)"/><path d="M72.26,197c-.4,0-.65-.25-.73-.75a6.46,6.46,0,0,1,.09-2,7,7,0,0,1,.56-2,1.08,1.08,0,0,1,1-.73Zm0,0,.89-5.47h7.21l-2.65.74c.08-.74.19-1.49.32-2.24s.26-1.48.41-2.21.3-1.42.45-2.07.32-1.28.46-1.87.28-1.13.4-1.6l0,1.8-2.21-3.37a16.49,16.49,0,0,1,3.3-1.81,8.79,8.79,0,0,1,3.37-.74,2.84,2.84,0,0,1,2,.57,2.13,2.13,0,0,1,.61,1.64,9.13,9.13,0,0,1-.19,1.67c-.12.68-.29,1.45-.49,2.3s-.42,1.75-.65,2.7-.43,1.92-.61,2.91-.33,1.95-.44,2.9L81.65,197Zm6.19-21.93a3.19,3.19,0,0,1-2.21-.73,2.44,2.44,0,0,1-.81-1.89,3.67,3.67,0,0,1,1.17-2.84,4.21,4.21,0,0,1,2.94-1.07,3.31,3.31,0,0,1,2.23.73,2.45,2.45,0,0,1,.83,1.92A3.62,3.62,0,0,1,81.43,174,4.27,4.27,0,0,1,78.45,175.05Zm4.76-7a2.91,2.91,0,0,1-2-.66,2.19,2.19,0,0,1-.75-1.72,3.33,3.33,0,0,1,1.07-2.57,3.85,3.85,0,0,1,2.67-1,3,3,0,0,1,2,.67,2.21,2.21,0,0,1,.75,1.75,3.26,3.26,0,0,1-1.07,2.53A3.88,3.88,0,0,1,83.21,168.08Zm2.93,7a3.17,3.17,0,0,1-2.21-.73,2.41,2.41,0,0,1-.82-1.89,3.67,3.67,0,0,1,1.17-2.84,4.24,4.24,0,0,1,2.94-1.07,3.29,3.29,0,0,1,2.23.73,2.42,2.42,0,0,1,.83,1.92A3.62,3.62,0,0,1,89.11,174,4.25,4.25,0,0,1,86.14,175.05Z" class="cls-2" transform="translate(-1.35)"/><path d="M111.33,205.55a13.13,13.13,0,0,1-4.57-.78,11.27,11.27,0,0,1-3.71-2.23,10.36,10.36,0,0,1-3.38-7.8,7.7,7.7,0,0,1,.81-3.81,5,5,0,0,1,2.06-2.06,5.42,5.42,0,0,1,2.46-.63,4.48,4.48,0,0,1,2.44.61,2.78,2.78,0,0,1,1.07,1,4.75,4.75,0,0,0-1,1.07,6.73,6.73,0,0,0-.85,1.72,6.89,6.89,0,0,0-.09,4,5.08,5.08,0,0,0,.85,1.71,4.13,4.13,0,0,0,1.63,1.28,6.3,6.3,0,0,0,2.64.47,7.24,7.24,0,0,0,3.48-.79,7.44,7.44,0,0,0,2.5-2.21,12.38,12.38,0,0,0,1.65-3.27,20.11,20.11,0,0,0,.9-4,33.85,33.85,0,0,0,.27-4.32q0-1.05-.06-1.8a7.37,7.37,0,0,0-.23-1.31,3.76,3.76,0,0,0-.42-1q1.5-.78,2.58-1.23a6,6,0,0,1,2.25-.44,2.23,2.23,0,0,1,2,.72,3.34,3.34,0,0,1,.48,1.9,14.66,14.66,0,0,1-.17,2.09c-.12.76-.23,1.52-.34,2.28a13.43,13.43,0,0,0-.17,2.09,3.28,3.28,0,0,0,.51,2,2.06,2.06,0,0,0,1.76.67h4.56L131,193.75v-2.31a12.86,12.86,0,0,1,.17-2.3,14.84,14.84,0,0,1,.4-1.76c.16-.54.3-1.08.41-1.62a9.47,9.47,0,0,0,.17-1.87A8.09,8.09,0,0,0,132,182a3.34,3.34,0,0,0-.52-1.28,16.52,16.52,0,0,1,2.94-1.22,8.79,8.79,0,0,1,2.6-.44,2.4,2.4,0,0,1,1.9.63,2.63,2.63,0,0,1,.55,1.81,9.75,9.75,0,0,1-.34,2.44c-.23.85-.46,1.7-.7,2.55a9,9,0,0,0-.36,2.46,2.79,2.79,0,0,0,.56,1.89,2.2,2.2,0,0,0,1.72.63h4.22l-2,2.24v-2.31a12.46,12.46,0,0,1,.15-2c.1-.61.23-1.19.37-1.73s.3-1.08.44-1.6.28-1,.38-1.58a9.05,9.05,0,0,0,.15-1.68,7.92,7.92,0,0,0-.2-1.84,3.63,3.63,0,0,0-.51-1.22,19,19,0,0,1,3-1.23,8.79,8.79,0,0,1,2.51-.44,2.55,2.55,0,0,1,2,.63,2.31,2.31,0,0,1,.56,1.58,11.5,11.5,0,0,1-.29,2.16c-.19.92-.43,2-.72,3.11s-.55,2.36-.8,3.6-.44,2.45-.57,3.61L146.25,197H138.9a3.08,3.08,0,0,1-2.43-.87,3.86,3.86,0,0,1-.76-2.63l1.63,1.73h-1.67L134.52,197h-6.6a3.08,3.08,0,0,1-2.43-.87,3.86,3.86,0,0,1-.76-2.63l1.46,1.77h-1.87a17,17,0,0,1-1.43,3.28,15.43,15.43,0,0,1-2.57,3.38,12.64,12.64,0,0,1-3.82,2.62A12.39,12.39,0,0,1,111.33,205.55ZM150.6,197a3.08,3.08,0,0,1-2.43-.87,3.86,3.86,0,0,1-.77-2.63l1.64,1.73h-4l4.93-8.06c-.07.34-.13.67-.17,1a5.88,5.88,0,0,0-.07.92,2.64,2.64,0,0,0,.56,1.83,2.22,2.22,0,0,0,1.72.62H155l-.88,5.47Zm3.47,0,.88-5.47c.41,0,.65.24.73.73a6.88,6.88,0,0,1-.08,2,7.79,7.79,0,0,1-.56,2A1.08,1.08,0,0,1,154.07,197Z" class="cls-2" transform="translate(-1.35)"/><path d="M154.1,197c-.41,0-.65-.25-.73-.75a6.46,6.46,0,0,1,.09-2,7,7,0,0,1,.56-2,1.07,1.07,0,0,1,1-.73Zm0,0,.89-5.47h25.87l-.71.71c0-.29.09-.74.15-1.33s.08-1.06.08-1.42a2.39,2.39,0,0,0-.37-1.55,1.47,1.47,0,0,0-1.16-.43H164.61a8.59,8.59,0,0,1-3.28-.61,4.86,4.86,0,0,1-2.43-2.24A9.62,9.62,0,0,1,158,180q0-1.26.15-2.76c.1-1,.22-2,.36-2.89s.27-1.7.41-2.31a19.77,19.77,0,0,0,2.63.43,42.32,42.32,0,0,0,4.61.22q1.59,0,3.48-.09l3.86-.17,3.84-.17c1.25-.05,2.39-.08,3.44-.08a18.49,18.49,0,0,1,3.31.23,2.49,2.49,0,0,1,1.62.89,3.4,3.4,0,0,1,.44,1.9,9.91,9.91,0,0,1-.15,1.69,5.46,5.46,0,0,1-.5,1.54,23.86,23.86,0,0,0-3.07-.46q-2-.18-4.17-.18c-.88,0-1.89,0-3,.06l-3.45.16-3.35.15c-1.05,0-2,.08-2.72.1a12.44,12.44,0,0,1-1.54,0l.74-.44c-.09.36-.17.81-.25,1.33a8.69,8.69,0,0,0-.12,1.25c0,.71.19,1.16.58,1.36a2.86,2.86,0,0,0,1.39.31h15.81a4.86,4.86,0,0,1,3.52,1.26c.87.84,1.31,2.29,1.31,4.35,0,.54,0,1.15-.09,1.82s-.12,1.3-.2,1.89-.16,1.07-.25,1.46L183.89,197Zm34.1,0a3.08,3.08,0,0,1-2.43-.87,3.86,3.86,0,0,1-.76-2.63l2.48,1.73H182.9l4.18-6.08a2.51,2.51,0,0,0,.56,1.76,2.23,2.23,0,0,0,1.72.62h3.77l-.88,5.47Zm4.05,0,.88-5.47c.41,0,.66.24.73.73a6.55,6.55,0,0,1-.08,2,7.4,7.4,0,0,1-.56,2A1.08,1.08,0,0,1,192.25,197Z" class="cls-2" transform="translate(-1.35)"/><path d="M192.28,197c-.4,0-.65-.25-.73-.75a6.46,6.46,0,0,1,.09-2,7,7,0,0,1,.56-2,1.08,1.08,0,0,1,1-.73Zm0,0,.89-5.47h6.32l-2.24,2.24v-2.31a12.46,12.46,0,0,1,.15-2c.1-.61.23-1.19.37-1.73s.3-1.08.45-1.6.27-1,.37-1.58a9.05,9.05,0,0,0,.15-1.68,8.49,8.49,0,0,0-.18-1.79,3.28,3.28,0,0,0-.53-1.27,18.07,18.07,0,0,1,2.94-1.23,9.12,9.12,0,0,1,2.6-.44,2.43,2.43,0,0,1,1.89.63,2.6,2.6,0,0,1,.56,1.78,8.8,8.8,0,0,1-.26,2c-.17.73-.37,1.47-.61,2.23s-.44,1.51-.61,2.24a9.17,9.17,0,0,0-.25,2.06,2.59,2.59,0,0,0,.56,1.83,2.19,2.19,0,0,0,1.71.62h2.93L208.6,197h-3.47a3.08,3.08,0,0,1-2.43-.87,3.86,3.86,0,0,1-.76-2.63l1.63,1.73h-1.66L200.75,197Zm11-21.93a3.17,3.17,0,0,1-2.21-.73,2.41,2.41,0,0,1-.82-1.89,3.65,3.65,0,0,1,1.18-2.84,4.21,4.21,0,0,1,2.94-1.07,3.26,3.26,0,0,1,2.22.73,2.43,2.43,0,0,1,.84,1.92,3.6,3.6,0,0,1-1.18,2.81A4.25,4.25,0,0,1,203.3,175.05ZM208.6,197l.89-5.47c.41,0,.65.24.73.73a6.61,6.61,0,0,1-.09,2,7,7,0,0,1-.56,2A1.08,1.08,0,0,1,208.6,197Z" class="cls-2" transform="translate(-1.35)"/><path d="M210.81,206.23a3.23,3.23,0,0,1-2.21-.73,2.44,2.44,0,0,1-.81-1.89,3.67,3.67,0,0,1,1.17-2.84,4.21,4.21,0,0,1,2.94-1.07,3.26,3.26,0,0,1,2.23.73,2.45,2.45,0,0,1,.83,1.92,3.64,3.64,0,0,1-1.17,2.81A4.27,4.27,0,0,1,210.81,206.23ZM208.64,197c-.41,0-.65-.25-.73-.75a6.41,6.41,0,0,1,.08-2,7.4,7.4,0,0,1,.56-2,1.08,1.08,0,0,1,1-.73Zm0,0,.88-5.47h6.32l-2.24,2.24v-2.31a12.46,12.46,0,0,1,.15-2c.11-.61.23-1.19.38-1.73s.29-1.08.44-1.6.27-1,.37-1.58a8.26,8.26,0,0,0,.16-1.68,8.47,8.47,0,0,0-.19-1.79,3.13,3.13,0,0,0-.53-1.27,18.07,18.07,0,0,1,2.94-1.23,9.18,9.18,0,0,1,2.6-.44,2.42,2.42,0,0,1,1.89.63,2.55,2.55,0,0,1,.56,1.78,8.76,8.76,0,0,1-.25,2c-.17.73-.38,1.47-.61,2.23s-.45,1.51-.62,2.24a9.17,9.17,0,0,0-.25,2.06,2.64,2.64,0,0,0,.56,1.83,2.22,2.22,0,0,0,1.72.62h2.92L225,197h-3.47a3.08,3.08,0,0,1-2.43-.87,3.86,3.86,0,0,1-.77-2.63l1.63,1.73h-1.66L217.1,197Zm9.86,9.25a3.22,3.22,0,0,1-2.21-.73,2.41,2.41,0,0,1-.82-1.89,3.67,3.67,0,0,1,1.17-2.84,4.24,4.24,0,0,1,2.94-1.07,3.24,3.24,0,0,1,2.23.73,2.42,2.42,0,0,1,.83,1.92,3.64,3.64,0,0,1-1.17,2.81A4.25,4.25,0,0,1,218.5,206.23ZM225,197l.88-5.47c.41,0,.65.24.73.73a6.88,6.88,0,0,1-.08,2,7.79,7.79,0,0,1-.56,2A1.09,1.09,0,0,1,225,197Z" class="cls-2" transform="translate(-1.35)"/><path d="M225,197c-.41,0-.65-.25-.73-.75a6.73,6.73,0,0,1,.08-2,7.36,7.36,0,0,1,.57-2,1.07,1.07,0,0,1,1-.73Zm0,0,.88-5.47h6.19l-1.6,1.25q-.17-.78-.27-1.68a17.7,17.7,0,0,1,.77-7.36,12.86,12.86,0,0,1,2.5-4.32,11.13,11.13,0,0,1,3.94-2.84,12.82,12.82,0,0,1,5.17-1,13.75,13.75,0,0,1,4,.54,11.69,11.69,0,0,1,3,1.35,11.3,11.3,0,0,1,1.94,1.53,4.37,4.37,0,0,1,.88,1.1,8.41,8.41,0,0,1-.13,1.36c-.09.55-.21,1.16-.36,1.86s-.31,1.42-.49,2.19-.37,1.57-.55,2.4-.34,1.66-.49,2.49-.27,1.66-.36,2.45L247.29,197Zm18.36-4.73c.09-.74.2-1.55.34-2.41s.29-1.72.48-2.58.36-1.7.54-2.52.35-1.57.51-2.26.29-1.28.41-1.75l.27,1.26a3.22,3.22,0,0,0-1.61-.73,9.37,9.37,0,0,0-1.86-.23,4.61,4.61,0,0,0-3,1,6.57,6.57,0,0,0-1.95,2.81,11.3,11.3,0,0,0-.7,4.16c0,.44,0,.84.05,1.23a9.38,9.38,0,0,0,.14,1c.05.3.1.58.15.83l-.85-.61H246ZM243,172.5a3.19,3.19,0,0,1-2.21-.73,2.44,2.44,0,0,1-.81-1.89,3.67,3.67,0,0,1,1.17-2.84,4.21,4.21,0,0,1,2.94-1.07,3.31,3.31,0,0,1,2.23.73,2.45,2.45,0,0,1,.83,1.92,3.62,3.62,0,0,1-1.17,2.81A4.25,4.25,0,0,1,243,172.5Z" class="cls-2" transform="translate(-1.35)"/><path d="M2.88,225.57v4.54H1.35v-11.6H5.62a4.35,4.35,0,0,1,3,1,3.31,3.31,0,0,1,1.08,2.58,3.27,3.27,0,0,1-1.06,2.6,4.47,4.47,0,0,1-3,.91Zm0-1.25H5.62a2.71,2.71,0,0,0,1.88-.58,2.09,2.09,0,0,0,.66-1.67,2.17,2.17,0,0,0-.66-1.66,2.55,2.55,0,0,0-1.79-.65H2.88Z" class="cls-3" transform="translate(-1.35)"/><path d="M27.08,230.11H25.54v-5.36H19.69v5.36H18.16v-11.6h1.53v5h5.85v-5h1.54Z" class="cls-3" transform="translate(-1.35)"/><path d="M42.87,224.75h-5v4.11h5.84v1.25H36.32v-11.6h7.29v1.25H37.85v3.74h5Z" class="cls-3" transform="translate(-1.35)"/><path d="M61,230.11H59.49l-5.84-8.94v8.94H52.12v-11.6h1.53l5.86,9v-9H61Z" class="cls-3" transform="translate(-1.35)"/><path d="M71.91,230.11H70.38v-11.6h1.53Z" class="cls-3" transform="translate(-1.35)"/><path d="M85.15,223l2.78-4.45h1.8l-3.66,5.75,3.75,5.85H88l-2.85-4.52-2.86,4.52H80.48l3.76-5.85-3.68-5.75h1.8Z" class="cls-3" transform="translate(-1.35)"/><path d="M106.13,219.76h-3.72v10.35h-1.52V219.76H97.17v-1.25h9Z" class="cls-3" transform="translate(-1.35)"/><path d="M123.29,230.11h-1.53v-5.36h-5.85v5.36h-1.53v-11.6h1.53v5h5.85v-5h1.53Z" class="cls-3" transform="translate(-1.35)"/><path d="M139.09,224.75h-5v4.11h5.84v1.25h-7.37v-11.6h7.29v1.25h-5.76v3.74h5Z" class="cls-3" transform="translate(-1.35)"/><path d="M150.31,218.51,154.1,228l3.79-9.47h2v11.6h-1.53v-4.52l.14-4.87-3.81,9.39h-1.17l-3.8-9.37.15,4.85v4.52h-1.53v-11.6Z" class="cls-3" transform="translate(-1.35)"/><path d="M175.66,224.75h-5v4.11h5.84v1.25H169.1v-11.6h7.29v1.25h-5.76v3.74h5Z" class="cls-3" transform="translate(-1.35)"/><path d="M188.32,224.94a7.22,7.22,0,0,1-2.87-1.39,2.68,2.68,0,0,1-.89-2,2.8,2.8,0,0,1,1.09-2.27,4.34,4.34,0,0,1,2.85-.9,4.83,4.83,0,0,1,2.13.46,3.55,3.55,0,0,1,1.45,1.28,3.27,3.27,0,0,1,.51,1.78h-1.53a2.13,2.13,0,0,0-.67-1.66,2.75,2.75,0,0,0-1.89-.61,2.79,2.79,0,0,0-1.76.5,1.67,1.67,0,0,0-.64,1.39,1.5,1.5,0,0,0,.6,1.2,6.05,6.05,0,0,0,2.05.9,9.72,9.72,0,0,1,2.26.89,3.36,3.36,0,0,1,1.21,1.15,2.82,2.82,0,0,1,.4,1.53,2.71,2.71,0,0,1-1.1,2.26,4.65,4.65,0,0,1-2.94.85,5.36,5.36,0,0,1-2.23-.46,3.76,3.76,0,0,1-1.6-1.25,3.1,3.1,0,0,1-.56-1.81h1.54a2,2,0,0,0,.77,1.66,3.26,3.26,0,0,0,2.08.61,3,3,0,0,0,1.85-.49,1.59,1.59,0,0,0,.65-1.35,1.57,1.57,0,0,0-.6-1.32A6.87,6.87,0,0,0,188.32,224.94Z" class="cls-3" transform="translate(-1.35)"/><path d="M200.9,229.34a.93.93,0,0,1,.23-.64.86.86,0,0,1,.68-.25.85.85,0,0,1,.93.89.84.84,0,0,1-.24.61.9.9,0,0,1-.69.25.86.86,0,0,1-.68-.25A.87.87,0,0,1,200.9,229.34Z" class="cls-3" transform="translate(-1.35)"/><path d="M220.45,226.43a4.26,4.26,0,0,1-1.35,2.84,4.46,4.46,0,0,1-3,1,4.11,4.11,0,0,1-3.3-1.47,6,6,0,0,1-1.24-4v-1.11a6.71,6.71,0,0,1,.58-2.85,4.37,4.37,0,0,1,1.64-1.88,4.51,4.51,0,0,1,2.45-.66,4.26,4.26,0,0,1,3,1,4.33,4.33,0,0,1,1.29,2.86h-1.53a3.3,3.3,0,0,0-.87-2,2.59,2.59,0,0,0-1.86-.63,2.75,2.75,0,0,0-2.3,1.09,5,5,0,0,0-.83,3.08v1.13a5.06,5.06,0,0,0,.79,3,2.54,2.54,0,0,0,2.21,1.12,2.89,2.89,0,0,0,1.95-.58,3.15,3.15,0,0,0,.91-2Z" class="cls-3" transform="translate(-1.35)"/><path d="M238,224.69a7.06,7.06,0,0,1-.58,3,4.33,4.33,0,0,1-1.62,1.94,4.44,4.44,0,0,1-2.45.67,4.39,4.39,0,0,1-2.43-.67,4.45,4.45,0,0,1-1.65-1.92,6.9,6.9,0,0,1-.6-2.89V224a7,7,0,0,1,.58-2.95,4.47,4.47,0,0,1,1.65-2,4.42,4.42,0,0,1,2.43-.68,4.5,4.5,0,0,1,2.46.68,4.32,4.32,0,0,1,1.63,1.95,7.06,7.06,0,0,1,.58,3Zm-1.52-.75a5.23,5.23,0,0,0-.83-3.17,2.76,2.76,0,0,0-2.32-1.1,2.7,2.7,0,0,0-2.28,1.1,5.1,5.1,0,0,0-.86,3.06v.86a5.2,5.2,0,0,0,.84,3.14,2.95,2.95,0,0,0,4.61.06,5.21,5.21,0,0,0,.84-3.09Z" class="cls-3" transform="translate(-1.35)"/><path d="M248.78,218.51l3.79,9.47,3.8-9.47h2v11.6h-1.53v-4.52l.14-4.87-3.8,9.39H252l-3.79-9.37.15,4.85v4.52h-1.53v-11.6Z" class="cls-3" transform="translate(-1.35)"/></g><g id="logo-icon"><path id="icon-base" d="M162.71,0A17.75,17.75,0,0,1,178.1,8.9l32,55.49a17.75,17.75,0,0,1,0,17.72l-32,55.49a17.76,17.76,0,0,1-15.39,8.89H98.9a17.76,17.76,0,0,1-15.39-8.89L51.56,82.11a17.75,17.75,0,0,1,0-17.72l32-55.49A17.75,17.75,0,0,1,98.9,0Z" class="cls-4" transform="translate(-1.35)"/><g class="cls-5"><path d="M145.14,30c18.28,3.61,26.34,45.49,5.92,50,1.67,1.49,6.24,3.34,10,8.53,8.47,11.78,4.07,20,4.32,24.86a38.6,38.6,0,0,0,7.32-7.4c8.43-10.86,12.49-24,9.6-37.88-.9,1.11-1,1.91-2.31,3.17C180.4,53.85,164.38,29,145.14,30m-9.49,85.67c-13-5.29-44.57-6.41-56.19-21.43,6,13,20.18,17.84,33.88,20.84,12.74,2.8,28.47.86,32.32,15,2.43-5.93-3.72-11.86-10-14.42m8.42,14.19c-3.15-10.88-27.81-10.57-47.85-16.57-2.87-.86-10.49-3.6-11.62-4.45,21,16.1,41.22,9.27,55.57,17.71,2.53,1.54,2.17,1.81,3.9,3.31m8.29-67.38c-.11-9.93-8.11-10-13.64-10.27-1.28-.06-8-2.31-12.87.08l-3.11-.05c-2.08,0-4.9.24-6.66-1.1l-1.49-1.48-.29-.28a9.8,9.8,0,0,0,2.44,6.35c.88,1,3.37,2.92,5.16,3l-2.14,6.4c-4.25,16.91,6.77,19.71,18,27.82,5.91,4.28,12.7,10.47,11.71,18.55,0-1.93-2.79-6.52-3.83-7.94C134.14,87.83,84.94,77,111.72,37.26a33.78,33.78,0,0,1,31.16-15.18c-1.18-.23-2.46-.5-3.28-.58C108.68,18.29,83,41.38,81.84,72.15l-2.43-5.38c-2.07,4.61-1.8,15.6.57,20.44,4.91,12.15,21,17.38,32.56,20.26,16.06,4,38.11,3.46,34.51,21.41,7.08-1.73,17.2-18.37,16-27.36a26.22,26.22,0,0,0-19.88-22c-2-.47-2.9-.52-4.59-1.59-1.44-.93-2.3-2.34-3.4-2.81a21,21,0,0,1-1.67-4.46,11,11,0,0,1,4-10.22c5-4.12,10.28-1.22,14.82,2m-18.08-8,.15.1a.89.89,0,0,1-.05,1.48l-.15.1a.87.87,0,0,1-.5.13l-2.4-.07a1,1,0,0,1-.49-.17l-.14-.1a.89.89,0,0,1,0-1.48l.15-.09a.83.83,0,0,1,.5-.14l2.4.07A.93.93,0,0,1,134.28,54.51Z" class="cls-6" transform="translate(-1.35)"/></g></g></g></g></g></svg>