<svg xmlns="http://www.w3.org/2000/svg" xmlns:xlink="http://www.w3.org/1999/xlink" viewBox="0 0 262.8 235.94"><defs><style>.cls-1{fill:none}.cls-2{fill:url(#linear-gradient)}.cls-3{clip-path:url(#clip-path)}.cls-4{fill:#fff;fill-rule:evenodd}</style><linearGradient id="linear-gradient" x1="-628.77" x2="-627.85" y1="742.31" y2="740.37" gradientTransform="matrix(123.63, 0, 0, -111, 77819.22, 82421.51)" gradientUnits="userSpaceOnUse"><stop offset="0" stop-color="#00c4ff"/><stop offset="1" stop-color="#1a69f4"/></linearGradient><clipPath id="clip-path"><rect width="165.86" height="171.68" x="45.12" y="34.69" class="cls-1"/></clipPath></defs><g id="Layer_2" data-name="Layer 2"><g id="Layer_1-2" data-name="Layer 1"><g id="phenix"><path id="icon-base" d="M182.74,0a28.65,28.65,0,0,1,24.81,14.32L259,103.7a28.6,28.6,0,0,1,0,28.55l-51.43,89.37a28.65,28.65,0,0,1-24.81,14.32H80a28.58,28.58,0,0,1-24.77-14.32L3.81,132.25a28.67,28.67,0,0,1,0-28.56L55.19,14.32A28.63,28.63,0,0,1,80,0Z" class="cls-2"/><g class="cls-3"><path d="M151,48.53c28.82,5.69,41.52,71.73,9.33,78.85,2.63,2.34,9.83,5.26,15.72,13.45,13.35,18.57,6.42,31.56,6.81,39.2a60.78,60.78,0,0,0,11.54-11.67c13.3-17.13,19.71-37.78,15.14-59.73-1.42,1.75-1.5,3-3.63,5C206.58,86.17,181.31,47,151,48.53m-15,135.1c-20.55-8.36-70.28-10.11-88.6-33.8,9.47,20.5,31.82,28.12,53.42,32.86,20.09,4.41,44.89,1.36,51,23.67,3.83-9.35-5.87-18.7-15.79-22.73M149.29,206c-5-17.16-43.86-16.67-75.45-26.14-4.53-1.35-16.55-5.68-18.34-7,33.11,25.39,65,14.62,87.63,27.92,4,2.44,3.44,2.86,6.16,5.23M162.36,99.75c-.17-15.66-12.78-15.78-21.51-16.2-2-.1-12.65-3.64-20.29.12l-4.91-.06c-3.28,0-7.72.36-10.5-1.74l-2.36-2.34c-.11-.11-.29-.31-.45-.45a15.53,15.53,0,0,0,3.85,10c1.4,1.55,5.32,4.61,8.14,4.66L111,103.86c-6.71,26.67,10.68,31.08,28.33,43.87,9.33,6.75,20,16.51,18.47,29.25.05-3-4.4-10.28-6-12.52C133.62,139.75,56.05,122.69,98.27,60c10.52-15.62,28.3-25.68,49.13-23.94-1.85-.36-3.86-.78-5.16-.92C93.48,30.1,53,66.5,51.16,115l-3.83-8.48c-3.27,7.27-2.84,24.59.89,32.22,7.74,19.17,33.07,27.41,51.35,31.95,25.32,6.29,60.1,5.46,54.41,33.76,11.17-2.73,27.13-29,25.2-43.14a41.31,41.31,0,0,0-31.34-34.67c-3.17-.74-4.57-.82-7.23-2.52-2.29-1.46-3.64-3.69-5.38-4.42-.87-2.3-2.18-4.29-2.63-7A17.28,17.28,0,0,1,139,96.58c7.91-6.5,16.21-1.93,23.37,3.17M133.73,87.12l1,.7a.89.89,0,0,1,0,1.48l-1,.64a.87.87,0,0,1-.5.13L129.05,90a1,1,0,0,1-.5-.17l-1-.7a.9.9,0,0,1,0-1.48l1-.64a.89.89,0,0,1,.5-.13l4.1.12A1,1,0,0,1,133.73,87.12Z" class="cls-4"/></g></g></g></g></svg>