<svg xmlns="http://www.w3.org/2000/svg" xmlns:xlink="http://www.w3.org/1999/xlink" viewBox="0 0 257.38 231"><defs><style>.cls-1{fill:none}.cls-2{fill:url(#linear-gradient)}.cls-3{clip-path:url(#clip-path)}.cls-4{fill:#fff;fill-rule:evenodd}</style><linearGradient id="linear-gradient" x1="36.93" x2="245.55" y1="57.29" y2="189.63" gradientUnits="userSpaceOnUse"><stop offset="0" stop-color="#f8c35b"/><stop offset=".48" stop-color="#f9ae5c"/><stop offset=".98" stop-color="#fb955d"/></linearGradient><clipPath id="clip-path"><rect width="165.86" height="171.68" x="45.45" y="33.43" class="cls-1"/></clipPath></defs><g id="Layer_2" data-name="Layer 2"><g id="Layer_1-2" data-name="Layer 1"><g id="logo-icon"><path id="icon-base" d="M179,0a28,28,0,0,1,24.27,14l50.38,87.5a28,28,0,0,1,0,27.94L203.27,217A28,28,0,0,1,179,231H78.38a28,28,0,0,1-24.27-14L3.73,129.47a28,28,0,0,1,0-27.94L54.11,14A28,28,0,0,1,78.38,0Z" class="cls-2"/><g class="cls-3"><path d="M151.3,47.27c28.83,5.69,41.52,71.73,9.33,78.85,2.63,2.34,9.83,5.27,15.72,13.46,13.35,18.57,6.42,31.55,6.81,39.19a61,61,0,0,0,11.54-11.66C208,150,214.41,129.33,209.84,107.37c-1.41,1.76-1.5,3-3.63,5,.69-27.45-24.58-66.6-54.91-65.09m-15,135.1c-20.55-8.35-70.28-10.11-88.6-33.79,9.47,20.49,31.82,28.12,53.42,32.86,20.09,4.41,44.89,1.35,51,23.67,3.83-9.35-5.87-18.71-15.79-22.74m13.28,22.37c-5-17.16-43.86-16.66-75.45-26.13-4.53-1.36-16.55-5.68-18.34-7,33.11,25.39,65,14.62,87.63,27.93,4,2.43,3.44,2.85,6.16,5.22M162.68,98.49c-.17-15.65-12.78-15.78-21.51-16.19-2-.1-12.65-3.65-20.29.12L116,82.35c-3.28,0-7.72.37-10.5-1.74l-2.36-2.33c-.11-.11-.28-.31-.44-.45a15.44,15.44,0,0,0,3.85,10c1.39,1.55,5.31,4.6,8.13,4.66l-3.38,10.1c-6.71,26.67,10.68,31.07,28.34,43.86,9.32,6.75,20,16.52,18.46,29.26.05-3-4.39-10.28-6-12.53-18.09-24.71-95.66-41.77-53.44-104.44,10.52-15.62,28.3-25.68,49.13-23.95-1.85-.36-3.86-.78-5.16-.91-48.76-5-89.23,31.34-91.08,79.88l-3.83-8.49c-3.27,7.27-2.84,24.6.89,32.22,7.75,19.17,33.07,27.41,51.35,32,25.32,6.29,60.1,5.45,54.41,33.75,11.17-2.73,27.13-29,25.2-43.14a41.32,41.32,0,0,0-31.34-34.67c-3.17-.74-4.57-.81-7.23-2.52-2.29-1.46-3.63-3.68-5.38-4.42-.87-2.3-2.18-4.28-2.63-7a17.29,17.29,0,0,1,6.39-16.11c7.91-6.5,16.22-1.94,23.37,3.16M134.05,85.86l1,.7A.89.89,0,0,1,135,88l-1,.64a1,1,0,0,1-.5.14l-4.09-.13a.84.84,0,0,1-.5-.17l-1-.7a.89.89,0,0,1,0-1.47l1-.64a.9.9,0,0,1,.5-.14l4.1.13A.89.89,0,0,1,134.05,85.86Z" class="cls-4"/></g></g></g></g></svg>