<svg xmlns="http://www.w3.org/2000/svg" xmlns:xlink="http://www.w3.org/1999/xlink" viewBox="0 0 492.28 344.78"><defs><style>.cls-1{fill:none}.cls-2{fill:url(#linear-gradient)}.cls-3{clip-path:url(#clip-path)}.cls-4{fill:#fff;fill-rule:evenodd}.cls-5{fill:#0c97f9}.cls-6{fill:#1c1c1c}</style><linearGradient id="linear-gradient" x1="-44.27" x2="-43.36" y1="738.28" y2="736.35" gradientTransform="matrix(123.63, 0, 0, -111, 5675.28, 81974.36)" gradientUnits="userSpaceOnUse"><stop offset="0" stop-color="#00c4ff"/><stop offset="1" stop-color="#1a69f4"/></linearGradient><clipPath id="clip-path" transform="translate(-3.72)"><rect width="165.86" height="171.68" x="164.19" y="34.69" class="cls-1"/></clipPath></defs><g id="Layer_2" data-name="Layer 2"><g id="Layer_1-2" data-name="Layer 1"><g id="logo"><g id="phenix"><path id="icon-base" d="M301.81,0a28.65,28.65,0,0,1,24.8,14.32l51.44,89.38a28.65,28.65,0,0,1,0,28.55l-51.44,89.37a28.65,28.65,0,0,1-24.8,14.32H199a28.6,28.6,0,0,1-24.78-14.32l-51.38-89.37a28.67,28.67,0,0,1,0-28.56l51.38-89.37A28.64,28.64,0,0,1,199,0Z" class="cls-2" transform="translate(-3.72)"/><g class="cls-3"><path d="M270,48.53c28.83,5.69,41.52,71.73,9.33,78.85,2.63,2.34,9.83,5.26,15.72,13.45,13.35,18.57,6.43,31.56,6.81,39.2a60.78,60.78,0,0,0,11.54-11.67c13.31-17.13,19.71-37.78,15.15-59.73-1.42,1.75-1.51,3-3.64,5C325.64,86.17,300.37,47,270,48.53m-15,135.1c-20.55-8.36-70.28-10.11-88.6-33.8,9.47,20.5,31.83,28.12,53.43,32.86,20.08,4.41,44.88,1.36,51,23.67,3.84-9.35-5.87-18.7-15.79-22.73M268.35,206c-5-17.16-43.86-16.67-75.45-26.14-4.53-1.35-16.55-5.68-18.33-7,33.1,25.39,65,14.62,87.63,27.92,4,2.44,3.43,2.86,6.15,5.23M281.42,99.75c-.17-15.66-12.78-15.78-21.5-16.2-2-.1-12.66-3.64-20.29.12l-4.92-.06c-3.28,0-7.71.36-10.5-1.74l-2.35-2.34c-.11-.11-.29-.31-.45-.45a15.42,15.42,0,0,0,3.85,10c1.39,1.55,5.31,4.61,8.14,4.66L230,103.86c-6.7,26.67,10.69,31.08,28.34,43.87,9.33,6.75,20,16.51,18.47,29.25,0-3-4.4-10.28-6-12.52C252.69,139.75,175.11,122.69,217.33,60c10.53-15.62,28.31-25.68,49.14-23.94-1.86-.36-3.87-.78-5.17-.92-48.75-5-89.23,31.35-91.08,79.88l-3.83-8.48c-3.27,7.27-2.84,24.59.89,32.22,7.75,19.17,33.07,27.41,51.35,31.95C244,177,278.73,176.18,273,204.48c11.17-2.73,27.13-29,25.2-43.14a41.3,41.3,0,0,0-31.34-34.67c-3.17-.74-4.57-.82-7.23-2.52-2.29-1.46-3.63-3.69-5.37-4.42-.88-2.3-2.19-4.29-2.64-7a17.3,17.3,0,0,1,6.39-16.11c7.92-6.5,16.22-1.93,23.37,3.17M252.79,87.12l1,.7a.89.89,0,0,1-.05,1.48l-1,.64a.87.87,0,0,1-.5.13L248.11,90a.93.93,0,0,1-.49-.17l-1-.7a.89.89,0,0,1,.05-1.48l1-.64a.9.9,0,0,1,.51-.13l4.09.12A.93.93,0,0,1,252.79,87.12Z" class="cls-4" transform="translate(-3.72)"/></g></g><g id="logo-icon"><path d="M3.72,258.12h26q6.51,0,9.45,2.95t2.95,9.45v6.2q0,6.51-2.95,9.46t-9.45,2.94H14.88v12.4H3.72ZM31,270.52q0-3.72-3.72-3.72H14.88v13.64h12.4q3.72,0,3.72-3.72Z" class="cls-5" transform="translate(-3.72)"/><path d="M85.56,301.52H74.4V283.85H58.9v17.67H47.74v-43.4H58.9v17.05H74.4V258.12H85.56Z" class="cls-5" transform="translate(-3.72)"/><path d="M127.41,301.52H93v-43.4h34.41v8.68H104.16v8.37h18.29v8.68H104.16v9h23.25Z" class="cls-5" transform="translate(-3.72)"/><path d="M170.19,301.52H158.41l-14.88-26v26H132.37v-43.4h11.78l14.88,26v-26h11.16Z" class="cls-5" transform="translate(-3.72)"/><path d="M198.09,301.52H175.77v-8.68h5.58v-26h-5.58v-8.68h22.32v8.68h-5.58v26h5.58Z" class="cls-5" transform="translate(-3.72)"/><path d="M228.78,258.12h12.4l-14,21.7,14.26,21.7h-12.4l-8.68-13.64-8.68,13.64h-12.4l14.26-21.7-14-21.7H212l8.43,13.64Z" class="cls-5" transform="translate(-3.72)"/><path d="M287.37,258.12q7,0,10.63,3.63t3.63,10.63v14.88q0,7-3.63,10.64t-10.63,3.62H263.19v-43.4Zm3.1,14.26q0-5.58-5.58-5.58H274.35v26h10.54q5.58,0,5.58-5.58Z" class="cls-5" transform="translate(-3.72)"/><path d="M342.24,301.52H307.83v-43.4h34.41v8.68H319v8.37h18.29v8.68H319v9h23.25Z" class="cls-5" transform="translate(-3.72)"/><path d="M345.89,292.53q17,.93,23,.93a2.88,2.88,0,0,0,3.1-3.1v-5.58H357.74q-6.51,0-9.46-2.94t-2.94-9.46v-1.86q0-6.51,2.94-9.45t9.46-2.95H379.5v8.68H360.22q-3.72,0-3.72,3.72v1.24q0,3.72,3.72,3.72h11.16q6.08,0,8.92,2.85c1.9,1.91,2.86,4.88,2.86,8.93v3.1c0,4.05-1,7-2.86,8.93s-4.87,2.85-8.92,2.85q-3.17,0-6.7-.12l-5.7-.25q-6.33-.31-13.09-.87Z" class="cls-5" transform="translate(-3.72)"/><path d="M409.2,301.52H386.88v-8.68h5.58v-26h-5.58v-8.68H409.2v8.68h-5.58v26h5.58Z" class="cls-5" transform="translate(-3.72)"/><path d="M452,300.59a250.79,250.79,0,0,1-26.66,1.55c-4.06,0-7-.95-8.93-2.85s-2.85-4.88-2.85-8.93V270.52q0-6.51,2.94-9.45t9.46-2.95h22.32v8.68H428.42q-3.72,0-3.72,3.72v19.84a2.87,2.87,0,0,0,3.1,3.1q7.13,0,13-.31v-9h-8.06v-7.44H452Z" class="cls-5" transform="translate(-3.72)"/><path d="M496,301.52H484.22l-14.88-26v26H458.18v-43.4H470l14.88,26v-26H496Z" class="cls-5" transform="translate(-3.72)"/><path d="M42,336.36H34.23v8.16H31.79V326H43.24v2h-9v6.34H42Z" class="cls-6" transform="translate(-3.72)"/><path d="M60.74,337.05H56.4v7.47H54V326h6.12a7.22,7.22,0,0,1,4.8,1.42,5.13,5.13,0,0,1,1.68,4.14,5,5,0,0,1-.93,3,5.56,5.56,0,0,1-2.6,1.91l4.35,7.85v.15H64.75Zm-4.34-2h3.74a4.22,4.22,0,0,0,2.89-.94,3.17,3.17,0,0,0,1.07-2.52,3.35,3.35,0,0,0-1-2.63,4.32,4.32,0,0,0-2.95-.93H56.4Z" class="cls-6" transform="translate(-3.72)"/><path d="M92,335.88a11.42,11.42,0,0,1-.92,4.74,6.9,6.9,0,0,1-2.59,3.09,7.15,7.15,0,0,1-10.4-3.07,11,11,0,0,1-1-4.6v-1.33a11.25,11.25,0,0,1,.93-4.71,7.27,7.27,0,0,1,10.41-3.14A6.88,6.88,0,0,1,91.07,330a11.49,11.49,0,0,1,.92,4.74Zm-2.43-1.2a8.27,8.27,0,0,0-1.32-5,4.7,4.7,0,0,0-7.33,0,8.11,8.11,0,0,0-1.36,4.88v1.36a8.28,8.28,0,0,0,1.34,5,4.69,4.69,0,0,0,7.34.1,8.24,8.24,0,0,0,1.33-4.93Z" class="cls-6" transform="translate(-3.72)"/><path d="M117.65,344.52H115.2l-9.31-14.24v14.24h-2.45V326h2.45l9.33,14.31V326h2.43Z" class="cls-6" transform="translate(-3.72)"/><path d="M142.18,328h-5.94v16.49h-2.42V328h-5.93v-2h14.29Z" class="cls-6" transform="translate(-3.72)"/><path d="M154.3,337.63h-6.2v-1.92h6.2Z" class="cls-6" transform="translate(-3.72)"/><path d="M175.2,336h-8v6.55h9.3v2H164.75V326h11.62v2h-9.18v6h8Z" class="cls-6" transform="translate(-3.72)"/><path d="M201.54,344.52h-2.46l-9.3-14.24v14.24h-2.45V326h2.45l9.33,14.31V326h2.43Z" class="cls-6" transform="translate(-3.72)"/><path d="M213.66,344.52V326h5.22a8.43,8.43,0,0,1,4.27,1.06,7.3,7.3,0,0,1,2.86,3,9.93,9.93,0,0,1,1,4.52v1.18a9.81,9.81,0,0,1-1,4.58,7.06,7.06,0,0,1-2.88,3,8.78,8.78,0,0,1-4.36,1.08ZM216.1,328v14.5h2.57a5.57,5.57,0,0,0,4.38-1.75,7.24,7.24,0,0,0,1.57-5V334.7a7.35,7.35,0,0,0-1.48-4.9A5.27,5.27,0,0,0,219,328Z" class="cls-6" transform="translate(-3.72)"/><path d="M262.94,336.36h-7.75v8.16h-2.44V326H264.2v2h-9v6.34h7.75Z" class="cls-6" transform="translate(-3.72)"/><path d="M281.7,337.05h-4.34v7.47h-2.45V326H281a7.22,7.22,0,0,1,4.8,1.42,5.13,5.13,0,0,1,1.69,4.14,5,5,0,0,1-.94,3,5.58,5.58,0,0,1-2.59,1.91l4.34,7.85v.15h-2.62Zm-4.34-2h3.74a4.21,4.21,0,0,0,2.89-.94,3.17,3.17,0,0,0,1.07-2.52,3.35,3.35,0,0,0-1-2.63,4.32,4.32,0,0,0-3-.93h-3.73Z" class="cls-6" transform="translate(-3.72)"/><path d="M308.94,339.69h-7.75l-1.74,4.83h-2.51L304,326h2.13l7.07,18.48h-2.5Zm-7-2h6.28l-3.14-8.64Z" class="cls-6" transform="translate(-3.72)"/><path d="M326.64,326l6,15.08L338.73,326h3.16v18.48h-2.44v-7.2l.23-7.76-6.07,15h-1.87l-6.05-14.93.24,7.73v7.2h-2.44V326Z" class="cls-6" transform="translate(-3.72)"/><path d="M364.44,336h-8v6.55h9.3v2H354V326h11.62v2h-9.18v6h8Z" class="cls-6" transform="translate(-3.72)"/><path d="M380.55,338.7l.36,2.43.52-2.19,3.66-12.9h2.05l3.57,12.9.51,2.23.39-2.49L394.48,326h2.45l-4.48,18.48h-2.22l-3.81-13.47-.29-1.41-.29,1.41-3.95,13.47h-2.22L375.2,326h2.43Z" class="cls-6" transform="translate(-3.72)"/><path d="M421.65,335.88a11.42,11.42,0,0,1-.91,4.74,6.9,6.9,0,0,1-2.59,3.09,7.14,7.14,0,0,1-3.91,1.07,6.91,6.91,0,0,1-6.49-4.14,10.7,10.7,0,0,1-1-4.6v-1.33a11.41,11.41,0,0,1,.92-4.71,7.28,7.28,0,0,1,10.42-3.14,6.88,6.88,0,0,1,2.61,3.11,11.49,11.49,0,0,1,.91,4.74Zm-2.42-1.2a8.27,8.27,0,0,0-1.32-5,4.36,4.36,0,0,0-3.7-1.76,4.3,4.3,0,0,0-3.63,1.76,8.11,8.11,0,0,0-1.37,4.88v1.36a8.35,8.35,0,0,0,1.34,5,4.7,4.7,0,0,0,7.35.1,8.31,8.31,0,0,0,1.33-4.93Z" class="cls-6" transform="translate(-3.72)"/><path d="M439.89,337.05h-4.34v7.47H433.1V326h6.12a7.22,7.22,0,0,1,4.8,1.42,5.13,5.13,0,0,1,1.68,4.14,5,5,0,0,1-.93,3,5.56,5.56,0,0,1-2.6,1.91l4.35,7.85v.15H443.9Zm-4.34-2h3.74a4.21,4.21,0,0,0,2.89-.94,3.17,3.17,0,0,0,1.07-2.52,3.35,3.35,0,0,0-1-2.63,4.32,4.32,0,0,0-3-.93h-3.73Z" class="cls-6" transform="translate(-3.72)"/><path d="M461.62,335.93l-2.26,2.35v6.24h-2.44V326h2.44v9.14l8.21-9.14h2.95l-7.28,8.16,7.85,10.32h-2.92Z" class="cls-6" transform="translate(-3.72)"/></g></g></g></g></svg>