<svg xmlns="http://www.w3.org/2000/svg" xmlns:xlink="http://www.w3.org/1999/xlink" viewBox="0 0 502.66 110.77"><defs><style>.cls-1{fill:none}.cls-2{fill:#0c97f9}.cls-3{fill:#1c1c1c}.cls-4{fill:url(#linear-gradient)}.cls-5{clip-path:url(#clip-path)}.cls-6{fill:#fff;fill-rule:evenodd}</style><linearGradient id="linear-gradient" x1="-37.14" x2="-36.71" y1="318" y2="317.09" gradientTransform="matrix(123.63, 0, 0, -111, 4630.69, 35310.02)" gradientUnits="userSpaceOnUse"><stop offset="0" stop-color="#00c4ff"/><stop offset="1" stop-color="#1a69f4"/></linearGradient><clipPath id="clip-path"><rect width="72.33" height="74.87" x="25.05" y="21.34" class="cls-1"/></clipPath></defs><g id="Layer_2" data-name="Layer 2"><g id="Layer_1-2" data-name="Layer 1"><g id="logo"><g id="logo-text"><path d="M143.44,23.93h19c3.17,0,5.47.71,6.9,2.15s2.15,3.73,2.15,6.9V37.5q0,4.76-2.15,6.9t-6.9,2.15H151.58V55.6h-8.14Zm19.9,9a2.4,2.4,0,0,0-2.71-2.72h-9v10h9a2.39,2.39,0,0,0,2.71-2.71Z" class="cls-2"/><path d="M203.16,55.6H195V42.7H183.7V55.6h-8.14V23.93h8.14V36.37H195V23.93h8.15Z" class="cls-2"/><path d="M233.7,55.6H208.59V23.93H233.7v6.33h-17v6.11h13.35V42.7H216.73v6.56h17Z" class="cls-2"/><path d="M264.91,55.6h-8.59l-10.86-19v19h-8.14V23.93h8.59l10.86,19v-19h8.14Z" class="cls-2"/><path d="M285.27,55.6H269V49.26h4.07v-19H269V23.93h16.28v6.33H281.2v19h4.07Z" class="cls-2"/><path d="M307.67,23.93h9.05L306.54,39.76l10.4,15.84h-9.05l-6.33-10-6.33,10h-9.05l10.4-15.84L286.4,23.93h9l6.15,10Z" class="cls-2"/><path d="M350.42,23.93q5.11,0,7.76,2.64c1.76,1.77,2.65,4.35,2.65,7.76V45.19c0,3.41-.89,6-2.65,7.76s-4.35,2.65-7.76,2.65H332.78V23.93Zm2.26,10.4c0-2.71-1.35-4.07-4.07-4.07h-7.69v19h7.69c2.72,0,4.07-1.36,4.07-4.07Z" class="cls-2"/><path d="M390.46,55.6H365.35V23.93h25.11v6.33h-17v6.11h13.35V42.7H373.49v6.56h17Z" class="cls-2"/><path d="M393.13,49q12.39.68,16.78.67a2.11,2.11,0,0,0,2.27-2.26V43.38H401.77q-4.75,0-6.9-2.15t-2.15-6.9V33q0-4.75,2.15-6.9c1.43-1.44,3.73-2.15,6.9-2.15h15.88v6.33H403.58A2.4,2.4,0,0,0,400.87,33v.9a2.39,2.39,0,0,0,2.71,2.71h8.14q4.44,0,6.52,2.09t2.08,6.51v2.26q0,4.44-2.08,6.52t-6.52,2.08c-1.53,0-3.16,0-4.88-.09l-4.16-.18q-4.62-.22-9.55-.64Z" class="cls-2"/><path d="M439.32,55.6H423V49.26h4.07v-19H423V23.93h16.28v6.33h-4.07v19h4.07Z" class="cls-2"/><path d="M470.54,54.92a185.25,185.25,0,0,1-19.45,1.13q-4.44,0-6.52-2.08t-2.08-6.52V33q0-4.75,2.15-6.9c1.43-1.44,3.73-2.15,6.9-2.15h16.29v6.33H453.35A2.4,2.4,0,0,0,450.63,33V47.45a2.11,2.11,0,0,0,2.27,2.26q5.19,0,9.5-.22V42.93h-5.89V37.5h14Z" class="cls-2"/><path d="M502.66,55.6h-8.59l-10.86-19v19h-8.15V23.93h8.6l10.86,19v-19h8.14Z" class="cls-2"/><path d="M155.27,76.63h-6.1V83h-2.63V67.89h9.62V70h-7v4.5h6.1Z" class="cls-3"/><path d="M168.06,77.21h-2.93V83H162.5V67.89h5.32a6.14,6.14,0,0,1,4,1.18,4.14,4.14,0,0,1,1.43,3.4,4.24,4.24,0,0,1-.74,2.54,4.55,4.55,0,0,1-2,1.58l3.4,6.3V83h-2.82Zm-2.93-2.12h2.7a3,3,0,0,0,2.08-.68,2.31,2.31,0,0,0,.75-1.83A2.48,2.48,0,0,0,170,70.7,3,3,0,0,0,167.9,70h-2.77Z" class="cls-3"/><path d="M192.12,75.86a9.33,9.33,0,0,1-.77,3.9,5.76,5.76,0,0,1-2.2,2.58,6.45,6.45,0,0,1-6.57,0,5.89,5.89,0,0,1-2.22-2.57,8.88,8.88,0,0,1-.8-3.83v-.85a9.1,9.1,0,0,1,.79-3.91,5.91,5.91,0,0,1,2.21-2.6,6.46,6.46,0,0,1,6.56,0,5.85,5.85,0,0,1,2.21,2.56,9.23,9.23,0,0,1,.79,3.88Zm-2.63-.8a6.63,6.63,0,0,0-1-3.85,3.37,3.37,0,0,0-5.37,0,6.54,6.54,0,0,0-1,3.78v.88a6.61,6.61,0,0,0,1,3.85,3.13,3.13,0,0,0,2.7,1.36,3.09,3.09,0,0,0,2.69-1.33,6.65,6.65,0,0,0,.94-3.88Z" class="cls-3"/><path d="M211,83h-2.63l-6.75-10.74V83H199V67.89h2.63l6.77,10.78V67.89H211Z" class="cls-3"/><path d="M229,70h-4.72V83h-2.61V70H217V67.89h12Z" class="cls-3"/><path d="M237.08,77.61h-5.46v-2h5.46Z" class="cls-3"/><path d="M252.51,76.27H246.3v4.64h7.26V83h-9.89V67.89h9.82V70H246.3v4.18h6.21Z" class="cls-3"/><path d="M272,83h-2.63l-6.75-10.74V83H260V67.89h2.63l6.77,10.78V67.89H272Z" class="cls-3"/><path d="M279.34,83V67.89h4.47a7,7,0,0,1,3.56.9,6.13,6.13,0,0,1,2.41,2.53,8.18,8.18,0,0,1,.85,3.77v.75a8.05,8.05,0,0,1-.86,3.79,6,6,0,0,1-2.44,2.51,7.35,7.35,0,0,1-3.64.89ZM282,70v10.9h1.71a3.94,3.94,0,0,0,3.18-1.3,5.62,5.62,0,0,0,1.13-3.7v-.85a5.78,5.78,0,0,0-1.07-3.75,3.8,3.8,0,0,0-3.11-1.3Z" class="cls-3"/><path d="M315.79,76.63H309.7V83h-2.63V67.89h9.61V70h-7v4.5h6.09Z" class="cls-3"/><path d="M328.58,77.21h-2.93V83H323V67.89h5.32a6.17,6.17,0,0,1,4.05,1.18,4.14,4.14,0,0,1,1.42,3.4,4.24,4.24,0,0,1-.73,2.54A4.63,4.63,0,0,1,331,76.59l3.4,6.3V83h-2.81Zm-2.93-2.12h2.7a3,3,0,0,0,2.08-.68,2.31,2.31,0,0,0,.75-1.83,2.48,2.48,0,0,0-.69-1.88,2.93,2.93,0,0,0-2.06-.69h-2.78Z" class="cls-3"/><path d="M349,79.5h-5.87L342,83h-2.74l5.72-15.14h2.36L353,83h-2.75Zm-5.13-2.12h4.39l-2.2-6.28Z" class="cls-3"/><path d="M362.4,67.89l4.37,11.6,4.35-11.6h3.4V83H371.9V78l.26-6.68L367.69,83h-1.88l-4.46-11.66.26,6.67v5H359V67.89Z" class="cls-3"/><path d="M390.74,76.27h-6.22v4.64h7.27V83h-9.9V67.89h9.82V70h-7.19v4.18h6.22Z" class="cls-3"/><path d="M410.06,79.29l2.33-11.4H415L411.5,83H409l-2.88-11-2.94,11h-2.53l-3.49-15.14h2.61l2.35,11.37L405,67.89h2.2Z" class="cls-3"/><path d="M433.26,75.86a9.33,9.33,0,0,1-.77,3.9,5.82,5.82,0,0,1-2.2,2.58,6.45,6.45,0,0,1-6.57,0,6,6,0,0,1-2.23-2.57,9,9,0,0,1-.79-3.83v-.85a9.25,9.25,0,0,1,.78-3.91,5.8,5.8,0,0,1,5.5-3.5,6.11,6.11,0,0,1,3.28.89,5.85,5.85,0,0,1,2.21,2.56,9.23,9.23,0,0,1,.79,3.88Zm-2.63-.8a6.63,6.63,0,0,0-.95-3.85,3.37,3.37,0,0,0-5.37,0,6.47,6.47,0,0,0-1,3.78v.88a6.54,6.54,0,0,0,1,3.85,3.13,3.13,0,0,0,2.7,1.36,3.1,3.1,0,0,0,2.69-1.33,6.73,6.73,0,0,0,.94-3.88Z" class="cls-3"/><path d="M445.7,77.21h-2.93V83h-2.63V67.89h5.32a6.16,6.16,0,0,1,4,1.18,4.14,4.14,0,0,1,1.43,3.4,4.24,4.24,0,0,1-.74,2.54,4.66,4.66,0,0,1-2,1.58l3.4,6.3V83h-2.82Zm-2.93-2.12h2.7a3,3,0,0,0,2.08-.68,2.31,2.31,0,0,0,.75-1.83,2.45,2.45,0,0,0-.7-1.88,2.92,2.92,0,0,0-2.06-.69h-2.77Z" class="cls-3"/><path d="M462,76.49l-1.72,1.82V83h-2.63V67.89h2.63V75l1.46-1.8,4.42-5.3h3.18l-5.62,6.71L469.7,83h-3.12Z" class="cls-3"/></g><g id="logo-icon"><path id="icon-base" d="M85.79,0A13.45,13.45,0,0,1,97.44,6.73l24.15,42a13.49,13.49,0,0,1,0,13.41L97.44,104a13.45,13.45,0,0,1-11.65,6.73H37.54A13.43,13.43,0,0,1,25.91,104L1.79,62.09a13.44,13.44,0,0,1,0-13.41L25.91,6.73A13.43,13.43,0,0,1,37.54,0Z" class="cls-4"/><g class="cls-5"><path d="M71.21,27.37c12.57,2.49,18.11,31.29,4.07,34.39,1.14,1,4.28,2.3,6.85,5.87,5.82,8.1,2.8,13.76,3,17.09a26.1,26.1,0,0,0,5-5.09c5.81-7.47,8.6-16.47,6.61-26a12.64,12.64,0,0,1-1.59,2.18c.3-12-10.72-29-23.94-28.39M64.68,86.29C55.72,82.65,34,81.88,26,71.55c4.13,8.94,13.88,12.27,23.3,14.33,8.76,1.93,19.58.59,22.23,10.33,1.67-4.08-2.56-8.16-6.89-9.92m5.79,9.76c-2.17-7.49-19.12-7.27-32.9-11.4a57.83,57.83,0,0,1-8-3.06C44,92.66,57.92,88,67.79,93.77c1.74,1.06,1.49,1.24,2.68,2.28m5.7-46.34c-.07-6.82-5.57-6.88-9.38-7.06-.88,0-5.52-1.59-8.85.05l-2.14,0c-1.43,0-3.36.16-4.58-.76l-1-1a1.7,1.7,0,0,0-.19-.2,6.68,6.68,0,0,0,1.68,4.37c.6.67,2.32,2,3.55,2l-1.48,4.41c-2.92,11.63,4.66,13.55,12.36,19.12,4.07,3,8.73,7.21,8,12.76,0-1.33-1.92-4.48-2.63-5.46C63.64,67.15,29.81,59.71,48.22,32.38A23.25,23.25,0,0,1,69.65,21.94c-.81-.16-1.69-.34-2.25-.4-21.26-2.2-38.92,13.67-39.72,34.84L26,52.68c-1.43,3.17-1.24,10.72.39,14.05,3.37,8.36,14.42,12,22.39,13.93C59.83,83.41,75,83,72.52,95.38c4.87-1.19,11.83-12.63,11-18.81A18,18,0,0,0,69.84,61.45a8,8,0,0,1-3.16-1.1c-1-.64-1.58-1.6-2.34-1.93a15,15,0,0,1-1.15-3.06,7.54,7.54,0,0,1,2.79-7c3.45-2.83,7.07-.84,10.19,1.38M63.76,44.26h0a.67.67,0,0,1,0,1.12h0a.65.65,0,0,1-.38.11l-1.61-.05a.64.64,0,0,1-.37-.13h0a.68.68,0,0,1,0-1.13h0a.66.66,0,0,1,.38-.1l1.61.05A.65.65,0,0,1,63.76,44.26Z" class="cls-6"/></g></g></g></g></g></svg>