<svg xmlns="http://www.w3.org/2000/svg" xmlns:xlink="http://www.w3.org/1999/xlink" viewBox="0 0 310.71 82.09"><defs><style>.cls-1{fill:none}.cls-2{fill:#f8c35b}.cls-3{fill:#cecece}.cls-4{fill:url(#linear-gradient)}.cls-5{clip-path:url(#clip-path)}.cls-6{fill:#fff;fill-rule:evenodd}</style><linearGradient id="linear-gradient" x1="233.69" x2="307.83" y1="20.36" y2="67.39" gradientUnits="userSpaceOnUse"><stop offset="0" stop-color="#f8c35b"/><stop offset=".48" stop-color="#f9ae5c"/><stop offset=".98" stop-color="#fb955d"/></linearGradient><clipPath id="clip-path" transform="translate(-1.32)"><rect width="58.94" height="61.01" x="236.72" y="11.88" class="cls-1"/></clipPath></defs><g id="Layer_2" data-name="Layer 2"><g id="Layer_1-2" data-name="Layer 1"><g id="logo"><g id="logo-text"><path d="M22.9,46.13a9.93,9.93,0,0,1-3-.4,4.61,4.61,0,0,1-2-1.13,2.45,2.45,0,0,1-.7-1.74A14.11,14.11,0,0,0,21,42.44a6.21,6.21,0,0,0,2.35-1.13,4.9,4.9,0,0,0,1.33-1.61,9.06,9.06,0,0,0,.69-1.86c.07-.29.16-.76.27-1.39s.24-1.36.38-2.17.28-1.66.42-2.54.26-1.71.39-2.51.22-1.48.31-2.05l.15,1.95-1.74-4.37A14.19,14.19,0,0,1,28,23.33a5.39,5.39,0,0,1,2.11-.47,2.76,2.76,0,0,1,1.8.55,1.77,1.77,0,0,1,.67,1.46,5.56,5.56,0,0,1-.07.74c0,.34-.11.86-.22,1.56s-.25,1.67-.45,2.92-.46,2.85-.77,4.81a36.72,36.72,0,0,1-1.27,5.63A11.09,11.09,0,0,1,28.11,44a5.16,5.16,0,0,1-2.26,1.7A8.41,8.41,0,0,1,22.9,46.13Zm7.46-25.61A2.46,2.46,0,0,1,28.67,20a1.89,1.89,0,0,1-.62-1.45,2.83,2.83,0,0,1,.89-2.17,3.25,3.25,0,0,1,2.25-.82,2.52,2.52,0,0,1,1.71.56,1.86,1.86,0,0,1,.63,1.47,2.78,2.78,0,0,1-.89,2.15A3.28,3.28,0,0,1,30.36,20.52ZM33.3,37.29a2.37,2.37,0,0,1-1.86-.66,3,3,0,0,1-.58-2l1.89,1.32H29.17l2.49-4.68a1.89,1.89,0,0,0,.47,1.35,1.79,1.79,0,0,0,1.3.47l2,0-.68,4.18Zm1.4,0,.68-4.18c.31,0,.5.18.56.56a5,5,0,0,1-.07,1.54,5.24,5.24,0,0,1-.43,1.53A.81.81,0,0,1,34.7,37.29Z" class="cls-2" transform="translate(-1.32)"/><path d="M34.73,37.29c-.31,0-.5-.19-.56-.57a4.9,4.9,0,0,1,.07-1.53,5.16,5.16,0,0,1,.43-1.52.81.81,0,0,1,.74-.56Zm0,0,.68-4.18h1.76a3.2,3.2,0,0,0,1.38-.27,3,3,0,0,0,.93-.69,1.88,1.88,0,0,0,.42-.78l1.17-7.15a17,17,0,0,1,2.54-1.88,10.26,10.26,0,0,1,5.29-1.43,9.49,9.49,0,0,1,4.22.88,6.42,6.42,0,0,1,2.77,2.48,7.15,7.15,0,0,1,1,3.82,9.67,9.67,0,0,1-.63,3.42,11.1,11.1,0,0,1-1.89,3.16,13,13,0,0,1-3.07,2.62H41.7l-.37-1.35h-.2a2.69,2.69,0,0,1-.88.89,2.87,2.87,0,0,1-1.7.46Zm9.78-2.49-1.46-1.69h8.06l-2.26.34a3.76,3.76,0,0,0,1.18-1,7.11,7.11,0,0,0,1.21-1.92,6.29,6.29,0,0,0,.52-2.6,3.35,3.35,0,0,0-.6-2.07A2.6,2.6,0,0,0,49,25.1a5.78,5.78,0,0,0-2.2.42,6.34,6.34,0,0,0-1.65.93l1-2.21Zm3.3,2.49.65-4.18H58.65L58,37.29Zm10.16,0,.68-4.18c.31,0,.5.18.56.56a5,5,0,0,1-.07,1.54,5.24,5.24,0,0,1-.43,1.53A.81.81,0,0,1,58,37.29Z" class="cls-2" transform="translate(-1.32)"/><path d="M59.66,44.37A2.46,2.46,0,0,1,58,43.81a1.89,1.89,0,0,1-.62-1.45,2.8,2.8,0,0,1,.9-2.17,3.21,3.21,0,0,1,2.25-.82,2.51,2.51,0,0,1,1.7.56,1.89,1.89,0,0,1,.63,1.47,2.76,2.76,0,0,1-.89,2.15A3.29,3.29,0,0,1,59.66,44.37ZM58,37.29c-.31,0-.5-.19-.56-.57a5.16,5.16,0,0,1,.06-1.53,5.86,5.86,0,0,1,.43-1.52.83.83,0,0,1,.74-.56Zm0,0,.67-4.18h4.84L61.8,34.82V33.06a9.22,9.22,0,0,1,.11-1.54,11.72,11.72,0,0,1,.29-1.32c.11-.42.22-.83.34-1.23a12.28,12.28,0,0,0,.28-1.2,6.73,6.73,0,0,0,.12-1.29,6.62,6.62,0,0,0-.14-1.37,2.44,2.44,0,0,0-.41-1,14,14,0,0,1,2.25-.94,7.09,7.09,0,0,1,2-.34,1.8,1.8,0,0,1,1.44.49,2,2,0,0,1,.43,1.36,6.66,6.66,0,0,1-.19,1.53c-.13.56-.29,1.13-.47,1.71s-.34,1.15-.47,1.71a7.07,7.07,0,0,0-.19,1.58,2,2,0,0,0,.43,1.4,1.69,1.69,0,0,0,1.31.47h2.24l-.68,4.18H67.83A2.37,2.37,0,0,1,66,36.63a3,3,0,0,1-.59-2l1.25,1.32H65.36l-.89,1.35Zm7.54,7.08a2.46,2.46,0,0,1-1.69-.56,1.86,1.86,0,0,1-.62-1.45,2.79,2.79,0,0,1,.89-2.17,3.25,3.25,0,0,1,2.25-.82,2.49,2.49,0,0,1,1.7.56,1.87,1.87,0,0,1,.64,1.47,2.77,2.77,0,0,1-.9,2.15A3.24,3.24,0,0,1,65.54,44.37Zm4.94-7.08.68-4.18c.31,0,.49.18.55.56a5.24,5.24,0,0,1-.06,1.54,5.57,5.57,0,0,1-.43,1.53A.82.82,0,0,1,70.48,37.29Z" class="cls-2" transform="translate(-1.32)"/><path d="M70.5,37.29c-.31,0-.49-.19-.55-.57A5.16,5.16,0,0,1,70,35.19a5.86,5.86,0,0,1,.43-1.52.82.82,0,0,1,.74-.56Zm0,0,.68-4.18h5.51l-2,.57c.06-.57.15-1.14.24-1.72s.2-1.13.31-1.69.23-1.08.36-1.58.23-1,.35-1.43l.3-1.22,0,1.37-1.69-2.57A12.85,12.85,0,0,1,77,23.45a6.79,6.79,0,0,1,2.58-.56,2.15,2.15,0,0,1,1.5.43,1.64,1.64,0,0,1,.47,1.26,7.83,7.83,0,0,1-.14,1.27c-.1.52-.22,1.11-.38,1.76s-.32,1.34-.49,2.07-.33,1.47-.47,2.22-.25,1.49-.34,2.22l-2.08,3.17Zm4.74-16.77A2.44,2.44,0,0,1,73.55,20a1.86,1.86,0,0,1-.63-1.45,2.8,2.8,0,0,1,.9-2.17,3.25,3.25,0,0,1,2.25-.82,2.49,2.49,0,0,1,1.7.56,1.84,1.84,0,0,1,.64,1.47,2.79,2.79,0,0,1-.9,2.15A3.25,3.25,0,0,1,75.24,20.52Zm3.64-5.33a2.23,2.23,0,0,1-1.54-.5,1.69,1.69,0,0,1-.57-1.32,2.52,2.52,0,0,1,.82-2,3,3,0,0,1,2-.74,2.26,2.26,0,0,1,1.56.51,1.7,1.7,0,0,1,.57,1.34,2.47,2.47,0,0,1-.82,1.93A2.91,2.91,0,0,1,78.88,15.19Zm2.23,5.33A2.46,2.46,0,0,1,79.42,20a1.89,1.89,0,0,1-.62-1.45,2.8,2.8,0,0,1,.9-2.17A3.21,3.21,0,0,1,82,15.53a2.51,2.51,0,0,1,1.7.56,1.87,1.87,0,0,1,.64,1.47,2.79,2.79,0,0,1-.9,2.15A3.28,3.28,0,0,1,81.11,20.52Z" class="cls-2" transform="translate(-1.32)"/><path d="M100.38,43.85a10,10,0,0,1-3.5-.6,8.58,8.58,0,0,1-2.83-1.7,7.95,7.95,0,0,1-2.59-6,5.9,5.9,0,0,1,.62-2.91,3.81,3.81,0,0,1,1.58-1.58,4.13,4.13,0,0,1,1.88-.48,3.35,3.35,0,0,1,1.86.47,2.08,2.08,0,0,1,.82.75,4.13,4.13,0,0,0-.73.82A5.6,5.6,0,0,0,96.84,34a5.21,5.21,0,0,0-.26,1.69,5.08,5.08,0,0,0,.2,1.35,3.83,3.83,0,0,0,.65,1.31,3.22,3.22,0,0,0,1.24,1,4.94,4.94,0,0,0,2,.36,5.54,5.54,0,0,0,2.67-.61,5.71,5.71,0,0,0,1.91-1.69,9.3,9.3,0,0,0,1.26-2.5,15.61,15.61,0,0,0,.69-3,27.33,27.33,0,0,0,.2-3.3c0-.53,0-1,0-1.38a5.32,5.32,0,0,0-.17-1,2.6,2.6,0,0,0-.32-.76c.76-.4,1.42-.71,2-.94a4.66,4.66,0,0,1,1.72-.34,1.71,1.71,0,0,1,1.51.55,2.59,2.59,0,0,1,.36,1.45,10.42,10.42,0,0,1-.13,1.6c-.08.58-.17,1.16-.26,1.75a11.83,11.83,0,0,0-.13,1.59,2.53,2.53,0,0,0,.39,1.55,1.61,1.61,0,0,0,1.36.51h3.48l-1.72,1.71V33.06a11.11,11.11,0,0,1,.13-1.76,13.55,13.55,0,0,1,.31-1.35c.13-.41.23-.82.32-1.24a7.5,7.5,0,0,0,.13-1.43,6.1,6.1,0,0,0-.15-1.41,2.49,2.49,0,0,0-.4-1A12.47,12.47,0,0,1,118,24a6.75,6.75,0,0,1,2-.34,1.83,1.83,0,0,1,1.45.48,2,2,0,0,1,.42,1.39,7.37,7.37,0,0,1-.26,1.86c-.17.65-.35,1.3-.53,1.95a7.08,7.08,0,0,0-.28,1.88,2.15,2.15,0,0,0,.43,1.45,1.69,1.69,0,0,0,1.32.48h3.22l-1.51,1.71V33.06a9.17,9.17,0,0,1,.12-1.54c.08-.47.17-.91.28-1.32s.23-.83.34-1.23a12.33,12.33,0,0,0,.29-1.2,6.73,6.73,0,0,0,.12-1.29,6.07,6.07,0,0,0-.16-1.41,2.54,2.54,0,0,0-.39-.93,14.51,14.51,0,0,1,2.26-.94,6.83,6.83,0,0,1,1.93-.34,1.88,1.88,0,0,1,1.49.49,1.72,1.72,0,0,1,.43,1.2,8.49,8.49,0,0,1-.22,1.66c-.15.7-.33,1.49-.55,2.37s-.42,1.81-.61,2.76-.34,1.87-.44,2.76l-2.08,3.19h-5.62a2.34,2.34,0,0,1-1.85-.66,3,3,0,0,1-.59-2l1.25,1.32H119l-.89,1.35h-5a2.37,2.37,0,0,1-1.86-.66,3,3,0,0,1-.59-2L111.74,36h-1.43a13.26,13.26,0,0,1-1.09,2.51,11.49,11.49,0,0,1-2,2.58,9.6,9.6,0,0,1-2.92,2A9.44,9.44,0,0,1,100.38,43.85Zm30-6.56a2.37,2.37,0,0,1-1.86-.66,3,3,0,0,1-.59-2l1.25,1.32h-3l3.77-6.16c-.05.26-.1.51-.13.75a5.92,5.92,0,0,0-.05.71,2,2,0,0,0,.43,1.4,1.69,1.69,0,0,0,1.31.47h2.24l-.68,4.18Zm2.65,0,.68-4.18c.31,0,.49.18.56.56a5.31,5.31,0,0,1-.07,1.54,5.57,5.57,0,0,1-.43,1.53A.82.82,0,0,1,133.06,37.29Z" class="cls-2" transform="translate(-1.32)"/><path d="M133.09,37.29c-.32,0-.5-.19-.56-.57a5.16,5.16,0,0,1,.06-1.53,5.86,5.86,0,0,1,.43-1.52.82.82,0,0,1,.74-.56Zm0,0,.67-4.18h19.79l-.55.54c0-.22.08-.56.12-1s.06-.81.06-1.09a1.82,1.82,0,0,0-.28-1.18A1.12,1.12,0,0,0,152,30H141.12a6.67,6.67,0,0,1-2.51-.47,3.74,3.74,0,0,1-1.86-1.71,7.44,7.44,0,0,1-.7-3.59,20.51,20.51,0,0,1,.12-2.11c.08-.76.17-1.5.27-2.21s.21-1.3.31-1.77a14.3,14.3,0,0,0,2,.33,31.46,31.46,0,0,0,3.52.17c.81,0,1.7,0,2.67-.07l2.95-.13,2.93-.13c1,0,1.83-.06,2.63-.06a13.56,13.56,0,0,1,2.53.18,1.89,1.89,0,0,1,1.24.68,2.53,2.53,0,0,1,.34,1.45,7.2,7.2,0,0,1-.12,1.29,4.09,4.09,0,0,1-.38,1.18,18,18,0,0,0-2.35-.35c-1-.09-2.06-.14-3.18-.14-.68,0-1.45,0-2.3.05l-2.64.12-2.56.11c-.81,0-1.5.07-2.08.08a11.13,11.13,0,0,1-1.19,0l.57-.34c-.07.28-.13.62-.19,1a6.81,6.81,0,0,0-.09,1c0,.54.15.88.44,1a2.2,2.2,0,0,0,1.07.23h12.09a3.74,3.74,0,0,1,2.69,1,4.53,4.53,0,0,1,1,3.32c0,.42,0,.88-.07,1.4s-.09,1-.15,1.44-.13.82-.2,1.12l-2.08,3.19Zm26.07,0a2.34,2.34,0,0,1-1.85-.66,3,3,0,0,1-.59-2l1.9,1.32h-3.51l3.2-4.65a1.9,1.9,0,0,0,.43,1.35,1.69,1.69,0,0,0,1.31.47h2.88l-.67,4.18Zm3.1,0,.67-4.18c.32,0,.5.18.56.56a5.24,5.24,0,0,1-.06,1.54,5.94,5.94,0,0,1-.43,1.53A.82.82,0,0,1,162.26,37.29Z" class="cls-2" transform="translate(-1.32)"/><path d="M162.28,37.29c-.31,0-.49-.19-.56-.57a5.22,5.22,0,0,1,.07-1.53,5.49,5.49,0,0,1,.43-1.52.82.82,0,0,1,.74-.56Zm0,0,.68-4.18h4.84l-1.72,1.71V33.06a9.17,9.17,0,0,1,.12-1.54,11.77,11.77,0,0,1,.28-1.32c.11-.42.23-.83.34-1.23s.21-.8.29-1.2a7.65,7.65,0,0,0,.11-1.29,6,6,0,0,0-.14-1.37,2.44,2.44,0,0,0-.4-1,13.31,13.31,0,0,1,2.25-.94,7,7,0,0,1,2-.34,1.83,1.83,0,0,1,1.44.49,2,2,0,0,1,.43,1.36,6.7,6.7,0,0,1-.2,1.53c-.13.56-.28,1.13-.47,1.71s-.33,1.15-.46,1.71a7.12,7.12,0,0,0-.2,1.58,2,2,0,0,0,.43,1.4,1.7,1.7,0,0,0,1.31.47h2.24l-.68,4.18h-2.65a2.37,2.37,0,0,1-1.86-.66,3,3,0,0,1-.58-2l1.25,1.32h-1.28l-.88,1.35Zm8.43-16.77A2.44,2.44,0,0,1,169,20a1.86,1.86,0,0,1-.63-1.45,2.8,2.8,0,0,1,.9-2.17,3.25,3.25,0,0,1,2.25-.82,2.49,2.49,0,0,1,1.7.56,1.84,1.84,0,0,1,.64,1.47,2.79,2.79,0,0,1-.9,2.15A3.25,3.25,0,0,1,170.71,20.52Zm4,16.77.68-4.18c.31,0,.5.18.56.56a5,5,0,0,1-.07,1.54,5.24,5.24,0,0,1-.43,1.53A.81.81,0,0,1,174.76,37.29Z" class="cls-2" transform="translate(-1.32)"/><path d="M176.45,44.37a2.46,2.46,0,0,1-1.69-.56,1.89,1.89,0,0,1-.62-1.45,2.8,2.8,0,0,1,.9-2.17,3.21,3.21,0,0,1,2.25-.82,2.51,2.51,0,0,1,1.7.56,1.89,1.89,0,0,1,.63,1.47,2.76,2.76,0,0,1-.89,2.15A3.29,3.29,0,0,1,176.45,44.37Zm-1.66-7.08c-.31,0-.5-.19-.56-.57a4.9,4.9,0,0,1,.07-1.53,5.52,5.52,0,0,1,.42-1.52.83.83,0,0,1,.75-.56Zm0,0,.68-4.18h4.83l-1.71,1.71V33.06a9.22,9.22,0,0,1,.11-1.54c.08-.47.18-.91.29-1.32s.22-.83.34-1.23.2-.8.28-1.2a6.73,6.73,0,0,0,.12-1.29,6.62,6.62,0,0,0-.14-1.37,2.44,2.44,0,0,0-.41-1,14,14,0,0,1,2.25-.94,7.09,7.09,0,0,1,2-.34,1.8,1.8,0,0,1,1.44.49,2,2,0,0,1,.43,1.36,6.66,6.66,0,0,1-.19,1.53c-.13.56-.29,1.13-.47,1.71s-.34,1.15-.47,1.71a7.07,7.07,0,0,0-.19,1.58,2,2,0,0,0,.43,1.4,1.69,1.69,0,0,0,1.31.47H188l-.68,4.18h-2.65a2.37,2.37,0,0,1-1.86-.66,3,3,0,0,1-.59-2l1.25,1.32h-1.27l-.89,1.35Zm7.54,7.08a2.46,2.46,0,0,1-1.69-.56,1.86,1.86,0,0,1-.62-1.45,2.79,2.79,0,0,1,.89-2.17,3.25,3.25,0,0,1,2.25-.82,2.49,2.49,0,0,1,1.7.56,1.87,1.87,0,0,1,.64,1.47,2.77,2.77,0,0,1-.9,2.15A3.24,3.24,0,0,1,182.33,44.37Zm4.94-7.08.68-4.18c.31,0,.49.18.55.56a4.91,4.91,0,0,1-.06,1.54,5.57,5.57,0,0,1-.43,1.53A.82.82,0,0,1,187.27,37.29Z" class="cls-2" transform="translate(-1.32)"/><path d="M187.29,37.29c-.31,0-.49-.19-.55-.57a5.16,5.16,0,0,1,.06-1.53,5.86,5.86,0,0,1,.43-1.52.82.82,0,0,1,.74-.56Zm0,0,.68-4.18h4.73l-1.22,1c-.09-.4-.15-.83-.21-1.29a13.36,13.36,0,0,1-.07-1.44,12.74,12.74,0,0,1,.66-4.19,9.83,9.83,0,0,1,1.91-3.3,8.56,8.56,0,0,1,3-2.17,9.8,9.8,0,0,1,4-.77,10.41,10.41,0,0,1,3.07.42,8.94,8.94,0,0,1,2.28,1,8.69,8.69,0,0,1,1.49,1.17,3.73,3.73,0,0,1,.67.84,6.31,6.31,0,0,1-.1,1c-.07.42-.16.89-.28,1.42s-.23,1.09-.37,1.68-.28,1.2-.42,1.83-.26,1.27-.38,1.91-.2,1.27-.27,1.87l-2.08,3.17Zm14-3.61c.07-.57.16-1.19.27-1.85s.22-1.31.36-2,.28-1.3.42-1.93.26-1.2.39-1.72.22-1,.31-1.34l.21,1a2.51,2.51,0,0,0-1.24-.56,7.42,7.42,0,0,0-1.42-.17,3.5,3.5,0,0,0-2.28.78,5,5,0,0,0-1.5,2.15,8.83,8.83,0,0,0-.53,3.18c0,.33,0,.64,0,.94a7.7,7.7,0,0,0,.1.79c0,.23.08.45.12.64l-.65-.47h7.43Zm-.23-15.11a2.46,2.46,0,0,1-1.69-.55,1.89,1.89,0,0,1-.62-1.45,2.83,2.83,0,0,1,.89-2.17,3.25,3.25,0,0,1,2.25-.82,2.53,2.53,0,0,1,1.71.56,1.86,1.86,0,0,1,.63,1.47,2.81,2.81,0,0,1-.89,2.15A3.28,3.28,0,0,1,201.1,18.57Z" class="cls-2" transform="translate(-1.32)"/><path d="M2.82,60.81v4.45H1.32V53.88h4.2a4.18,4.18,0,0,1,2.92,1A3.2,3.2,0,0,1,9.5,57.36a3.14,3.14,0,0,1-1,2.55,4.36,4.36,0,0,1-3,.9Zm0-1.23h2.7A2.68,2.68,0,0,0,7.36,59,2.06,2.06,0,0,0,8,57.37a2.14,2.14,0,0,0-.64-1.63,2.58,2.58,0,0,0-1.76-.63H2.82Z" class="cls-3" transform="translate(-1.32)"/><path d="M23.36,65.26H21.85V60H16.11v5.26h-1.5V53.88h1.5v4.89h5.74V53.88h1.51Z" class="cls-3" transform="translate(-1.32)"/><path d="M35.65,60H30.72v4h5.73v1.23H29.22V53.88h7.15v1.23H30.72v3.66h4.93Z" class="cls-3" transform="translate(-1.32)"/><path d="M50.26,65.26H48.75L43,56.49v8.77H41.51V53.88H43l5.74,8.81V53.88h1.5Z" class="cls-3" transform="translate(-1.32)"/><path d="M57.73,65.26h-1.5V53.88h1.5Z" class="cls-3" transform="translate(-1.32)"/><path d="M67.52,58.24l2.72-4.36H72l-3.6,5.64,3.68,5.74H70.31l-2.79-4.44L64.7,65.26H62.93l3.69-5.74L63,53.88h1.75Z" class="cls-3" transform="translate(-1.32)"/><path d="M84.9,55.11H81.24V65.26H79.75V55.11H76.1V53.88h8.8Z" class="cls-3" transform="translate(-1.32)"/><path d="M98.52,65.26H97V60H91.28v5.26h-1.5V53.88h1.5v4.89H97V53.88h1.5Z" class="cls-3" transform="translate(-1.32)"/><path d="M110.82,60h-4.93v4h5.73v1.23h-7.23V53.88h7.15v1.23h-5.65v3.66h4.93Z" class="cls-3" transform="translate(-1.32)"/><path d="M118.62,53.88l3.72,9.29,3.72-9.29H128V65.26h-1.5V60.83l.14-4.78-3.73,9.21h-1.15L118,56.07l.15,4.76v4.43h-1.5V53.88Z" class="cls-3" transform="translate(-1.32)"/><path d="M140.28,60h-4.93v4h5.73v1.23h-7.23V53.88H141v1.23h-5.65v3.66h4.93Z" class="cls-3" transform="translate(-1.32)"/><path d="M149.5,60.19a7.12,7.12,0,0,1-2.81-1.36,2.6,2.6,0,0,1-.88-2,2.75,2.75,0,0,1,1.07-2.22,4.27,4.27,0,0,1,2.8-.88,4.72,4.72,0,0,1,2.09.45,3.46,3.46,0,0,1,1.42,1.25,3.23,3.23,0,0,1,.5,1.74h-1.51a2,2,0,0,0-.65-1.62,2.66,2.66,0,0,0-1.85-.6,2.76,2.76,0,0,0-1.73.49,1.62,1.62,0,0,0-.62,1.36,1.44,1.44,0,0,0,.59,1.18,5.84,5.84,0,0,0,2,.88,9.36,9.36,0,0,1,2.22.88,3.31,3.31,0,0,1,1.19,1.12,2.85,2.85,0,0,1,.39,1.51,2.64,2.64,0,0,1-1.08,2.21,4.58,4.58,0,0,1-2.89.84,5.28,5.28,0,0,1-2.18-.45A3.7,3.7,0,0,1,146,63.74a3,3,0,0,1-.55-1.78H147a2,2,0,0,0,.76,1.63,3.2,3.2,0,0,0,2,.6,2.93,2.93,0,0,0,1.83-.49,1.7,1.7,0,0,0,0-2.61A7,7,0,0,0,149.5,60.19Z" class="cls-3" transform="translate(-1.32)"/><path d="M158.64,64.5a.88.88,0,0,1,.23-.62.82.82,0,0,1,.66-.25.86.86,0,0,1,.68.25.88.88,0,0,1,.23.62.85.85,0,0,1-.23.6.9.9,0,0,1-.68.25.82.82,0,0,1-.89-.85Z" class="cls-3" transform="translate(-1.32)"/><path d="M174.62,61.65a4.26,4.26,0,0,1-1.34,2.79,4.37,4.37,0,0,1-3,1A4,4,0,0,1,167.07,64a5.8,5.8,0,0,1-1.21-3.87V59a6.58,6.58,0,0,1,.56-2.79A4.29,4.29,0,0,1,168,54.37a4.45,4.45,0,0,1,2.41-.64,4.13,4.13,0,0,1,2.9,1,4.23,4.23,0,0,1,1.28,2.8h-1.51a3.26,3.26,0,0,0-.85-2,2.54,2.54,0,0,0-1.82-.62A2.7,2.7,0,0,0,168.18,56a4.91,4.91,0,0,0-.81,3v1.11a5,5,0,0,0,.77,2.94,2.5,2.5,0,0,0,2.16,1.1,2.86,2.86,0,0,0,1.92-.57,3.11,3.11,0,0,0,.89-2Z" class="cls-3" transform="translate(-1.32)"/><path d="M188.61,59.94a7.14,7.14,0,0,1-.56,2.92,4.38,4.38,0,0,1-8,0,6.77,6.77,0,0,1-.59-2.83v-.82a7,7,0,0,1,.57-2.9,4.25,4.25,0,0,1,4-2.59,4.38,4.38,0,0,1,2.41.66,4.28,4.28,0,0,1,1.61,1.91,7.17,7.17,0,0,1,.56,2.92Zm-1.49-.74a5.11,5.11,0,0,0-.81-3.1A2.68,2.68,0,0,0,184,55a2.64,2.64,0,0,0-2.23,1.08,4.91,4.91,0,0,0-.84,3v.84a5.1,5.1,0,0,0,.82,3.08,2.89,2.89,0,0,0,4.52.06,5.08,5.08,0,0,0,.82-3Z" class="cls-3" transform="translate(-1.32)"/><path d="M196,53.88l3.72,9.29,3.72-9.29h1.94V65.26h-1.5V60.83l.14-4.78-3.73,9.21h-1.15l-3.73-9.19.15,4.76v4.43h-1.5V53.88Z" class="cls-3" transform="translate(-1.32)"/></g><g id="logo-icon"><path id="icon-base" d="M284.18,0a9.93,9.93,0,0,1,8.62,5l17.9,31.09a10,10,0,0,1,0,9.93L292.8,77.1a9.93,9.93,0,0,1-8.62,5H248.42a9.93,9.93,0,0,1-8.62-5L221.9,46a10,10,0,0,1,0-9.93L239.8,5a9.93,9.93,0,0,1,8.62-5Z" class="cls-4" transform="translate(-1.32)"/><g class="cls-5"><path d="M274.34,16.8c10.24,2,14.75,25.49,3.31,28,.93.83,3.49,1.87,5.59,4.78,4.74,6.6,2.28,11.21,2.42,13.93a21.79,21.79,0,0,0,4.1-4.15c4.73-6.09,7-13.42,5.38-21.22a11.31,11.31,0,0,1-1.29,1.77c.24-9.76-8.74-23.67-19.51-23.13m-5.32,48c-7.31-3-25-3.6-31.49-12,3.37,7.28,11.31,10,19,11.68,7.14,1.56,16,.48,18.12,8.41,1.36-3.33-2.09-6.65-5.61-8.08m4.71,8c-1.76-6.1-15.58-5.93-26.81-9.29A47.12,47.12,0,0,1,240.41,61c11.76,9,23.1,5.19,31.14,9.92a9.6,9.6,0,0,1,2.18,1.86M278.38,35c-.06-5.56-4.54-5.61-7.64-5.76-.72,0-4.5-1.29-7.21.05l-1.75,0c-1.17,0-2.74.13-3.73-.61l-.84-.83s-.1-.11-.16-.16a5.48,5.48,0,0,0,1.37,3.56,5.3,5.3,0,0,0,2.89,1.65l-1.2,3.59c-2.38,9.48,3.8,11,10.07,15.59,3.31,2.4,7.12,5.87,6.56,10.4,0-1.09-1.56-3.66-2.14-4.45-6.43-8.79-34-14.85-19-37.12a18.94,18.94,0,0,1,17.46-8.51c-.65-.13-1.37-.28-1.83-.32-17.33-1.8-31.71,11.13-32.37,28.38l-1.36-3c-1.16,2.58-1,8.74.32,11.45,2.75,6.81,11.75,9.74,18.25,11.35,9,2.24,21.35,1.94,19.33,12,4-1,9.64-10.3,9-15.33a14.66,14.66,0,0,0-11.13-12.32,6.51,6.51,0,0,1-2.57-.9c-.81-.52-1.29-1.31-1.91-1.57a12.12,12.12,0,0,1-.94-2.5,6.15,6.15,0,0,1,2.27-5.73c2.82-2.31,5.77-.68,8.31,1.13m-10.12-4.45h0a.55.55,0,0,1,0,.92h0a.56.56,0,0,1-.31.09l-1.31,0a.54.54,0,0,1-.3-.1h0a.56.56,0,0,1,0-.92h0a.62.62,0,0,1,.32-.09l1.31,0A.54.54,0,0,1,268.26,30.55Z" class="cls-6" transform="translate(-1.32)"/></g></g></g></g></g></svg>