<svg xmlns="http://www.w3.org/2000/svg" xmlns:xlink="http://www.w3.org/1999/xlink" viewBox="0 0 384.85 82.09"><defs><style>.cls-1{fill:none}.cls-2{fill:#f8c35b}.cls-3{fill:#cecece}.cls-4{fill:url(#linear-gradient)}.cls-5{clip-path:url(#clip-path)}.cls-6{fill:#fff;fill-rule:evenodd}</style><linearGradient id="linear-gradient" x1="13.12" x2="87.26" y1="20.36" y2="67.39" gradientUnits="userSpaceOnUse"><stop offset="0" stop-color="#f8c35b"/><stop offset=".48" stop-color="#f9ae5c"/><stop offset=".98" stop-color="#fb955d"/></linearGradient><clipPath id="clip-path"><rect width="58.94" height="61.01" x="16.15" y="11.88" class="cls-1"/></clipPath></defs><g id="Layer_2" data-name="Layer 2"><g id="Layer_1-2" data-name="Layer 1"><g id="logo"><g id="logo-text"><path d="M103.17,16h14.28c2.38,0,4.1.54,5.18,1.62s1.62,2.8,1.62,5.18v3.4q0,3.57-1.62,5.19c-1.08,1.07-2.8,1.61-5.18,1.61h-8.16v6.8h-6.12Zm15,6.8a1.8,1.8,0,0,0-2-2h-6.8v7.48h6.8a1.8,1.8,0,0,0,2-2Z" class="cls-2"/><path d="M148.05,39.77h-6.12V30.08h-8.5v9.69h-6.12V16h6.12v9.35h8.5V16h6.12Z" class="cls-2"/><path d="M171,39.77H152.13V16H171v4.76H158.25v4.59h10v4.76h-10V35H171Z" class="cls-2"/><path d="M194.46,39.77H188l-8.16-14.28V39.77h-6.12V16h6.46l8.16,14.28V16h6.12Z" class="cls-2"/><path d="M209.76,39.77H197.52V35h3.06V20.73h-3.06V16h12.24v4.76H206.7V35h3.06Z" class="cls-2"/><path d="M226.59,16h6.8l-7.65,11.9,7.82,11.9h-6.8L222,32.29l-4.76,7.48h-6.8l7.82-11.9L210.61,16h6.76L222,23.45Z" class="cls-2"/><path d="M257,39.77H250.9v-19h-7.14V16h20.4v4.76H257Z" class="cls-2"/><path d="M287.28,39.77h-6.12V30.08h-8.5v9.69h-6.12V16h6.12v9.35h8.5V16h6.12Z" class="cls-2"/><path d="M310.23,39.77H291.36V16h18.87v4.76H297.48v4.59h10v4.76h-10V35h12.75Z" class="cls-2"/><path d="M333.35,26.51,328.59,35h-4.76l-4.76-8.5V39.77H313V16h6.46l6.8,12.58L333,16h6.46v23.8h-6.12Z" class="cls-2"/><path d="M362.42,39.77H343.55V16h18.87v4.76H349.67v4.59h10v4.76h-10V35h12.75Z" class="cls-2"/><path d="M364.42,34.84q9.31.51,12.62.51a1.67,1.67,0,0,0,1.24-.46,1.69,1.69,0,0,0,.45-1.24V30.59h-7.81q-3.57,0-5.19-1.61t-1.62-5.19v-1q0-3.57,1.62-5.18T370.92,16h11.93v4.76H372.27a1.81,1.81,0,0,0-2,2v.68a1.81,1.81,0,0,0,2,2h6.12q3.35,0,4.9,1.57T384.85,32v1.7c0,2.22-.52,3.86-1.56,4.9s-2.67,1.56-4.9,1.56c-1.15,0-2.38,0-3.67-.07l-3.13-.13c-2.31-.12-4.7-.27-7.17-.48Z" class="cls-2"/><path d="M104,55.93v4.46h-1.5V49h4.19a4.21,4.21,0,0,1,2.93,1,3.61,3.61,0,0,1,0,5.07,4.39,4.39,0,0,1-3,.89Zm0-1.22h2.69a2.67,2.67,0,0,0,1.84-.57,2.06,2.06,0,0,0,.64-1.64,2.14,2.14,0,0,0-.64-1.63,2.5,2.5,0,0,0-1.75-.63H104Z" class="cls-3"/><path d="M127.7,60.39h-1.51V55.13h-5.73v5.26H119V49h1.5V53.9h5.73V49h1.51Z" class="cls-3"/><path d="M143.19,55.13h-4.93v4H144v1.23h-7.23V49h7.15v1.23h-5.65V53.9h4.93Z" class="cls-3"/><path d="M161,60.39h-1.51l-5.72-8.77v8.77h-1.51V49h1.51l5.74,8.81V49H161Z" class="cls-3"/><path d="M171.67,60.39h-1.5V49h1.5Z" class="cls-3"/><path d="M184.66,53.37,187.39,49h1.76l-3.59,5.64,3.68,5.74h-1.78L184.66,56l-2.81,4.44h-1.78l3.69-5.74L180.16,49h1.76Z" class="cls-3"/><path d="M205.24,50.24h-3.66V60.39h-1.49V50.24h-3.65V49h8.8Z" class="cls-3"/><path d="M222.07,60.39h-1.51V55.13h-5.73v5.26h-1.5V49h1.5V53.9h5.73V49h1.51Z" class="cls-3"/><path d="M237.56,55.13h-4.93v4h5.73v1.23h-7.23V49h7.15v1.23h-5.65V53.9h4.93Z" class="cls-3"/><path d="M248.56,49l3.72,9.28L256,49H258V60.39h-1.5V56l.14-4.78-3.74,9.21h-1.14L248,51.2l.15,4.76v4.43h-1.5V49Z" class="cls-3"/><path d="M273.43,55.13H268.5v4h5.72v1.23H267V49h7.14v1.23H268.5V53.9h4.93Z" class="cls-3"/><path d="M285.84,55.32A7.12,7.12,0,0,1,283,54a2.62,2.62,0,0,1-.88-2,2.76,2.76,0,0,1,1.08-2.23,4.29,4.29,0,0,1,2.79-.87,4.69,4.69,0,0,1,2.09.45,3.4,3.4,0,0,1,1.42,1.25A3.16,3.16,0,0,1,290,52.3h-1.51a2.09,2.09,0,0,0-.66-1.63,2.67,2.67,0,0,0-1.85-.59,2.78,2.78,0,0,0-1.73.49,1.65,1.65,0,0,0-.62,1.36,1.49,1.49,0,0,0,.59,1.18,5.82,5.82,0,0,0,2,.88,9.28,9.28,0,0,1,2.22.88A3.28,3.28,0,0,1,289.67,56a2.85,2.85,0,0,1,.39,1.51A2.64,2.64,0,0,1,289,59.71a4.56,4.56,0,0,1-2.88.83,5.36,5.36,0,0,1-2.19-.45,3.67,3.67,0,0,1-1.56-1.23,3,3,0,0,1-.55-1.77h1.5a2,2,0,0,0,.76,1.63,3.22,3.22,0,0,0,2,.6,2.9,2.9,0,0,0,1.82-.49,1.57,1.57,0,0,0,.63-1.32,1.53,1.53,0,0,0-.58-1.29A6.48,6.48,0,0,0,285.84,55.32Z" class="cls-3"/><path d="M298.19,59.63a.91.91,0,0,1,.22-.63.87.87,0,0,1,.67-.25.89.89,0,0,1,.67.25.88.88,0,0,1,.23.63.81.81,0,0,1-.23.6.89.89,0,0,1-.67.24.87.87,0,0,1-.67-.24A.84.84,0,0,1,298.19,59.63Z" class="cls-3"/><path d="M317.36,56.78A4.16,4.16,0,0,1,316,59.56a4.34,4.34,0,0,1-3,1,4,4,0,0,1-3.23-1.44,5.83,5.83,0,0,1-1.22-3.87V54.14a6.44,6.44,0,0,1,.57-2.79,4.27,4.27,0,0,1,1.6-1.85,4.5,4.5,0,0,1,2.41-.64,4.09,4.09,0,0,1,2.91,1,4.22,4.22,0,0,1,1.27,2.8h-1.51a3.31,3.31,0,0,0-.84-2,2.62,2.62,0,0,0-1.83-.61,2.67,2.67,0,0,0-2.25,1.07,4.81,4.81,0,0,0-.82,3v1.1a5.06,5.06,0,0,0,.77,2.95,2.52,2.52,0,0,0,2.17,1.1,2.89,2.89,0,0,0,1.92-.57,3.13,3.13,0,0,0,.88-2Z" class="cls-3"/><path d="M334.56,55.07A6.93,6.93,0,0,1,334,58a4.19,4.19,0,0,1-1.59,1.91,4.46,4.46,0,0,1-2.41.65A4.24,4.24,0,0,1,326,58a6.77,6.77,0,0,1-.59-2.83v-.82a7,7,0,0,1,.57-2.9,4.49,4.49,0,0,1,6.41-1.93,4.21,4.21,0,0,1,1.6,1.91,7,7,0,0,1,.57,2.92Zm-1.5-.74a5.09,5.09,0,0,0-.81-3.1A2.69,2.69,0,0,0,330,50.14a2.66,2.66,0,0,0-2.24,1.09,5,5,0,0,0-.84,3v.84a5.12,5.12,0,0,0,.82,3.08,2.89,2.89,0,0,0,4.52.06,5,5,0,0,0,.82-3Z" class="cls-3"/><path d="M345.14,49l3.72,9.28L352.58,49h1.95V60.39H353V56l.14-4.78-3.74,9.21h-1.14l-3.73-9.19.15,4.76v4.43h-1.5V49Z" class="cls-3"/></g><g id="logo-icon"><path id="icon-base" d="M63.61,0a9.93,9.93,0,0,1,8.62,5L90.14,36.08a10,10,0,0,1,0,9.93L72.23,77.1a9.93,9.93,0,0,1-8.62,5H27.85a9.94,9.94,0,0,1-8.62-5L1.33,46a10,10,0,0,1,0-9.93L19.23,5a9.94,9.94,0,0,1,8.62-5Z" class="cls-4"/><g class="cls-5"><path d="M53.77,16.8c10.24,2,14.75,25.49,3.31,28,.94.83,3.5,1.87,5.59,4.78,4.74,6.6,2.28,11.21,2.42,13.93a21.79,21.79,0,0,0,4.1-4.15c4.73-6.09,7-13.42,5.38-21.22a10.15,10.15,0,0,1-1.29,1.77c.24-9.76-8.74-23.67-19.51-23.13m-5.32,48c-7.31-3-25-3.6-31.49-12,3.37,7.28,11.31,10,19,11.68C43.08,66,51.9,65,54.06,72.89c1.36-3.33-2.09-6.65-5.61-8.08m4.71,8c-1.76-6.1-15.58-5.93-26.81-9.29A47.12,47.12,0,0,1,19.84,61C31.6,70,42.94,66.17,51,70.9a9.6,9.6,0,0,1,2.18,1.86M57.81,35c-.06-5.56-4.54-5.61-7.64-5.76-.72,0-4.5-1.29-7.21.05l-1.75,0c-1.16,0-2.74.13-3.73-.61l-.84-.83s-.1-.11-.16-.16a5.48,5.48,0,0,0,1.37,3.56,5.34,5.34,0,0,0,2.89,1.65l-1.2,3.59c-2.38,9.48,3.8,11,10.07,15.59,3.31,2.4,7.12,5.87,6.56,10.4,0-1.09-1.56-3.66-2.14-4.45C47.6,49.21,20,43.15,35,20.88A18.92,18.92,0,0,1,52.5,12.37c-.66-.13-1.38-.28-1.84-.32C33.33,10.25,19,23.18,18.29,40.43l-1.36-3c-1.16,2.58-1,8.74.32,11.45C20,55.68,29,58.61,35.5,60.22c9,2.24,21.35,1.94,19.33,12,4-1,9.64-10.3,9-15.33A14.68,14.68,0,0,0,52.65,44.57a6.51,6.51,0,0,1-2.57-.9c-.81-.52-1.29-1.31-1.91-1.57a12.12,12.12,0,0,1-.94-2.5,6.15,6.15,0,0,1,2.27-5.73c2.82-2.31,5.77-.68,8.31,1.13M47.69,30.55h0a.56.56,0,0,1,0,.92h0a.62.62,0,0,1-.32.09l-1.31,0a.54.54,0,0,1-.3-.1h0a.55.55,0,0,1,0-.92h0a.56.56,0,0,1,.31-.09l1.31,0A.54.54,0,0,1,47.69,30.55Z" class="cls-6"/></g></g></g></g></g></svg>