<svg xmlns="http://www.w3.org/2000/svg" xmlns:xlink="http://www.w3.org/1999/xlink" viewBox="0 0 503.19 342.69"><defs><style>.cls-1{fill:none;}.cls-2{fill:url(#linear-gradient);}.cls-3{clip-path:url(#clip-path);}.cls-4{fill:#fff;fill-rule:evenodd;}.cls-5{fill:#0c97f9;}</style><linearGradient id="linear-gradient" x1="-39.75" y1="738.28" x2="-38.83" y2="736.35" gradientTransform="matrix(123.63, 0, 0, -111, 5120.38, 81974.36)" gradientUnits="userSpaceOnUse"><stop offset="0" stop-color="#8772f7"/><stop offset="1" stop-color="#1a69f4"/></linearGradient><clipPath id="clip-path" transform="translate(-3.72)"><rect class="cls-1" x="168.71" y="34.69" width="165.86" height="171.68"/></clipPath></defs><g id="Layer_2" data-name="Layer 2"><g id="Layer_1-2" data-name="Layer 1"><g id="logo"><g id="phenix"><path id="icon-base" class="cls-2" d="M306.33,0a28.63,28.63,0,0,1,24.8,14.32l51.44,89.38a28.65,28.65,0,0,1,0,28.55l-51.44,89.37a28.63,28.63,0,0,1-24.8,14.32H203.55a28.61,28.61,0,0,1-24.78-14.32L127.4,132.25a28.67,28.67,0,0,1,0-28.56l51.37-89.37A28.65,28.65,0,0,1,203.55,0Z" transform="translate(-3.72)"/><g class="cls-3"><path class="cls-4" d="M274.57,48.53c28.82,5.69,41.52,71.73,9.33,78.85,2.63,2.34,9.83,5.26,15.71,13.45C313,159.4,306,172.39,306.43,180A60.78,60.78,0,0,0,318,168.36c13.3-17.13,19.7-37.78,15.14-59.73-1.42,1.75-1.5,3-3.63,5,.68-27.45-24.58-66.6-54.91-65.09m-15,135.1c-20.55-8.36-70.28-10.11-88.6-33.8,9.47,20.5,31.82,28.12,53.42,32.86,20.09,4.41,44.89,1.36,51,23.67,3.83-9.35-5.87-18.7-15.79-22.73M272.87,206c-5-17.16-43.85-16.67-75.44-26.14-4.53-1.35-16.55-5.68-18.34-7,33.11,25.39,65,14.62,87.63,27.92,4,2.44,3.43,2.86,6.15,5.23M286,99.75c-.17-15.66-12.78-15.78-21.51-16.2-2-.1-12.66-3.64-20.29.12l-4.91-.06c-3.28,0-7.72.36-10.51-1.74l-2.35-2.34c-.11-.11-.29-.31-.45-.45a15.42,15.42,0,0,0,3.85,10c1.39,1.55,5.32,4.61,8.14,4.66l-3.39,10.1c-6.7,26.67,10.69,31.08,28.34,43.87,9.33,6.75,20,16.51,18.47,29.25.05-3-4.4-10.28-6-12.52C257.21,139.75,179.63,122.69,221.86,60c10.52-15.62,28.3-25.68,49.13-23.94-1.85-.36-3.87-.78-5.16-.92-48.76-5-89.24,31.35-91.08,79.88l-3.83-8.48c-3.27,7.27-2.84,24.59.89,32.22,7.74,19.17,33.06,27.41,51.35,31.95,25.32,6.29,60.09,5.46,54.41,33.76,11.17-2.73,27.13-29,25.19-43.14a41.3,41.3,0,0,0-31.34-34.67c-3.16-.74-4.57-.82-7.23-2.52-2.28-1.46-3.63-3.69-5.37-4.42-.87-2.3-2.18-4.29-2.64-7a17.29,17.29,0,0,1,6.4-16.11c7.91-6.5,16.21-1.93,23.37,3.17M257.32,87.12l1,.7a.9.9,0,0,1,0,1.48l-1,.64a.89.89,0,0,1-.5.13l-4.1-.12a1,1,0,0,1-.49-.17l-1-.7a.89.89,0,0,1,0-1.48l1-.64a.87.87,0,0,1,.5-.13l4.09.12A1,1,0,0,1,257.32,87.12Z" transform="translate(-3.72)"/></g></g><g id="logo-icon"><path class="cls-5" d="M3.72,258.12h26q6.51,0,9.45,2.95t2.95,9.45v6.2q0,6.51-2.95,9.46t-9.45,2.94H14.88v12.4H3.72ZM31,270.52q0-3.72-3.72-3.72H14.88v13.64h12.4q3.72,0,3.72-3.72Z" transform="translate(-3.72)"/><path class="cls-5" d="M85.56,301.52H74.4V283.85H58.9v17.67H47.74v-43.4H58.9v17.05H74.4V258.12H85.56Z" transform="translate(-3.72)"/><path class="cls-5" d="M127.41,301.52H93v-43.4h34.41v8.68H104.16v8.37h18.29v8.68H104.16v9h23.25Z" transform="translate(-3.72)"/><path class="cls-5" d="M170.19,301.52H158.41l-14.88-26v26H132.37v-43.4h11.78l14.88,26v-26h11.16Z" transform="translate(-3.72)"/><path class="cls-5" d="M198.09,301.52H175.77v-8.68h5.58v-26h-5.58v-8.68h22.32v8.68h-5.58v26h5.58Z" transform="translate(-3.72)"/><path class="cls-5" d="M228.78,258.12h12.4l-14,21.7,14.26,21.7h-12.4l-8.68-13.64-8.68,13.64h-12.4l14.26-21.7-14-21.7H212l8.43,13.64Z" transform="translate(-3.72)"/><path class="cls-5" d="M263.19,258.12H288c4.05,0,7,.92,8.93,2.76s2.85,4.64,2.85,8.4a10.45,10.45,0,0,1-1.61,6.05,8.7,8.7,0,0,1-4,3.25,9.6,9.6,0,0,1,6.82,6.7,14.65,14.65,0,0,1,.62,4.46q0,6.08-2.85,8.93c-1.91,1.9-4.88,2.85-8.93,2.85H263.19Zm25.42,12.4q0-3.72-3.72-3.72H274.35v8.68h10.54q3.72,0,3.72-3.72Zm1.86,17.36q0-3.72-3.72-3.72h-12.4v8.68h12.4q3.72,0,3.72-3.72Z" transform="translate(-3.72)"/><path class="cls-5" d="M318.37,292.84H341v8.68H307.21v-43.4h11.16Z" transform="translate(-3.72)"/><path class="cls-5" d="M384.4,289.74q0,6.51-2.95,9.46T372,302.14H356.5q-6.51,0-9.46-2.94t-2.94-9.46V269.9q0-6.51,2.94-9.45t9.46-2.95H372q6.51,0,9.45,2.95t2.95,9.45ZM373.24,269.9q0-3.72-3.72-3.72H359q-3.72,0-3.72,3.72v19.84q0,3.72,3.72,3.72h10.54q3.72,0,3.72-3.72Z" transform="translate(-3.72)"/><path class="cls-5" d="M424.08,300.9q-13.83,1.25-22.94,1.24c-4.06,0-7-.95-8.93-2.85s-2.85-4.88-2.85-8.93V270.52q0-6.51,2.94-9.45t9.46-2.95h22.32v8.68H404.24q-3.72,0-3.72,3.72v19.84a3.07,3.07,0,0,0,.83,2.27,2.93,2.93,0,0,0,2.14.83l2.85,0,3.23-.09,3.38-.13c1.13,0,2.6-.12,4.4-.24s4-.27,6.73-.44Z" transform="translate(-3.72)"/><path class="cls-5" d="M440.2,301.52H429v-43.4H440.2v17.05h5.58l9.67-17.05h11.78l-12.15,21.39,12.09,22H455.39l-9.61-17.67H440.2Z" transform="translate(-3.72)"/><path class="cls-5" d="M469.65,292.53q17,.93,23,.93a2.88,2.88,0,0,0,3.1-3.1v-5.58H481.49q-6.51,0-9.46-2.94t-2.94-9.46v-1.86q0-6.51,2.94-9.45t9.46-2.95h21.76v8.68H484q-3.72,0-3.72,3.72v1.24q0,3.72,3.72,3.72h11.16c4.05,0,7,.95,8.93,2.85s2.85,4.88,2.85,8.93v3.1q0,6.08-2.85,8.93c-1.91,1.9-4.88,2.85-8.93,2.85q-3.17,0-6.7-.12l-5.7-.25q-6.33-.31-13.08-.87Z" transform="translate(-3.72)"/><path d="M65.23,337.5l3.06-15h3.43l-4.59,19.91H63.82L60,327.89l-3.87,14.53H52.84l-4.59-19.91h3.43l3.09,15,3.8-15h2.9Z" transform="translate(-3.72)"/><path d="M91.12,333a12.12,12.12,0,0,1-1,5.14,7.66,7.66,0,0,1-2.89,3.39,8.5,8.5,0,0,1-8.64,0,7.8,7.8,0,0,1-2.93-3.37,11.83,11.83,0,0,1-1-5.05V332a12.1,12.1,0,0,1,1-5.14,7.61,7.61,0,0,1,7.22-4.59,8,8,0,0,1,4.32,1.17,7.66,7.66,0,0,1,2.9,3.36,12,12,0,0,1,1,5.11Zm-3.46-1a8.68,8.68,0,0,0-1.25-5.08,4.41,4.41,0,0,0-7,0,8.4,8.4,0,0,0-1.29,5V333a8.69,8.69,0,0,0,1.27,5.08,4.14,4.14,0,0,0,3.55,1.79,4.08,4.08,0,0,0,3.54-1.75A8.88,8.88,0,0,0,87.66,333Z" transform="translate(-3.72)"/><path d="M102.87,334.76H99v7.66H95.55V322.51h7a8.15,8.15,0,0,1,5.32,1.55,5.46,5.46,0,0,1,1.87,4.47,5.64,5.64,0,0,1-1,3.35,6.08,6.08,0,0,1-2.69,2.07l4.47,8.29v.18h-3.7ZM99,332h3.56a4,4,0,0,0,2.73-.88,3.06,3.06,0,0,0,1-2.41,3.31,3.31,0,0,0-.9-2.48,3.91,3.91,0,0,0-2.72-.9H99Z" transform="translate(-3.72)"/><path d="M114,342.42V322.51h5.88a9.14,9.14,0,0,1,4.68,1.18,8,8,0,0,1,3.17,3.33,10.68,10.68,0,0,1,1.12,5v1a10.57,10.57,0,0,1-1.13,5,7.94,7.94,0,0,1-3.21,3.31,9.72,9.72,0,0,1-4.78,1.16Zm3.46-17.12v14.33h2.25a5.21,5.21,0,0,0,4.18-1.7,7.35,7.35,0,0,0,1.48-4.88V332A7.61,7.61,0,0,0,124,327a5,5,0,0,0-4.09-1.71Z" transform="translate(-3.72)"/><path d="M136.75,335v7.38h-3.46V322.51h7.61a7.69,7.69,0,0,1,5.3,1.74,5.84,5.84,0,0,1,2,4.6,5.67,5.67,0,0,1-1.92,4.56,8.1,8.1,0,0,1-5.38,1.63Zm0-2.79h4.15a4.1,4.1,0,0,0,2.82-.87,3.19,3.19,0,0,0,1-2.51,3.44,3.44,0,0,0-1-2.58,3.78,3.78,0,0,0-2.7-1h-4.25Z" transform="translate(-3.72)"/><path d="M159.48,334.76h-3.85v7.66h-3.46V322.51h7a8.17,8.17,0,0,1,5.32,1.55,5.49,5.49,0,0,1,1.87,4.47,5.64,5.64,0,0,1-1,3.35,6.14,6.14,0,0,1-2.69,2.07l4.47,8.29v.18h-3.71ZM155.63,332h3.55a4,4,0,0,0,2.74-.88,3.09,3.09,0,0,0,1-2.41,3.28,3.28,0,0,0-.91-2.48,3.89,3.89,0,0,0-2.71-.9h-3.65Z" transform="translate(-3.72)"/><path d="M182.26,333.53h-8.18v6.1h9.56v2.79h-13V322.51h12.92v2.79h-9.46v5.5h8.18Z" transform="translate(-3.72)"/><path d="M197.85,337.29a2.39,2.39,0,0,0-.93-2,11,11,0,0,0-3.33-1.44,15.91,15.91,0,0,1-3.82-1.61,5.11,5.11,0,0,1-2.73-4.46,4.85,4.85,0,0,1,2-4,7.91,7.91,0,0,1,5.09-1.56,8.59,8.59,0,0,1,3.7.76,6.1,6.1,0,0,1,2.56,2.19,5.56,5.56,0,0,1,.93,3.13h-3.44a3.1,3.1,0,0,0-1-2.42,4.08,4.08,0,0,0-2.8-.87,4.22,4.22,0,0,0-2.63.72,2.41,2.41,0,0,0-.94,2,2.16,2.16,0,0,0,1,1.82,11.47,11.47,0,0,0,3.33,1.42,15.25,15.25,0,0,1,3.73,1.57,6,6,0,0,1,2.07,2,5.23,5.23,0,0,1,.65,2.67,4.74,4.74,0,0,1-1.9,4,8.28,8.28,0,0,1-5.18,1.47,9.61,9.61,0,0,1-4-.8,6.64,6.64,0,0,1-2.82-2.21,5.47,5.47,0,0,1-1-3.28h3.46A3.22,3.22,0,0,0,191,339a4.91,4.91,0,0,0,3.21.93,4.33,4.33,0,0,0,2.72-.73A2.39,2.39,0,0,0,197.85,337.29Z" transform="translate(-3.72)"/><path d="M215.73,337.29a2.41,2.41,0,0,0-.92-2,11.23,11.23,0,0,0-3.33-1.44,16,16,0,0,1-3.83-1.61,5.1,5.1,0,0,1-2.72-4.46,4.84,4.84,0,0,1,2-4,7.93,7.93,0,0,1,5.09-1.56,8.63,8.63,0,0,1,3.71.76,6.13,6.13,0,0,1,2.55,2.19,5.56,5.56,0,0,1,.93,3.13h-3.44a3.1,3.1,0,0,0-1-2.42A4.07,4.07,0,0,0,212,325a4.24,4.24,0,0,0-2.63.72,2.4,2.4,0,0,0-.93,2,2.15,2.15,0,0,0,1,1.82,11.47,11.47,0,0,0,3.33,1.42,15.34,15.34,0,0,1,3.74,1.57,6,6,0,0,1,2.06,2,5.23,5.23,0,0,1,.66,2.67,4.75,4.75,0,0,1-1.91,4,8.28,8.28,0,0,1-5.18,1.47,9.61,9.61,0,0,1-4-.8,6.67,6.67,0,0,1-2.81-2.21,5.48,5.48,0,0,1-1-3.28h3.46a3.22,3.22,0,0,0,1.12,2.63,4.91,4.91,0,0,0,3.21.93,4.33,4.33,0,0,0,2.72-.73A2.39,2.39,0,0,0,215.73,337.29Z" transform="translate(-3.72)"/><path d="M240.58,337.29a2.38,2.38,0,0,0-.92-2,11,11,0,0,0-3.33-1.44,16.19,16.19,0,0,1-3.83-1.61,5.12,5.12,0,0,1-2.72-4.46,4.87,4.87,0,0,1,2-4,8,8,0,0,1,5.1-1.56,8.59,8.59,0,0,1,3.7.76,6.1,6.1,0,0,1,2.56,2.19,5.56,5.56,0,0,1,.93,3.13h-3.45a3.09,3.09,0,0,0-1-2.42,4.1,4.1,0,0,0-2.8-.87,4.22,4.22,0,0,0-2.63.72,2.38,2.38,0,0,0-.94,2,2.17,2.17,0,0,0,1,1.82,11.69,11.69,0,0,0,3.34,1.42,15.25,15.25,0,0,1,3.73,1.57,6,6,0,0,1,2.07,2,5.33,5.33,0,0,1,.65,2.67,4.74,4.74,0,0,1-1.9,4,8.3,8.3,0,0,1-5.18,1.47,9.61,9.61,0,0,1-4-.8,6.64,6.64,0,0,1-2.82-2.21,5.47,5.47,0,0,1-1-3.28h3.46a3.22,3.22,0,0,0,1.12,2.63A4.89,4.89,0,0,0,237,340a4.3,4.3,0,0,0,2.71-.73A2.37,2.37,0,0,0,240.58,337.29Z" transform="translate(-3.72)"/><path d="M262.44,325.3h-6.2v17.12h-3.43V325.3h-6.16v-2.79h15.79Z" transform="translate(-3.72)"/><path d="M275.54,337.78h-7.71l-1.61,4.64h-3.6l7.52-19.91h3.11l7.53,19.91h-3.61ZM268.8,335h5.77l-2.88-8.25Z" transform="translate(-3.72)"/><path d="M291.33,334.76h-3.85v7.66H284V322.51h7a8.15,8.15,0,0,1,5.32,1.55,5.46,5.46,0,0,1,1.87,4.47,5.64,5.64,0,0,1-1,3.35,6.14,6.14,0,0,1-2.69,2.07l4.47,8.29v.18h-3.7ZM287.48,332H291a4,4,0,0,0,2.74-.88,3.09,3.09,0,0,0,1-2.41,3.28,3.28,0,0,0-.91-2.48,3.87,3.87,0,0,0-2.71-.9h-3.65Z" transform="translate(-3.72)"/><path d="M316.18,325.3H310v17.12h-3.43V325.3h-6.16v-2.79h15.8Z" transform="translate(-3.72)"/><path d="M331.41,333.53h-8.18v6.1h9.56v2.79h-13V322.51h12.92v2.79h-9.46v5.5h8.18Z" transform="translate(-3.72)"/><path d="M343.9,334.76h-3.85v7.66h-3.46V322.51h7a8.17,8.17,0,0,1,5.32,1.55,5.49,5.49,0,0,1,1.87,4.47,5.58,5.58,0,0,1-1,3.35,6,6,0,0,1-2.68,2.07l4.47,8.29v.18h-3.71ZM340.05,332h3.55a4,4,0,0,0,2.74-.88,3.09,3.09,0,0,0,1-2.41,3.28,3.28,0,0,0-.91-2.48,3.89,3.89,0,0,0-2.71-.9h-3.65Z" transform="translate(-3.72)"/><path d="M375.58,325.3h-6.21v17.12h-3.43V325.3h-6.15v-2.79h15.79Z" transform="translate(-3.72)"/><path d="M395,342.42h-3.45v-8.83h-8.9v8.83h-3.45V322.51h3.45v8.29h8.9v-8.29H395Z" transform="translate(-3.72)"/><path d="M411.69,333.53h-8.18v6.1h9.56v2.79h-13V322.51H413v2.79h-9.46v5.5h8.18Z" transform="translate(-3.72)"/><path d="M421.35,322.51l5.75,15.26,5.72-15.26h4.47v19.91h-3.44v-6.56l.34-8.78-5.88,15.34h-2.47L420,327.09l.34,8.77v6.56h-3.44V322.51Z" transform="translate(-3.72)"/><path d="M454,333.53h-8.17v6.1h9.55v2.79h-13V322.51h12.92v2.79h-9.46v5.5H454Z" transform="translate(-3.72)"/></g></g></g></g></svg>