<svg xmlns="http://www.w3.org/2000/svg" xmlns:xlink="http://www.w3.org/1999/xlink" id="Layer_2" data-name="Layer 2" viewBox="0 0 508.77 350.01"><defs><style>.cls-1{fill:#fff;fill-rule:evenodd}.cls-2{fill:#0c97f9;font-family:RussoOne-Regular,&apos;Russo One&apos;;font-size:62px}.cls-3{clip-path:url(#clippath)}.cls-4{fill:none}.cls-5{font-family:Roboto-Medium,Roboto;font-size:28px;font-weight:500}.cls-6{fill:url(#linear-gradient)}</style><linearGradient id="linear-gradient" x1="-39.75" x2="-38.83" y1="738.28" y2="736.35" gradientTransform="translate(5119.96 81974.36) scale(123.63 -111)" gradientUnits="userSpaceOnUse"><stop offset="0" stop-color="#8772f7"/><stop offset="1" stop-color="#1a69f4"/></linearGradient><clipPath id="clippath"><rect width="165.86" height="171.68" x="168.72" y="34.69" class="cls-4"/></clipPath></defs><g id="Layer_1-2" data-name="Layer 1"><g id="logo"><g id="phenix"><path id="icon-base" d="m306.34,0c10.23,0,19.69,5.46,24.8,14.32l51.44,89.37c5.08,8.84,5.08,19.71,0,28.55l-51.44,89.37c-5.12,8.86-14.57,14.32-24.8,14.32h-102.78c-10.22,0-19.67-5.47-24.78-14.32l-51.38-89.37c-5.08-8.84-5.08-19.71,0-28.55L178.78,14.32C183.88,5.47,193.33,0,203.55,0h102.78Z" class="cls-6"/><g class="cls-3"><path d="m274.57,48.53c28.82,5.69,41.52,71.73,9.33,78.85,2.63,2.34,9.83,5.27,15.72,13.45,13.35,18.57,6.43,31.56,6.82,39.2,4.17-3.01,8.29-7.48,11.54-11.67,13.3-17.13,19.71-37.78,15.14-59.74-1.42,1.75-1.5,3.01-3.63,4.99.69-27.45-24.58-66.6-54.91-65.09m-14.97,135.1c-20.55-8.35-70.28-10.11-88.6-33.79,9.47,20.5,31.82,28.12,53.42,32.86,20.09,4.41,44.89,1.36,50.97,23.67,3.83-9.35-5.87-18.7-15.79-22.74m13.28,22.37c-4.97-17.16-43.86-16.67-75.45-26.13-4.53-1.36-16.55-5.68-18.33-7.01,33.11,25.39,65.01,14.62,87.63,27.93,3.99,2.43,3.43,2.85,6.15,5.22m13.08-106.25c-.17-15.65-12.78-15.78-21.51-16.2-2.02-.1-12.66-3.64-20.29.12l-4.91-.07c-3.28.02-7.72.37-10.51-1.74l-2.35-2.34c-.11-.11-.29-.31-.45-.45.17,4.49,1.8,7.73,3.85,10.02,1.39,1.55,5.31,4.61,8.14,4.66l-3.39,10.1c-6.7,26.67,10.69,31.08,28.34,43.86,9.33,6.75,20.03,16.52,18.47,29.26.05-3.05-4.4-10.28-6.04-12.53-18.09-24.71-95.67-41.77-53.44-104.45,10.52-15.62,28.3-25.68,49.13-23.94-1.85-.36-3.87-.78-5.16-.91-48.76-5.05-89.24,31.34-91.08,79.88l-3.83-8.49c-3.27,7.27-2.84,24.6.89,32.22,7.75,19.17,33.07,27.41,51.35,31.95,25.33,6.29,60.1,5.46,54.41,33.75,11.17-2.73,27.13-28.97,25.19-43.14-2.23-16.38-14.31-30.72-31.34-34.67-3.17-.74-4.57-.82-7.23-2.52-2.28-1.46-3.63-3.68-5.37-4.42-.88-2.3-2.18-4.28-2.64-7.03-1.01-6.16,1.61-12.18,6.39-16.11,7.92-6.5,16.22-1.93,23.37,3.17m-28.63-12.63l.98.7c.51.37.49,1.14-.05,1.48l-1.02.64c-.15.09-.32.14-.5.14l-4.09-.13c-.18,0-.35-.06-.49-.17l-.98-.7c-.51-.37-.49-1.14.05-1.48l1.02-.64c.15-.09.32-.14.5-.14l4.09.13c.18,0,.35.06.49.17Z" class="cls-1"/></g></g><g id="logo-icon"><text class="cls-2" transform="translate(0 301.52)"><tspan x="0" y="0">PHENIX BLOCKS</tspan></text><text class="cls-5" transform="translate(32.33 342.42)"><tspan x="0" y="0">WORDPRESS NEXT GENERATION</tspan></text></g></g></g></svg>