<svg xmlns="http://www.w3.org/2000/svg" xmlns:xlink="http://www.w3.org/1999/xlink" viewBox="0 0 496.39 97.99"><defs><style>.cls-1{fill:none;}.cls-2{fill:#0c97f9;}.cls-3{fill:url(#linear-gradient);}.cls-4{clip-path:url(#clip-path);}.cls-5{fill:#fff;fill-rule:evenodd;}</style><linearGradient id="linear-gradient" x1="-41.38" y1="310.82" x2="-41" y2="310.02" gradientTransform="matrix(123.63, 0, 0, -111, 5149.93, 34511.79)" gradientUnits="userSpaceOnUse"><stop offset="0" stop-color="#8772f7"/><stop offset="1" stop-color="#1a69f4"/></linearGradient><clipPath id="clip-path"><rect class="cls-1" x="18.74" y="14.41" width="68.88" height="71.3"/></clipPath></defs><g id="Layer_2" data-name="Layer 2"><g id="Layer_1-2" data-name="Layer 1"><g id="logo-x"><g id="logo-text"><path class="cls-2" d="M129.2,19.09h19q4.74,0,6.9,2.15t2.14,6.9v4.53q0,4.74-2.14,6.89c-1.44,1.44-3.74,2.15-6.9,2.15H137.35v9H129.2Zm19.91,9.05a2.39,2.39,0,0,0-2.71-2.71h-9.05v10h9.05a2.39,2.39,0,0,0,2.71-2.71Z"/><path class="cls-2" d="M188.92,50.76h-8.14V37.87H169.47V50.76h-8.14V19.09h8.14V31.53h11.31V19.09h8.14Z"/><path class="cls-2" d="M219.46,50.76H194.35V19.09h25.11v6.34h-17v6.1h13.34v6.34H202.5v6.56h17Z"/><path class="cls-2" d="M250.68,50.76h-8.6l-10.85-19v19h-8.15V19.09h8.6l10.86,19v-19h8.14Z"/><path class="cls-2" d="M271,50.76H254.75V44.43h4.07v-19h-4.07V19.09H271v6.34H267v19H271Z"/><path class="cls-2" d="M293.43,19.09h9.05L292.3,34.93l10.41,15.83h-9l-6.33-9.95L281,50.76h-9.05l10.41-15.83L272.17,19.09h9l6.16,10Z"/><path class="cls-2" d="M318.54,19.09h18.1q4.44,0,6.52,2c1.38,1.34,2.08,3.38,2.08,6.13a7.61,7.61,0,0,1-1.18,4.41,6.28,6.28,0,0,1-2.9,2.37,7,7,0,0,1,5,4.89,10.66,10.66,0,0,1,.45,3.26q0,4.42-2.08,6.51T338,50.76H318.54Zm18.55,9.05a2.39,2.39,0,0,0-2.71-2.71h-7.69v6.33h7.69a2.4,2.4,0,0,0,2.71-2.71Zm1.36,12.67a2.4,2.4,0,0,0-2.71-2.72h-9.05v6.34h9.05a2.4,2.4,0,0,0,2.71-2.72Z"/><path class="cls-2" d="M358.81,44.43h16.51v6.33H350.66V19.09h8.15Z"/><path class="cls-2" d="M407,42.17c0,3.16-.71,5.46-2.15,6.9s-3.73,2.14-6.9,2.14H386.63q-4.74,0-6.9-2.14t-2.15-6.9V27.69q0-4.76,2.15-6.9t6.9-2.15h11.31q4.76,0,6.9,2.15c1.44,1.43,2.15,3.73,2.15,6.9Zm-8.14-14.48A2.41,2.41,0,0,0,396.13,25h-7.69a2.4,2.4,0,0,0-2.71,2.72V42.17a2.39,2.39,0,0,0,2.71,2.71h7.69a2.4,2.4,0,0,0,2.72-2.71Z"/><path class="cls-2" d="M436,50.31q-10.09.9-16.74.9-4.44,0-6.52-2.08c-1.39-1.38-2.08-3.56-2.08-6.51V28.14q0-4.76,2.15-6.9t6.9-2.15H436v6.34H421.47a2.39,2.39,0,0,0-2.71,2.71V42.62a2.23,2.23,0,0,0,.61,1.65,2.08,2.08,0,0,0,1.56.61l2.08,0,2.35-.07,2.47-.09q1.25,0,3.21-.18L436,44.2Z"/><path class="cls-2" d="M447.71,50.76h-8.14V19.09h8.14V31.53h4.07l7.06-12.44h8.6L458.57,34.7l8.82,16.06h-8.6l-7-12.89h-4.07Z"/><path class="cls-2" d="M469.2,44.2q12.39.67,16.79.68a2.23,2.23,0,0,0,1.65-.61,2.27,2.27,0,0,0,.61-1.65V38.55H477.84q-4.75,0-6.9-2.15t-2.15-6.9V28.14q0-4.76,2.15-6.9t6.9-2.15h15.88v6.34H479.65a2.39,2.39,0,0,0-2.71,2.71v.91a2.4,2.4,0,0,0,2.71,2.71h8.15q4.43,0,6.51,2.08t2.08,6.52v2.26c0,3-.69,5.13-2.08,6.51s-3.56,2.08-6.51,2.08q-2.31,0-4.89-.09l-4.16-.18q-4.62-.22-9.55-.63Z"/><path d="M143.45,75l2.63-12.84H149l-3.94,17.06h-2.84L139,66.72l-3.32,12.46h-2.85L128.9,62.12h2.94l2.65,12.82,3.25-12.82h2.49Z"/><path d="M165.65,71.09a10.41,10.41,0,0,1-.87,4.4,6.59,6.59,0,0,1-2.48,2.91,7.3,7.3,0,0,1-7.41,0,6.68,6.68,0,0,1-2.5-2.89,10.16,10.16,0,0,1-.9-4.32v-1a10.36,10.36,0,0,1,.88-4.41,6.66,6.66,0,0,1,2.5-2.92,6.79,6.79,0,0,1,3.7-1,7,7,0,0,1,3.7,1,6.61,6.61,0,0,1,2.49,2.89,10.45,10.45,0,0,1,.89,4.37Zm-3-.89a7.51,7.51,0,0,0-1.07-4.35,3.78,3.78,0,0,0-6.05,0,7.35,7.35,0,0,0-1.11,4.26v1a7.39,7.39,0,0,0,1.1,4.35,3.53,3.53,0,0,0,3,1.54,3.49,3.49,0,0,0,3-1.5,7.55,7.55,0,0,0,1.06-4.39Z"/><path d="M175.71,72.62h-3.3v6.56h-3V62.12h6A7,7,0,0,1,180,63.44a4.7,4.7,0,0,1,1.61,3.84,4.79,4.79,0,0,1-.83,2.86,5.17,5.17,0,0,1-2.3,1.78L182.31,79v.15h-3.18Zm-3.3-2.39h3a3.42,3.42,0,0,0,2.35-.76,2.63,2.63,0,0,0,.84-2.07,2.81,2.81,0,0,0-.78-2.12,3.27,3.27,0,0,0-2.32-.77h-3.13Z"/><path d="M185.26,79.18V62.12h5a7.94,7.94,0,0,1,4,1A7,7,0,0,1,197,66a9.11,9.11,0,0,1,1,4.25v.85a9,9,0,0,1-1,4.27,6.76,6.76,0,0,1-2.75,2.83,8.22,8.22,0,0,1-4.1,1Zm3-14.67V76.79h1.93a4.45,4.45,0,0,0,3.58-1.46A6.3,6.3,0,0,0,195,71.15v-1a6.52,6.52,0,0,0-1.2-4.23,4.29,4.29,0,0,0-3.51-1.46Z"/><path d="M204.75,72.85v6.33h-3V62.12h6.52a6.6,6.6,0,0,1,4.55,1.49,5,5,0,0,1,1.68,3.94,4.83,4.83,0,0,1-1.65,3.9,6.87,6.87,0,0,1-4.61,1.4Zm0-2.39h3.56a3.56,3.56,0,0,0,2.42-.74,2.77,2.77,0,0,0,.83-2.15,3,3,0,0,0-.84-2.21,3.25,3.25,0,0,0-2.32-.85h-3.65Z"/><path d="M224.24,72.62h-3.3v6.56h-3V62.12h6a7,7,0,0,1,4.56,1.32,4.7,4.7,0,0,1,1.6,3.84,4.79,4.79,0,0,1-.82,2.86,5.17,5.17,0,0,1-2.3,1.78L230.84,79v.15h-3.18Zm-3.3-2.39h3a3.44,3.44,0,0,0,2.35-.76,2.63,2.63,0,0,0,.84-2.07,2.81,2.81,0,0,0-.78-2.12,3.28,3.28,0,0,0-2.33-.77h-3.12Z"/><path d="M243.76,71.56h-7v5.23H245v2.39H233.79V62.12h11.07v2.39h-8.1v4.71h7Z"/><path d="M257.12,74.78a2,2,0,0,0-.79-1.73,9.38,9.38,0,0,0-2.85-1.23,13.79,13.79,0,0,1-3.28-1.38,4.38,4.38,0,0,1-2.34-3.82,4.16,4.16,0,0,1,1.69-3.4,6.79,6.79,0,0,1,4.36-1.34,7.35,7.35,0,0,1,3.18.66,5.21,5.21,0,0,1,2.19,1.87,4.8,4.8,0,0,1,.8,2.69h-3a2.64,2.64,0,0,0-.84-2.08,3.44,3.44,0,0,0-2.39-.75,3.66,3.66,0,0,0-2.26.62,2.07,2.07,0,0,0-.8,1.73,1.87,1.87,0,0,0,.87,1.56,10.13,10.13,0,0,0,2.86,1.21,13,13,0,0,1,3.2,1.35,5.15,5.15,0,0,1,1.77,1.73,4.57,4.57,0,0,1,.56,2.29,4.06,4.06,0,0,1-1.64,3.39A7.09,7.09,0,0,1,254,79.41a8.31,8.31,0,0,1-3.41-.68,5.77,5.77,0,0,1-2.41-1.89,4.71,4.71,0,0,1-.86-2.82h3a2.76,2.76,0,0,0,1,2.25,4.22,4.22,0,0,0,2.76.8,3.63,3.63,0,0,0,2.32-.63A2,2,0,0,0,257.12,74.78Z"/><path d="M272.45,74.78a2,2,0,0,0-.79-1.73,9.38,9.38,0,0,0-2.85-1.23,13.79,13.79,0,0,1-3.28-1.38,4.38,4.38,0,0,1-2.34-3.82,4.15,4.15,0,0,1,1.68-3.4,6.84,6.84,0,0,1,4.37-1.34,7.35,7.35,0,0,1,3.18.66,5.21,5.21,0,0,1,2.19,1.87,4.79,4.79,0,0,1,.79,2.69h-2.95a2.64,2.64,0,0,0-.84-2.08,3.46,3.46,0,0,0-2.39-.75,3.66,3.66,0,0,0-2.26.62,2.07,2.07,0,0,0-.8,1.73,1.87,1.87,0,0,0,.87,1.56,10,10,0,0,0,2.85,1.21,12.65,12.65,0,0,1,3.2,1.35,5,5,0,0,1,1.77,1.73,4.47,4.47,0,0,1,.57,2.29,4.06,4.06,0,0,1-1.64,3.39,7.09,7.09,0,0,1-4.43,1.26,8.31,8.31,0,0,1-3.41-.68,5.77,5.77,0,0,1-2.41-1.89,4.71,4.71,0,0,1-.86-2.82h3a2.76,2.76,0,0,0,1,2.25,4.22,4.22,0,0,0,2.76.8,3.63,3.63,0,0,0,2.32-.63A2,2,0,0,0,272.45,74.78Z"/><path d="M293.76,74.78a2.06,2.06,0,0,0-.8-1.73,9.15,9.15,0,0,0-2.85-1.23,14,14,0,0,1-3.28-1.38,4.39,4.39,0,0,1-2.33-3.82,4.15,4.15,0,0,1,1.68-3.4,6.81,6.81,0,0,1,4.36-1.34,7.35,7.35,0,0,1,3.18.66,5.21,5.21,0,0,1,2.19,1.87,4.8,4.8,0,0,1,.8,2.69h-2.95a2.64,2.64,0,0,0-.84-2.08,3.49,3.49,0,0,0-2.4-.75,3.61,3.61,0,0,0-2.25.62,2.05,2.05,0,0,0-.81,1.73,1.87,1.87,0,0,0,.87,1.56,10.13,10.13,0,0,0,2.86,1.21,12.81,12.81,0,0,1,3.2,1.35,5.15,5.15,0,0,1,1.77,1.73,4.57,4.57,0,0,1,.56,2.29,4.05,4.05,0,0,1-1.63,3.39,7.1,7.1,0,0,1-4.44,1.26,8.26,8.26,0,0,1-3.4-.68,5.8,5.8,0,0,1-2.42-1.89A4.78,4.78,0,0,1,284,74h3a2.76,2.76,0,0,0,1,2.25,4.19,4.19,0,0,0,2.75.8,3.66,3.66,0,0,0,2.33-.63A2,2,0,0,0,293.76,74.78Z"/><path d="M312.49,64.51h-5.32V79.18h-2.94V64.51H299V62.12h13.53Z"/><path d="M323.72,75.21h-6.61l-1.38,4h-3.08l6.44-17.06h2.66l6.46,17.06h-3.1Zm-5.78-2.39h4.95l-2.47-7.08Z"/><path d="M337.26,72.62H334v6.56h-3V62.12h6a7,7,0,0,1,4.55,1.32,4.7,4.7,0,0,1,1.61,3.84,4.79,4.79,0,0,1-.83,2.86,5.12,5.12,0,0,1-2.3,1.78L343.85,79v.15h-3.17ZM334,70.23H337a3.39,3.39,0,0,0,2.34-.76,2.64,2.64,0,0,0,.85-2.07,2.81,2.81,0,0,0-.78-2.12,3.3,3.3,0,0,0-2.33-.77H334Z"/><path d="M358.55,64.51h-5.32V79.18h-2.94V64.51H345V62.12h13.54Z"/><path d="M371.6,71.56h-7v5.23h8.19v2.39H361.63V62.12H372.7v2.39h-8.1v4.71h7Z"/><path d="M382.31,72.62H379v6.56h-3V62.12h6a7,7,0,0,1,4.56,1.32,4.7,4.7,0,0,1,1.61,3.84,4.79,4.79,0,0,1-.83,2.86,5.17,5.17,0,0,1-2.3,1.78L388.91,79v.15h-3.17ZM379,70.23h3.05a3.39,3.39,0,0,0,2.34-.76,2.63,2.63,0,0,0,.84-2.07,2.81,2.81,0,0,0-.78-2.12,3.25,3.25,0,0,0-2.32-.77H379Z"/><path d="M409.47,64.51h-5.32V79.18H401.2V64.51h-5.27V62.12h13.54Z"/><path d="M426.1,79.18h-3V71.61h-7.63v7.57h-3V62.12h3v7.1h7.63v-7.1h3Z"/><path d="M440.42,71.56h-7v5.23h8.19v2.39H430.44V62.12h11.08v2.39h-8.11v4.71h7Z"/><path d="M448.7,62.12l4.92,13.07,4.91-13.07h3.83V79.18h-2.95V73.55L459.7,66l-5,13.15h-2.13l-5-13.14.29,7.51v5.63h-2.95V62.12Z"/><path d="M476.69,71.56h-7v5.23h8.19v2.39H466.71V62.12h11.08v2.39h-8.11v4.71h7Z"/></g><g id="logo-icon"><path id="icon-base" class="cls-3" d="M75.9,0A11.9,11.9,0,0,1,86.2,6l21.36,37.12a11.88,11.88,0,0,1,0,11.85L86.2,92A11.9,11.9,0,0,1,75.9,98H33.21A11.87,11.87,0,0,1,22.92,92L1.58,54.92a11.88,11.88,0,0,1,0-11.85L22.92,6A11.87,11.87,0,0,1,33.21,0Z"/><g class="cls-4"><path class="cls-5" d="M62.7,20.15c12,2.37,17.25,29.79,3.88,32.75,1.09,1,4.08,2.19,6.53,5.59,5.54,7.71,2.67,13.11,2.83,16.28a25.31,25.31,0,0,0,4.79-4.85c5.52-7.11,8.18-15.69,6.29-24.81a12.48,12.48,0,0,1-1.51,2.08c.28-11.4-10.21-27.66-22.81-27M56.49,76.26c-8.54-3.47-29.19-4.2-36.8-14,3.93,8.51,13.22,11.68,22.19,13.65,8.34,1.83,18.64.56,21.16,9.83,1.6-3.89-2.43-7.77-6.55-9.45M62,85.55c-2.06-7.12-18.21-6.92-31.33-10.85a55.35,55.35,0,0,1-7.62-2.91c13.75,10.54,27,6.07,36.39,11.59A11.69,11.69,0,0,1,62,85.55m5.43-44.12c-.07-6.5-5.31-6.56-8.93-6.73-.84,0-5.26-1.51-8.43,0l-2,0c-1.36,0-3.2.15-4.36-.72l-1-1a1.53,1.53,0,0,0-.18-.18A6.42,6.42,0,0,0,44.1,37c.58.64,2.21,1.91,3.38,1.93l-1.4,4.2C43.29,54.21,50.52,56,57.85,61.35c3.87,2.81,8.31,6.86,7.67,12.15,0-1.26-1.83-4.27-2.51-5.2C55.5,58,23.28,51,40.81,24.92A22.14,22.14,0,0,1,61.22,15c-.77-.15-1.61-.32-2.15-.38C38.83,12.5,22,27.62,21.25,47.77l-1.59-3.52c-1.36,3-1.18,10.22.37,13.38,3.21,8,13.73,11.39,21.32,13.27,10.52,2.62,25,2.27,22.6,14,4.64-1.13,11.27-12,10.46-17.91a17.14,17.14,0,0,0-13-14.4,7.56,7.56,0,0,1-3-1c-.95-.61-1.51-1.53-2.24-1.84a14.16,14.16,0,0,1-1.09-2.92,7.19,7.19,0,0,1,2.65-6.69c3.29-2.7,6.74-.8,9.71,1.32m-11.82-5.2h0a.65.65,0,0,1,0,1.08h0a.72.72,0,0,1-.36.1l-1.53,0a.77.77,0,0,1-.36-.12h0a.65.65,0,0,1,0-1.08h0a.69.69,0,0,1,.37-.1l1.53,0A.67.67,0,0,1,55.61,36.23Z"/></g></g></g></g></g></svg>