<svg xmlns="http://www.w3.org/2000/svg" xmlns:xlink="http://www.w3.org/1999/xlink" id="Layer_2" data-name="Layer 2" viewBox="0 0 505.56 97.99"><defs><style>.cls-1{fill:#0c97f9;font-family:RussoOne-Regular,&apos;Russo One&apos;;font-size:45.24px}.cls-2{fill:#fff;fill-rule:evenodd}.cls-3{clip-path:url(#clippath)}.cls-4{fill:none}.cls-5{font-family:Roboto-Medium,Roboto;font-size:24px;font-weight:500}.cls-6{fill:url(#linear-gradient)}</style><linearGradient id="linear-gradient" x1="-41.38" x2="-41" y1="310.82" y2="310.02" gradientTransform="translate(5149.93 34511.79) scale(123.63 -111)" gradientUnits="userSpaceOnUse"><stop offset="0" stop-color="#8772f7"/><stop offset="1" stop-color="#1a69f4"/></linearGradient><clipPath id="clippath"><rect width="68.88" height="71.3" x="18.74" y="14.41" class="cls-4"/></clipPath></defs><g id="Layer_1-2" data-name="Layer 1"><g id="logo-x"><g id="logo-text"><text class="cls-1" transform="translate(126.49 50.76)"><tspan x="0" y="0">PHENIX BLOCKS</tspan></text><text class="cls-5" transform="translate(128.76 79.18)"><tspan x="0" y="0">WORDPRESS NEXT GENERATION</tspan></text></g><g id="logo-icon"><path id="icon-base" d="m75.9,0c4.25,0,8.18,2.27,10.3,5.95l21.36,37.12c2.11,3.67,2.11,8.19,0,11.86l-21.36,37.12c-2.12,3.68-6.05,5.95-10.3,5.95h-42.69c-4.25,0-8.17-2.27-10.29-5.95L1.58,54.92c-2.11-3.67-2.11-8.19,0-11.86L22.92,5.95C25.04,2.27,28.96,0,33.21,0h42.69Z" class="cls-6"/><g class="cls-3"><path d="m62.7,20.15c11.97,2.36,17.24,29.79,3.87,32.75,1.09.97,4.08,2.19,6.53,5.59,5.55,7.71,2.67,13.11,2.83,16.28,1.73-1.25,3.44-3.11,4.79-4.85,5.53-7.12,8.18-15.69,6.29-24.81-.59.73-.62,1.25-1.51,2.07.29-11.4-10.21-27.66-22.8-27.03m-6.22,56.11c-8.53-3.47-29.19-4.2-36.8-14.04,3.93,8.51,13.22,11.68,22.19,13.65,8.34,1.83,18.64.56,21.17,9.83,1.59-3.88-2.44-7.77-6.56-9.44m5.51,9.29c-2.06-7.13-18.21-6.92-31.33-10.85-1.88-.56-6.87-2.36-7.61-2.91,13.75,10.54,27,6.07,36.39,11.6,1.66,1.01,1.43,1.18,2.56,2.17m5.43-44.13c-.07-6.5-5.31-6.55-8.93-6.73-.84-.04-5.26-1.51-8.43.05l-2.04-.03c-1.36,0-3.21.15-4.36-.72l-.98-.97s-.12-.13-.19-.19c.07,1.86.75,3.21,1.6,4.16.58.64,2.21,1.91,3.38,1.94l-1.41,4.19c-2.78,11.08,4.44,12.91,11.77,18.22,3.87,2.81,8.32,6.86,7.67,12.15.02-1.27-1.83-4.27-2.51-5.2-7.51-10.26-39.73-17.35-22.2-43.38,4.37-6.49,11.75-10.66,20.41-9.94-.77-.15-1.61-.32-2.14-.38-20.25-2.1-37.06,13.02-37.83,33.17l-1.59-3.52c-1.36,3.02-1.18,10.22.37,13.38,3.22,7.96,13.73,11.38,21.33,13.27,10.52,2.61,24.96,2.27,22.6,14.02,4.64-1.13,11.27-12.03,10.46-17.92-.93-6.8-5.94-12.76-13.02-14.4-1.32-.31-1.9-.34-3-1.05-.95-.61-1.51-1.53-2.23-1.84-.36-.95-.91-1.78-1.1-2.92-.42-2.56.67-5.06,2.65-6.69,3.29-2.7,6.74-.8,9.71,1.31m-11.82-5.2h0c.37.27.36.83-.03,1.08h0c-.11.07-.24.1-.37.1l-1.53-.05c-.13,0-.25-.05-.36-.12h0c-.37-.27-.36-.83.03-1.08h0c.11-.07.24-.1.37-.1l1.53.05c.13,0,.25.05.36.12Z" class="cls-2"/></g></g></g></g></svg>