<?xml version="1.0" encoding="utf-8"?>
<!-- Generator: Adobe Illustrator 27.1.0, SVG Export Plug-In . SVG Version: 6.00 Build 0)  -->
<svg version="1.1" id="Layer_2_00000044177658493379722270000003825731161481194895_"
	 xmlns="http://www.w3.org/2000/svg" xmlns:xlink="http://www.w3.org/1999/xlink" x="0px" y="0px" viewBox="0 0 508.8 350"
	 style="enable-background:new 0 0 508.8 350;" xml:space="preserve">
<style type="text/css">
	.st0{fill:url(#icon-base_00000039118876555418955670000014881443325091606459_);}
	.st1{clip-path:url(#SVGID_00000081622673927642849420000017496813505443249070_);}
	.st2{fill-rule:evenodd;clip-rule:evenodd;fill:#FFFFFF;}
	.st3{enable-background:new    ;}
	.st4{fill:#0C97F9;}
	.st5{fill:#F2F2F2;}
</style>
<g id="Layer_1-2">
	<g id="logo">
		<g id="phenix">
			
				<linearGradient id="icon-base_00000075848363395479087790000004712146492188940425_" gradientUnits="userSpaceOnUse" x1="-82.4014" y1="-140.1743" x2="-81.4814" y2="-138.2443" gradientTransform="matrix(123.63 0 0 111 10393.0498 15584.5879)">
				<stop  offset="0" style="stop-color:#8772F7"/>
				<stop  offset="1" style="stop-color:#1A69F4"/>
			</linearGradient>
			<path id="icon-base" style="fill:url(#icon-base_00000075848363395479087790000004712146492188940425_);" d="M306.3,0
				c10.2,0,19.7,5.5,24.8,14.3l51.4,89.4c5.1,8.8,5.1,19.7,0,28.6l-51.4,89.4c-5.1,8.9-14.6,14.3-24.8,14.3H203.6
				c-10.2,0-19.7-5.5-24.8-14.3l-51.4-89.4c-5.1-8.8-5.1-19.7,0-28.6l51.4-89.4C183.9,5.5,193.3,0,203.6,0H306.3L306.3,0z"/>
			<g>
				<defs>
					<rect id="SVGID_1_" x="168.7" y="34.7" width="165.9" height="171.7"/>
				</defs>
				<clipPath id="SVGID_00000072246389043483949740000000867726594609621695_">
					<use xlink:href="#SVGID_1_"  style="overflow:visible;"/>
				</clipPath>
				<g style="clip-path:url(#SVGID_00000072246389043483949740000000867726594609621695_);">
					<path class="st2" d="M274.6,48.5c28.8,5.7,41.5,71.7,9.3,78.8c2.6,2.3,9.8,5.3,15.7,13.5c13.4,18.6,6.4,31.6,6.8,39.2
						c4.2-3,8.3-7.5,11.5-11.7c13.3-17.1,19.7-37.8,15.1-59.7c-1.4,1.8-1.5,3-3.6,5C330.2,86.2,304.9,47,274.6,48.5 M259.6,183.6
						c-20.6-8.4-70.3-10.1-88.6-33.8c9.5,20.5,31.8,28.1,53.4,32.9c20.1,4.4,44.9,1.4,51,23.7C279.2,197,269.5,187.7,259.6,183.6
						 M272.9,206c-5-17.2-43.9-16.7-75.4-26.1c-4.5-1.4-16.6-5.7-18.3-7c33.1,25.4,65,14.6,87.6,27.9
						C270.7,203.2,270.2,203.6,272.9,206 M286,99.7c-0.2-15.7-12.8-15.8-21.5-16.2c-2-0.1-12.7-3.6-20.3,0.1l-4.9-0.1
						c-3.3,0-7.7,0.4-10.5-1.7l-2.4-2.3c-0.1-0.1-0.3-0.3-0.4-0.4c0.2,4.5,1.8,7.7,3.9,10c1.4,1.6,5.3,4.6,8.1,4.7l-3.4,10.1
						c-6.7,26.7,10.7,31.1,28.3,43.9c9.3,6.8,20,16.5,18.5,29.3c0-3.1-4.4-10.3-6-12.5c-18.1-24.7-95.7-41.8-53.4-104.4
						C232.4,44.4,250.2,34.3,271,36c-1.9-0.4-3.9-0.8-5.2-0.9c-48.8-5-89.2,31.3-91.1,79.9l-3.8-8.5c-3.3,7.3-2.8,24.6,0.9,32.2
						c7.8,19.2,33.1,27.4,51.3,31.9c25.3,6.3,60.1,5.5,54.4,33.8c11.2-2.7,27.1-29,25.2-43.1c-2.2-16.4-14.3-30.7-31.3-34.7
						c-3.2-0.7-4.6-0.8-7.2-2.5c-2.3-1.5-3.6-3.7-5.4-4.4c-0.9-2.3-2.2-4.3-2.6-7c-1-6.2,1.6-12.2,6.4-16.1
						C270.5,90.1,278.8,94.6,286,99.7 M257.3,87.1l1,0.7c0.5,0.4,0.5,1.1,0,1.5l-1,0.6c-0.1,0.1-0.3,0.1-0.5,0.1l-4.1-0.1
						c-0.2,0-0.4-0.1-0.5-0.2l-1-0.7c-0.5-0.4-0.5-1.1,0.1-1.5l1-0.6c0.1-0.1,0.3-0.1,0.5-0.1l4.1,0.1C257,86.9,257.2,87,257.3,87.1
						L257.3,87.1z"/>
				</g>
			</g>
		</g>
		<g id="logo-icon">
			<g class="st3">
				<path class="st4" d="M3.7,258.1h26c4.3,0,7.5,1,9.5,2.9c2,2,2.9,5.1,2.9,9.5v6.2c0,4.3-1,7.5-2.9,9.5c-2,2-5.1,2.9-9.5,2.9H14.9
					v12.4H3.7V258.1z M31,270.5c0-2.5-1.2-3.7-3.7-3.7H14.9v13.6h12.4c2.5,0,3.7-1.2,3.7-3.7V270.5z"/>
				<path class="st4" d="M85.6,301.5H74.4v-17.7H58.9v17.7H47.7v-43.4h11.2v17.1h15.5v-17.1h11.2V301.5z"/>
				<path class="st4" d="M127.4,301.5H93v-43.4h34.4v8.7h-23.2v8.4h18.3v8.7h-18.3v9h23.2V301.5z"/>
				<path class="st4" d="M170.2,301.5h-11.8l-14.9-26v26h-11.2v-43.4h11.8l14.9,26v-26h11.2V301.5z"/>
				<path class="st4" d="M198.1,301.5h-22.3v-8.7h5.6v-26h-5.6v-8.7h22.3v8.7h-5.6v26h5.6V301.5z"/>
				<path class="st4" d="M228.8,258.1h12.4l-14,21.7l14.3,21.7h-12.4l-8.7-13.6l-8.7,13.6h-12.4l14.3-21.7l-14-21.7H212l8.4,13.6
					L228.8,258.1z"/>
				<path class="st4" d="M263.2,258.1H288c4.1,0,7,0.9,8.9,2.8c1.9,1.8,2.9,4.6,2.9,8.4c0,2.5-0.5,4.5-1.6,6c-1.1,1.6-2.4,2.6-4,3.3
					c3.3,0.9,5.6,3.1,6.8,6.7c0.4,1.3,0.6,2.8,0.6,4.5c0,4.1-1,7-2.9,8.9s-4.9,2.9-8.9,2.9h-26.7V258.1z M288.6,270.5
					c0-2.5-1.2-3.7-3.7-3.7h-10.5v8.7h10.5c2.5,0,3.7-1.2,3.7-3.7V270.5z M290.5,287.9c0-2.5-1.2-3.7-3.7-3.7h-12.4v8.7h12.4
					c2.5,0,3.7-1.2,3.7-3.7V287.9z"/>
				<path class="st4" d="M318.4,292.8H341v8.7h-33.8v-43.4h11.2V292.8z"/>
				<path class="st4" d="M384.4,289.7c0,4.3-1,7.5-2.9,9.5c-2,2-5.1,2.9-9.5,2.9h-15.5c-4.3,0-7.5-1-9.5-2.9c-2-2-2.9-5.1-2.9-9.5
					v-19.8c0-4.3,1-7.5,2.9-9.5c2-2,5.1-2.9,9.5-2.9H372c4.3,0,7.5,1,9.5,2.9c2,2,2.9,5.1,2.9,9.5V289.7z M373.2,269.9
					c0-2.5-1.2-3.7-3.7-3.7H359c-2.5,0-3.7,1.2-3.7,3.7v19.8c0,2.5,1.2,3.7,3.7,3.7h10.5c2.5,0,3.7-1.2,3.7-3.7V269.9z"/>
				<path class="st4" d="M424.1,300.9c-9.2,0.8-16.9,1.2-22.9,1.2c-4.1,0-7-1-8.9-2.9c-1.9-1.9-2.9-4.9-2.9-8.9v-19.8
					c0-4.3,1-7.5,2.9-9.5c2-2,5.1-2.9,9.5-2.9h22.3v8.7h-19.8c-2.5,0-3.7,1.2-3.7,3.7v19.8c0,1,0.3,1.7,0.8,2.3
					c0.6,0.6,1.3,0.8,2.1,0.8s1.8,0,2.9,0c1,0,2.1-0.1,3.2-0.1c1.1,0,2.2-0.1,3.4-0.1c1.1,0,2.6-0.1,4.4-0.2c1.8-0.1,4-0.3,6.7-0.4
					V300.9z"/>
				<path class="st4" d="M440.2,301.5H429v-43.4h11.2v17.1h5.6l9.7-17.1h11.8l-12.2,21.4l12.1,22h-11.8l-9.6-17.7h-5.6V301.5z"/>
				<path class="st4" d="M469.6,292.5c11.3,0.6,19,0.9,23,0.9c1,0,1.7-0.3,2.3-0.8c0.6-0.6,0.8-1.3,0.8-2.3v-5.6h-14.3
					c-4.3,0-7.5-1-9.5-2.9s-2.9-5.1-2.9-9.5v-1.9c0-4.3,1-7.5,2.9-9.5c2-2,5.1-2.9,9.5-2.9h21.8v8.7H484c-2.5,0-3.7,1.2-3.7,3.7v1.2
					c0,2.5,1.2,3.7,3.7,3.7h11.2c4,0,7,1,8.9,2.9c1.9,1.9,2.9,4.9,2.9,8.9v3.1c0,4.1-1,7-2.9,8.9c-1.9,1.9-4.9,2.9-8.9,2.9
					c-2.1,0-4.3,0-6.7-0.1l-5.7-0.2c-4.2-0.2-8.6-0.5-13.1-0.9V292.5z"/>
			</g>
			<g class="st3">
				<path class="st5" d="M50,337.5l3.1-15h3.4l-4.6,19.9h-3.3l-3.8-14.5l-3.9,14.5h-3.3L33,322.5h3.4l3.1,15l3.8-15h2.9L50,337.5z"
					/>
				<path class="st5" d="M74.9,333c0,2-0.3,3.7-1,5.1c-0.7,1.5-1.6,2.6-2.9,3.4c-1.3,0.8-2.7,1.2-4.3,1.2c-1.6,0-3.1-0.4-4.3-1.2
					c-1.3-0.8-2.2-1.9-2.9-3.4c-0.7-1.5-1-3.1-1-5V332c0-1.9,0.3-3.7,1-5.1c0.7-1.5,1.7-2.6,2.9-3.4c1.3-0.8,2.7-1.2,4.3-1.2
					c1.6,0,3.1,0.4,4.3,1.2c1.3,0.8,2.2,1.9,2.9,3.4s1,3.2,1,5.1V333z M71.4,331.9c0-2.2-0.4-3.9-1.3-5.1s-2-1.8-3.5-1.8
					c-1.5,0-2.7,0.6-3.5,1.8c-0.8,1.2-1.3,2.8-1.3,5v1.1c0,2.2,0.4,3.9,1.3,5.1c0.9,1.2,2,1.8,3.5,1.8c1.5,0,2.7-0.6,3.5-1.8
					c0.8-1.2,1.2-2.9,1.2-5.1V331.9z"/>
				<path class="st5" d="M85.6,334.8h-3.9v7.7h-3.5v-19.9h7c2.3,0,4.1,0.5,5.3,1.5c1.2,1,1.9,2.5,1.9,4.5c0,1.3-0.3,2.4-1,3.3
					s-1.5,1.6-2.7,2.1l4.5,8.3v0.2h-3.7L85.6,334.8z M81.8,332h3.6c1.2,0,2.1-0.3,2.7-0.9s1-1.4,1-2.4c0-1.1-0.3-1.9-0.9-2.5
					c-0.6-0.6-1.5-0.9-2.7-0.9h-3.7V332z"/>
				<path class="st5" d="M95.8,342.4v-19.9h5.9c1.8,0,3.3,0.4,4.7,1.2c1.4,0.8,2.4,1.9,3.2,3.3c0.7,1.4,1.1,3.1,1.1,4.9v1
					c0,1.9-0.4,3.5-1.1,5s-1.8,2.5-3.2,3.3c-1.4,0.8-3,1.2-4.8,1.2H95.8z M99.3,325.3v14.3h2.3c1.8,0,3.2-0.6,4.2-1.7
					s1.5-2.8,1.5-4.9v-1.1c0-2.2-0.5-3.8-1.4-4.9c-0.9-1.1-2.3-1.7-4.1-1.7H99.3z"/>
				<path class="st5" d="M117.5,335v7.4h-3.5v-19.9h7.6c2.2,0,4,0.6,5.3,1.7c1.3,1.2,2,2.7,2,4.6c0,2-0.6,3.5-1.9,4.6
					c-1.3,1.1-3.1,1.6-5.4,1.6H117.5z M117.5,332.2h4.2c1.2,0,2.2-0.3,2.8-0.9c0.6-0.6,1-1.4,1-2.5c0-1.1-0.3-1.9-1-2.6
					s-1.6-1-2.7-1h-4.3V332.2z"/>
				<path class="st5" d="M139.3,334.8h-3.9v7.7H132v-19.9h7c2.3,0,4.1,0.5,5.3,1.5c1.2,1,1.9,2.5,1.9,4.5c0,1.3-0.3,2.4-1,3.3
					s-1.5,1.6-2.7,2.1l4.5,8.3v0.2h-3.7L139.3,334.8z M135.4,332h3.6c1.2,0,2.1-0.3,2.7-0.9s1-1.4,1-2.4c0-1.1-0.3-1.9-0.9-2.5
					c-0.6-0.6-1.5-0.9-2.7-0.9h-3.7V332z"/>
				<path class="st5" d="M161.1,333.5h-8.2v6.1h9.6v2.8h-13v-19.9h12.9v2.8h-9.5v5.5h8.2V333.5z"/>
				<path class="st5" d="M175.7,337.3c0-0.9-0.3-1.5-0.9-2s-1.7-1-3.3-1.4c-1.6-0.5-2.9-1-3.8-1.6c-1.8-1.1-2.7-2.6-2.7-4.5
					c0-1.6,0.7-2.9,2-4c1.3-1,3-1.6,5.1-1.6c1.4,0,2.6,0.3,3.7,0.8c1.1,0.5,1.9,1.2,2.6,2.2c0.6,0.9,0.9,2,0.9,3.1h-3.4
					c0-1-0.3-1.8-1-2.4c-0.7-0.6-1.6-0.9-2.8-0.9c-1.1,0-2,0.2-2.6,0.7c-0.6,0.5-0.9,1.2-0.9,2c0,0.7,0.3,1.3,1,1.8
					c0.7,0.5,1.8,1,3.3,1.4c1.5,0.5,2.8,1,3.7,1.6c0.9,0.6,1.6,1.3,2.1,2s0.7,1.7,0.7,2.7c0,1.7-0.6,3-1.9,4s-3,1.5-5.2,1.5
					c-1.4,0-2.8-0.3-4-0.8c-1.2-0.5-2.1-1.3-2.8-2.2s-1-2-1-3.3h3.5c0,1.1,0.4,2,1.1,2.6c0.7,0.6,1.8,0.9,3.2,0.9
					c1.2,0,2.1-0.2,2.7-0.7C175.4,338.7,175.7,338.1,175.7,337.3z"/>
				<path class="st5" d="M192.6,337.3c0-0.9-0.3-1.5-0.9-2s-1.7-1-3.3-1.4c-1.6-0.5-2.9-1-3.8-1.6c-1.8-1.1-2.7-2.6-2.7-4.5
					c0-1.6,0.7-2.9,2-4c1.3-1,3-1.6,5.1-1.6c1.4,0,2.6,0.3,3.7,0.8c1.1,0.5,1.9,1.2,2.6,2.2c0.6,0.9,0.9,2,0.9,3.1h-3.4
					c0-1-0.3-1.8-1-2.4c-0.7-0.6-1.6-0.9-2.8-0.9c-1.1,0-2,0.2-2.6,0.7c-0.6,0.5-0.9,1.2-0.9,2c0,0.7,0.3,1.3,1,1.8
					c0.7,0.5,1.8,1,3.3,1.4c1.5,0.5,2.8,1,3.7,1.6c0.9,0.6,1.6,1.3,2.1,2s0.7,1.7,0.7,2.7c0,1.7-0.6,3-1.9,4s-3,1.5-5.2,1.5
					c-1.4,0-2.8-0.3-4-0.8c-1.2-0.5-2.1-1.3-2.8-2.2s-1-2-1-3.3h3.5c0,1.1,0.4,2,1.1,2.6c0.7,0.6,1.8,0.9,3.2,0.9
					c1.2,0,2.1-0.2,2.7-0.7C192.3,338.7,192.6,338.1,192.6,337.3z"/>
				<path class="st5" d="M221.8,342.4h-3.5l-8.9-14.1v14.1h-3.5v-19.9h3.5l8.9,14.2v-14.2h3.4V342.4z"/>
				<path class="st5" d="M237.6,333.5h-8.2v6.1h9.6v2.8h-13v-19.9h12.9v2.8h-9.5v5.5h8.2V333.5z"/>
				<path class="st5" d="M248.6,329.7l4.2-7.2h4l-6,9.9l6.2,10h-4l-4.3-7.3l-4.3,7.3h-4l6.2-10l-6-9.9h4L248.6,329.7z"/>
				<path class="st5" d="M273.9,325.3h-6.2v17.1h-3.4v-17.1h-6.2v-2.8h15.8V325.3z"/>
				<path class="st5" d="M298.7,339.8c-0.7,0.9-1.7,1.6-3,2.1c-1.3,0.5-2.7,0.7-4.3,0.7c-1.7,0-3.1-0.4-4.4-1.1s-2.3-1.8-3-3.2
					s-1.1-3.1-1.1-4.9v-1.6c0-3,0.7-5.4,2.2-7c1.4-1.7,3.4-2.5,6-2.5c2.2,0,4,0.5,5.3,1.6c1.3,1.1,2.1,2.7,2.4,4.7h-3.4
					c-0.4-2.4-1.8-3.6-4.2-3.6c-1.5,0-2.7,0.6-3.5,1.7c-0.8,1.1-1.2,2.7-1.3,4.9v1.5c0,2.1,0.5,3.8,1.4,5c0.9,1.2,2.2,1.8,3.8,1.8
					c1.8,0,3-0.4,3.8-1.2v-3.9h-4.1v-2.6h7.5V339.8z"/>
				<path class="st5" d="M314.1,333.5H306v6.1h9.6v2.8h-13v-19.9h12.9v2.8H306v5.5h8.2V333.5z"/>
				<path class="st5" d="M334.1,342.4h-3.5l-8.9-14.1v14.1h-3.5v-19.9h3.5l8.9,14.2v-14.2h3.4V342.4z"/>
				<path class="st5" d="M349.9,333.5h-8.2v6.1h9.6v2.8h-13v-19.9h12.9v2.8h-9.5v5.5h8.2V333.5z"/>
				<path class="st5" d="M361.4,334.8h-3.9v7.7h-3.5v-19.9h7c2.3,0,4.1,0.5,5.3,1.5c1.2,1,1.9,2.5,1.9,4.5c0,1.3-0.3,2.4-1,3.3
					s-1.5,1.6-2.7,2.1l4.5,8.3v0.2h-3.7L361.4,334.8z M357.5,332h3.6c1.2,0,2.1-0.3,2.7-0.9s1-1.4,1-2.4c0-1.1-0.3-1.9-0.9-2.5
					s-1.5-0.9-2.7-0.9h-3.7V332z"/>
				<path class="st5" d="M382.7,337.8H375l-1.6,4.6h-3.6l7.5-19.9h3.1l7.5,19.9h-3.6L382.7,337.8z M375.9,335h5.8l-2.9-8.3
					L375.9,335z"/>
				<path class="st5" d="M404.5,325.3h-6.2v17.1h-3.4v-17.1h-6.2v-2.8h15.8V325.3z"/>
				<path class="st5" d="M410.8,342.4h-3.4v-19.9h3.4V342.4z"/>
				<path class="st5" d="M430.9,333c0,2-0.3,3.7-1,5.1s-1.6,2.6-2.9,3.4s-2.7,1.2-4.3,1.2c-1.6,0-3.1-0.4-4.3-1.2s-2.2-1.9-2.9-3.4
					s-1-3.1-1-5V332c0-1.9,0.3-3.7,1-5.1s1.7-2.6,2.9-3.4s2.7-1.2,4.3-1.2s3.1,0.4,4.3,1.2s2.2,1.9,2.9,3.4s1,3.2,1,5.1V333z
					 M427.5,331.9c0-2.2-0.4-3.9-1.3-5.1s-2-1.8-3.5-1.8c-1.5,0-2.7,0.6-3.5,1.8s-1.3,2.8-1.3,5v1.1c0,2.2,0.4,3.9,1.3,5.1
					s2,1.8,3.5,1.8c1.5,0,2.7-0.6,3.5-1.8s1.2-2.9,1.2-5.1V331.9z"/>
				<path class="st5" d="M450.2,342.4h-3.5l-8.9-14.1v14.1h-3.5v-19.9h3.5l8.9,14.2v-14.2h3.4V342.4z"/>
			</g>
		</g>
	</g>
</g>
</svg>
