<svg xmlns="http://www.w3.org/2000/svg" width="20" height="20" x="0" y="0" enable-background="new 0 0 16 17" version="1.1" viewBox="0 0 16 17"><path fill="#FCFCFC" fill-rule="evenodd" d="M10,1.7c2.7,0.5,3.9,6.7,0.9,7.4c0.5,0.3,1.1,0.7,1.5,1.2c1.2,1.8,0.5,3,0.5,3.7c0.4-0.3,0.7-0.7,1.1-1.1c1.3-1.6,1.8-3.6,1.4-5.6c-0.1,0.1-0.2,0.3-0.3,0.5C15.2,5.1,12.8,1.5,10,1.7 M8.6,14.3c-1.9-0.7-6.5-1-8.2-3.1c0.9,1.9,3,2.7,5,3.1c1.9,0.4,4.2,0.1,4.8,2.2C10.4,15.5,9.5,14.6,8.6,14.3 M9.8,16.4c-0.5-1.6-4.1-1.6-7-2.5c-0.6-0.2-1.2-0.4-1.7-0.7c3.1,2.4,6.1,1.4,8.2,2.6C9.4,16,9.6,16.2,9.8,16.4 M11,6.4C11,5,9.8,4.9,9,4.9c-0.6-0.2-1.3-0.2-1.9,0H6.6c-0.3,0.1-0.7,0-1-0.1L5.5,4.6c0,0,0,0-0.1-0.1c0,0.3,0.1,0.7,0.3,1c0.2,0.2,0.5,0.4,0.7,0.4l-0.3,1c-0.6,2.5,1,2.9,2.7,4.1c0.9,0.6,1.8,1.6,1.7,2.7c-0.1-0.4-0.3-0.8-0.5-1.2c-1.7-2.3-8.9-3.9-5-9.7c1-1.5,2.8-2.4,4.6-2.2c-0.2,0-0.3-0.1-0.5-0.1C4.9,0,1.2,3,0.7,7.2c0,0.2-0.1,0.5-0.1,0.7L0.3,7C0,8,0,9,0.4,10c0.7,1.8,3.1,2.6,4.8,3c2.4,0.6,5.6,0.5,5.1,3.1c1-0.3,2.5-2.7,2.4-4c-0.2-1.6-1.4-2.9-2.9-3.2c-0.3,0-0.5-0.1-0.7-0.2C8.9,8.6,8.8,8.4,8.6,8.3C8.5,8.1,8.4,7.9,8.3,7.6C8.2,7.1,8.4,6.4,8.9,6.1C9.6,5.5,10.4,6,11,6.4 M8.4,5.3L8.4,5.3c0.1,0.1,0.1,0.1,0.1,0.2l0,0L8.4,5.6c0,0,0,0-0.1,0H7.9c0,0,0,0-0.1,0L7.7,5.5c-0.1,0-0.1-0.1,0-0.1l0,0l0.1-0.1c0,0,0,0,0.1,0H8.4L8.4,5.3L8.4,5.3z" clip-rule="evenodd"/></svg>