<?xml version="1.0" encoding="utf-8"?>
<!-- Generator: Adobe Illustrator 26.3.1, SVG Export Plug-In . SVG Version: 6.00 Build 0)  -->
<svg version="1.1" id="Layer_1" xmlns="http://www.w3.org/2000/svg" xmlns:xlink="http://www.w3.org/1999/xlink" x="0px" y="0px"
	 viewBox="0 0 24.1 22" style="enable-background:new 0 0 24.1 22;" xml:space="preserve">
<style type="text/css">
	.st0{fill:#868E96;}
	.st1{fill-rule:evenodd;clip-rule:evenodd;fill:#FFFFFF;}
</style>
<path id="icon-base" class="st0" d="M16.6,0c1,0,1.8,0.5,2.3,1.4l4.8,8.3c0.5,0.8,0.5,1.8,0,2.7l-4.8,8.3c-0.5,0.8-1.4,1.4-2.3,1.4
	H7.1c-1,0-1.8-0.5-2.3-1.4L0,12.3c-0.5-0.8-0.5-1.8,0-2.7l4.8-8.3C5.2,0.5,6.1,0,7.1,0C7.1,0,16.6,0,16.6,0z"/>
<path id="Path_726" class="st1" d="M13.7,4.6c2.7,0.5,3.9,6.7,0.9,7.4c0.5,0.3,1.1,0.7,1.5,1.2c1.2,1.8,0.5,3,0.5,3.7
	c0.4-0.3,0.7-0.7,1.1-1.1c1.3-1.6,1.8-3.6,1.4-5.6c-0.1,0.1-0.2,0.3-0.3,0.5C18.9,8,16.5,4.4,13.7,4.6 M12.3,17.2
	c-1.9-0.7-6.5-1-8.2-3.1c0.9,1.9,3,2.7,5,3.1c1.9,0.4,4.2,0.1,4.8,2.2C14.1,18.4,13.2,17.5,12.3,17.2 M13.5,19.3
	c-0.5-1.6-4.1-1.6-7-2.5c-0.6-0.2-1.2-0.4-1.7-0.7c3.1,2.4,6.1,1.4,8.2,2.6C13.1,18.9,13.3,19.1,13.5,19.3 M14.7,9.3
	c0-1.4-1.2-1.5-2-1.5c-0.6-0.2-1.3-0.2-1.9,0h-0.5c-0.3,0.1-0.7,0-1-0.1L9.2,7.5c0,0,0,0-0.1-0.1c0,0.3,0.1,0.7,0.3,1
	c0.2,0.2,0.5,0.4,0.7,0.4l-0.3,1c-0.6,2.5,1,2.9,2.7,4.1c0.9,0.6,1.8,1.6,1.7,2.7c-0.1-0.4-0.3-0.8-0.5-1.2c-1.7-2.3-8.9-3.9-5-9.7
	c1-1.5,2.8-2.4,4.6-2.2c-0.2,0-0.3-0.1-0.5-0.1c-4.2-0.5-7.9,2.5-8.4,6.7c0,0.2-0.1,0.5-0.1,0.7L4,9.9c-0.3,1-0.3,2,0.1,3
	c0.7,1.8,3.1,2.6,4.8,3c2.4,0.6,5.6,0.5,5.1,3.1c1-0.3,2.5-2.7,2.4-4c-0.2-1.6-1.4-2.9-2.9-3.2c-0.3,0-0.5-0.1-0.7-0.2
	c-0.2-0.1-0.3-0.3-0.5-0.4c-0.1-0.2-0.2-0.4-0.3-0.7c-0.1-0.5,0.1-1.2,0.6-1.5C13.3,8.4,14.1,8.9,14.7,9.3 M12.1,8.2L12.1,8.2
	c0.1,0.1,0.1,0.1,0.1,0.2l0,0l-0.1,0.1c0,0,0,0-0.1,0h-0.4c0,0,0,0-0.1,0l-0.1-0.1c-0.1,0-0.1-0.1,0-0.1l0,0l0.1-0.1c0,0,0,0,0.1,0
	H12.1L12.1,8.2L12.1,8.2z"/>
</svg>
