<?xml version="1.0" encoding="utf-8"?>
<!-- Generator: Adobe Illustrator 25.2.1, SVG Export Plug-In . SVG Version: 6.00 Build 0)  -->
<svg version="1.1" id="Layer_1" xmlns="http://www.w3.org/2000/svg" xmlns:xlink="http://www.w3.org/1999/xlink" x="0px" y="0px"
	 viewBox="0 0 36 33.1" style="enable-background:new 0 0 36 33.1;" xml:space="preserve">
<style type="text/css">
	.st0{fill:#868E96;}
	.st1{fill-rule:evenodd;clip-rule:evenodd;fill:#FFFFFF;}
</style>
<path id="icon-base" class="st0" d="M25,0.3c1.4,0,2.7,0.7,3.4,2l7,12.2c0.7,1.2,0.7,2.7,0,3.9l-7,12.2c-0.7,1.2-2,2-3.4,2H11
	c-1.4,0-2.7-0.7-3.4-2l-7-12.2c-0.7-1.2-0.7-2.7,0-3.9l7-12.2c0.7-1.2,2-2,3.4-2H25z"/>
<path id="Path_726" class="st1" d="M20.7,7c3.9,0.8,5.7,9.8,1.3,10.8c0.8,0.5,1.6,1.1,2.2,1.8C25.9,22.2,25,24,25,25
	c0.6-0.5,1.1-1,1.6-1.6c1.9-2.3,2.6-5.3,2.1-8.2c-0.1,0.2-0.3,0.5-0.5,0.7C28.3,12.1,24.8,6.8,20.7,7 M18.6,25.5
	c-2.8-1.1-9.6-1.4-12.1-4.6c1.3,2.8,4.4,3.9,7.3,4.5c2.8,0.6,6.1,0.2,7,3.2C21.3,27.3,20,26,18.6,25.5 M20.4,28.6
	c-0.7-2.4-6-2.3-10.3-3.6c-0.9-0.3-1.7-0.6-2.5-1c4.5,3.5,8.9,2,12,3.8C19.9,28,20.2,28.3,20.4,28.6 M22.2,14c0-2.1-1.8-2.2-2.9-2.2
	c-0.9-0.3-1.9-0.3-2.8,0l-0.7,0c-0.5,0.1-1,0-1.4-0.2l-0.3-0.3c0,0,0,0-0.1-0.1c0,0.5,0.2,1,0.5,1.4c0.3,0.3,0.7,0.6,1.1,0.6
	l-0.5,1.4c-0.9,3.7,1.5,4.3,3.9,6c1.3,0.9,2.7,2.3,2.5,4c-0.2-0.6-0.4-1.2-0.8-1.7c-2.5-3.4-13.1-5.7-7.3-14.3
	c1.5-2.2,4.1-3.5,6.7-3.3c-0.3,0-0.5-0.1-0.7-0.1C13.3,4.5,7.8,8.9,7.1,15.1c0,0.3-0.1,0.7-0.1,1l-0.5-1.2c-0.4,1.4-0.4,3,0.1,4.4
	c1.1,2.6,4.5,3.8,7,4.4c3.5,0.9,8.2,0.7,7.5,4.6c1.5-0.4,3.7-4,3.5-5.9c-0.3-2.3-2-4.2-4.3-4.7c-0.4,0-0.7-0.2-1-0.3
	c-0.3-0.2-0.5-0.5-0.7-0.6c-0.2-0.3-0.3-0.6-0.4-1c-0.1-0.8,0.2-1.7,0.9-2.2C20.1,12.7,21.3,13.3,22.2,14 M18.3,12.3l0.1,0.1
	c0.1,0,0.1,0.1,0,0.2c0,0,0,0,0,0l-0.1,0.1c0,0,0,0-0.1,0l-0.6,0c0,0,0,0-0.1,0l-0.1-0.1c-0.1,0-0.1-0.1,0-0.2c0,0,0,0,0,0l0.1-0.1
	c0,0,0,0,0.1,0L18.3,12.3C18.3,12.3,18.3,12.3,18.3,12.3L18.3,12.3z"/>
</svg>
