<svg xmlns="http://www.w3.org/2000/svg" xmlns:xlink="http://www.w3.org/1999/xlink" id="error404" width="460.722" height="395.027" viewBox="0 0 460.722 395.027"><defs><clipPath id="clip-path"><rect id="Rectangle_241" width="460.722" height="395.027" fill="none" data-name="Rectangle 241"/></clipPath><clipPath id="clip-path-3"><rect id="Rectangle_233" width="87.475" height="4.037" fill="none" data-name="Rectangle 233" transform="translate(185.426 300.207)"/></clipPath><clipPath id="clip-path-4"><rect id="Rectangle_234" width="305.528" height="18.248" fill="none" data-name="Rectangle 234" transform="translate(77.265 113.56)"/></clipPath><clipPath id="clip-path-5"><rect id="Rectangle_235" width="302.405" height="3.705" fill="none" data-name="Rectangle 235" transform="translate(78.826 113.56)"/></clipPath><clipPath id="clip-path-6"><rect id="Rectangle_236" width="197.632" height="13.068" fill="none" data-name="Rectangle 236" transform="translate(129.15 266.446)"/></clipPath><linearGradient id="linear-gradient" x1=".5" x2=".5" y2="1" gradientUnits="objectBoundingBox"><stop offset="0" stop-color="#229ecc"/><stop offset="1" stop-color="#2c82c4"/></linearGradient><clipPath id="clip-path-7"><rect id="Rectangle_239" width="23.329" height="5.601" fill="#fad934" data-name="Rectangle 239" transform="translate(404.31 178.344)"/></clipPath></defs><g id="Group_681" clip-path="url(#clip-path)" data-name="Group 681"><g id="Group_680" data-name="Group 680"><g id="Group_679" clip-path="url(#clip-path)" data-name="Group 679"><path id="Path_847" fill="#cce1f7" d="M209.9,89.391c-15.387-55.818-84.725-73.8-124.463-32.083q-.855.9-1.71,1.827c-56.97,61.928-30.057,214.538,88.837,253.218s242.559-31.954,249.507-95.1-47.905-82.981-133.028-65.325c-48.094,9.975-69.564-27.794-79.143-62.542" data-name="Path 847"/><path id="Path_848" fill="#cce1f7" d="M329.856,102.242c-15.907,2.59-20.316,16.683-8.033,26.681,4.059,3.3,9.857,6.051,18.116,7.421,31.463,5.22,48.159-8.7,35.547-26.749-7.783-11.14-29.865-9.92-45.63-7.353" data-name="Path 848"/><path id="Path_849" fill="#cce1f7" d="M40.715,196.434c-9.889-12.726-24.374-9.849-27.271,5.721-.958,5.146-.592,11.551,2.159,19.458,10.48,30.122,30.7,38.115,40.5,18.4,6.053-12.167-5.59-30.969-15.391-43.581" data-name="Path 849"/><path id="Path_850" fill="#cce1f7" d="M257.439,74.093l1.653-8.427L251.2,64.117a19.251,19.251,0,0,0-1.045-6.167l6.5-4.371-4.789-7.127-6.226,4.183a19.227,19.227,0,0,0-6.391-4.3l1.551-7.9-8.427-1.652-1.6,8.137a19.179,19.179,0,0,0-5.126,1l-4.371-6.506L214.155,44.2l4.183,6.226a19.227,19.227,0,0,0-4.3,6.391l-6.9-1.356-1.655,8.427,7.145,1.4a19.147,19.147,0,0,0,1.517,6.5l-6.227,4.182,4.789,7.128,6.506-4.37a19.217,19.217,0,0,0,6.277,3.647l-1.561,7.943,8.427,1.653,1.691-8.61a19.092,19.092,0,0,0,5.454-1.44l4.183,6.228,7.127-4.789-4.37-6.5a19.2,19.2,0,0,0,2.863-4.37Zm-21.162-3.375A7.87,7.87,0,1,1,238.421,59.8a7.879,7.879,0,0,1-2.144,10.922" data-name="Path 850"/><path id="Path_851" fill="#cce1f7" d="M209.819,35.36l.9-4.605-4.315-.846a10.5,10.5,0,0,0-.571-3.371l3.555-2.388-2.617-3.9-3.4,2.287a10.505,10.505,0,0,0-3.493-2.35l.847-4.316-4.605-.9-.872,4.447a10.466,10.466,0,0,0-2.8.546l-2.388-3.556-3.9,2.617,2.286,3.4a10.491,10.491,0,0,0-2.35,3.492l-3.771-.74-.9,4.6,3.9.766a10.469,10.469,0,0,0,.829,3.553l-3.4,2.286,2.617,3.9,3.556-2.388a10.505,10.505,0,0,0,3.43,1.993l-.853,4.341,4.6.9.924-4.707a10.412,10.412,0,0,0,2.981-.786l2.286,3.4,3.9-2.617-2.388-3.554a10.511,10.511,0,0,0,1.564-2.389Zm-11.565-1.844a4.3,4.3,0,1,1,1.172-5.969,4.306,4.306,0,0,1-1.172,5.969" data-name="Path 851"/><path id="Path_852" fill="#cce1f7" d="M441.385,58.887l.9-4.6-4.315-.846a10.531,10.531,0,0,0-.571-3.371l3.555-2.388-2.617-3.9-3.4,2.287a10.506,10.506,0,0,0-3.493-2.35l.847-4.316-4.605-.9-.872,4.447a10.466,10.466,0,0,0-2.8.546l-2.388-3.556-3.9,2.617,2.286,3.4a10.507,10.507,0,0,0-2.35,3.492l-3.771-.741-.9,4.606,3.9.766a10.469,10.469,0,0,0,.829,3.553l-3.4,2.286,2.617,3.9,3.556-2.388a10.505,10.505,0,0,0,3.43,1.993l-.853,4.341,4.6.9.924-4.706a10.412,10.412,0,0,0,2.981-.786l2.286,3.4,3.895-2.617L435.373,60.4a10.453,10.453,0,0,0,1.565-2.388ZM429.82,57.043a4.3,4.3,0,1,1,1.172-5.969,4.306,4.306,0,0,1-1.172,5.969" data-name="Path 852"/><path id="Path_853" fill="#cce1f7" d="M47.711,116.108l.9-4.605-4.315-.846a10.531,10.531,0,0,0-.571-3.371l3.555-2.388L44.667,101l-3.4,2.287a10.505,10.505,0,0,0-3.493-2.35l.847-4.316-4.6-.9-.872,4.447a10.467,10.467,0,0,0-2.8.546l-2.388-3.556-3.9,2.617,2.286,3.4a10.485,10.485,0,0,0-2.35,3.493l-3.771-.742-.905,4.606,3.905.766a10.469,10.469,0,0,0,.829,3.553l-3.4,2.286,2.617,3.895,3.556-2.388a10.505,10.505,0,0,0,3.43,1.993L29.4,124.98l4.6.9.924-4.705a10.447,10.447,0,0,0,2.981-.787l2.286,3.4,3.9-2.617L41.7,117.622a10.483,10.483,0,0,0,1.564-2.388Zm-11.565-1.844a4.3,4.3,0,1,1,1.172-5.969,4.306,4.306,0,0,1-1.172,5.969" data-name="Path 853"/><path id="Path_854" fill="#cce1f7" d="M227.967,345.1c-76.285,0-142.976-3.327-179.169-8.291a3.094,3.094,0,0,0-1.267,6.041c24.7,7.046,59.666,7.536,82,9.943,38.511,4.147,94.5,3,98.431,16.42s4.319,27.627-34.931,25.627c-42.588-2.17-35.5-25.627-35.5-25.627-39.5,1.125-133.5-8.123-143.9-24.113C3.359,329.29,22.2,325.633,22.626,325.553l.006,0c15.911-8.027,101.783-14.159,205.335-14.159,114.861,0,207.977,7.545,207.977,16.852S342.828,345.1,227.967,345.1" data-name="Path 854"/><path id="Path_855" fill="#3b73ab" d="M85.439,296.25c-9.158-9.231-29.163-30.867-41.766-55.43-18.086-35.252-36.222-32.1-39.781-19.64-9.2,32.229,45.006,67.256,67.484,80.194Z" data-name="Path 855"/><path id="Path_856" fill="#00528a" d="M80.489,298.053c-15.783-11.836-29.126-25.838-38.193-36.4a269.074,269.074,0,0,1-19.5-25.442.87.87,0,0,0-1.458.948,270.252,270.252,0,0,0,19.62,25.605c8.956,10.441,22.065,24.216,37.586,36Z" data-name="Path 856"/><path id="Path_857" fill="#00528a" d="M83.172,283.843c-4.243-8.465-12.286-26.2-15.268-44.272-4.455-27-17.049-28.757-22.018-21.312-13.65,20.447,19.064,58.059,29.5,69.193Z" data-name="Path 857"/><path id="Path_858" fill="#01305a" d="M80.207,285.217A171.549,171.549,0,0,1,62.6,252.98a185.886,185.886,0,0,1-7.457-20.849.6.6,0,0,0-1.159.316,186.847,186.847,0,0,0,7.5,20.981,172.965,172.965,0,0,0,17.612,32.3Z" data-name="Path 858"/><path id="Path_859" fill="#3b73ab" d="M383.355,159.2c8.44-9.892,26.766-32.967,37.491-58.407,15.391-36.509,33.713-34.727,38.195-22.568,11.6,31.449-39.834,70.442-61.278,85.03Z" data-name="Path 859"/><path id="Path_860" fill="#00528a" d="M388.426,160.625c14.851-12.986,27.106-27.95,35.355-39.166a268.575,268.575,0,0,0,17.538-26.833.87.87,0,0,1,1.526.836,270.152,270.152,0,0,1-17.645,27c-8.148,11.083-20.185,25.8-34.779,38.721Z" data-name="Path 860"/><path id="Path_861" fill="#00528a" d="M384.686,146.656c3.6-8.76,10.285-27.048,11.9-45.292,2.417-27.26,14.843-29.955,20.358-22.9,15.146,19.365-14.656,59.326-24.226,71.211Z" data-name="Path 861"/><path id="Path_862" fill="#01305a" d="M387.745,147.8a171.482,171.482,0,0,0,15.136-33.467,185.705,185.705,0,0,0,5.873-21.349.6.6,0,0,1,1.18.228,186.985,186.985,0,0,1-5.906,21.484,172.963,172.963,0,0,1-15.139,33.533Z" data-name="Path 862"/><path id="Path_863" fill="#00528a" d="M127,55.84c1.574-14.739.348-28.984-6.987-25.471S115.245,58.36,125.228,74.5l2.083,6.3c-7.07-11.891-21.176-21.966-26.965-18.2-5.754,3.742,4.245,9.595,14.269,13.419,7.631,2.91,11.959,6.564,13.969,8.634l9.836,29.772c-11.249-18.8-33.53-34.678-42.691-28.72C86.6,91.649,102.465,100.937,118.37,107c12.02,4.584,18.88,10.335,22.1,13.632l1.961,5.936q1.625-.269,3.245-.555l-11.7-35.42a42.164,42.164,0,0,1,5.437-12.045c5.773-9.043,10.316-19.7,3.466-19.279-5.944.366-10.725,12.683-11.027,24.894L127.8,71.917A61.27,61.27,0,0,1,127,55.84" data-name="Path 863"/><path id="Path_864" fill="#3b73ab" d="M432.756,230.791c3.979-14.279,10.377-27.065,15.9-21.092s-5.9,27.774-21.14,39.091l-4.263,5.089c10.961-8.441,27.79-12.6,31.78-6.959,3.965,5.6-7.488,7.35-18.215,7.2-8.166-.112-13.538,1.686-16.17,2.868l-20.134,24.036c17.4-13.318,43.965-19.848,50.279-10.928,6.292,8.888-11.881,11.663-28.9,11.428-12.863-.177-21.362,2.634-25.571,4.51l-4.015,4.792q-1.41-.848-2.81-1.713l23.953-28.6a42.147,42.147,0,0,0-.605-13.2c-2.027-10.536-2.314-22.118,3.9-19.2,5.389,2.535,5.285,15.747,1.057,27.206l8.284-9.889a61.254,61.254,0,0,0,6.68-14.646" data-name="Path 864"/><path id="Path_865" fill="#00528a" d="M99.087,208.443h16.459c-8.894-1.47-30.944-10.937-32.91-29.919-2.491-24.044-11.052-23.743-25.479-26.258s-18.4,1.591-27.56-17.075S0,114.172,0,114.172,18.627,134.5,15.062,149.941,23.849,171.555,33.74,173.5s7.52,15.234,11.279,23.772c1.716,3.9,8.737,7.935,15.864,11.175Z" data-name="Path 865"/><path id="Path_866" fill="#01305a" d="M63.434,184.775c.719,7.2,4.859,15.764,11.075,22.9.219.251.446.506.678.763H77.06c-.536-.565-1.043-1.122-1.515-1.664C69.6,199.948,65.48,191.463,64.8,184.638c-1.085-10.865-9.482-18.271-27.228-24.009-10.3-3.329-13.554-15.9-13.584-16.032a.686.686,0,0,0-1.332.332c.135.547,3.459,13.439,14.493,17.006,17.155,5.546,25.264,12.59,26.288,22.84" data-name="Path 866"/><path id="Path_867" fill="#3b73ab" d="M90.62,208.443h34.6c.009-.035.019-.07.029-.1a44.729,44.729,0,0,0,1.643-10.6c.412-12.111.618-42.523-7.21-50.312-9.84-9.79-29.563-13.617-26.961-28.389s.654-35.222-22.7-38.544-41.59-40.065-41.59-40.065S20.757,70.057,41.765,92.769s13.18,26.032,8.945,47.4-9.237,33.1,22.807,49.433a35.622,35.622,0,0,1,17.1,18.836" data-name="Path 867"/><path id="Path_868" fill="#00528a" d="M72.811,117.46c-1.539,27.709,4.246,43.332,18.749,50.657,9.109,4.6,18.682,14.864,24.981,26.778a76.12,76.12,0,0,1,5.583,13.548h2.129a77.844,77.844,0,0,0-5.907-14.5c-6.585-12.454-16.256-22.788-25.867-27.642-13.681-6.911-19.118-21.94-17.629-48.726C75.807,100.345,59.689,88.826,59,88.344a1.022,1.022,0,0,0-1.174,1.672c.162.11,15.877,11.361,14.982,27.444" data-name="Path 868"/><path id="Path_869" fill="#00528a" d="M292.445,153.588H309.3l17.089-11.133c4.2-6.6,7.882-13.822,7.193-18.022-1.511-9.206-10.753-19.05-3.525-26.075s14.211-18.936,2.793-29.932-6.9-38.192-6.9-38.192S310.108,43.36,312.621,64s-3.057,19.37-13.772,29.351-18.053,14.4-7.016,35.908c4.125,8.037,3.314,16.742.612,24.329" data-name="Path 869"/><path id="Path_870" fill="#01305a" d="M311.334,124.016c3.328,6.425,4.533,15.861,3.223,25.237-.046.33-.1.668-.152,1.009l-1.57,1.023c.141-.766.263-1.509.362-2.222,1.254-8.969.073-18.326-3.079-24.418-5.022-9.7-2.029-20.484,9.709-34.978,6.814-8.413,2.676-20.725,2.631-20.849a.686.686,0,0,1,1.3-.449c.185.533,4.437,13.15-2.861,22.161-11.348,14.01-14.3,24.339-9.56,33.486" data-name="Path 870"/><path id="Path_871" fill="#3b73ab" d="M355.917,153.588a36.2,36.2,0,0,1,6.719-4.407c32.044-16.333,27.043-28.058,22.807-49.432s-12.063-24.693,8.945-47.4S407.717,0,407.717,0s-18.238,36.741-41.589,40.064-25.3,23.774-22.7,38.545S326.309,97.208,316.469,107c-7.117,7.081-7.593,32.863-7.311,46.589Z" data-name="Path 871"/><path id="Path_872" fill="#00528a" d="M320.088,153.588c6.3-11.536,15.622-21.407,24.5-25.9,14.5-7.325,20.288-22.947,18.749-50.656-.9-16.084,14.82-27.334,14.982-27.444a1.021,1.021,0,0,0-1.173-1.672c-.687.481-16.8,12-15.848,29.228,1.489,26.785-3.948,41.814-17.629,48.726-9.611,4.853-19.282,15.187-25.867,27.641l-.038.074Z" data-name="Path 872"/><path id="Path_873" fill="#01305a" d="M397.689,113.023v180.91a13.5,13.5,0,0,1-13.5,13.5H75.873a13.5,13.5,0,0,1-13.5-13.5V113.023a13.5,13.5,0,0,1,13.5-13.5H384.185a13.5,13.5,0,0,1,13.5,13.5" data-name="Path 873"/><path id="Path_874" fill="#fff" d="M382.794,122.22V284.735a8.658,8.658,0,0,1-8.657,8.66H85.924a8.626,8.626,0,0,1-5.352-1.853,8.744,8.744,0,0,1-1.088-1.02,8.606,8.606,0,0,1-2.22-5.787V122.22a8.662,8.662,0,0,1,8.66-8.66H374.137a8.585,8.585,0,0,1,4.38,1.19,8.706,8.706,0,0,1,2.97,2.892,8.61,8.61,0,0,1,1.307,4.578" data-name="Path 874"/><path id="Path_875" fill="#de3131" d="M182.133,235.375h-11.81v15.238h-29.08V235.375h-46.1V216.327l37.716-54.605h30.731l-33.525,50.414h12.064V198.548h28.191v13.588h11.81Z" data-name="Path 875"/><path id="Path_876" fill="#de3131" d="M186.32,206.168c0-29.461,16.763-46.478,40.255-46.478s40.255,17.017,40.255,46.478-16.762,46.478-40.255,46.478-40.255-17.017-40.255-46.478m50.414,0c0-17.143-4.317-22.477-10.159-22.477s-10.159,5.334-10.159,22.477,4.318,22.477,10.159,22.477,10.159-5.334,10.159-22.477" data-name="Path 876"/><path id="Path_877" fill="#de3131" d="M360.288,235.375h-11.81v15.238H319.4V235.375H273.3V216.327l37.716-54.605h30.731l-33.525,50.414h12.064V198.548h28.191v13.588h11.81Z" data-name="Path 877"/><path id="Path_878" fill="#01305a" d="M429.011,300.207v1.156A26.314,26.314,0,0,1,402.7,327.679H57.362a26.314,26.314,0,0,1-26.316-26.316v-1.156Z" data-name="Path 878"/><g id="Group_666" data-name="Group 666" style="mix-blend-mode:screen;isolation:isolate"><g id="Group_665" data-name="Group 665"><g id="Group_664" clip-path="url(#clip-path-3)" data-name="Group 664"><path id="Path_879" fill="#01305a" d="M185.426,300.207v.264c0,2.084,1.4,3.773,3.117,3.773h81.242c1.722,0,3.117-1.689,3.117-3.773v-.264Z" data-name="Path 879"/></g></g></g><g id="Group_669" data-name="Group 669" opacity=".2"><g id="Group_668" data-name="Group 668"><g id="Group_667" clip-path="url(#clip-path-4)" data-name="Group 667"><path id="Path_880" fill="#01305a" d="M382.793,122.22v9.588H77.265V122.22a8.669,8.669,0,0,1,8.66-8.66H374.137a8.669,8.669,0,0,1,8.656,8.66" data-name="Path 880"/></g></g></g><path id="Path_881" fill="#fff" d="M308.986,125.575H146.945a.756.756,0,0,1-.754-.754v-3.339a.757.757,0,0,1,.754-.755H308.986a.757.757,0,0,1,.754.755v3.339a.756.756,0,0,1-.754.754" data-name="Path 881"/><path id="Path_882" fill="#01305a" d="M107.137,123.151v1.8a.669.669,0,0,1-1,.579l-1.556-.9-1.556-.9a.669.669,0,0,1,0-1.16l1.556-.9,1.556-.9a.67.67,0,0,1,1,.58Z" data-name="Path 882"/><path id="Path_883" fill="#01305a" d="M115.234,123.151v1.8a.669.669,0,0,0,1,.579l1.556-.9,1.556-.9a.67.67,0,0,0,0-1.16l-1.556-.9-1.556-.9a.67.67,0,0,0-1,.58Z" data-name="Path 883"/><g id="Group_672" data-name="Group 672" opacity=".2"><g id="Group_671" data-name="Group 671"><g id="Group_670" clip-path="url(#clip-path-5)" data-name="Group 670"><path id="Path_884" fill="#01305a" d="M381.231,117.265H78.826a8.637,8.637,0,0,1,7.1-3.705H374.136a8.624,8.624,0,0,1,7.1,3.705" data-name="Path 884"/></g></g></g><g id="Group_675" data-name="Group 675" opacity=".1"><g id="Group_674" data-name="Group 674"><g id="Group_673" clip-path="url(#clip-path-6)" data-name="Group 673"><path id="Path_885" fill="#01305a" d="M320.247,279.514H135.683a6.534,6.534,0,0,1,0-13.068H320.247a6.534,6.534,0,0,1,0,13.068" data-name="Path 885"/></g></g></g><path id="Path_886" fill="#ffc0ad" d="M345.411,248.338a81.393,81.393,0,0,1-4.138,7.092c-9.907,15-17.275,11.786-21.24,7.158a20.826,20.826,0,0,1-3.137-4.952,21.831,21.831,0,0,1-1.73-5.853l1.84.427c2.18,1,5.792,2.381,8.473,1.963a5.022,5.022,0,0,0,.974-.252c2.4-.913,5.673-5.635,7.885-9.231,1.451-2.355,2.448-4.227,2.448-4.227Z" data-name="Path 886"/><path id="Path_887" fill="#fda084" d="M345.411,248.338a81.393,81.393,0,0,1-4.138,7.092,51.616,51.616,0,0,1-6.935-10.74c1.451-2.355,2.448-4.227,2.448-4.227Z" data-name="Path 887"/><path id="Path_888" fill="#fda084" d="M327.619,254.67s-2,6.126-10.722,2.965a21.828,21.828,0,0,1-1.73-5.852l1.84.427c2.18,1,5.792,2.38,8.472,1.963Z" data-name="Path 888"/><path id="Path_889" fill="#ffc0ad" d="M408.911,270.3c-2,11.54-11.383,3.067-12.193-5.945a58.732,58.732,0,0,1-.2-6.09c.03-1.86.127-3.655.255-5.283.025-.315.05-.622.077-.922.348-3.923.84-6.675.84-6.675l6.135-7.545s.716,2.115,1.63,5.37c.843,3.007,1.855,6.987,2.623,11.173.232,1.265.442,2.547.618,3.827a41.29,41.29,0,0,1,.217,12.09" data-name="Path 889"/><path id="Path_890" fill="#fda084" d="M405.454,243.208c-1.82,3.347-4.817,7.785-8.682,9.772.025-.315.05-.622.077-.922.348-3.923.84-6.675.84-6.675l6.135-7.545s.715,2.115,1.63,5.37" data-name="Path 890"/><path id="Path_891" fill="#fda084" d="M408.694,258.208c-2.22,1.345-9.495.712-12.177.055.035-2.22.167-4.345.332-6.205l11.228,2.323c.232,1.264.442,2.547.617,3.827" data-name="Path 891"/><path id="Path_892" fill="#3b73ab" d="M344.152,219.62s-8.879,15.68-10.34,20.989c0,0,6.067,10.138,11.571,11.262l2.04-6.915s.216-21.638-3.271-25.336" data-name="Path 892"/><path id="Path_893" fill="#3b73ab" d="M363.655,211.565l-19.5,8.055,8.629,66.839s26.848,3.77,40.729,0V219.62l-18.961-8.478Z" data-name="Path 893"/><path id="Path_894" fill="#00528a" d="M359.675,247.991a31.517,31.517,0,0,0,14.267,8.464.42.42,0,0,0,.531-.354v-.008a.417.417,0,0,0-.3-.45,30.688,30.688,0,0,1-13.9-8.246.416.416,0,0,0-.709.226l0,.011a.418.418,0,0,0,.11.357" data-name="Path 894"/><path id="Path_895" fill="#00528a" d="M359.836,241.631v.018a.381.381,0,0,0,.051.192c.216.374.462.766.745,1.167a16.781,16.781,0,0,0,9.6,6.5.384.384,0,0,0,.47-.271.382.382,0,0,0-.27-.469,15.791,15.791,0,0,1-9.879-7.337.385.385,0,0,0-.719.2" data-name="Path 895"/><path id="Path_896" fill="#00528a" d="M360.536,224.248v.008a.384.384,0,0,0,.452.353,27.25,27.25,0,0,0,10.745-4.753,26.12,26.12,0,0,0,5.21-4.913.383.383,0,0,0-.615-.458,27.58,27.58,0,0,1-15.485,9.368.378.378,0,0,0-.308.4" data-name="Path 896"/><path id="Path_897" fill="#ffc0ad" d="M330.577,328.99l2.092-10.761h-7.148l-1.746,10.161a8.409,8.409,0,0,0,6.8.6" data-name="Path 897"/><path id="Path_898" fill="#00528a" d="M325.681,328.881s-1.588-2.083-2.829-1.979-10.735,7.831-14.011,8.5-2.61,3.076-1.994,4.3,26.18-.766,26.18-.766.615-7.623-.247-9.943-4.526.407-7.1-.115" data-name="Path 898"/><path id="Path_899" fill="#fff" d="M320.445,334.258a.46.46,0,0,0,.524-.674,7.076,7.076,0,0,0-2.423-2.467,3.167,3.167,0,0,0-3.251.189.459.459,0,1,0,.556.731,2.262,2.262,0,0,1,2.291-.094,6.247,6.247,0,0,1,2.033,2.106.458.458,0,0,0,.27.209" data-name="Path 899"/><path id="Path_900" fill="#fff" d="M321.8,332.947a.46.46,0,0,0,.524-.674A7.088,7.088,0,0,0,319.9,329.8a3.168,3.168,0,0,0-3.252.189.46.46,0,0,0,.556.732,2.261,2.261,0,0,1,2.291-.1,6.231,6.231,0,0,1,2.033,2.106.46.46,0,0,0,.27.21" data-name="Path 900"/><path id="Path_901" fill="#fff" d="M318.6,335.33a.46.46,0,0,0,.524-.674,7.085,7.085,0,0,0-2.423-2.468,3.169,3.169,0,0,0-3.252.189.46.46,0,0,0,.557.732,2.261,2.261,0,0,1,2.291-.1,6.22,6.22,0,0,1,2.033,2.106.456.456,0,0,0,.27.21" data-name="Path 901"/><path id="Path_902" fill="url(#linear-gradient)" d="M363.009,279.756s-12.233-30.374-19.836-29.175c-11.772,1.855-19.647,38.01-18.682,71.735l8.078.461s9.041-31.77,10.662-40.1c0,0,6.231,21.624,20.264,18.614,10.39-2.229,3.618-12.862-.486-21.537" data-name="Path 902"/><path id="Path_903" fill="#005292" d="M331.61,321.386l-.995-.18c.022-.119,2.173-11.943,4.777-23.89,5.313-24.372,7.31-25.513,7.966-25.888a1.372,1.372,0,0,1,1.278-.109c1.333.58,2,3.424,3.012,7.729,1.635,6.959,3.873,16.488,10.052,20.479l-.548.849c-6.522-4.212-8.814-13.971-10.488-21.1-.8-3.423-1.564-6.656-2.431-7.034-.05-.022-.153-.067-.374.06-2.734,1.562-8.823,30.208-12.249,49.08" data-name="Path 903"/><path id="Path_904" fill="#d84e5a" d="M323.69,319.843l9.9.829.19.016-.544,3.281-9.731-.684Z" data-name="Path 904"/><path id="Path_905" fill="#2671aa" d="M359.878,301.446s14.222,2.732,33.079-.662a34.949,34.949,0,0,0-10.826-19.346L356.7,283.275c-1.6,6-.438,12.062,3.179,18.171" data-name="Path 905"/><path id="Path_906" fill="#00528a" d="M355.821,326.584a30.333,30.333,0,0,0-4.288-.681c-.92.06-6.779,7.23-8.837,7.729-3.733.9-3.476,6.784-1.171,6.974,6.665.549,17.878-2.757,17.878-2.757s.708-7.59.149-9.938-1.848-.714-3.731-1.327" data-name="Path 906"/><path id="Path_907" fill="#ffc0ad" d="M357.8,327.1l2.478-9.669h-7.142l-1.6,9.329s2.332,1.6,6.268.34" data-name="Path 907"/><path id="Path_908" fill="#fff" d="M350.621,333.268a.459.459,0,0,0,.449-.725,7.081,7.081,0,0,0-2.67-2.194,3.169,3.169,0,0,0-3.211.534.459.459,0,0,0,.631.668,2.258,2.258,0,0,1,2.266-.338,6.248,6.248,0,0,1,2.245,1.876.458.458,0,0,0,.29.179" data-name="Path 908"/><path id="Path_909" fill="#fff" d="M351.828,331.822a.46.46,0,0,0,.449-.726,7.082,7.082,0,0,0-2.67-2.193,3.162,3.162,0,0,0-3.211.534.459.459,0,1,0,.631.667,2.262,2.262,0,0,1,2.266-.338,6.232,6.232,0,0,1,2.244,1.876.459.459,0,0,0,.291.18" data-name="Path 909"/><path id="Path_910" fill="#fff" d="M348.9,334.53a.46.46,0,0,0,.449-.726,7.082,7.082,0,0,0-2.67-2.193,3.163,3.163,0,0,0-3.211.534.459.459,0,1,0,.631.667,2.262,2.262,0,0,1,2.266-.338,6.222,6.222,0,0,1,2.244,1.876.461.461,0,0,0,.291.18" data-name="Path 910"/><path id="Path_911" fill="url(#linear-gradient)" d="M391.22,301.292a11.9,11.9,0,0,1-5.032.037,11.369,11.369,0,0,1-1.483-.421c-9.466-3.36-13.75-18.23-13.75-18.23-1.621,8.328-11,40.078-11,40.078l-1.462-.192-1.008-.134-5.534-.728c-1.088-32.65,7.172-69.267,18.94-71.121,7.6-1.2,19.837,29.176,19.837,29.176,4.105,8.674,10.876,19.307.489,21.535" data-name="Path 911"/><path id="Path_912" fill="#005292" d="M386.189,301.329a11.369,11.369,0,0,1-1.483-.421c-3.464-5.578-5.271-13.38-6.727-19.662-1.156-5-2.248-9.716-3.683-10.525a.8.8,0,0,0-.685-.057c-1.219.4-4.094,4.442-9.621,27.025-2.636,10.765-4.82,21.492-5.494,24.875-.138.688-.215,1.076-.219,1.1l-.99-.192c0-.021.074-.385.2-1.038.664-3.323,2.858-14.131,5.517-24.98,6.491-26.5,9.348-27.44,10.289-27.75a1.813,1.813,0,0,1,1.5.142c1.823,1.028,2.811,5.284,4.173,11.175,1.526,6.582,3.444,14.866,7.225,20.312" data-name="Path 912"/><path id="Path_913" fill="#d84e5a" d="M351.3,319.4l9.776,1.785.187.034-.859,3.213-9.619-1.623Z" data-name="Path 913"/><path id="Path_914" fill="#3b73ab" d="M393.51,219.62l12.648,18.321s-5.617,10.589-11.121,11.7c0,0-5.73-10.013-6.4-15.124s2.9-14.455,4.877-14.9" data-name="Path 914"/><path id="Path_915" fill="#01305a" d="M357.241,191.272c0,7.11,4.377,12.009,11.487,12.009s12.064-5.268,12.064-12.377-4.21-12.5-11.319-12.5c-8.527,0-12.232,5.754-12.232,12.864" data-name="Path 915"/><path id="Path_916" fill="#01305a" d="M357.661,187.349s-5.3-5.24-3.318-7.712,4.564-.112,5.351-2.471,1.1-5.393,4.311-4.157,3.364,3.258,6.435,1.461,2.4,1.235,5.093,2.583,4.579,1.124,4.143,3.708,2.587,3.118,1.35,5.973-2.685,1.415-2.685,1.415Z" data-name="Path 916"/><path id="Path_917" fill="#fda084" d="M358.838,194.333s-1.975-2.634-3.444-.456.608,8.61,4.2,7.04Z" data-name="Path 917"/><path id="Path_918" fill="#ff7972" d="M358.813,198.929a.305.305,0,0,1-.293-.222,4.7,4.7,0,0,0-2.635-2.8.3.3,0,0,1,.215-.568,5.233,5.233,0,0,1,3.006,3.2.305.305,0,0,1-.211.375.33.33,0,0,1-.082.011" data-name="Path 918"/><path id="Path_919" fill="#ff7972" d="M356.736,197.929a.3.3,0,0,1-.255-.469,2.779,2.779,0,0,1,1.14-.919.3.3,0,1,1,.248.555,2.181,2.181,0,0,0-.877.694.3.3,0,0,1-.256.139" data-name="Path 919"/><path id="Path_920" fill="#fda084" d="M379.2,194.333s1.975-2.634,3.444-.456-.608,8.61-4.2,7.04Z" data-name="Path 920"/><path id="Path_921" fill="#ff7972" d="M379.22,198.929a.305.305,0,0,0,.293-.222,4.7,4.7,0,0,1,2.635-2.8.3.3,0,0,0-.215-.568,5.233,5.233,0,0,0-3.006,3.2.305.305,0,0,0,.211.375.33.33,0,0,0,.082.011" data-name="Path 921"/><path id="Path_922" fill="#ff7972" d="M381.3,197.929a.309.309,0,0,0,.164-.048.3.3,0,0,0,.091-.421,2.779,2.779,0,0,0-1.14-.919.3.3,0,0,0-.249.555,2.179,2.179,0,0,1,.878.694.3.3,0,0,0,.256.139" data-name="Path 922"/><path id="Path_923" fill="#ffc0ad" d="M373.879,206.373v6.4s-1.908,3.258-4.487,3.479-4.868-2.8-4.868-2.8v-6.621Z" data-name="Path 923"/><path id="Path_924" fill="#fda084" d="M373.879,206.373v2.838c-1.731,1.921-4.8,2.4-9.355,1.729v-4.117Z" data-name="Path 924"/><path id="Path_925" fill="#ffc0ad" d="M357.782,194.13a38.682,38.682,0,0,0,.519,4.211c.858,4.716,2.79,9.353,6.953,10.841,9.425,3.366,12.794-4.718,14.14-9.431.148-.522.281-1.105.4-1.727.215-1.123.381-2.376.511-3.637.154-1.531.256-3.08.32-4.441a6.655,6.655,0,0,0-4.263-6.533c-3.864-1.485-9.736-2.66-15.3.5a6.676,6.676,0,0,0-3.39,5.682c-.024,1.283-.006,2.849.112,4.54" data-name="Path 925"/><path id="Path_926" fill="#01305a" d="M357.782,194.13a38.19,38.19,0,0,0,.519,4.211c.857,4.716,2.789,9.353,6.952,10.841,9.425,3.366,12.794-4.719,14.141-9.431.148-.522.28-1.105.4-1.727.214-1.123.38-2.376.51-3.638h-1.376c-.287.879-1.821,6.225-2.319,6.986-1.072-2.569-6.511-.863-6.511-.863l-.028.009a3.34,3.34,0,0,1-2.052-.009s-5.377-1.781-6.491.67c-.492-.764-2.258-6.213-2.575-6.793Zm11.26,7.541c6.152-.83,5.183,2.481,5.183,2.481a10.351,10.351,0,0,1-1.723,1.314,7.12,7.12,0,0,1-3.626.987c-.942-.042-1.2.154-3.589-1.138a6,6,0,0,1-1.265-.96h0v0c-.1-.646-1.145-3.741,5.023-2.681" data-name="Path 926"/><path id="Path_927" fill="#01305a" d="M364.975,195.168c0,.683-.352,1.236-.786,1.236s-.786-.553-.786-1.236.352-1.236.786-1.236.786.553.786,1.236" data-name="Path 927"/><path id="Path_928" fill="#01305a" d="M374.24,195.142c0,.683-.353,1.236-.787,1.236s-.786-.553-.786-1.236.353-1.236.786-1.236.787.553.787,1.236" data-name="Path 928"/><path id="Path_929" fill="#01305a" d="M360.8,192.143s2.58-1.957,5.083-1.617l.124,1.3s-3.355.639-4.82,1.77a2.243,2.243,0,0,1-.387-1.458" data-name="Path 929"/><path id="Path_930" fill="#01305a" d="M376.879,192.143s-2.58-1.957-5.082-1.617l-.125,1.3s3.355.639,4.82,1.77a2.243,2.243,0,0,0,.387-1.458" data-name="Path 930"/><path id="Path_931" fill="#fda084" d="M369.122,199.953a3.215,3.215,0,0,0,1.1-.232.3.3,0,1,0-.23-.562,1.825,1.825,0,0,1-1.219.115.331.331,0,0,1-.149-.283,45.944,45.944,0,0,1,.183-4.654.3.3,0,1,0-.605-.05,45.193,45.193,0,0,0-.183,4.766.927.927,0,0,0,.442.742,1.278,1.278,0,0,0,.661.158" data-name="Path 931"/><path id="Path_932" fill="#fff" d="M368.711,202.18a1.774,1.774,0,0,0-.142,3.542c.085,0,.171.007.26.007s.172,0,.255-.006a1.774,1.774,0,0,0-.129-3.543Z" data-name="Path 932"/><path id="Path_933" fill="#01305a" d="M380.3,194.387h-1.377c.152-1.383.37-3.818-.765-4.167-3.589-1.1,1.061-3.638-.558-4.9s-5.652-.724-8.456-.815a60.057,60.057,0,0,0-8.455.2c-1.1.252-.5,2.083-.094,3.5s-1.352,2.985-1.647,4.453a6.479,6.479,0,0,0,0,1.725H357.8c-.137-1.786-.157-3.449-.132-4.8a6.677,6.677,0,0,1,3.388-5.682c5.564-3.155,11.435-1.979,15.3-.493a6.659,6.659,0,0,1,4.264,6.531c-.065,1.362-.166,2.911-.322,4.442" data-name="Path 933"/><path id="Path_934" fill="#00528a" d="M443.094,300.735c-1.707,6.665-6.485,11.72-13.813,14.62a35.056,35.056,0,0,1-5.417,1.637c.058-.075.113-.15.168-.225a26.05,26.05,0,0,0,2.877-5.082c4.835-1.755,10.328-5.215,12.07-12.005,1.672-6.528-1.025-16.293-6.877-24.875-4.638-6.8-15.166-18.55-33.576-20.825-16.072-1.988-26.514.455-35.724,2.61-7.83,1.83-15.225,3.557-24.276,1.975a108.1,108.1,0,0,1-16.247-4.342c-8.28-2.741-13.75-4.548-22.438-.991-14.649,6-21.182,30.883-21.247,31.133l-4.117-1.053c.285-1.107,7.122-27.2,23.755-34.012,10.139-4.155,16.867-1.93,25.382.887a104.1,104.1,0,0,0,15.645,4.19c8.2,1.435,14.86-.122,22.573-1.927,9.557-2.235,20.392-4.768,37.215-2.688a50.413,50.413,0,0,1,21.77,8.015,54.317,54.317,0,0,1,14.8,14.633c6.61,9.7,9.477,20.547,7.482,28.325" data-name="Path 934"/><path id="Path_935" fill="#de3131" d="M238.252,323.665l9.535-30.135a24.374,24.374,0,0,1,30.592-15.886h0a24.375,24.375,0,0,1,15.886,30.593l-9.534,30.134-46.48-14.706" data-name="Path 935"/><path id="Path_936" fill="#ffc0ad" d="M313.064,252.265a34.744,34.744,0,0,1,2.474-4.457c.837-1.3,2.785-1.934,3-.377.168,1.23-.712,2.159-.89,3.359,0,0,.431-.683,1.391-2.457.868-1.6,2.057-1.483,2.234-.269.168,1.147-.168,1.1-.453,1.97-.378,1.155-.915,2.6-.915,2.6a11.288,11.288,0,0,1,1.831-3.59c.648-.878,1.294-1.852,2.255-.491.482.682-.155,2.541-.67,4.528,0,0,1.035-2.663,2.367-3.347,1.053-.542,1.593-.066,1.184,1.4a32.674,32.674,0,0,1-1.263,3.535c-.4,1.121-1.868,2.724-3.033,2.354s-1.417-1.185-2.211-1.243-2.067.015-2.606-.476a2.8,2.8,0,0,0-2.022-.633c-.9-.031-2.724-1.2-2.672-2.4" data-name="Path 936"/><path id="Path_937" fill="#ffc0ad" d="M395.576,254.112a34.633,34.633,0,0,1,1.759-4.785c.627-1.411,2.216-2.427,2.666-.92.356,1.189-.133,2.329-.124,3.542,0,0,.321-.741,1-2.642.611-1.718,1.8-1.782,2.166-.61.342,1.108,0,1.114-.144,2.017-.2,1.2-.505,2.705-.505,2.705a11.3,11.3,0,0,1,1.256-3.829c.506-.968.994-2.03,2.152-.833.582.6.239,2.535.035,4.578,0,0,.241-2.442,1.451-3.323.958-.7,1.937-.659,1.759.854a32.513,32.513,0,0,1-.7,3.687c-.222,1.17-1.427,2.98-2.634,2.793s-1.583-.953-2.377-.887-2.039.332-2.648-.069a2.8,2.8,0,0,0-2.1-.315c-.9.109-2.876-.766-3.01-1.963" data-name="Path 937"/><path id="Path_938" fill="#00528a" d="M233.536,352.79a3,3,0,0,1-3,3h-11.95v-6h11.95a3,3,0,0,1,3,3" data-name="Path 938"/><path id="Path_939" fill="#00528a" d="M233.536,374.123a3,3,0,0,1-3,3h-11.95v-6h11.95a3,3,0,0,1,3,3" data-name="Path 939"/><rect id="Rectangle_237" width="5.45" height="6" fill="#01305a" data-name="Rectangle 237" transform="translate(218.586 349.79)"/><rect id="Rectangle_238" width="5.45" height="6" fill="#01305a" data-name="Rectangle 238" transform="translate(218.586 371.123)"/><path id="Path_940" fill="#00528a" d="M171.161,359.945,171,364.692c-49.531-1.737-87.947-5.349-114.171-10.737-22.49-4.617-36.576-10.555-43.061-18.147a16.538,16.538,0,0,1-4.123-13.183c1-8.168,8.261-14.2,21.608-17.972a25.988,25.988,0,0,0,1.019,4.655c-8.959,2.582-17.047,6.854-17.911,13.9a11.8,11.8,0,0,0,3.019,9.517c5.69,6.666,19.285,12.243,40.4,16.58,25.967,5.336,64.114,8.916,113.382,10.643" data-name="Path 940"/><path id="Path_941" fill="#de3131" d="M218.587,387.831H186.98a24.376,24.376,0,0,1,0-48.751h31.607Z" data-name="Path 941"/><path id="Path_942" fill="url(#linear-gradient)" d="M435.413,172.6v16.168a3.872,3.872,0,0,1-3.871,3.871H402.186l-8.862,3.179a1.126,1.126,0,0,1-1.432-1.467l3.352-8.658V172.6a3.873,3.873,0,0,1,3.873-3.871h32.425a3.872,3.872,0,0,1,3.871,3.871" data-name="Path 942"/><g id="Group_678" data-name="Group 678" style="mix-blend-mode:screen;isolation:isolate"><g id="Group_677" data-name="Group 677"><g id="Group_676" clip-path="url(#clip-path-7)" data-name="Group 676"><path id="Path_943" fill="#fad934" d="M409.91,181.144a2.8,2.8,0,1,1-2.8-2.8,2.8,2.8,0,0,1,2.8,2.8" data-name="Path 943"/><path id="Path_944" fill="#fad934" d="M418.775,181.144a2.8,2.8,0,1,1-2.8-2.8,2.8,2.8,0,0,1,2.8,2.8" data-name="Path 944"/><path id="Path_945" fill="#fad934" d="M427.639,181.144a2.8,2.8,0,1,1-2.8-2.8,2.8,2.8,0,0,1,2.8,2.8" data-name="Path 945"/></g></g></g><path id="Path_946" fill="#ff7c78" d="M287.161,74.2a6.61,6.61,0,1,1,6.611,6.611,6.619,6.619,0,0,1-6.611-6.611m2.074,0a4.537,4.537,0,1,0,4.537-4.537,4.542,4.542,0,0,0-4.537,4.537" data-name="Path 946"/><path id="Path_947" fill="#ff7c78" d="M265.062,45.883a6.61,6.61,0,1,1,6.611,6.611,6.619,6.619,0,0,1-6.611-6.611m2.074,0a4.537,4.537,0,1,0,4.537-4.537,4.542,4.542,0,0,0-4.537,4.537" data-name="Path 947"/><path id="Path_948" fill="#3b73ab" d="M267.136,77.523a1.037,1.037,0,0,0,1.037-1.037V71.913a1.037,1.037,0,1,0-2.074,0v4.573a1.037,1.037,0,0,0,1.037,1.037" data-name="Path 948"/><path id="Path_949" fill="#3b73ab" d="M267.136,85.525a1.037,1.037,0,0,0,1.037-1.037V79.915a1.037,1.037,0,1,0-2.074,0v4.573a1.037,1.037,0,0,0,1.037,1.037" data-name="Path 949"/><path id="Path_950" fill="#3b73ab" d="M260.717,79.238h4.108a1.037,1.037,0,0,0,0-2.074h-4.108a1.037,1.037,0,1,0,0,2.074" data-name="Path 950"/><path id="Path_951" fill="#3b73ab" d="M269.447,79.238h4.108a1.037,1.037,0,1,0,0-2.074h-4.108a1.037,1.037,0,0,0,0,2.074" data-name="Path 951"/><path id="Path_952" fill="#00528a" d="M295.045,47.056a1.037,1.037,0,0,0,1.037-1.037V41.446a1.037,1.037,0,0,0-2.074,0v4.573a1.037,1.037,0,0,0,1.037,1.037" data-name="Path 952"/><path id="Path_953" fill="#00528a" d="M295.045,55.058a1.037,1.037,0,0,0,1.037-1.037V49.448a1.037,1.037,0,1,0-2.074,0v4.573a1.037,1.037,0,0,0,1.037,1.037" data-name="Path 953"/><path id="Path_954" fill="#00528a" d="M288.627,48.771h4.108a1.037,1.037,0,1,0,0-2.074h-4.108a1.037,1.037,0,1,0,0,2.074" data-name="Path 954"/><path id="Path_955" fill="#00528a" d="M297.356,48.771h4.108a1.037,1.037,0,1,0,0-2.074h-4.108a1.037,1.037,0,0,0,0,2.074" data-name="Path 955"/><path id="Path_956" fill="#ff7c78" d="M96.075,28.908a6.611,6.611,0,1,1,6.611,6.611,6.619,6.619,0,0,1-6.611-6.611m2.074,0a4.536,4.536,0,1,0,4.537-4.537,4.542,4.542,0,0,0-4.537,4.537" data-name="Path 956"/><path id="Path_957" fill="#3b73ab" d="M70.654,41.346a6.611,6.611,0,1,1,6.611,6.611,6.619,6.619,0,0,1-6.611-6.611m2.074,0a4.537,4.537,0,1,0,4.537-4.537,4.542,4.542,0,0,0-4.537,4.537" data-name="Path 957"/><path id="Path_958" fill="#ff7c78" d="M66.851,59.141A1.037,1.037,0,0,0,67.888,58.1V53.531a1.037,1.037,0,1,0-2.074,0V58.1a1.037,1.037,0,0,0,1.037,1.037" data-name="Path 958"/><path id="Path_959" fill="#ff7c78" d="M66.851,67.143a1.037,1.037,0,0,0,1.037-1.037V61.533a1.037,1.037,0,1,0-2.074,0v4.573a1.037,1.037,0,0,0,1.037,1.037" data-name="Path 959"/><path id="Path_960" fill="#ff7c78" d="M60.432,60.855H64.54a1.037,1.037,0,1,0,0-2.074H60.432a1.037,1.037,0,0,0,0,2.074" data-name="Path 960"/><path id="Path_961" fill="#ff7c78" d="M69.161,60.855h4.108a1.037,1.037,0,1,0,0-2.074H69.161a1.037,1.037,0,1,0,0,2.074" data-name="Path 961"/><path id="Path_962" fill="#00528a" d="M85.439,16.368a1.036,1.036,0,0,0,1.037-1.036V10.759a1.037,1.037,0,1,0-2.074,0v4.573a1.036,1.036,0,0,0,1.037,1.036" data-name="Path 962"/><path id="Path_963" fill="#00528a" d="M85.439,24.371a1.037,1.037,0,0,0,1.037-1.037V18.761a1.037,1.037,0,1,0-2.074,0v4.573a1.037,1.037,0,0,0,1.037,1.037" data-name="Path 963"/><path id="Path_964" fill="#00528a" d="M79.021,18.083h4.108a1.037,1.037,0,1,0,0-2.074H79.021a1.037,1.037,0,1,0,0,2.074" data-name="Path 964"/><path id="Path_965" fill="#00528a" d="M87.75,18.083h4.108a1.037,1.037,0,0,0,0-2.074H87.75a1.037,1.037,0,1,0,0,2.074" data-name="Path 965"/></g></g></g></svg>