<svg enable-background="new 0 0 36 60" height="512" viewBox="0 0 36 60" width="512" xmlns="http://www.w3.org/2000/svg"><path d="m31 22h-26c-.552 0-1-.448-1-1v-14c0-.552.448-1 1-1h26c.552 0 1 .448 1 1v14c0 .552-.448 1-1 1zm-25-2h24v-12h-24z"/><path d="m16 35h-11c-.552 0-1-.448-1-1v-9c0-.552.448-1 1-1h11c.552 0 1 .448 1 1v9c0 .552-.448 1-1 1zm-10-2h9v-7h-9z"/><path d="m31 35h-11c-.552 0-1-.448-1-1v-9c0-.552.448-1 1-1h11c.552 0 1 .448 1 1v9c0 .552-.448 1-1 1zm-10-2h9v-7h-9z"/><path d="m16 48h-11c-.552 0-1-.448-1-1v-9c0-.552.448-1 1-1h11c.552 0 1 .448 1 1v9c0 .552-.448 1-1 1zm-10-2h9v-7h-9z"/><path d="m31 48h-11c-.552 0-1-.448-1-1v-9c0-.552.448-1 1-1h11c.552 0 1 .448 1 1v9c0 .552-.448 1-1 1zm-10-2h9v-7h-9z"/><path d="m18 18c-.552 0-1-.448-1-1v-6c0-.552.448-1 1-1s1 .448 1 1v6c0 .552-.448 1-1 1z"/><path d="m21 15h-6c-.552 0-1-.448-1-1s.448-1 1-1h6c.552 0 1 .448 1 1s-.448 1-1 1z"/><path d="m32.999 60h-29.998c-1.655 0-3.001-1.346-3.001-3.001v-9.999c0-.552.448-1 1-1h34c.552 0 1 .448 1 1v9.999c0 1.655-1.346 3.001-3.001 3.001zm-30.999-12v8.999c0 .552.449 1.001 1.001 1.001h29.998c.552 0 1.001-.449 1.001-1.001v-8.999z"/><path d="m18 57c-2.206 0-4-1.794-4-4s1.794-4 4-4 4 1.794 4 4-1.794 4-4 4zm0-6c-1.103 0-2 .897-2 2s.897 2 2 2 2-.897 2-2-.897-2-2-2z"/><path d="m32.999 60h-29.998c-1.655 0-3.001-1.346-3.001-3.001v-53.998c0-1.654 1.346-3.001 3.001-3.001h29.997c1.655 0 3.002 1.347 3.002 3.001v53.998c0 1.655-1.346 3.001-3.001 3.001zm-29.998-58c-.552 0-1.001.449-1.001 1.001v53.998c0 .552.449 1.001 1.001 1.001h29.998c.552 0 1.001-.449 1.001-1.001v-53.998c0-.552-.449-1.001-1.002-1.001z"/></svg>