<svg enable-background="new 0 0 60 60" height="512" viewBox="0 0 60 60" width="512" xmlns="http://www.w3.org/2000/svg"><path d="m55.5 60h-51c-2.481 0-4.5-2.019-4.5-4.5v-51c0-2.481 2.019-4.5 4.5-4.5h51c2.481 0 4.5 2.019 4.5 4.5v51c0 2.481-2.019 4.5-4.5 4.5zm-51-58c-1.378 0-2.5 1.121-2.5 2.5v51c0 1.379 1.122 2.5 2.5 2.5h51c1.379 0 2.5-1.121 2.5-2.5v-51c0-1.379-1.122-2.5-2.5-2.5z"/><path d="m9 10h-4c-.552 0-1-.447-1-1v-4c0-.553.448-1 1-1h4c.552 0 1 .447 1 1v4c0 .553-.448 1-1 1zm-3-2h2v-2h-2z"/><path d="m17 10h-4c-.552 0-1-.447-1-1v-4c0-.553.448-1 1-1h4c.552 0 1 .447 1 1v4c0 .553-.448 1-1 1zm-3-2h2v-2h-2z"/><path d="m25 10h-4c-.552 0-1-.447-1-1v-4c0-.553.448-1 1-1h4c.552 0 1 .447 1 1v4c0 .553-.448 1-1 1zm-3-2h2v-2h-2z"/><path d="m59 14h-58c-.552 0-1-.447-1-1v-8.5c0-2.481 2.019-4.5 4.5-4.5h51c2.481 0 4.5 2.019 4.5 4.5v8.5c0 .553-.448 1-1 1zm-57-2h56v-7.5c0-1.379-1.122-2.5-2.5-2.5h-51c-1.378 0-2.5 1.121-2.5 2.5z"/><path d="m53 28h-12c-.552 0-1-.447-1-1v-8c0-.553.448-1 1-1h12c.552 0 1 .447 1 1v8c0 .553-.448 1-1 1zm-11-2h10v-6h-10z"/><path d="m36 28h-12c-.552 0-1-.447-1-1v-8c0-.553.448-1 1-1h12c.552 0 1 .447 1 1v8c0 .553-.448 1-1 1zm-11-2h10v-6h-10z"/><path d="m19 41h-12c-.552 0-1-.447-1-1v-8c0-.553.448-1 1-1h12c.552 0 1 .447 1 1v8c0 .553-.448 1-1 1zm-11-2h10v-6h-10z"/><path d="m53 41h-12c-.552 0-1-.447-1-1v-8c0-.553.448-1 1-1h12c.552 0 1 .447 1 1v8c0 .553-.448 1-1 1zm-11-2h10v-6h-10z"/><path d="m36 41h-12c-.552 0-1-.447-1-1v-8c0-.553.448-1 1-1h12c.552 0 1 .447 1 1v8c0 .553-.448 1-1 1zm-11-2h10v-6h-10z"/><path d="m19 54h-12c-.552 0-1-.447-1-1v-8c0-.553.448-1 1-1h12c.552 0 1 .447 1 1v8c0 .553-.448 1-1 1zm-11-2h10v-6h-10z"/><path d="m53 54h-12c-.552 0-1-.447-1-1v-8c0-.553.448-1 1-1h12c.552 0 1 .447 1 1v8c0 .553-.448 1-1 1zm-11-2h10v-6h-10z"/><path d="m36 54h-12c-.552 0-1-.447-1-1v-8c0-.553.448-1 1-1h12c.552 0 1 .447 1 1v8c0 .553-.448 1-1 1zm-11-2h10v-6h-10z"/><path d="m13 28c-.552 0-1-.447-1-1v-8c0-.553.448-1 1-1s1 .447 1 1v8c0 .553-.448 1-1 1z"/><path d="m17 24h-8c-.552 0-1-.447-1-1s.448-1 1-1h8c.552 0 1 .447 1 1s-.448 1-1 1z"/></svg>