<svg id="Layer_1" height="512" viewBox="0 0 48 48" width="512" xmlns="http://www.w3.org/2000/svg" data-name="Layer 1"><path d="m38 45h-28a5.006 5.006 0 0 1 -5-5v-32a5.006 5.006 0 0 1 5-5h28a5.006 5.006 0 0 1 5 5v32a5.006 5.006 0 0 1 -5 5zm-28-40a3 3 0 0 0 -3 3v32a3 3 0 0 0 3 3h28a3 3 0 0 0 3-3v-32a3 3 0 0 0 -3-3z"/><path d="m19 30h-7a1 1 0 0 1 0-2h7a1 1 0 0 1 0 2z"/><path d="m36 30h-14a1 1 0 0 1 0-2h14a1 1 0 0 1 0 2z"/><path d="m25 35h-13a1 1 0 0 1 0-2h13a1 1 0 0 1 0 2z"/><path d="m36 35h-8a1 1 0 0 1 0-2h8a1 1 0 0 1 0 2z"/><path d="m20 20h-8a1 1 0 0 1 0-2h8a1 1 0 0 1 0 2z"/><path d="m20 15h-8a1 1 0 0 1 0-2h8a1 1 0 0 1 0 2z"/><path d="m29 25h-17a1 1 0 0 1 0-2h17a1 1 0 0 1 0 2z"/><path d="m36 25h-4a1 1 0 0 1 0-2h4a1 1 0 0 1 0 2z"/><path d="m35 18a.991.991 0 0 1 -.371-.071l-4.629-1.852-4.629 1.852a1 1 0 0 1 -1.371-.929v-13a1 1 0 0 1 1-1h10a1 1 0 0 1 1 1v13a1 1 0 0 1 -1 1zm-5-4a1.011 1.011 0 0 1 .371.071l3.629 1.452v-10.523h-8v10.523l3.629-1.452a1.011 1.011 0 0 1 .371-.071z"/></svg>