<svg id="Capa_1" enable-background="new 0 0 511 511" height="512" viewBox="0 0 511 511" width="512" xmlns="http://www.w3.org/2000/svg"><g><path d="m431 80v-32.5c0-26.191-21.309-47.5-47.5-47.5h-57.5v80h-30.5c-16.782 0-31.548 8.756-40 21.932-8.452-13.176-23.218-21.932-40-21.932h-215.5v431h248 15 248v-431zm-183 416h-233v-55h200.5c17.92 0 32.5 14.58 32.5 32.5zm0-57.094c-8.504-7.994-19.936-12.906-32.5-12.906h-200.5v-331h200.5c17.92 0 32.5 14.58 32.5 32.5zm93-423.906h42.5c17.92 0 32.5 14.58 32.5 32.5v311.389c-8.503-7.989-19.94-12.889-32.5-12.889h-42.5zm-78 112.5c0-17.92 14.58-32.5 32.5-32.5h30.5v266h57.5c17.92 0 32.5 14.58 32.5 32.5s-14.58 32.5-32.5 32.5h-88c-12.564 0-23.996 4.912-32.5 12.906zm233 368.5h-233v-22.5c0-17.92 14.58-32.5 32.5-32.5h200.5zm0-70h-77.906c7.994-8.504 12.906-19.936 12.906-32.5v-298.5h65z"/><path d="m62 222.905 60.579-42.405-60.579-42.405zm15-56 19.421 13.595-19.421 13.595z"/><path d="m62 380.905 60.579-42.405-60.579-42.405zm15-56 19.421 13.595-19.421 13.595z"/><path d="m203.5 113h-146c-15.164 0-27.5 12.336-27.5 27.5v80c0 15.164 12.336 27.5 27.5 27.5h146c15.164 0 27.5-12.336 27.5-27.5v-80c0-15.164-12.336-27.5-27.5-27.5zm12.5 107.5c0 6.893-5.607 12.5-12.5 12.5h-146c-6.893 0-12.5-5.607-12.5-12.5v-80c0-6.893 5.607-12.5 12.5-12.5h146c6.893 0 12.5 5.607 12.5 12.5z"/><path d="m164.5 158h34v15h-34z"/><path d="m134.5 158h15v15h-15z"/><path d="m134.5 188h34v15h-34z"/><path d="m183.5 188h15v15h-15z"/><path d="m203.5 271h-146c-15.164 0-27.5 12.336-27.5 27.5v80c0 15.164 12.336 27.5 27.5 27.5h146c15.164 0 27.5-12.336 27.5-27.5v-80c0-15.164-12.336-27.5-27.5-27.5zm12.5 107.5c0 6.893-5.607 12.5-12.5 12.5h-146c-6.893 0-12.5-5.607-12.5-12.5v-80c0-6.893 5.607-12.5 12.5-12.5h146c6.893 0 12.5 5.607 12.5 12.5z"/><path d="m134.5 316h15v15h-15z"/><path d="m164.5 316h34v15h-34z"/><path d="m183.5 346h15v15h-15z"/><path d="m134.5 346h34v15h-34z"/><path d="m32.5 466h15v15h-15z"/><path d="m62.5 466h15v15h-15z"/><path d="m466 111.5h15v30h-15z"/><path d="m466 156.5h15v15h-15z"/><path d="m463.5 466h15v15h-15z"/><path d="m432.5 466h15v15h-15z"/></g></svg>