<svg id="Capa_1" enable-background="new 0 0 512 512" height="512" viewBox="0 0 512 512" width="512" xmlns="http://www.w3.org/2000/svg"><g><g><path d="m212.184 58.133-38.205-19.103c-4.894-2.446-10.594-2.19-15.249.687-4.654 2.876-7.433 7.86-7.433 13.332v38.204c0 5.471 2.778 10.455 7.433 13.332 2.533 1.565 5.376 2.355 8.23 2.355 2.39 0 4.788-.554 7.019-1.669l38.204-19.102c5.344-2.672 8.664-8.043 8.664-14.018s-3.32-11.346-8.663-14.018zm-6.708 14.619-38.204 19.102c-.108.056-.335.169-.654-.029-.319-.197-.319-.45-.319-.572v-38.205c0-.122 0-.375.319-.572.135-.084.254-.112.354-.112.136 0 .237.051.3.082l38.204 19.102c.229.115.372.345.372.602s-.143.487-.372.602z"/><path d="m440.476 32.325h-92.939c-4.142 0-7.5 3.358-7.5 7.5s3.358 7.5 7.5 7.5h92.939c4.142 0 7.5-3.358 7.5-7.5s-3.358-7.5-7.5-7.5z"/><path d="m315.212 32.325h-32.164c-4.142 0-7.5 3.358-7.5 7.5s3.358 7.5 7.5 7.5h32.164c4.142 0 7.5-3.358 7.5-7.5s-3.358-7.5-7.5-7.5z"/><path d="m375.826 96.976h-92.777c-4.142 0-7.5 3.358-7.5 7.5s3.358 7.5 7.5 7.5h92.777c4.142 0 7.5-3.358 7.5-7.5s-3.358-7.5-7.5-7.5z"/><path d="m275.548 72.15c0 4.142 3.358 7.5 7.5 7.5h92.777c4.142 0 7.5-3.358 7.5-7.5s-3.358-7.5-7.5-7.5h-92.777c-4.142 0-7.5 3.358-7.5 7.5z"/><path d="m440.476 64.65h-32.325c-4.142 0-7.5 3.358-7.5 7.5s3.358 7.5 7.5 7.5h32.325c4.142 0 7.5-3.358 7.5-7.5s-3.358-7.5-7.5-7.5z"/><path d="m452.76 0h-141.13c-4.142 0-7.5 3.358-7.5 7.5s3.358 7.5 7.5 7.5h141.13c7.003 0 12.7 5.697 12.7 12.7v88.9c0 7.002-5.697 12.7-12.7 12.7h-194.537v-114.3h18.407c4.142 0 7.5-3.358 7.5-7.5s-3.358-7.5-7.5-7.5h-135.005c-15.275 0-27.703 12.428-27.703 27.703v88.895c0 15.275 12.428 27.703 27.703 27.703l311.135-.001c15.274 0 27.7-12.426 27.7-27.7v-88.9c0-15.274-12.426-27.7-27.7-27.7zm-323.838 116.598v-88.895c0-7.004 5.699-12.703 12.703-12.703h101.595v114.301h-101.595c-7.004 0-12.703-5.699-12.703-12.703z"/><path d="m212.184 241.982-38.204-19.103c-4.894-2.446-10.594-2.19-15.249.687-4.654 2.876-7.433 7.86-7.433 13.332v38.204c0 5.471 2.778 10.455 7.433 13.332 2.533 1.565 5.376 2.355 8.23 2.355 2.39 0 4.788-.554 7.019-1.669l38.204-19.102c5.344-2.672 8.664-8.043 8.664-14.018s-3.321-11.346-8.664-14.018zm-6.708 14.62-38.204 19.102c-.108.055-.335.169-.654-.029-.319-.197-.319-.45-.319-.572v-38.204c0-.122 0-.375.319-.572.135-.084.254-.112.354-.112.136 0 .237.051.3.082l38.204 19.102c.229.115.372.345.372.602s-.143.486-.372.601z"/><path d="m440.476 216.175h-92.939c-4.142 0-7.5 3.358-7.5 7.5s3.358 7.5 7.5 7.5h92.939c4.142 0 7.5-3.358 7.5-7.5s-3.358-7.5-7.5-7.5z"/><path d="m283.048 231.175h32.164c4.142 0 7.5-3.358 7.5-7.5s-3.358-7.5-7.5-7.5h-32.164c-4.142 0-7.5 3.358-7.5 7.5s3.358 7.5 7.5 7.5z"/><path d="m375.826 280.825h-92.777c-4.142 0-7.5 3.358-7.5 7.5s3.358 7.5 7.5 7.5h92.777c4.142 0 7.5-3.358 7.5-7.5s-3.358-7.5-7.5-7.5z"/><path d="m375.826 248.5h-92.777c-4.142 0-7.5 3.358-7.5 7.5s3.358 7.5 7.5 7.5h92.777c4.142 0 7.5-3.358 7.5-7.5s-3.358-7.5-7.5-7.5z"/><path d="m440.476 248.5h-32.325c-4.142 0-7.5 3.358-7.5 7.5s3.358 7.5 7.5 7.5h32.325c4.142 0 7.5-3.358 7.5-7.5s-3.358-7.5-7.5-7.5z"/><path d="m452.76 183.85h-30.01c-4.142 0-7.5 3.358-7.5 7.5s3.358 7.5 7.5 7.5h30.01c7.003 0 12.7 5.697 12.7 12.7v88.9c0 7.002-5.697 12.7-12.7 12.7h-194.537v-114.3h129.527c4.142 0 7.5-3.358 7.5-7.5s-3.358-7.5-7.5-7.5h-246.125c-15.275 0-27.703 12.428-27.703 27.703v88.895c0 15.275 12.428 27.703 27.703 27.703h311.134c15.274 0 27.7-12.426 27.7-27.7v-88.9c.001-15.275-12.425-27.701-27.699-27.701zm-323.838 116.597v-88.895c0-7.004 5.699-12.703 12.703-12.703h101.595v114.301h-101.595c-7.004 0-12.703-5.698-12.703-12.703z"/><path d="m212.184 425.832-38.204-19.103c-4.894-2.446-10.594-2.19-15.249.687-4.654 2.876-7.433 7.86-7.433 13.332v38.204c0 5.471 2.778 10.455 7.433 13.332 2.533 1.565 5.376 2.355 8.23 2.355 2.39 0 4.788-.554 7.019-1.669l38.204-19.102c5.344-2.672 8.664-8.043 8.664-14.018s-3.321-11.346-8.664-14.018zm-6.708 14.619-38.204 19.102c-.108.056-.335.169-.654-.029-.319-.197-.319-.45-.319-.572v-38.204c0-.122 0-.375.319-.572.135-.084.254-.112.354-.112.136 0 .237.051.3.082l38.204 19.102c.229.115.372.345.372.602s-.143.486-.372.601z"/><path d="m440.476 400.024h-92.939c-4.142 0-7.5 3.358-7.5 7.5s3.358 7.5 7.5 7.5h92.939c4.142 0 7.5-3.358 7.5-7.5s-3.358-7.5-7.5-7.5z"/><path d="m283.048 415.024h32.164c4.142 0 7.5-3.358 7.5-7.5s-3.358-7.5-7.5-7.5h-32.164c-4.142 0-7.5 3.358-7.5 7.5s3.358 7.5 7.5 7.5z"/><path d="m283.048 479.675h92.777c4.142 0 7.5-3.358 7.5-7.5s-3.358-7.5-7.5-7.5h-92.777c-4.142 0-7.5 3.358-7.5 7.5s3.358 7.5 7.5 7.5z"/><path d="m283.048 447.35h92.777c4.142 0 7.5-3.358 7.5-7.5s-3.358-7.5-7.5-7.5h-92.777c-4.142 0-7.5 3.358-7.5 7.5s3.358 7.5 7.5 7.5z"/><path d="m440.476 432.35h-32.325c-4.142 0-7.5 3.358-7.5 7.5s3.358 7.5 7.5 7.5h32.325c4.142 0 7.5-3.358 7.5-7.5s-3.358-7.5-7.5-7.5z"/><path d="m452.76 367.7-311.134-.001c-15.275 0-27.703 12.428-27.703 27.703v88.895c0 15.275 12.428 27.703 27.703 27.703h135.004c4.142 0 7.5-3.358 7.5-7.5s-3.358-7.5-7.5-7.5h-18.407v-114.3h194.537c7.003 0 12.7 5.697 12.7 12.7v88.9c0 7.003-5.697 12.7-12.7 12.7h-141.13c-4.142 0-7.5 3.358-7.5 7.5s3.358 7.5 7.5 7.5h141.13c15.274 0 27.7-12.426 27.7-27.7v-88.9c0-15.274-12.426-27.7-27.7-27.7zm-323.838 116.597v-88.895c0-7.004 5.699-12.703 12.703-12.703h101.595v114.301h-101.595c-7.004 0-12.703-5.699-12.703-12.703z"/><path d="m52.176 39.244h9.773v73.313c0 4.142 3.358 7.5 7.5 7.5s7.5-3.358 7.5-7.5v-80.813c0-4.142-3.358-7.5-7.5-7.5h-17.273c-4.142 0-7.5 3.358-7.5 7.5s3.358 7.5 7.5 7.5z"/><path d="m82.585 288.724c-.032 0-.064 0-.096 0-9.196.115-19.018.195-26.529.182 4.471-5.928 11.117-14.921 20.59-28.457.029-.042.058-.083.086-.126 5.926-8.845 9.106-14.931 10.045-23.644.029-.267.043-.535.043-.803 0-15.319-12.463-27.782-27.782-27.782-13.247 0-24.711 9.423-27.26 22.405-.798 4.064 1.85 8.007 5.914 8.805 4.063.796 8.007-1.85 8.805-5.914 1.171-5.966 6.446-10.296 12.542-10.296 6.921 0 12.575 5.53 12.776 12.403-.601 4.921-2.347 8.713-7.502 16.414-12.545 17.923-20.037 27.732-24.063 33.004-4.926 6.45-6.769 8.863-5.461 13.114.757 2.461 2.627 4.352 5.129 5.186 1.015.338 2.126.709 17.274.709 6.019 0 14.256-.059 25.582-.201 4.142-.052 7.457-3.452 7.405-7.594-.052-4.109-3.399-7.405-7.498-7.405z"/><path d="m88.516 419.646c0-15.276-12.428-27.704-27.703-27.704-13.209 0-24.641 9.396-27.184 22.342-.798 4.064 1.85 8.006 5.914 8.805 4.062.796 8.006-1.85 8.805-5.914 1.165-5.929 6.407-10.233 12.465-10.233 7.004 0 12.703 5.699 12.703 12.704 0 7.004-5.699 12.703-12.703 12.703-4.142 0-7.5 3.358-7.5 7.5s3.358 7.5 7.5 7.5c7.004 0 12.703 5.699 12.703 12.703s-5.699 12.703-12.703 12.703c-6.303 0-11.711-4.695-12.58-10.921-.082-.587-.124-1.187-.124-1.782 0-4.142-3.358-7.5-7.5-7.5s-7.5 3.358-7.5 7.5c0 1.286.09 2.583.267 3.854 1.897 13.596 13.692 23.849 27.437 23.849 15.275 0 27.703-12.428 27.703-27.703 0-7.959-3.374-15.146-8.767-20.203 5.393-5.057 8.767-12.243 8.767-20.203z"/></g></g></svg>