<svg id="Capa_1" enable-background="new 0 0 512 512" height="512" viewBox="0 0 512 512" width="512" xmlns="http://www.w3.org/2000/svg"><g><path d="m29.351 75h10.649v105c0 8.284 6.716 15 15 15s15-6.716 15-15v-120c0-8.284-6.716-15-15-15h-25.649c-8.284 0-15 6.716-15 15s6.715 15 15 15z"/><path d="m79.663 436.729c-.063 0-.128 0-.192.001-10.642.134-21.886.227-31.618.258 6.366-8.562 14.877-20.257 26.012-36.167 7.645-10.922 12.636-21.273 14.836-30.765.387-2.1.904-5.809.969-7.94 0-24.877-20.239-45.117-45.117-45.117-21.51 0-40.128 15.303-44.27 36.387-1.597 8.129 3.698 16.013 11.827 17.61 8.129 1.601 16.013-3.698 17.61-11.827 1.385-7.052 7.623-12.17 14.833-12.17 8.069 0 14.682 6.355 15.096 14.324l-.334 2.614c-1.423 5.537-4.879 12.323-10.029 19.682-18.626 26.612-29.737 41.161-35.707 48.977-7.493 9.811-11.254 14.735-8.729 22.947 1.495 4.862 5.171 8.591 10.087 10.231 1.977.659 3.758 1.253 26.956 1.253 9.003 0 21.234-.089 37.953-.299 8.284-.104 14.915-6.904 14.811-15.188-.102-8.219-6.797-14.811-14.994-14.811z"/><path d="m467 0h-300c-24.813 0-45 20.187-45 45v150c0 24.813 20.187 45 45 45h300c24.813 0 45-20.187 45-45v-150c0-24.813-20.187-45-45-45zm15 195c0 8.271-6.729 15-15 15h-300c-8.271 0-15-6.729-15-15v-150c0-8.271 6.729-15 15-15h300c8.271 0 15 6.729 15 15z"/><path d="m284.354 106.926-80-45c-9.999-5.624-22.354 1.602-22.354 13.074v90c0 11.472 12.355 18.698 22.354 13.074l80-45c10.195-5.735 10.195-20.413 0-26.148zm-72.354 32.426v-38.704l34.404 19.352z"/><path d="m437 75h-110c-8.284 0-15 6.716-15 15s6.716 15 15 15h110c8.284 0 15-6.716 15-15s-6.716-15-15-15z"/><path d="m387 135h-60c-8.284 0-15 6.716-15 15s6.716 15 15 15h60c8.284 0 15-6.716 15-15s-6.716-15-15-15z"/><path d="m467 272h-300c-24.813 0-45 20.187-45 45v150c0 24.813 20.187 45 45 45h300c24.813 0 45-20.187 45-45v-150c0-24.813-20.187-45-45-45zm15 195c0 8.271-6.729 15-15 15h-300c-8.271 0-15-6.729-15-15v-150c0-8.271 6.729-15 15-15h300c8.271 0 15 6.729 15 15z"/><path d="m284.354 378.926-80-45c-9.999-5.624-22.354 1.602-22.354 13.074v90c0 11.472 12.355 18.698 22.354 13.074l80-45c10.195-5.735 10.195-20.413 0-26.148zm-72.354 32.426v-38.704l34.404 19.352z"/><path d="m437 347h-110c-8.284 0-15 6.716-15 15s6.716 15 15 15h110c8.284 0 15-6.716 15-15s-6.716-15-15-15z"/><path d="m387 407h-60c-8.284 0-15 6.716-15 15s6.716 15 15 15h60c8.284 0 15-6.716 15-15s-6.716-15-15-15z"/></g></svg>