<svg id="Layer_1" enable-background="new 0 0 512 512" height="512" viewBox="0 0 512 512" width="512" xmlns="http://www.w3.org/2000/svg"><g><path d="m464.867 16.067h-289.2c-26.359 0-47.133 21.411-47.133 47.133v128.533c0 25.915 20.953 47.133 47.133 47.133h289.2c26.359 0 47.133-21.411 47.133-47.133v-128.533c0-25.915-20.953-47.133-47.133-47.133zm17.133 175.666c0 9.339-7.551 17.133-17.133 17.133h-289.2c-9.339 0-17.133-7.551-17.133-17.133v-128.533c0-9.339 7.551-17.133 17.133-17.133h289.2c9.339 0 17.133 7.551 17.133 17.133z"/><path d="m464.867 273.133h-289.2c-26.359 0-47.133 21.411-47.133 47.133v128.534c0 25.915 20.953 47.133 47.133 47.133h289.2c26.359 0 47.133-21.411 47.133-47.133v-128.533c0-25.916-20.953-47.134-47.133-47.134zm17.133 175.667c0 9.339-7.551 17.133-17.133 17.133h-289.2c-9.339 0-17.133-7.551-17.133-17.133v-128.533c0-9.339 7.551-17.133 17.133-17.133h289.2c9.339 0 17.133 7.551 17.133 17.133z"/><path d="m94.267 360.433c-2.369-62.436-91.908-62.43-94.267-.016v.016c.745 19.883 29.27 19.85 30-.016 0-9.438 7.679-17.117 17.133-17.117 9.447 0 17.133 7.686 17.133 17.133 0 6.354-2.474 12.328-6.965 16.819l-52.907 52.908c-4.29 4.29-5.573 10.742-3.252 16.347 2.322 5.605 7.792 9.26 13.858 9.26h64.267c19.881-.738 19.866-29.269 0-30h-28.053l27.301-27.301c10.158-10.159 15.752-23.666 15.752-38.033z"/><path d="m79.267 168.7h-17.134v-97.467c0-6.067-3.655-11.537-9.26-13.858-5.607-2.323-12.058-1.039-16.347 3.252l-32.132 32.133c-5.858 5.858-5.858 15.355 0 21.213 5.857 5.858 15.355 5.858 21.213 0l6.527-6.526v61.253h-17.134c-19.881.738-19.866 29.269 0 30h64.267c19.88-.738 19.865-29.269 0-30z"/><path d="m432.733 80.333h-224.933c-19.881.738-19.866 29.269 0 30h224.934c19.88-.737 19.865-29.269-.001-30z"/><path d="m432.733 337.4h-224.933c-19.881.738-19.866 29.269 0 30h224.934c19.88-.738 19.865-29.269-.001-30z"/><path d="m368.467 144.6h-160.667c-19.881.738-19.866 29.269 0 30h160.667c19.881-.738 19.866-29.269 0-30z"/><path d="m368.467 401.667h-160.667c-19.881.738-19.866 29.269 0 30h160.667c19.881-.738 19.866-29.27 0-30z"/></g></svg>