<svg id="Capa_1" enable-background="new 0 0 512 512" height="512" viewBox="0 0 512 512" width="512" xmlns="http://www.w3.org/2000/svg"><g><g><path d="m475.12 75.927h-174.04c-5.523 0-10 4.477-10 10s4.477 10 10 10h174.04c9.308 0 16.88 7.573 16.88 16.881v96.926c0 9.308-7.573 16.88-16.88 16.88h-438.24c-9.308 0-16.88-7.572-16.88-16.88v-96.926c0-9.308 7.573-16.881 16.88-16.881h176.258c5.523 0 10-4.477 10-10s-4.477-10-10-10h-176.258c-20.336 0-36.88 16.544-36.88 36.881v96.926c0 20.336 16.544 36.88 36.88 36.88h10.73v62.369c0 20.336 16.544 36.88 36.88 36.88h11.77v53.33c0 20.335 16.544 36.88 36.88 36.88h245.72c20.336 0 36.88-16.544 36.88-36.88v-53.33h11.77c20.336 0 36.88-16.544 36.88-36.88v-62.369h10.729c20.336 0 36.88-16.544 36.88-36.88v-96.926c.001-20.337-16.543-36.881-36.879-36.881zm-79.38 323.266c0 9.308-7.572 16.88-16.88 16.88h-245.72c-9.308 0-16.88-7.572-16.88-16.88v-53.33h42.035c-.064.458-.109.923-.109 1.398 0 5.523 4.477 10 10 10 5.583 0 10.124 4.542 10.124 10.125s-4.542 10.125-10.124 10.125c-5.024 0-9.334-3.74-10.027-8.7-.763-5.47-5.814-9.282-11.286-8.521-5.47.763-9.285 5.816-8.521 11.286 2.063 14.785 14.89 25.935 29.834 25.935 16.61 0 30.124-13.514 30.124-30.125 0-8.426-3.481-16.051-9.076-21.523h206.506zm48.65-90.21c0 9.308-7.573 16.88-16.88 16.88h-343.02c-9.308 0-16.88-7.573-16.88-16.88v-62.369h54.706c2.945.01 4.541 3.153 4.205 5.776-.452 1.662-1.567 4.345-4.268 8.204-8.777 12.542-14.011 19.394-16.822 23.075-3.618 4.737-6.232 8.16-4.598 13.473.973 3.161 3.451 5.681 6.626 6.74 1.338.446 2.244.749 13.348.749 4.339 0 10.234-.046 18.321-.148 5.522-.069 9.943-4.603 9.873-10.125-.069-5.479-4.532-9.874-9.997-9.874-.042 0-.085 0-.128.001-3.015.038-6.144.069-9.16.091 2.474-3.395 5.426-7.517 8.922-12.512 3.885-5.551 6.329-10.643 7.47-15.566.748-3.23.64-6.652-.012-9.882h298.294z"/><path d="m87.889 208.409c5.523 0 10-4.477 10-10v-72.803c0-5.523-4.477-10-10-10h-15.561c-5.523 0-10 4.477-10 10s4.477 10 10 10h5.561v62.803c0 5.523 4.477 10 10 10z"/><path d="m184.963 292.928h223.777c5.523 0 10-4.477 10-10s-4.477-10-10-10h-223.777c-5.523 0-10 4.477-10 10s4.477 10 10 10z"/><path d="m229.114 391.531h135.109c5.523 0 10-4.477 10-10s-4.477-10-10-10h-135.109c-5.523 0-10 4.477-10 10s4.477 10 10 10z"/><path d="m448 136.383c0-5.523-4.477-10-10-10h-280c-5.523 0-10 4.477-10 10s4.477 10 10 10h280c5.523 0 10-4.477 10-10z"/><path d="m158 176.216c-5.523 0-10 4.477-10 10s4.477 10 10 10h201c5.523 0 10-4.477 10-10s-4.477-10-10-10z"/><path d="m249.27 89.75c3.398 8.157 15.339 8.019 18.549-.228 1.543-3.965.314-8.623-2.975-11.325-3.228-2.651-7.899-2.99-11.481-.848-4.194 2.508-5.97 7.895-4.093 12.401z"/></g></g></svg>