<svg id="Capa_1" enable-background="new 0 0 512 512" height="512" viewBox="0 0 512 512" width="512" xmlns="http://www.w3.org/2000/svg"><g><path d="m152.807 116.343-11.255-5.347c7.442-10.321 11.843-22.972 11.843-36.64v-11.551c0-34.631-28.174-62.805-62.806-62.805-34.631 0-62.805 28.174-62.805 62.805v11.551c0 13.667 4.402 26.319 11.843 36.64l-11.255 5.347c-17.235 8.188-28.372 25.807-28.372 44.889v44.411h181.179v-44.411c0-19.082-11.137-36.701-28.372-44.889zm-95.023-53.538c0-18.089 14.717-32.805 32.806-32.805s32.805 14.716 32.805 32.805v11.551c0 18.089-14.717 32.805-32.806 32.805s-32.805-14.716-32.805-32.805zm93.395 112.838h-121.179v-14.411c0-7.563 4.414-14.546 11.245-17.792l24.257-11.524c7.69 3.365 16.172 5.244 25.088 5.244s17.398-1.88 25.088-5.244l24.257 11.523c6.831 3.245 11.245 10.229 11.245 17.792v14.412z"/><path d="m237.873 22.191h274.127v30h-274.127z"/><path d="m237.873 153.451h84.941v30h-84.941z"/><path d="m237.873 87.821h274.127v30h-274.127z"/><path d="m152.807 422.7-11.255-5.347c7.442-10.321 11.843-22.972 11.843-36.64v-11.551c0-34.631-28.174-62.805-62.806-62.805-34.631 0-62.805 28.174-62.805 62.805v11.551c0 13.667 4.402 26.319 11.843 36.64l-11.255 5.347c-17.235 8.188-28.372 25.808-28.372 44.89v44.41h181.179v-44.41c0-19.082-11.137-36.702-28.372-44.89zm-95.023-53.537c0-18.089 14.717-32.805 32.806-32.805s32.805 14.716 32.805 32.805v11.551c0 18.089-14.717 32.805-32.806 32.805s-32.805-14.716-32.805-32.805zm93.395 112.837h-121.179v-14.41c0-7.563 4.414-14.547 11.245-17.792l24.257-11.524c7.69 3.365 16.172 5.244 25.088 5.244s17.398-1.88 25.088-5.244l24.257 11.523c6.831 3.245 11.245 10.229 11.245 17.792v14.411z"/><path d="m237.873 328.549h274.127v30h-274.127z"/><path d="m237.873 459.809h84.941v30h-84.941z"/><path d="m237.873 394.179h274.127v30h-274.127z"/></g></svg>