<svg id="Capa_1" enable-background="new 0 0 512 512" height="512" viewBox="0 0 512 512" width="512" xmlns="http://www.w3.org/2000/svg"><g><path d="m154.811 152.688-34.688-16.479c-10.234 4.84-21.66 7.559-33.712 7.559s-23.478-2.719-33.712-7.559l-34.688 16.479c-10.941 5.198-18.011 16.384-18.011 28.498v24.457h172.823v-24.457c0-12.114-7.07-23.3-18.012-28.498z"/><path d="m86.412 113.768c27.094 0 49.136-22.042 49.136-49.136v-15.496c-.001-27.094-22.043-49.136-49.136-49.136s-49.137 22.042-49.137 49.136v15.497c0 27.093 22.043 49.135 49.137 49.135z"/><path d="m237.873 22.191h274.127v30h-274.127z"/><path d="m237.873 153.451h84.941v30h-84.941z"/><path d="m237.873 87.821h274.127v30h-274.127z"/><path d="m237.873 328.549h274.127v30h-274.127z"/><path d="m237.873 459.809h84.941v30h-84.941z"/><path d="m237.873 394.179h274.127v30h-274.127z"/><path d="m135.547 370.99v-15.497c0-27.094-22.042-49.136-49.136-49.136s-49.136 22.042-49.136 49.136v15.497c0 27.094 22.042 49.136 49.136 49.136s49.136-22.043 49.136-49.136z"/><path d="m154.811 459.045-34.688-16.479c-10.234 4.84-21.66 7.559-33.712 7.559s-23.478-2.719-33.712-7.559l-34.688 16.479c-10.941 5.199-18.011 16.384-18.011 28.498v24.457h172.823v-24.457c0-12.114-7.07-23.299-18.012-28.498z"/></g></svg>