<svg id="Capa_1" enable-background="new 0 0 512 512" height="512" viewBox="0 0 512 512" width="512" xmlns="http://www.w3.org/2000/svg"><g><path d="m332.676 204.993c0-16.629-9.706-31.985-24.726-39.121l-6.284-2.986c5.274-8.338 8.341-18.204 8.341-28.779v-9.425c0-29.779-24.227-54.005-54.006-54.005s-54.005 24.227-54.005 54.005v9.425c0 10.574 3.067 20.44 8.34 28.779l-6.285 2.986c-15.021 7.135-24.726 22.491-24.726 39.121v38.997h153.352v-38.997zm-100.681-80.31c0-13.237 10.769-24.005 24.005-24.005s24.006 10.769 24.006 24.005v9.425c0 13.237-10.769 24.005-24.006 24.005s-24.005-10.769-24.005-24.005zm70.681 89.306h-93.352v-8.997c0-5.111 2.983-9.83 7.599-12.023l18.673-8.871c6.299 2.581 13.186 4.015 20.404 4.015s14.104-1.434 20.404-4.015l18.673 8.871c4.616 2.193 7.599 6.912 7.599 12.023z"/><path d="m256 329.711c90.902 0 164.856-73.954 164.856-164.855 0-90.902-73.954-164.856-164.856-164.856s-164.856 73.954-164.856 164.856c0 90.901 73.954 164.855 164.856 164.855zm0-299.711c74.36 0 134.856 60.496 134.856 134.856 0 74.359-60.496 134.855-134.856 134.855s-134.856-60.496-134.856-134.855c0-74.36 60.496-134.856 134.856-134.856z"/><path d="m73.765 421.237h364.47v30h-364.47z"/><path d="m122.017 360.474h114.929v30h-114.929z"/><path d="m275.055 360.474h114.929v30h-114.929z"/><path d="m73.765 482h364.47v30h-364.47z"/></g></svg>