<svg height="512pt" viewBox="0 -44 512 512" width="512pt" xmlns="http://www.w3.org/2000/svg"><path d="m484.5 0h-457c-15.164062 0-27.5 12.335938-27.5 27.5v369.847656c0 15.164063 12.335938 27.5 27.5 27.5h309.101562c4.140626 0 7.5-3.359375 7.5-7.5s-3.359374-7.5-7.5-7.5h-309.101562c-6.894531 0-12.5-5.605468-12.5-12.5v-299.304687h41.332031c4.144531 0 7.5-3.359375 7.5-7.5 0-4.144531-3.355469-7.5-7.5-7.5h-41.332031v-55.542969c0-6.894531 5.605469-12.5 12.5-12.5h457c6.894531 0 12.5 5.605469 12.5 12.5v55.542969h-203.1875l-8.984375-28.867188c-3.597656-11.5625-14.148437-19.328125-26.257813-19.328125h-94.554687c-12.109375 0-22.660156 7.765625-26.257813 19.328125l-8.984374 28.867188h-36.773438c-4.140625 0-7.5 3.359375-7.5 7.5s3.359375 7.5 7.5 7.5h42.292969c3.28125 0 6.183593-2.136719 7.160156-5.269531l10.625-34.140626c1.636719-5.253906 6.433594-8.785156 11.933594-8.785156h94.558593c5.503907 0 10.300782 3.53125 11.933594 8.789063l10.625 34.136719c.976563 3.132812 3.878906 5.269531 7.160156 5.269531h208.710938v23.121093c0 4.140626 3.359375 7.5 7.5 7.5s7.5-3.359374 7.5-7.5v-93.664062c0-15.164062-12.335938-27.5-27.5-27.5zm0 0"/><path d="m504.5 148.183594c-4.140625 0-7.5 3.359375-7.5 7.5v241.664062c0 6.894532-5.605469 12.5-12.5 12.5h-113.375c-4.144531 0-7.5 3.359375-7.5 7.5s3.355469 7.5 7.5 7.5h113.375c15.164062 0 27.5-12.335937 27.5-27.5v-241.664062c0-4.140625-3.359375-7.5-7.5-7.5zm0 0"/><path d="m47.292969 34.847656c-4.140625.023438-7.433594 3.398438-7.414063 7.539063.023438 4.128906 3.421875 7.460937 7.546875 7.460937h.039063c4.144531-.023437 7.484375-3.398437 7.460937-7.539062-.023437-4.144532-3.417969-7.523438-7.539062-7.460938zm0 0"/><path d="m74.292969 34.847656h-.09375c-4.140625.023438-7.433594 3.398438-7.414063 7.539063.023438 4.128906 3.421875 7.460937 7.546875 7.460937h.039063c4.144531-.023437 7.484375-3.398437 7.460937-7.539062-.019531-4.128906-3.375-7.460938-7.496093-7.460938-.015626 0-.027344 0-.042969 0zm0 0"/><path d="m101.28125 49.847656c4.140625-.023437 7.480469-3.398437 7.457031-7.539062-.019531-4.128906-3.375-7.460938-7.496093-7.460938-.015626 0-.027344 0-.042969 0h-.09375c-4.140625.023438-7.433594 3.398438-7.414063 7.539063.023438 4.128906 3.421875 7.460937 7.546875 7.460937zm0 0"/><path d="m469 49.847656c4.140625 0 7.5-3.359375 7.5-7.5s-3.359375-7.5-7.5-7.5h-22.667969c-4.140625 0-7.5 3.359375-7.5 7.5s3.359375 7.5 7.5 7.5zm0 0"/><path d="m215.167969 302.878906c0 4.144532 3.355469 7.5 7.5 7.5h155.332031c4.140625 0 7.5-3.355468 7.5-7.5 0-4.140625-3.359375-7.5-7.5-7.5h-155.332031c-4.144531 0-7.5 3.359375-7.5 7.5zm0 0"/><path d="m134 310.378906h54.332031c4.144531 0 7.5-3.355468 7.5-7.5 0-4.140625-3.355469-7.5-7.5-7.5h-54.332031c-4.140625 0-7.5 3.359375-7.5 7.5 0 4.144532 3.359375 7.5 7.5 7.5zm0 0"/><path d="m134 340.308594h244c4.140625 0 7.5-3.355469 7.5-7.5 0-4.140625-3.359375-7.5-7.5-7.5h-244c-4.140625 0-7.5 3.359375-7.5 7.5 0 4.144531 3.359375 7.5 7.5 7.5zm0 0"/><path d="m134 370.238281h244c4.140625 0 7.5-3.355469 7.5-7.5 0-4.140625-3.359375-7.5-7.5-7.5h-244c-4.140625 0-7.5 3.359375-7.5 7.5 0 4.144531 3.359375 7.5 7.5 7.5zm0 0"/><path d="m322.375 155.410156c-1.371094-14.398437-10.324219-27.425781-23.664062-33.664062-14.289063-6.679688-30.632813-4.707032-42.726563 4.644531-9.8125-7.523437-22.59375-10.34375-34.875-7.382813-17.511719 4.222657-29.949219 18.996094-31.507813 36.410157-14.042968 4.28125-23.964843 17.253906-23.964843 32.503906 0 18.75 15.25 34 34 34 14.113281 0 26.480469-8.648437 31.554687-21.324219.628906-.003906 1.257813-.035156 1.886719-.070312-.390625 18.910156-3.230469 45.347656-14.8125 60.898437h-23.265625c-4.140625 0-7.5 3.355469-7.5 7.5 0 4.140625 3.359375 7.5 7.5 7.5h122c4.140625 0 7.5-3.359375 7.5-7.5 0-4.144531-3.359375-7.5-7.5-7.5h-23.265625c-11.582031-15.550781-14.421875-41.980469-14.8125-60.890625.628906.03125 1.257813.058594 1.886719.066406 5.074218 12.675782 17.441406 21.324219 31.554687 21.324219 18.75 0 34-15.253906 34-34 0-15.265625-9.933593-28.238281-23.988281-32.515625zm-46.1875 106.011719h-40.375c6.621094-12.917969 12.214844-33.152344 12.320312-64.632813 2.789063-1.285156 5.429688-2.863281 7.867188-4.738281 2.363281 1.8125 4.929688 3.367188 7.671875 4.648438.066406.03125.132813.058593.199219.085937.101562 31.484375 5.695312 51.71875 12.316406 64.636719zm36.175781-54.5c-9.179687 0-17.039062-6.542969-18.683593-15.5625-.65625-3.609375-3.804688-6.152344-7.367188-6.152344-.378906 0-.761719.027344-1.148438.085938-5.15625.792969-10.394531.039062-15.140624-2.179688-3.242188-1.515625-6.082032-3.621093-8.449219-6.257812-1.421875-1.582031-3.453125-2.488281-5.582031-2.488281-2.128907 0-4.160157.90625-5.582032 2.492187-3.570312 3.976563-8.210937 6.746094-13.421875 8-3.347656.808594-6.765625.957031-10.160156.4375-4.007813-.621094-7.78125 2.070313-8.511719 6.066406-1.644531 9.015625-9.503906 15.5625-18.683594 15.5625-10.476562 0-19-8.523437-19-19 0-9.824219 7.359376-17.953125 17.117188-18.90625 4.042969-.398437 7.035156-3.941406 6.75-7.992187-.902344-12.867188 7.5625-24.40625 20.121094-27.4375 9.425781-2.273438 19.3125.796875 25.804687 8.007812 1.421875 1.578125 3.445313 2.480469 5.570313 2.480469h.007812c2.125 0 4.152344-.90625 5.574219-2.488281 7.8125-8.695313 20.179687-11.207032 30.777344-6.253906 9.796875 4.582031 15.882812 14.910156 15.140625 25.703124-.277344 4.050782 2.714844 7.582032 6.75 7.980469 9.757812.957031 17.113281 9.082031 17.113281 18.90625.003906 10.472657-8.519531 18.996094-18.996094 18.996094zm0 0"/><path d="m349.09375 137.257812c-.015625 0-.027344 0-.039062 0h-.09375c-4.144532.019532-7.4375 3.394532-7.414063 7.539063.019531 4.128906 3.421875 7.457031 7.542969 7.457031h.042968c4.140626-.019531 7.480469-3.394531 7.460938-7.539062-.023438-4.125-3.375-7.457032-7.5-7.457032zm0 0"/><path d="m385.546875 190.757812c0-4.144531-3.359375-7.5-7.5-7.5h-.09375c-4.140625 0-7.453125 3.355469-7.453125 7.5 0 4.140626 3.402344 7.5 7.546875 7.5 4.140625 0 7.5-3.359374 7.5-7.5zm0 0"/><path d="m165.722656 222.347656h-.09375c-4.144531.023438-7.4375 3.398438-7.414062 7.539063.019531 4.128906 3.421875 7.460937 7.542968 7.460937h.042969c4.140625-.023437 7.480469-3.398437 7.460938-7.539062-.023438-4.128906-3.375-7.460938-7.5-7.460938-.015625 0-.027344 0-.039063 0zm0 0"/><path d="m349.832031 245.421875c0-4.140625-3.355469-7.5-7.5-7.5h-.09375c-4.140625 0-7.453125 3.359375-7.453125 7.5 0 4.144531 3.40625 7.5 7.546875 7.5 4.144531 0 7.5-3.355469 7.5-7.5zm0 0"/><path d="m165.714844 123.945312c-.015625 0-.027344 0-.042969 0h-.09375c-4.140625.023438-7.433594 3.398438-7.414063 7.539063.023438 4.128906 3.421876 7.460937 7.546876 7.460937h.042968c4.140625-.023437 7.480469-3.398437 7.457032-7.542968-.019532-4.125-3.375-7.457032-7.496094-7.457032zm0 0"/><path d="m134.046875 177.382812c4.140625 0 7.5-3.355468 7.5-7.5 0-4.140624-3.359375-7.5-7.5-7.5h-.09375c-4.140625 0-7.453125 3.359376-7.453125 7.5 0 4.144532 3.402344 7.5 7.546875 7.5zm0 0"/></svg>