<svg height="384pt" viewBox="0 0 384 384" width="384pt" xmlns="http://www.w3.org/2000/svg"><path d="m16 144c8.832031 0 16-7.167969 16-16v-80c0-8.824219 7.175781-16 16-16h80c8.832031 0 16-7.167969 16-16s-7.167969-16-16-16h-80c-26.472656 0-48 21.527344-48 48v80c0 8.832031 7.167969 16 16 16zm0 0"/><path d="m48 384h80c8.832031 0 16-7.167969 16-16s-7.167969-16-16-16h-80c-8.824219 0-16-7.175781-16-16v-80c0-8.832031-7.167969-16-16-16s-16 7.167969-16 16v80c0 26.472656 21.527344 48 48 48zm0 0"/><path d="m336 0h-80c-8.832031 0-16 7.167969-16 16s7.167969 16 16 16h80c8.824219 0 16 7.175781 16 16v80c0 8.832031 7.167969 16 16 16s16-7.167969 16-16v-80c0-26.472656-21.527344-48-48-48zm0 0"/><path d="m368 240c-8.832031 0-16 7.167969-16 16v80c0 8.824219-7.175781 16-16 16h-80c-8.832031 0-16 7.167969-16 16s7.167969 16 16 16h80c26.472656 0 48-21.527344 48-48v-80c0-8.832031-7.167969-16-16-16zm0 0"/><path d="m96 192c0 52.9375 43.0625 96 96 96s96-43.0625 96-96-43.0625-96-96-96-96 43.0625-96 96zm96-64c35.289062 0 64 28.710938 64 64s-28.710938 64-64 64-64-28.710938-64-64 28.710938-64 64-64zm0 0"/><path d="m184 208h16c8.832031 0 16-7.167969 16-16s-7.167969-16-16-16h-16c-8.832031 0-16 7.167969-16 16s7.167969 16 16 16zm0 0"/></svg>