<?xml version="1.0" encoding="UTF-8"?>
<svg xmlns="http://www.w3.org/2000/svg" id="Layer_1" data-name="Layer 1" viewBox="0 0 64 64" width="512" height="512"><path d="M32,2A30,30,0,1,0,62,32,30,30,0,0,0,32,2Zm2.41,31H60a27.86,27.86,0,0,1-7.49,18.07ZM39,45.83a15.72,15.72,0,0,1-2.2.92,5.13,5.13,0,0,0-9.64,0,15.72,15.72,0,0,1-2.2-.92A5.14,5.14,0,0,0,18.17,39a15.72,15.72,0,0,1-.92-2.2,5.13,5.13,0,0,0,0-9.64,15.72,15.72,0,0,1,.92-2.2A5.14,5.14,0,0,0,25,18.17a15.72,15.72,0,0,1,2.2-.92A5.13,5.13,0,0,0,31,20.51v4.57A7,7,0,1,0,36.18,37.6l3.24,3.23A5.11,5.11,0,0,0,39,45.83ZM31.29,32.71l3.46,3.46A4.94,4.94,0,0,1,32,37a5,5,0,0,1-1-9.9V32A1,1,0,0,0,31.29,32.71ZM33,4a27.86,27.86,0,0,1,18.07,7.49L33,29.59Zm1.41,27L52.48,12.93A27.86,27.86,0,0,1,60,31ZM4,32A28,28,0,0,1,31,4V6a26.07,26.07,0,0,0-18.21,8.45l1.48,1.34A24,24,0,0,1,31,8V18.45a3.13,3.13,0,0,1-2.11-2.57,1,1,0,0,0-.43-.71,1,1,0,0,0-.81-.14,18,18,0,0,0-4.58,1.9,1,1,0,0,0-.47.67,1,1,0,0,0,.19.81,3.12,3.12,0,0,1-4.38,4.38,1,1,0,0,0-.81-.19,1,1,0,0,0-.67.47A18,18,0,0,0,15,27.65a1,1,0,0,0,.14.81,1,1,0,0,0,.71.43,3.13,3.13,0,0,1,0,6.22,1,1,0,0,0-.71.43,1,1,0,0,0-.14.81,18,18,0,0,0,1.9,4.58,1,1,0,0,0,.67.47,1,1,0,0,0,.81-.19,3.12,3.12,0,0,1,4.38,4.38,1,1,0,0,0-.19.81,1,1,0,0,0,.47.67A18,18,0,0,0,27.65,49a1,1,0,0,0,.81-.14,1,1,0,0,0,.43-.71,3.13,3.13,0,0,1,6.22,0,1,1,0,0,0,.43.71,1,1,0,0,0,.56.17,1.07,1.07,0,0,0,.25,0,18,18,0,0,0,4.58-1.9,1,1,0,0,0,.47-.67,1,1,0,0,0-.19-.81,3.08,3.08,0,0,1-.33-3.3l7.37,7.37A24,24,0,0,1,8,32a23.71,23.71,0,0,1,5.05-14.71l-1.58-1.24A25.7,25.7,0,0,0,6,32,26,26,0,0,0,49.66,51.08l1.41,1.4A28,28,0,0,1,4,32Z"/></svg>
