<svg height="512" viewBox="0 0 512 512" width="512" xmlns="http://www.w3.org/2000/svg"><g><path d="m476 48h-440a28.032 28.032 0 0 0 -28 28v360a28.032 28.032 0 0 0 28 28h440a28.032 28.032 0 0 0 28-28v-360a28.032 28.032 0 0 0 -28-28zm-440 16h440a12.013 12.013 0 0 1 12 12v20h-464v-20a12.013 12.013 0 0 1 12-12zm440 384h-440a12.013 12.013 0 0 1 -12-12v-324h464v324a12.013 12.013 0 0 1 -12 12z"/><path d="m40 88h8a8 8 0 0 0 0-16h-8a8 8 0 0 0 0 16z"/><path d="m72 88h8a8 8 0 0 0 0-16h-8a8 8 0 0 0 0 16z"/><path d="m104 88h8a8 8 0 0 0 0-16h-8a8 8 0 0 0 0 16z"/><path d="m220 256h72a20.023 20.023 0 0 0 20-20v-72a20.023 20.023 0 0 0 -20-20h-72a20.023 20.023 0 0 0 -20 20v72a20.023 20.023 0 0 0 20 20zm-4-92a4 4 0 0 1 4-4h72a4 4 0 0 1 4 4v72a4 4 0 0 1 -4 4h-72a4 4 0 0 1 -4-4z"/><path d="m68 256h72a20.023 20.023 0 0 0 20-20v-72a20.023 20.023 0 0 0 -20-20h-72a20.023 20.023 0 0 0 -20 20v72a20.023 20.023 0 0 0 20 20zm-4-92a4 4 0 0 1 4-4h72a4 4 0 0 1 4 4v72a4 4 0 0 1 -4 4h-72a4 4 0 0 1 -4-4z"/><path d="m372 256h72a20.023 20.023 0 0 0 20-20v-72a20.023 20.023 0 0 0 -20-20h-72a20.023 20.023 0 0 0 -20 20v72a20.023 20.023 0 0 0 20 20zm-4-92a4 4 0 0 1 4-4h72a4 4 0 0 1 4 4v72a4 4 0 0 1 -4 4h-72a4 4 0 0 1 -4-4z"/><path d="m464 264h-416a8 8 0 0 0 -8 8v24a8 8 0 0 0 8 8h416a8 8 0 0 0 8-8v-24a8 8 0 0 0 -8-8zm-8 24h-400v-8h400z"/><path d="m292 312h-72a20.023 20.023 0 0 0 -20 20v72a20.023 20.023 0 0 0 20 20h72a20.023 20.023 0 0 0 20-20v-72a20.023 20.023 0 0 0 -20-20zm4 92a4 4 0 0 1 -4 4h-72a4 4 0 0 1 -4-4v-72a4 4 0 0 1 4-4h72a4 4 0 0 1 4 4z"/><path d="m140 312h-72a20.023 20.023 0 0 0 -20 20v72a20.023 20.023 0 0 0 20 20h72a20.023 20.023 0 0 0 20-20v-72a20.023 20.023 0 0 0 -20-20zm4 92a4 4 0 0 1 -4 4h-72a4 4 0 0 1 -4-4v-72a4 4 0 0 1 4-4h72a4 4 0 0 1 4 4z"/><path d="m444 312h-72a20.023 20.023 0 0 0 -20 20v72a20.023 20.023 0 0 0 20 20h72a20.023 20.023 0 0 0 20-20v-72a20.023 20.023 0 0 0 -20-20zm4 92a4 4 0 0 1 -4 4h-72a4 4 0 0 1 -4-4v-72a4 4 0 0 1 4-4h72a4 4 0 0 1 4 4z"/></g></svg>