<svg height="512" viewBox="0 0 512 512" width="512" xmlns="http://www.w3.org/2000/svg"><g><path d="m476 48h-440a28.032 28.032 0 0 0 -28 28v360a28.032 28.032 0 0 0 28 28h440a28.032 28.032 0 0 0 28-28v-360a28.032 28.032 0 0 0 -28-28zm-440 16h440a12.013 12.013 0 0 1 12 12v20h-464v-20a12.013 12.013 0 0 1 12-12zm440 384h-440a12.013 12.013 0 0 1 -12-12v-324h464v324a12.013 12.013 0 0 1 -12 12z"/><path d="m40 88h8a8 8 0 0 0 0-16h-8a8 8 0 0 0 0 16z"/><path d="m72 88h8a8 8 0 0 0 0-16h-8a8 8 0 0 0 0 16z"/><path d="m104 88h8a8 8 0 0 0 0-16h-8a8 8 0 0 0 0 16z"/><path d="m312 144h-112a8 8 0 0 0 -8 8v32a8 8 0 0 0 8 8h112a8 8 0 0 0 8-8v-32a8 8 0 0 0 -8-8zm-8 32h-96v-16h96z"/><path d="m200 216h48a8 8 0 0 0 0-16h-48a8 8 0 0 0 0 16z"/><path d="m312 256h-112a8 8 0 0 0 0 16h112a8 8 0 0 0 0-16z"/><path d="m312 280h-112a8 8 0 0 0 0 16h112a8 8 0 0 0 0-16z"/><path d="m200 320h40a8 8 0 0 0 0-16h-40a8 8 0 0 0 0 16z"/><path d="m272 320a8 8 0 0 0 0-16h-8a8 8 0 0 0 0 16z"/><path d="m312 344h-112a8 8 0 0 0 0 16h112a8 8 0 0 0 0-16z"/><path d="m240 368h-40a8 8 0 0 0 0 16h40a8 8 0 0 0 0-16z"/><path d="m272 368h-8a8 8 0 0 0 0 16h8a8 8 0 0 0 0-16z"/><path d="m152 144h-112a8 8 0 0 0 -8 8v32a8 8 0 0 0 8 8h112a8 8 0 0 0 8-8v-32a8 8 0 0 0 -8-8zm-8 32h-96v-16h96z"/><path d="m40 216h48a8 8 0 0 0 0-16h-48a8 8 0 0 0 0 16z"/><path d="m152 256h-112a8 8 0 0 0 0 16h112a8 8 0 0 0 0-16z"/><path d="m152 280h-112a8 8 0 0 0 0 16h112a8 8 0 0 0 0-16z"/><path d="m40 320h40a8 8 0 0 0 0-16h-40a8 8 0 0 0 0 16z"/><path d="m112 320a8 8 0 0 0 0-16h-8a8 8 0 0 0 0 16z"/><path d="m152 344h-112a8 8 0 0 0 0 16h112a8 8 0 0 0 0-16z"/><path d="m80 368h-40a8 8 0 0 0 0 16h40a8 8 0 0 0 0-16z"/><path d="m112 368h-8a8 8 0 0 0 0 16h8a8 8 0 0 0 0-16z"/><path d="m472 144h-112a8 8 0 0 0 -8 8v32a8 8 0 0 0 8 8h112a8 8 0 0 0 8-8v-32a8 8 0 0 0 -8-8zm-8 32h-96v-16h96z"/><path d="m360 216h48a8 8 0 0 0 0-16h-48a8 8 0 0 0 0 16z"/><path d="m472 256h-112a8 8 0 0 0 0 16h112a8 8 0 0 0 0-16z"/><path d="m472 280h-112a8 8 0 0 0 0 16h112a8 8 0 0 0 0-16z"/><path d="m360 320h40a8 8 0 0 0 0-16h-40a8 8 0 0 0 0 16z"/><path d="m432 320a8 8 0 0 0 0-16h-8a8 8 0 0 0 0 16z"/><path d="m472 344h-112a8 8 0 0 0 0 16h112a8 8 0 0 0 0-16z"/><path d="m400 368h-40a8 8 0 0 0 0 16h40a8 8 0 0 0 0-16z"/><path d="m432 368h-8a8 8 0 0 0 0 16h8a8 8 0 0 0 0-16z"/><path d="m176 144a8 8 0 0 0 -8 8v240a8 8 0 0 0 16 0v-240a8 8 0 0 0 -8-8z"/><path d="m336 144a8 8 0 0 0 -8 8v240a8 8 0 0 0 16 0v-240a8 8 0 0 0 -8-8z"/></g></svg>