<svg height="512" viewBox="0 0 512 512" width="512" xmlns="http://www.w3.org/2000/svg"><g><path d="m476 48h-440a28.032 28.032 0 0 0 -28 28v360a28.032 28.032 0 0 0 28 28h440a28.032 28.032 0 0 0 28-28v-360a28.032 28.032 0 0 0 -28-28zm-440 16h440a12.013 12.013 0 0 1 12 12v20h-464v-20a12.013 12.013 0 0 1 12-12zm440 384h-440a12.013 12.013 0 0 1 -12-12v-324h464v324a12.013 12.013 0 0 1 -12 12z"/><path d="m40 88h8a8 8 0 0 0 0-16h-8a8 8 0 0 0 0 16z"/><path d="m72 88h8a8 8 0 0 0 0-16h-8a8 8 0 0 0 0 16z"/><path d="m104 88h8a8 8 0 0 0 0-16h-8a8 8 0 0 0 0 16z"/><path d="m464 128h-224a8 8 0 0 0 -8 8v288a8 8 0 0 0 8 8h224a8 8 0 0 0 8-8v-288a8 8 0 0 0 -8-8zm-8 288h-208v-272h208z"/><path d="m208 128h-160a8 8 0 0 0 -8 8v72a8 8 0 0 0 8 8h160a8 8 0 0 0 8-8v-72a8 8 0 0 0 -8-8zm-8 72h-144v-56h144z"/><path d="m208 232h-160a8 8 0 0 0 -8 8v184a8 8 0 0 0 8 8h160a8 8 0 0 0 8-8v-184a8 8 0 0 0 -8-8zm-8 184h-144v-168h144z"/></g></svg>