<svg fill="none" height="512" viewBox="0 0 24 24" width="512" xmlns="http://www.w3.org/2000/svg"><g clip-rule="evenodd" fill="rgb(0,0,0)" fill-rule="evenodd"><path d="m1.25 7c0-3.17564 2.57436-5.75 5.75-5.75h10c3.1756 0 5.75 2.57436 5.75 5.75v10c0 3.1756-2.5744 5.75-5.75 5.75h-10c-3.17564 0-5.75-2.5744-5.75-5.75zm5.75-4.25c-2.34721 0-4.25 1.90279-4.25 4.25v10c0 2.3472 1.90279 4.25 4.25 4.25h10c2.3472 0 4.25-1.9028 4.25-4.25v-10c0-2.34721-1.9028-4.25-4.25-4.25z"/><path d="m14 22.75c-.4142 0-.75-.3358-.75-.75v-20c0-.41421.3358-.75.75-.75s.75.33579.75.75v20c0 .4142-.3358.75-.75.75z"/><path d="m22.75 14c0 .4142-.3358.75-.75.75h-8c-.4142 0-.75-.3358-.75-.75s.3358-.75.75-.75h8c.4142 0 .75.3358.75.75z"/></g></svg>