<svg height="512" viewBox="0 0 512 512" width="512" xmlns="http://www.w3.org/2000/svg"><g><path d="m476 48h-440a28.032 28.032 0 0 0 -28 28v360a28.032 28.032 0 0 0 28 28h440a28.032 28.032 0 0 0 28-28v-360a28.032 28.032 0 0 0 -28-28zm-440 16h440a12.013 12.013 0 0 1 12 12v20h-464v-20a12.013 12.013 0 0 1 12-12zm440 384h-440a12.013 12.013 0 0 1 -12-12v-324h464v324a12.013 12.013 0 0 1 -12 12z"/><path d="m40 88h8a8 8 0 0 0 0-16h-8a8 8 0 0 0 0 16z"/><path d="m72 88h8a8 8 0 0 0 0-16h-8a8 8 0 0 0 0 16z"/><path d="m104 88h8a8 8 0 0 0 0-16h-8a8 8 0 0 0 0 16z"/><path d="m448 248h-304a8 8 0 0 0 -8 8v48a8 8 0 0 0 8 8h304a8 8 0 0 0 8-8v-48a8 8 0 0 0 -8-8zm-8 48h-288v-32h288z"/><path d="m448 152h-304a8 8 0 0 0 -8 8v48a8 8 0 0 0 8 8h304a8 8 0 0 0 8-8v-48a8 8 0 0 0 -8-8zm-8 48h-288v-32h288z"/><path d="m448 344h-304a8 8 0 0 0 -8 8v48a8 8 0 0 0 8 8h304a8 8 0 0 0 8-8v-48a8 8 0 0 0 -8-8zm-8 48h-288v-32h288z"/><path d="m112 152h-48a8 8 0 0 0 -8 8v48a8 8 0 0 0 8 8h48a8 8 0 0 0 8-8v-48a8 8 0 0 0 -8-8zm-8 48h-32v-32h32z"/><path d="m112 248h-48a8 8 0 0 0 -8 8v48a8 8 0 0 0 8 8h48a8 8 0 0 0 8-8v-48a8 8 0 0 0 -8-8zm-8 48h-32v-32h32z"/><path d="m112 344h-48a8 8 0 0 0 -8 8v48a8 8 0 0 0 8 8h48a8 8 0 0 0 8-8v-48a8 8 0 0 0 -8-8zm-8 48h-32v-32h32z"/></g></svg>