<svg height="512pt" viewBox="0 -44 512 512" width="512pt" xmlns="http://www.w3.org/2000/svg"><path d="m484.5 0h-255.238281c-4.144531 0-7.5 3.359375-7.5 7.5s3.355469 7.5 7.5 7.5h255.238281c6.894531 0 12.5 5.605469 12.5 12.5v55.542969h-203.1875l-8.984375-28.867188c-3.597656-11.5625-14.148437-19.328125-26.257813-19.328125h-94.554687c-12.109375 0-22.660156 7.769532-26.257813 19.328125l-8.984374 28.867188h-113.773438v-55.542969c0-6.894531 5.605469-12.5 12.5-12.5h167.238281c4.144531 0 7.5-3.359375 7.5-7.5s-3.355469-7.5-7.5-7.5h-167.238281c-15.164062 0-27.5 12.335938-27.5 27.5v369.847656c0 15.164063 12.335938 27.5 27.5 27.5h457c15.164062 0 27.5-12.335937 27.5-27.5v-249.664062c0-4.140625-3.359375-7.5-7.5-7.5s-7.5 3.359375-7.5 7.5v249.664062c0 6.894532-5.605469 12.5-12.5 12.5h-457c-6.894531 0-12.5-5.605468-12.5-12.5v-299.304687h119.292969c3.28125 0 6.183593-2.136719 7.160156-5.273438l10.625-34.136719c1.636719-5.253906 6.433594-8.785156 11.933594-8.785156h94.558593c5.503907 0 10.300782 3.53125 11.933594 8.785156l10.625 34.140626c.976563 3.132812 3.878906 5.269531 7.160156 5.269531h208.710938v15.121093c0 4.140626 3.359375 7.5 7.5 7.5s7.5-3.359374 7.5-7.5v-85.664062c0-15.164062-12.335938-27.5-27.5-27.5zm0 0"/><path d="m47.386719 34.847656h-.09375c-4.140625.023438-7.433594 3.398438-7.414063 7.539063.023438 4.128906 3.421875 7.460937 7.546875 7.460937h.039063c4.144531-.023437 7.484375-3.398437 7.460937-7.539062-.023437-4.128906-3.375-7.460938-7.5-7.460938-.011719 0-.027343 0-.039062 0zm0 0"/><path d="m74.292969 34.847656h-.09375c-4.140625.023438-7.433594 3.398438-7.414063 7.539063.023438 4.128906 3.421875 7.460937 7.546875 7.460937h.039063c4.144531-.023437 7.484375-3.398437 7.460937-7.539062-.019531-4.128906-3.375-7.460938-7.496093-7.460938-.015626 0-.027344 0-.042969 0zm0 0"/><path d="m101.109375 34.847656c-4.144531.023438-7.4375 3.398438-7.414063 7.539063.019532 4.128906 3.417969 7.460937 7.542969 7.460937h.042969c4.140625-.023437 7.480469-3.398437 7.457031-7.539062-.019531-4.144532-3.375-7.523438-7.539062-7.460938zm0 0"/><path d="m469 49.847656c4.140625 0 7.5-3.359375 7.5-7.5s-3.359375-7.5-7.5-7.5h-22.667969c-4.140625 0-7.5 3.359375-7.5 7.5s3.359375 7.5 7.5 7.5zm0 0"/><path d="m398.5 238.742188v-82.070313c0-12.230469-9.945312-22.175781-22.175781-22.175781h-240.648438c-12.230469 0-22.175781 9.945312-22.175781 22.175781v22.488281c0 4.144532 3.359375 7.5 7.5 7.5s7.5-3.355468 7.5-7.5v-22.488281c0-3.957031 3.21875-7.175781 7.175781-7.175781h240.648438c3.957031 0 7.175781 3.21875 7.175781 7.175781v82.070313c0 3.953124-3.21875 7.171874-7.175781 7.171874h-240.648438c-3.957031 0-7.175781-3.21875-7.175781-7.171874v-25.058594c0-4.140625-3.359375-7.5-7.5-7.5s-7.5 3.359375-7.5 7.5v25.058594c0 12.226562 9.945312 22.171874 22.175781 22.171874h240.648438c12.230469 0 22.175781-9.945312 22.175781-22.171874zm0 0"/><path d="m171.5 218.265625v-17.976563l16.203125 22.375c1.4375 1.988282 3.71875 3.105469 6.074219 3.105469.773437 0 1.550781-.121093 2.3125-.367187 3.09375-1.003906 5.1875-3.882813 5.1875-7.136719v-41.117187c0-4.140626-3.355469-7.5-7.5-7.5-4.140625 0-7.5 3.359374-7.5 7.5v17.976562l-16.203125-22.375c-1.90625-2.636719-5.292969-3.738281-8.386719-2.738281-3.09375 1.003906-5.1875 3.882812-5.1875 7.136719v41.117187c0 4.144531 3.359375 7.5 7.5 7.5s7.5-3.355469 7.5-7.5zm0 0"/><path d="m310.722656 218.265625c0 4.144531 3.355469 7.5 7.5 7.5h17.097656c5.277344 0 10.046876-2.917969 12.445313-7.617187 2.398437-4.703126 1.964844-10.277344-1.128906-14.550782l-13.722657-18.949218h15.085938c4.140625 0 7.5-3.359376 7.5-7.5 0-4.140626-3.359375-7.5-7.5-7.5h-17.097656c-5.277344 0-10.046875 2.917968-12.445313 7.621093-2.398437 4.699219-1.96875 10.273438 1.128907 14.546875l13.722656 18.949219h-15.085938c-4.144531 0-7.5 3.359375-7.5 7.5zm0 0"/><path d="m268.304688 169.648438c-4.144532 0-7.5 3.359374-7.5 7.5v41.121093c0 3.25 2.09375 6.128907 5.1875 7.132813s6.480468-.101563 8.386718-2.734375l8.8125-12.171875 8.8125 12.171875c1.4375 1.984375 3.71875 3.101562 6.074219 3.101562.773437 0 1.550781-.121093 2.3125-.367187 3.09375-1 5.1875-3.882813 5.1875-7.132813v-41.121093c0-4.140626-3.355469-7.5-7.5-7.5-4.140625 0-7.5 3.359374-7.5 7.5v17.976562l-1.3125-1.816406c-1.410156-1.949219-3.671875-3.101563-6.074219-3.101563-2.40625 0-4.664062 1.152344-6.078125 3.101563l-1.3125 1.816406v-17.976562c.003907-4.140626-3.355469-7.5-7.496093-7.5zm0 0"/><path d="m245.566406 184.648438c4.140625 0 7.5-3.359376 7.5-7.5 0-4.140626-3.359375-7.5-7.5-7.5h-29.78125c-4.140625 0-7.5 3.359374-7.5 7.5v41.121093c0 4.140625 3.359375 7.5 7.5 7.5h29.78125c4.140625 0 7.5-3.359375 7.5-7.5 0-4.144531-3.359375-7.5-7.5-7.5h-22.28125v-5.5625h9.496094c4.140625 0 7.5-3.355469 7.5-7.5 0-4.140625-3.359375-7.5-7.5-7.5h-9.496094v-5.558593zm0 0"/><path d="m378 286.378906h-155.332031c-4.144531 0-7.5 3.359375-7.5 7.5 0 4.144532 3.355469 7.5 7.5 7.5h155.332031c4.140625 0 7.5-3.355468 7.5-7.5 0-4.140625-3.359375-7.5-7.5-7.5zm0 0"/><path d="m134 301.378906h54.332031c4.144531 0 7.5-3.355468 7.5-7.5 0-4.140625-3.355469-7.5-7.5-7.5h-54.332031c-4.140625 0-7.5 3.359375-7.5 7.5 0 4.144532 3.359375 7.5 7.5 7.5zm0 0"/><path d="m378 316.308594h-244c-4.140625 0-7.5 3.359375-7.5 7.5 0 4.144531 3.359375 7.5 7.5 7.5h244c4.140625 0 7.5-3.355469 7.5-7.5 0-4.140625-3.359375-7.5-7.5-7.5zm0 0"/><path d="m378 346.238281h-244c-4.140625 0-7.5 3.359375-7.5 7.5 0 4.144531 3.359375 7.5 7.5 7.5h244c4.140625 0 7.5-3.355469 7.5-7.5 0-4.140625-3.359375-7.5-7.5-7.5zm0 0"/></svg>