<svg height="512pt" viewBox="0 -44 512 512" width="512pt" xmlns="http://www.w3.org/2000/svg"><path d="m484.5 0h-81.207031c-4.144531 0-7.5 3.359375-7.5 7.5s3.355469 7.5 7.5 7.5h81.207031c6.894531 0 12.5 5.605469 12.5 12.5v55.542969h-119c-4.144531 0-7.5 3.355469-7.5 7.5 0 4.140625 3.355469 7.5 7.5 7.5h119v299.304687c0 6.894532-5.605469 12.5-12.5 12.5h-457c-6.894531 0-12.5-5.605468-12.5-12.5v-113.0625c0-4.140625-3.355469-7.5-7.5-7.5s-7.5 3.359375-7.5 7.5v113.0625c0 15.164063 12.335938 27.5 27.5 27.5h457c15.164062 0 27.5-12.335937 27.5-27.5v-369.847656c0-15.164062-12.335938-27.5-27.5-27.5zm0 0"/><path d="m7.5 257.261719c4.144531 0 7.5-3.355469 7.5-7.5v-151.71875h119.292969c3.28125 0 6.1875-2.136719 7.160156-5.273438l10.625-34.136719c1.636719-5.253906 6.433594-8.785156 11.9375-8.785156h94.554687c5.503907 0 10.300782 3.53125 11.9375 8.785156l10.625 34.140626c.976563 3.132812 3.878907 5.269531 7.160157 5.269531h52.707031c4.144531 0 7.5-3.359375 7.5-7.5s-3.355469-7.5-7.5-7.5h-47.1875l-8.984375-28.867188c-3.597656-11.5625-14.148437-19.328125-26.257813-19.328125h-94.558593c-12.105469 0-22.660157 7.769532-26.253907 19.328125l-8.984374 28.867188h-113.773438v-55.542969c0-6.894531 5.605469-12.5 12.5-12.5h338.269531c4.144531 0 7.5-3.359375 7.5-7.5s-3.355469-7.5-7.5-7.5h-338.269531c-15.164062 0-27.5 12.335938-27.5 27.5v222.261719c0 4.144531 3.355469 7.5 7.5 7.5zm0 0"/><path d="m47.386719 34.847656h-.09375c-4.140625.023438-7.4375 3.398438-7.414063 7.539063.023438 4.128906 3.421875 7.460937 7.546875 7.460937h.039063c4.144531-.023437 7.480468-3.398437 7.460937-7.539062-.019531-4.128906-3.375-7.460938-7.5-7.460938-.011719 0-.027343 0-.039062 0zm0 0"/><path d="m74.292969 34.847656h-.09375c-4.140625.023438-7.433594 3.398438-7.414063 7.539063.023438 4.128906 3.421875 7.460937 7.546875 7.460937h.039063c4.144531-.023437 7.484375-3.398437 7.460937-7.539062-.019531-4.128906-3.375-7.460938-7.496093-7.460938-.015626 0-.027344 0-.042969 0zm0 0"/><path d="m101.199219 34.847656h-.089844c-4.144531.023438-7.4375 3.398438-7.414063 7.539063.019532 4.128906 3.417969 7.460937 7.542969 7.460937h.039063c4.144531-.023437 7.484375-3.398437 7.460937-7.539062-.019531-4.128906-3.375-7.460938-7.496093-7.460938-.015626 0-.027344 0-.042969 0zm0 0"/><path d="m469 49.847656c4.144531 0 7.5-3.359375 7.5-7.5s-3.355469-7.5-7.5-7.5h-22.667969c-4.140625 0-7.5 3.359375-7.5 7.5s3.359375 7.5 7.5 7.5zm0 0"/><path d="m378 295.378906h-155.332031c-4.144531 0-7.5 3.359375-7.5 7.5 0 4.144532 3.355469 7.5 7.5 7.5h155.332031c4.144531 0 7.5-3.355468 7.5-7.5 0-4.140625-3.355469-7.5-7.5-7.5zm0 0"/><path d="m134 310.378906h54.332031c4.144531 0 7.5-3.355468 7.5-7.5 0-4.140625-3.355469-7.5-7.5-7.5h-54.332031c-4.144531 0-7.5 3.359375-7.5 7.5 0 4.144532 3.355469 7.5 7.5 7.5zm0 0"/><path d="m378 325.308594h-244c-4.144531 0-7.5 3.359375-7.5 7.5 0 4.144531 3.355469 7.5 7.5 7.5h244c4.144531 0 7.5-3.355469 7.5-7.5 0-4.140625-3.355469-7.5-7.5-7.5zm0 0"/><path d="m378 355.238281h-244c-4.144531 0-7.5 3.359375-7.5 7.5 0 4.144531 3.355469 7.5 7.5 7.5h244c4.144531 0 7.5-3.355469 7.5-7.5 0-4.140625-3.355469-7.5-7.5-7.5zm0 0"/><path d="m371.164062 176.421875-25.976562 14.996094-22.230469-12.832031v-30c0-2.679688-1.429687-5.152344-3.75-6.492188l-29.726562-17.164062c-2.320313-1.339844-5.179688-1.339844-7.5 0l-25.980469 14.996093-25.980469-14.996093c-2.320312-1.339844-5.179687-1.339844-7.5 0l-29.726562 17.164062c-2.320313 1.339844-3.75 3.8125-3.75 6.492188v30l-22.230469 12.832031-25.976562-14.996094c-3.589844-2.074219-8.175782-.84375-10.246094 2.742187-2.070313 3.589844-.84375 8.175782 2.746094 10.246094l25.976562 15v29.996094c0 2.679688 1.429688 5.15625 3.75 6.496094l29.730469 17.164062c1.160156.667969 2.453125 1.003906 3.75 1.003906 1.292969 0 2.589843-.335937 3.75-1.003906l25.976562-15 25.980469 15c1.160156.667969 2.453125 1.003906 3.75 1.003906s2.589844-.335937 3.75-1.003906l25.980469-15 25.976562 15c1.160157.667969 2.457031 1.003906 3.75 1.003906 1.296875 0 2.589844-.335937 3.75-1.003906l29.730469-17.164062c2.320312-1.339844 3.75-3.816406 3.75-6.496094v-29.996094l25.976562-15c3.589844-2.070312 4.816407-6.65625 2.746094-10.246094-2.070312-3.585937-6.660156-4.816406-10.246094-2.742187zm-85.433593-36.339844 22.226562 12.835938v25.667969l-22.226562 12.832031-22.230469-12.832031v-25.667969zm-81.6875 12.835938 22.226562-12.835938 22.230469 12.835938v25.667969l-22.230469 12.832031-22.226562-12.832031zm-7.5 89.992187-22.230469-12.832031v-25.667969l22.230469-12.835937 22.226562 12.835937v25.667969zm59.457031 0-22.230469-12.832031v-25.667969l22.230469-12.835937 22.230469 12.835937v25.664063zm81.6875-12.832031-22.226562 12.832031-22.230469-12.832031v-25.667969l22.230469-12.835937 22.226562 12.835937zm0 0"/></svg>