<svg enable-background="new 0 0 24 24" height="512" viewBox="0 0 24 24" width="512" xmlns="http://www.w3.org/2000/svg"><path d="m10.25 8.5h-9.25c-.552 0-1 .448-1 1v5c0 .552.448 1 1 1h9.25c.552 0 1-.448 1-1v-5c0-.552-.448-1-1-1z"/><path d="m0 18v5c0 .552.448 1 1 1h9.25c.552 0 1-.448 1-1v-5c0-.552-.448-1-1-1h-9.25c-.552 0-1 .448-1 1z"/><path d="m13.75 15.5h9.25c.552 0 1-.448 1-1v-5c0-.552-.448-1-1-1h-9.25c-.552 0-1 .448-1 1v5c0 .552.448 1 1 1z"/><path d="m13.75 24h9.25c.552 0 1-.448 1-1v-5c0-.552-.448-1-1-1h-9.25c-.552 0-1 .448-1 1v5c0 .552.448 1 1 1z"/><path d="m23 0h-22c-.552 0-1 .448-1 1v5c0 .552.448 1 1 1h10.25 1.5 10.25c.552 0 1-.448 1-1v-5c0-.552-.448-1-1-1z"/></svg>