<svg enable-background="new 0 0 24 24" height="512" viewBox="0 0 24 24" width="512" xmlns="http://www.w3.org/2000/svg"><path d="m15.5 14.5v-5c0-.552-.448-1-1-1h-5c-.552 0-1 .448-1 1v5c0 .552.448 1 1 1h5c.552 0 1-.448 1-1z"/><path d="m15.5 6v-5c0-.552-.448-1-1-1h-5c-.552 0-1 .448-1 1v5c0 .552.448 1 1 1h5c.552 0 1-.448 1-1z"/><path d="m6 0h-5c-.552 0-1 .448-1 1v5c0 .552.448 1 1 1h5c.552 0 1-.448 1-1v-5c0-.552-.448-1-1-1z"/><path d="m23 0h-5c-.552 0-1 .448-1 1v5c0 .552.448 1 1 1h5c.552 0 1-.448 1-1v-5c0-.552-.448-1-1-1z"/><path d="m18 15.5h5c.552 0 1-.448 1-1v-5c0-.552-.448-1-1-1h-5c-.552 0-1 .448-1 1v5c0 .552.448 1 1 1z"/><path d="m6 8.5h-5c-.552 0-1 .448-1 1v5c0 .552.448 1 1 1h5c.552 0 1-.448 1-1v-5c0-.552-.448-1-1-1z"/><path d="m15.5 17h-7-1.5-6c-.552 0-1 .448-1 1v5c0 .552.448 1 1 1h22c.552 0 1-.448 1-1v-5c0-.552-.448-1-1-1h-6z"/></svg>