<svg height="512" viewBox="0 0 96 96" width="512" xmlns="http://www.w3.org/2000/svg"><g id="Layer_4"><g><path d="m83.041 8h-34.874-.954c-1.265 0-2.29 1.026-2.29 2.29 0 .833.45 1.555 1.115 1.956-.151.306-.244.646-.244 1.01v31.97s-33.18.008-33.213.01v-.296c0-1.265-1.025-2.29-2.29-2.29s-2.29 1.026-2.29 2.29v1.718c0 .945.573 1.755 1.389 2.105-.816.35-1.389 1.16-1.389 2.105v1.718c0 1.265 1.026 2.29 2.29 2.29 1.265 0 2.29-1.026 2.29-2.29v-1.718c0-.401-.112-.772-.293-1.1.128.022 33.506.039 33.506.039v32.16c0 .934.561 1.735 1.364 2.091-.435.417-.709 1.001-.709 1.651 0 1.265 1.026 2.29 2.29 2.29h1.718c1.265 0 2.29-1.026 2.29-2.29 0-1.265-1.025-2.29-2.29-2.29h-.614c.328-.396.533-.898.533-1.452v-32.16h33.089c.195 1.067 1.125 1.876 2.249 1.876 1.265 0 2.29-1.026 2.29-2.29v-1.718-34.715c-.003-2.735-2.228-4.96-4.963-4.96zm.379 37.226h-33.047v-31.97c0-.237-.046-.461-.113-.676h32.78c.21 0 .38.171.38.38z"/><path d="m32.898 10.29c0 1.265 1.025 2.29 2.29 2.29h1.718c1.265 0 2.29-1.026 2.29-2.29s-1.025-2.29-2.29-2.29h-1.718c-1.265 0-2.29 1.026-2.29 2.29z"/><path d="m11.279 13.177c.507 0 1.018-.168 1.442-.512.065-.053.139-.081.221-.084 1.264-.047 2.25-1.111 2.203-2.374-.047-1.265-1.113-2.246-2.374-2.203-1.081.04-2.097.423-2.938 1.105-.981.797-1.13 2.239-.333 3.221.453.558 1.113.847 1.779.847z"/><path d="m23.164 8c-1.265 0-2.29 1.026-2.29 2.29s1.025 2.29 2.29 2.29h1.718c1.265 0 2.29-1.026 2.29-2.29s-1.025-2.29-2.29-2.29z"/><path d="m10.289 24.899c1.265 0 2.29-1.026 2.29-2.29v-1.718c0-1.265-1.025-2.29-2.29-2.29s-2.29 1.026-2.29 2.29v1.718c0 1.265 1.025 2.29 2.29 2.29z"/><path d="m10.289 36.923c1.265 0 2.29-1.026 2.29-2.29v-1.718c0-1.265-1.025-2.29-2.29-2.29s-2.29 1.026-2.29 2.29v1.718c0 1.265 1.025 2.29 2.29 2.29z"/><path d="m85.711 69.433c-1.265 0-2.29 1.026-2.29 2.29v1.718c0 1.265 1.025 2.29 2.29 2.29s2.29-1.026 2.29-2.29v-1.718c0-1.264-1.025-2.29-2.29-2.29z"/><path d="m85.711 57.409c-1.265 0-2.29 1.026-2.29 2.29v1.718c0 1.265 1.025 2.29 2.29 2.29s2.29-1.026 2.29-2.29v-1.718c0-1.264-1.025-2.29-2.29-2.29z"/><path d="m10.387 85.457c-.131 1.258.783 2.384 2.041 2.515.174.018.352.028.532.028h1.422c1.265 0 2.29-1.026 2.29-2.29 0-1.265-1.025-2.29-2.29-2.29h-1.422c-.019 0-.039-.001-.058-.003-1.257-.13-2.384.782-2.515 2.04z"/><path d="m86.217 81.529c-1.221-.332-2.479.39-2.81 1.611-.021.078-.068.148-.134.199-.997.778-1.174 2.218-.396 3.215.452.578 1.126.881 1.807.881.493 0 .989-.158 1.408-.485.841-.657 1.458-1.584 1.736-2.611.332-1.221-.39-2.479-1.611-2.81z"/><path d="m74.504 83.419h-1.718c-1.265 0-2.29 1.026-2.29 2.29 0 1.265 1.026 2.29 2.29 2.29h1.718c1.265 0 2.29-1.026 2.29-2.29s-1.025-2.29-2.29-2.29z"/><path d="m62.479 83.419h-1.718c-1.265 0-2.29 1.026-2.29 2.29 0 1.265 1.026 2.29 2.29 2.29h1.718c1.265 0 2.29-1.026 2.29-2.29.001-1.264-1.025-2.29-2.29-2.29z"/><path d="m26.406 83.419h-1.718c-1.265 0-2.29 1.026-2.29 2.29 0 1.265 1.026 2.29 2.29 2.29h1.718c1.265 0 2.29-1.026 2.29-2.29.001-1.264-1.025-2.29-2.29-2.29z"/><path d="m38.431 83.419h-1.718c-1.265 0-2.29 1.026-2.29 2.29 0 1.265 1.026 2.29 2.29 2.29h1.718c1.265 0 2.29-1.026 2.29-2.29s-1.025-2.29-2.29-2.29z"/><path d="m10.289 78.924c1.265 0 2.29-1.026 2.29-2.29v-1.718c0-1.265-1.025-2.29-2.29-2.29s-2.29 1.026-2.29 2.29v1.718c0 1.265 1.025 2.29 2.29 2.29z"/><path d="m10.289 66.9c1.265 0 2.29-1.026 2.29-2.29v-1.718c0-1.265-1.025-2.29-2.29-2.29s-2.29 1.026-2.29 2.29v1.718c0 1.264 1.025 2.29 2.29 2.29z"/></g></g></svg>