<svg id="Layer_1" enable-background="new 0 0 480 480" height="512" viewBox="0 0 480 480" width="512" xmlns="http://www.w3.org/2000/svg"><g><path d="m81.001 228.807v55.161c0 4.418 3.582 8 8 8s8-3.582 8-8v-55.161c0-4.418-3.582-8-8-8s-8 3.582-8 8z"/><path d="m391.001 409c-4.418 0-8 3.582-8 8v31c0 8.822-7.178 16-16 16h-254c-8.822 0-16-7.178-16-16v-11.903c0-4.418-3.582-8-8-8s-8 3.582-8 8v11.903c0 17.645 14.355 32 32 32h254c17.645 0 32-14.355 32-32v-31c0-4.418-3.582-8-8-8z"/><path d="m471.569 356.289-30.477-22.8 5.912-4.732c13.536-10.838 8.86-32.498-7.938-36.789-4.279-1.095-8.637 1.49-9.731 5.771s1.49 8.638 5.771 9.731c4.027 1.029 5.141 6.2 1.897 8.797l-13.98 11.192c-4.08 3.267-3.98 9.517.208 12.651l38.753 28.991c2.451 1.833 2.711 5.412.543 7.58l-14.752 14.752c-2.171 2.172-5.749 1.905-7.581-.543l-28.991-38.753c-3.135-4.192-9.388-4.283-12.651-.208l-11.192 13.979c-2.598 3.244-7.768 2.129-8.796-1.897l-17.301-67.728c-.943-3.693 2.407-7.063 6.116-6.115 23.315 5.958 21.678 5.552 22.25 5.651 4.079.729 8.084-1.852 9.123-5.894.362-1.415.249 15.384.249-257.927 0-17.645-14.355-32-32-32h-254c-17.645 0-32 14.355-32 32v43.097c0 4.418 3.582 8 8 8s8-3.582 8-8v-43.095c0-8.822 7.178-16 16-16h202v9c0 8.822-7.178 16-16 16h-118c-3.594 0-6.988-1.163-9.814-3.362-3.486-2.714-8.513-2.087-11.227 1.4-2.713 3.486-2.086 8.513 1.4 11.227 5.662 4.406 12.454 6.735 19.641 6.735h118c17.645 0 32-14.355 32-32v-9h36c8.822 0 16 7.178 16 16v245.646l-11.661-2.979c-15.463-3.948-29.535 10.089-25.578 25.578l17.301 67.728c4.292 16.801 25.954 21.469 36.789 7.937l4.732-5.911 22.8 30.478c7.674 10.255 22.66 11.319 31.706 2.271l14.752-14.752c9.075-9.078 7.953-24.058-2.273-31.707z"/><path d="m157.291 409.985c4.527-.142 7.993-4.007 7.718-8.479v-34.506c0-4.411 3.581-8 7.992-8h134c4.411 0 8 3.589 8 8v34c0 4.411-3.589 8-8 8h-107.613c-4.418 0-8 3.582-8 8s3.582 8 8 8h107.613c13.234 0 24-10.767 24-24v-34c0-13.233-10.766-24-24-24h-134c-13.234 0-24.001 10.767-24.001 24v27h-140.999c-4.418 0-8 3.582-8 8s3.582 8 8 8c99.402 0 148.645.008 149.29-.015z"/><path d="m8.001 370h48c4.418 0 8-3.582 8-8s-3.582-8-8-8h-48c-4.418 0-8 3.582-8 8s3.581 8 8 8z"/><path d="m8.001 330h95c4.418 0 8-3.582 8-8s-3.582-8-8-8h-95c-4.418 0-8 3.582-8 8s3.581 8 8 8z"/><path d="m8.001 201h123.081c.974 26.847 11.7 51.246 28.738 69.754.363.496.786.944 1.252 1.345 19.868 20.872 47.905 33.901 78.929 33.901 60.103 0 109-48.897 109-109 0-42.273-24.784-81.099-63.14-98.91-4.006-1.861-8.764-.121-10.625 3.887-1.861 4.007-.121 8.764 3.886 10.625 32.73 15.199 53.879 48.328 53.879 84.398 0 51.28-41.72 93-93 93-25.48 0-48.598-10.304-65.412-26.959 2.027-16.923 10.676-32.524 23.878-43.289 22.767 24.159 60.666 23.774 83.082.008 4.812 3.911 9.045 8.461 12.615 13.605 1.554 2.239 4.046 3.439 6.579 3.439 6.366 0 10.275-7.217 6.565-12.563-6.012-8.663-13.699-16.204-22.779-22.087-3.589-2.324-8.405-1.422-10.897 2.104-7.702 10.939-20.274 17.471-33.631 17.471-22.661 0-41.097-18.437-41.097-41.098s18.436-41.097 41.097-41.097c19.871 0 36.874 14.161 40.429 33.673.792 4.347 4.959 7.227 9.305 6.436 4.347-.792 7.229-4.957 6.437-9.305-4.942-27.12-28.565-46.804-56.17-46.804-42.649 0-70.247 45.323-50.791 83.129-13.097 10.395-22.698 24.584-27.538 40.422-9.283-14.467-14.671-31.66-14.671-50.088 0-51.28 41.72-93 93-93 4.418 0 8-3.582 8-8s-3.582-8-8-8c-56.047 0-102.343 42.523-108.336 97h-123.665c-4.418 0-8 3.582-8 8s3.581 8.003 8 8.003z"/><path d="m8.001 161h48c4.418 0 8-3.582 8-8s-3.582-8-8-8h-48c-4.418 0-8 3.582-8 8s3.581 8 8 8z"/><path d="m8.001 121h95c4.418 0 8-3.582 8-8s-3.582-8-8-8h-95c-4.418 0-8 3.582-8 8s3.581 8 8 8z"/></g></svg>