<svg height="512pt" viewBox="0 -44 512 512" width="512pt" xmlns="http://www.w3.org/2000/svg"><path d="m484.5 0h-66.238281c-4.144531 0-7.5 3.359375-7.5 7.5s3.355469 7.5 7.5 7.5h66.238281c6.894531 0 12.5 5.605469 12.5 12.5v55.542969h-203.1875l-8.984375-28.867188c-3.597656-11.5625-14.148437-19.328125-26.257813-19.328125h-94.554687c-12.109375 0-22.660156 7.765625-26.257813 19.328125l-8.984374 28.867188h-113.773438v-55.542969c0-6.894531 5.605469-12.5 12.5-12.5h356.238281c4.144531 0 7.5-3.359375 7.5-7.5s-3.355469-7.5-7.5-7.5h-356.238281c-15.164062 0-27.5 12.335938-27.5 27.5v254.660156c0 4.144532 3.359375 7.5 7.5 7.5s7.5-3.355468 7.5-7.5v-184.117187h119.292969c3.28125 0 6.183593-2.136719 7.160156-5.273438l10.625-34.136719c1.636719-5.253906 6.433594-8.785156 11.933594-8.785156h94.558593c5.503907 0 10.300782 3.53125 11.9375 8.785156l10.625 34.140626c.972657 3.132812 3.875 5.269531 7.160157 5.269531h208.707031v299.304687c0 6.894532-5.605469 12.5-12.5 12.5h-457c-6.894531 0-12.5-5.605468-12.5-12.5v-80.664062c0-4.140625-3.359375-7.5-7.5-7.5s-7.5 3.359375-7.5 7.5v80.664062c0 15.164063 12.335938 27.5 27.5 27.5h457c15.164062 0 27.5-12.335937 27.5-27.5v-369.847656c0-15.164062-12.335938-27.5-27.5-27.5zm0 0"/><path d="m47.386719 34.847656h-.09375c-4.140625.023438-7.433594 3.398438-7.414063 7.539063.023438 4.128906 3.421875 7.460937 7.546875 7.460937h.039063c4.144531-.023437 7.484375-3.398437 7.460937-7.539062-.023437-4.128906-3.375-7.460938-7.5-7.460938-.011719 0-.027343 0-.039062 0zm0 0"/><path d="m74.292969 34.847656h-.09375c-4.140625.023438-7.433594 3.398438-7.414063 7.539063.023438 4.128906 3.421875 7.460937 7.546875 7.460937h.039063c4.144531-.023437 7.484375-3.398437 7.460937-7.539062-.019531-4.128906-3.375-7.460938-7.496093-7.460938-.015626 0-.027344 0-.042969 0zm0 0"/><path d="m101.109375 34.847656c-4.144531.023438-7.4375 3.398438-7.414063 7.539063.019532 4.128906 3.417969 7.460937 7.542969 7.460937h.042969c4.140625-.023437 7.480469-3.398437 7.457031-7.539062-.019531-4.144532-3.371093-7.523438-7.539062-7.460938zm0 0"/><path d="m469 49.847656c4.144531 0 7.5-3.359375 7.5-7.5s-3.355469-7.5-7.5-7.5h-22.667969c-4.140625 0-7.5 3.359375-7.5 7.5s3.359375 7.5 7.5 7.5zm0 0"/><path d="m378 295.378906h-155.332031c-4.144531 0-7.5 3.359375-7.5 7.5 0 4.144532 3.355469 7.5 7.5 7.5h155.332031c4.144531 0 7.5-3.355468 7.5-7.5 0-4.140625-3.355469-7.5-7.5-7.5zm0 0"/><path d="m134 310.378906h54.332031c4.144531 0 7.5-3.355468 7.5-7.5 0-4.140625-3.355469-7.5-7.5-7.5h-54.332031c-4.140625 0-7.5 3.359375-7.5 7.5 0 4.144532 3.359375 7.5 7.5 7.5zm0 0"/><path d="m378 325.308594h-244c-4.140625 0-7.5 3.359375-7.5 7.5 0 4.144531 3.359375 7.5 7.5 7.5h244c4.144531 0 7.5-3.355469 7.5-7.5 0-4.140625-3.355469-7.5-7.5-7.5zm0 0"/><path d="m378 355.238281h-244c-4.140625 0-7.5 3.359375-7.5 7.5 0 4.144531 3.359375 7.5 7.5 7.5h244c4.144531 0 7.5-3.355469 7.5-7.5 0-4.140625-3.355469-7.5-7.5-7.5zm0 0"/><path d="m398.347656 165.21875c-1.238281-7.246094-6.9375-12.945312-14.183594-14.179688-19.460937-3.320312-39.285156.632813-55.800781 10.691407-10.421875-20.882813-31.890625-34.433594-55.695312-34.433594-19.164063 0-36.328125 8.710937-47.757813 22.375-11.640625-15.832031-30.183594-25.375-50.164062-25.375-34.324219 0-62.25 27.921875-62.25 62.246094s27.925781 62.25 62.25 62.25c18.792968 0 36.074218-8.21875 47.8125-22.367188 11.347656 15.371094 29.582031 25.367188 50.109375 25.367188 6.675781 0 13.167969-1.046875 19.390625-3.089844 2.34375 5.152344 7.113281 8.953125 12.871094 9.933594 4.5.769531 9.046874 1.148437 13.582031 1.148437 13.535156 0 26.984375-3.378906 38.894531-9.894531 3.636719-1.988281 4.96875-6.546875 2.980469-10.179687-1.988281-3.632813-6.542969-4.972657-10.179688-2.980469-12.949219 7.085937-28.136719 9.613281-42.757812 7.121093-.964844-.164062-1.753907-.953124-1.917969-1.917968-3.59375-21.070313 3.269531-42.660156 18.359375-57.746094 15.09375-15.09375 36.679687-21.957031 57.75-18.363281.964844.164062 1.753906.953125 1.917969 1.917969 2.882812 16.910156-.804688 33.992187-10.386719 48.105468-2.324219 3.425782-1.433594 8.089844 1.992187 10.417969 3.425782 2.328125 8.089844 1.433594 10.417969-1.992187 11.769531-17.335938 16.304688-38.304688 12.765625-59.054688zm-104.007812-17.65625c-3.984375 8.136719-12.269532 13.484375-21.667969 13.484375s-17.679687-5.34375-21.667969-13.472656c6.492188-3.363281 13.859375-5.277344 21.664063-5.277344 7.71875 0 15.113281 1.878906 21.671875 5.265625zm-83.285156 33.148438h-11.933594c1.164062-9.3125 5.085937-18.101563 11.246094-25.1875 2.160156 2.472656 4.078124 5.191406 5.710937 8.132812-2.445313 5.324219-4.164063 11.050781-5.023437 17.054688zm-12.191407-34.800782c-8.410156 9.765625-13.613281 21.953125-14.832031 34.800782h-18.566406c-1.21875-12.84375-6.417969-25.019532-14.820313-34.785157 7.0625-4.207031 15.304688-6.632812 24.101563-6.632812 8.648437.003906 16.945312 2.359375 24.117187 6.617187zm-59.722656 9.628906c6.15625 7.085938 10.070313 15.867188 11.234375 25.171876h-22.503906c1.183594-9.566407 5.234375-18.25 11.269531-25.171876zm-10.742187 40.171876h21.46875c-1.574219 8.09375-5.226563 15.578124-10.714844 21.851562-5.332032-6.109375-9.125-13.59375-10.753906-21.851562zm22.257812 31.457031c7.660156-8.914063 12.660156-19.863281 14.402344-31.457031h19.378906c1.742188 11.609374 6.753906 22.574218 14.429688 31.492187-7.152344 4.25-15.417969 6.589844-24.121094 6.589844-8.792969 0-17.03125-2.421875-24.089844-6.625zm59.707031-9.582031c-5.5-6.28125-9.160156-13.769532-10.734375-21.875h11.097656c.558594 5.65625 1.886719 11.085937 3.863282 16.199218-1.28125 2.015625-2.695313 3.910156-4.226563 5.675782zm40.660157 13.9375c3.984374-8.128907 12.253906-13.480469 21.644531-13.480469 6.433593 0 12.605469 2.585937 17.128906 7.125-.195313 2.808593-.242187 5.636719-.144531 8.46875-5.402344 2.085937-11.097656 3.15625-16.984375 3.15625-7.796875 0-15.152344-1.910157-21.644531-5.269531zm41.695312-22.9375c-6.011719-3.582032-12.933594-5.542969-20.050781-5.542969-14.277344 0-26.984375 7.605469-33.84375 19.425781-8.289063-8.519531-13.40625-20.132812-13.40625-32.925781s5.117187-24.40625 13.40625-32.925781c6.859375 11.820312 19.566406 19.429687 33.847656 19.429687 14.289063 0 27.007813-7.621094 33.859375-19.457031 3.980469 4.082031 7.25 8.910156 9.566406 14.320312-.953125.867188-1.894531 1.75-2.8125 2.667969-9.84375 9.847656-16.839844 21.949219-20.566406 35.007813zm0 0"/><path d="m344.957031 192.148438-13.785156 13.785156c-2.929687 2.929687-2.929687 7.675781 0 10.605468 1.464844 1.464844 3.382813 2.195313 5.300781 2.195313 1.921875 0 3.839844-.730469 5.304688-2.195313l13.785156-13.785156c2.929688-2.929687 2.929688-7.679687 0-10.605468-2.925781-2.929688-7.675781-2.929688-10.605469 0zm0 0"/></svg>