<svg height="512" viewBox="0 0 24 24" width="512" xmlns="http://www.w3.org/2000/svg"><g id="User_interface" data-name="User interface"><path d="m19 2h-14a3 3 0 0 0 -3 3v14a3 3 0 0 0 3 3h14a3 3 0 0 0 3-3v-14a3 3 0 0 0 -3-3zm1 17a1 1 0 0 1 -1 1h-14a1 1 0 0 1 -1-1v-14a1 1 0 0 1 1-1h14a1 1 0 0 1 1 1z"/><path d="m17 16h-10a1 1 0 0 0 0 2h10a1 1 0 0 0 0-2z"/><path d="m18 7a1 1 0 0 0 -1-1h-2a1 1 0 0 0 0 2v4a1 1 0 0 0 0 2h2a1 1 0 0 0 0-2v-4a1 1 0 0 0 1-1z"/><path d="m9.5 14a3.5 3.5 0 0 0 3.5-3.5v-3.5a1 1 0 0 0 -2 0v3.5a1.5 1.5 0 0 1 -3 0v-3.5a1 1 0 0 0 -2 0v3.5a3.5 3.5 0 0 0 3.5 3.5z"/></g></svg>