<svg height="512" viewBox="0 0 60 60" width="512" xmlns="http://www.w3.org/2000/svg"><g id="Page-1" fill="none" fill-rule="evenodd"><g id="031---Video-Sections" fill="rgb(0,0,0)" fill-rule="nonzero"><path id="Shape" d="m19.965 50.241-2.976-1.653c-.6232019-.3461706-1.383057-.3367174-1.9974541.0248498-.614397.3615672-.9915928 1.0212585-.9915459 1.7341502v3.306c-.0024709.7139038.3742896 1.3754376.9895626 1.7375203s1.3765277.3702608 1.9994374.0214797l2.976-1.653c.6389371-.3547977 1.0352385-1.0281635 1.0352385-1.759s-.3963014-1.4042023-1.0352385-1.759zm-3.965 3.412.011-3.32h.007l2.976 1.675z"/><path id="Shape" d="m56 44h-43c-2.209139 0-4 1.790861-4 4v8c0 2.209139 1.790861 4 4 4h43c2.209139 0 4-1.790861 4-4v-8c0-2.209139-1.790861-4-4-4zm2 12c0 1.1045695-.8954305 2-2 2h-43c-1.1045695 0-2-.8954305-2-2v-8c0-1.1045695.8954305-2 2-2h43c1.1045695 0 2 .8954305 2 2z"/><path id="Shape" d="m19.965 32.241-2.976-1.653c-.6232019-.3461706-1.383057-.3367174-1.9974541.0248498-.614397.3615672-.9915928 1.0212585-.9915459 1.7341502v3.306c-.0024709.7139038.3742896 1.3754376.9895626 1.7375203s1.3765277.3702608 1.9994374.0214797l2.976-1.653c.6389371-.3547977 1.0352385-1.0281635 1.0352385-1.759s-.3963014-1.4042023-1.0352385-1.759zm-3.965 3.412.011-3.32h.007l2.976 1.675z"/><path id="Shape" d="m56 26h-43c-2.209139 0-4 1.790861-4 4v8c0 2.209139 1.790861 4 4 4h43c2.209139 0 4-1.790861 4-4v-8c0-2.209139-1.790861-4-4-4zm2 12c0 1.1045695-.8954305 2-2 2h-43c-1.1045695 0-2-.8954305-2-2v-8c0-1.1045695.8954305-2 2-2h43c1.1045695 0 2 .8954305 2 2z"/><path id="Shape" d="m19.965 14.241-2.976-1.653c-.6232019-.3461706-1.383057-.3367174-1.9974541.0248498-.614397.3615672-.9915928 1.0212585-.9915459 1.7341502v3.306c-.0024709.7139038.3742896 1.3754376.9895626 1.7375203s1.3765277.3702608 1.9994374.0214797l2.976-1.653c.6389371-.3547977 1.0352385-1.0281635 1.0352385-1.759s-.3963014-1.4042023-1.0352385-1.759zm-3.965 3.412.011-3.32h.007l2.976 1.675z"/><path id="Shape" d="m56 8h-43c-2.209139 0-4 1.790861-4 4v8c0 2.209139 1.790861 4 4 4h43c2.209139 0 4-1.790861 4-4v-8c0-2.209139-1.790861-4-4-4zm2 12c0 1.1045695-.8954305 2-2 2h-43c-1.1045695 0-2-.8954305-2-2v-8c0-1.1045695.8954305-2 2-2h43c1.1045695 0 2 .8954305 2 2z"/><path id="Shape" d="m13 6h43c1.6568542 0 3-1.34314575 3-3s-1.3431458-3-3-3h-43c-1.6568542 0-3 1.34314575-3 3s1.3431458 3 3 3zm0-4h43c.5522847 0 1 .44771525 1 1s-.4477153 1-1 1h-43c-.5522847 0-1-.44771525-1-1s.4477153-1 1-1z"/><path id="Shape" d="m52 13h-15c-.5522847 0-1 .4477153-1 1s.4477153 1 1 1h15c.5522847 0 1-.4477153 1-1s-.4477153-1-1-1z"/><path id="Shape" d="m26 15h7c.5522847 0 1-.4477153 1-1s-.4477153-1-1-1h-7c-.5522847 0-1 .4477153-1 1s.4477153 1 1 1z"/><path id="Shape" d="m43 17h-17c-.5522847 0-1 .4477153-1 1s.4477153 1 1 1h17c.5522847 0 1-.4477153 1-1s-.4477153-1-1-1z"/><path id="Shape" d="m52 31h-15c-.5522847 0-1 .4477153-1 1s.4477153 1 1 1h15c.5522847 0 1-.4477153 1-1s-.4477153-1-1-1z"/><path id="Shape" d="m26 33h7c.5522847 0 1-.4477153 1-1s-.4477153-1-1-1h-7c-.5522847 0-1 .4477153-1 1s.4477153 1 1 1z"/><path id="Shape" d="m43 35h-17c-.5522847 0-1 .4477153-1 1s.4477153 1 1 1h17c.5522847 0 1-.4477153 1-1s-.4477153-1-1-1z"/><path id="Shape" d="m52 49h-15c-.5522847 0-1 .4477153-1 1s.4477153 1 1 1h15c.5522847 0 1-.4477153 1-1s-.4477153-1-1-1z"/><path id="Shape" d="m26 51h7c.5522847 0 1-.4477153 1-1s-.4477153-1-1-1h-7c-.5522847 0-1 .4477153-1 1s.4477153 1 1 1z"/><path id="Shape" d="m43 53h-17c-.5522847 0-1 .4477153-1 1s.4477153 1 1 1h17c.5522847 0 1-.4477153 1-1s-.4477153-1-1-1z"/><path id="Shape" d="m3 55h-2c-.55228475 0-1 .4477153-1 1s.44771525 1 1 1h2c1.18267885-.000815 2.25451294-.6963988 2.73696747-1.7761985.48245454-1.0797998.28548556-2.3422848-.50296747-3.2238015.78845303-.8815167.98542201-2.1440017.50296747-3.2238015-.48245453-1.0797997-1.55428862-1.7753835-2.73696747-1.7761985h-2c-.55228475 0-1 .4477153-1 1s.44771525 1 1 1h2c.55228475 0 1 .4477153 1 1s-.44771525 1-1 1-1 .4477153-1 1 .44771525 1 1 1 1 .4477153 1 1-.44771525 1-1 1z"/><path id="Shape" d="m1 19c-.55228475 0-1 .4477153-1 1s.44771525 1 1 1h4c.55228475 0 1-.4477153 1-1s-.44771525-1-1-1h-1v-7c-.00008635-.4043959-.2437275-.7689341-.61734544-.923678s-.80366031-.0692299-1.08965456.216678l-2 2c-.37897221.3923789-.37355237 1.0160848.01218143 1.4018186.38573379.3857338 1.00943968.3911536 1.40181857.0121814l.293-.293v4.586z"/><path id="Shape" d="m1 33c.55228475 0 1-.4477153 1-1s.44771525-1 1-1 1 .4477153 1 1c0 1.039-.749 3.3-3.555 5.168-.36665571.2444851-.53004275.7001723-.40227078 1.1219349.12777198.4217626.51657885.710164.95727078.7100651h5c.55228475 0 1-.4477153 1-1s-.44771525-1-1-1h-2.28c1.3413808-1.3348977 2.15170907-3.1119334 2.28-5-.00000002-1.6568542-1.34314577-3-3-3s-2.99999998 1.3431458-3 3c0 .5522847.44771525 1 1 1z"/></g></g></svg>