<svg xmlns="http://www.w3.org/2000/svg" width="15" height="15" fill="none" viewBox="0 0 15 15"><path fill="#fff" fill-rule="evenodd" d="M8.74439 3.75068C10.3082 4.06046 10.9975 7.64349 9.25074 8.02916C9.39257 8.15357 9.78322 8.31531 10.103 8.75945C10.827 9.76718 10.4513 10.4713 10.4762 10.8856C10.7116 10.704 10.9209 10.4909 11.0982 10.2524C11.8211 9.32304 12.1682 8.20334 11.9206 7.0177C11.8645 7.11491 11.7982 7.20583 11.7228 7.28892C11.7601 5.79599 10.3891 3.68101 8.74439 3.7569M7.93199 11.081C6.81727 10.6281 4.11507 10.5323 3.11978 9.24715C3.6336 10.3594 4.8466 10.7737 6.01855 11.03C7.10839 11.2701 8.45451 11.1034 8.7842 12.3151C8.99197 11.8075 8.46571 11.2999 7.92701 11.081M8.64735 12.2952C8.37738 11.3634 6.26862 11.3907 4.55424 10.8769C4.21352 10.7748 3.88085 10.6476 3.55895 10.4962C5.35918 11.8735 7.09097 11.2937 8.31891 12.0116C8.53538 12.1434 8.50428 12.1658 8.65233 12.2952M9.36147 6.53001C9.35276 5.68153 8.6685 5.67407 8.1945 5.65167C8.08502 5.65167 7.50775 5.45386 7.09346 5.65789H6.82722C6.64931 5.65789 6.4092 5.6778 6.25742 5.56334L6.13301 5.43893C6.12582 5.43001 6.11791 5.42169 6.10937 5.41405C6.11117 5.61455 6.18541 5.80765 6.31838 5.95772C6.39303 6.04108 6.60701 6.20655 6.76004 6.20655L6.57591 6.7552C6.21263 8.20209 7.15567 8.44096 8.11363 9.13393C8.61998 9.50716 9.19974 10.0309 9.10892 10.7214C9.10892 10.5559 8.87005 10.1641 8.78172 10.0421C7.8026 8.69974 3.59379 7.77412 5.88419 4.37398C6.16999 3.937 6.56873 3.58554 7.03813 3.35687C7.50752 3.12819 8.03006 3.03084 8.55031 3.07513C8.44954 3.05522 8.34006 3.03283 8.27039 3.02536C5.62541 2.75166 3.42832 4.72606 3.32879 7.35983L3.11978 6.89951C2.94187 7.2939 2.96551 8.2332 3.1683 8.64749C3.58757 9.68756 4.9623 10.1404 5.95386 10.3805C7.3286 10.7227 9.21591 10.6716 8.90737 12.2119C9.51325 12.0638 10.3791 10.6405 10.2759 9.87169C10.2157 9.42282 10.0208 9.00275 9.71696 8.66692C9.41311 8.33108 9.01457 8.09527 8.57395 7.9906C8.43472 7.9732 8.30075 7.92656 8.18081 7.85374C8.0564 7.77412 7.98424 7.65469 7.88969 7.61363C7.82827 7.49232 7.7803 7.36467 7.74662 7.23294C7.72301 7.07008 7.74265 6.90389 7.80358 6.75103C7.8645 6.59817 7.96457 6.46402 8.09372 6.36206C8.52294 6.00998 8.97331 6.25755 9.36147 6.53375M7.81753 5.85198C7.82908 5.85956 7.83856 5.8699 7.84513 5.88206C7.85169 5.89422 7.85513 5.90783 7.85513 5.92165C7.85513 5.93546 7.85169 5.94907 7.84513 5.96123C7.83856 5.97339 7.82908 5.98373 7.81753 5.99132V5.99132C7.80358 6.00068 7.78705 6.00546 7.77026 6.005L7.56995 5.99878C7.5533 5.99834 7.5372 5.99268 7.52392 5.98261C7.51238 5.97487 7.50291 5.96441 7.49637 5.95215C7.48982 5.9399 7.4864 5.92621 7.4864 5.91231C7.4864 5.89842 7.48982 5.88473 7.49637 5.87247C7.50291 5.86021 7.51238 5.84976 7.52392 5.84202V5.84202C7.53805 5.83317 7.55454 5.82883 7.5712 5.82958L7.7715 5.8358C7.78814 5.83633 7.80422 5.84197 7.81753 5.85198V5.85198Z" clip-rule="evenodd"/></svg>