<svg xmlns="http://www.w3.org/2000/svg" width="767" height="511" fill="none" viewBox="0 0 767 511"><rect width="767" height="511" fill="#EBEBEB"/><path fill="#C9CFD5" d="M453.781 189.875H313.219C304.261 189.875 297 197.22 297 206.281V304.719C297 313.78 304.261 321.125 313.219 321.125H453.781C462.739 321.125 470 313.78 470 304.719V206.281C470 197.22 462.739 189.875 453.781 189.875ZM451.754 304.719H315.246C314.708 304.719 314.193 304.503 313.813 304.118C313.432 303.733 313.219 303.212 313.219 302.668V208.332C313.219 207.788 313.432 207.267 313.813 206.882C314.193 206.497 314.708 206.281 315.246 206.281H451.754C452.292 206.281 452.807 206.497 453.187 206.882C453.568 207.267 453.781 207.788 453.781 208.332V302.668C453.781 303.212 453.568 303.733 453.187 304.118C452.807 304.503 452.292 304.719 451.754 304.719ZM340.25 219.953C332.786 219.953 326.734 226.074 326.734 233.625C326.734 241.176 332.786 247.297 340.25 247.297C347.714 247.297 353.766 241.176 353.766 233.625C353.766 226.074 347.714 219.953 340.25 219.953ZM329.438 288.312H437.562V260.969L407.992 231.056C406.409 229.455 403.841 229.455 402.258 231.056L361.875 271.906L348.523 258.4C346.94 256.798 344.373 256.798 342.789 258.4L329.438 271.906V288.312Z"/></svg>