<svg width="167" height="167" viewBox="0 0 167 167" fill="none" xmlns="http://www.w3.org/2000/svg">
<rect width="167" height="167" fill="black" fill-opacity="0.05"/>
<path d="M79.8348 38C66.9189 38 57.1551 43.2473 49.7476 54.0808C46.4028 58.9741 47.4898 65.6056 52.22 69.1795L58.6286 74.0207C60.5147 75.4461 62.8492 76.2439 65.2134 76.2735C63.1476 79.5762 62.1042 83.3326 62.1042 87.4941V89.4809C62.1042 92.3282 63.186 94.9287 64.9622 96.8947C62.0972 100.091 60.3542 104.307 60.3542 108.922C60.3542 118.891 68.4936 127 78.5 127C88.5064 127 96.6458 118.891 96.6458 108.922C96.6458 104.307 94.9028 100.091 92.0378 96.8947C93.5488 95.2225 94.5556 93.0931 94.8243 90.7447C99.7598 87.8151 111.574 82.2453 111.574 66.7199C111.574 50.368 95.693 38 79.8348 38ZM78.5 118.656C73.1121 118.656 68.7292 114.29 68.7292 108.922C68.7292 103.555 73.1117 99.1875 78.5 99.1875C83.8891 99.1875 88.2708 103.556 88.2708 108.922C88.2708 114.29 83.8879 118.656 78.5 118.656ZM86.5208 88.026V89.4809C86.5208 91.0085 85.2766 92.2344 83.7571 92.2344H73.2429C71.7236 92.2344 70.4792 91.0087 70.4792 89.4809V87.4941C70.4792 79.2929 76.7203 76.0145 81.4382 73.3792C85.4827 71.1195 87.962 69.5846 87.962 66.593C87.962 62.6349 82.8951 60.0084 78.7984 60.0084C73.4576 60.0084 70.9922 62.5271 67.527 66.885C66.5909 68.062 64.8824 68.2774 63.6885 67.3717L57.2798 62.5306C56.1039 61.6424 55.8404 59.9927 56.6709 58.7777C62.1129 50.8163 69.0432 46.3438 79.8348 46.3438C91.1358 46.3438 103.199 55.1325 103.199 66.7199C103.199 82.1054 86.5208 82.3418 86.5208 88.026Z" fill="black" fill-opacity="0.15"/>
</svg>
