<svg xmlns="http://www.w3.org/2000/svg" width="1280" height="720" fill="none" viewBox="0 0 1280 720"><rect width="1280" height="720" fill="#EBEBEB"/><path fill="#C9CFD5" d="M733.344 273.125H545.656C533.696 273.125 524 282.905 524 294.969V426.031C524 438.095 533.696 447.875 545.656 447.875H733.344C745.304 447.875 755 438.095 755 426.031V294.969C755 282.905 745.304 273.125 733.344 273.125ZM730.637 426.031H548.363C547.645 426.031 546.957 425.744 546.449 425.232C545.941 424.719 545.656 424.025 545.656 423.301V297.699C545.656 296.975 545.941 296.281 546.449 295.768C546.957 295.256 547.645 294.969 548.363 294.969H730.637C731.355 294.969 732.043 295.256 732.551 295.768C733.059 296.281 733.344 296.975 733.344 297.699V423.301C733.344 424.025 733.059 424.719 732.551 425.232C732.043 425.744 731.355 426.031 730.637 426.031ZM581.75 313.172C571.783 313.172 563.703 321.322 563.703 331.375C563.703 341.428 571.783 349.578 581.75 349.578C591.717 349.578 599.797 341.428 599.797 331.375C599.797 321.322 591.717 313.172 581.75 313.172ZM567.312 404.188H711.688V367.781L672.203 327.955C670.089 325.823 666.661 325.823 664.546 327.955L610.625 382.344L592.797 364.361C590.683 362.229 587.255 362.229 585.14 364.361L567.312 382.344V404.188Z"/></svg>