<svg xmlns="http://www.w3.org/2000/svg" width="1280" height="549" fill="none" viewBox="0 0 1280 549"><rect width="1280" height="548.57" fill="#EBEBEB"/><path fill="#C9CFD5" d="M725.312 194.5H554.688C543.814 194.5 535 203.398 535 214.375V333.625C535 344.602 543.814 353.5 554.688 353.5H725.312C736.186 353.5 745 344.602 745 333.625V214.375C745 203.398 736.186 194.5 725.312 194.5ZM722.852 333.625H557.148C556.496 333.625 555.87 333.363 555.408 332.897C554.947 332.431 554.688 331.8 554.688 331.141V216.859C554.688 216.2 554.947 215.569 555.408 215.103C555.87 214.637 556.496 214.375 557.148 214.375H722.852C723.504 214.375 724.13 214.637 724.592 215.103C725.053 215.569 725.312 216.2 725.312 216.859V331.141C725.312 331.8 725.053 332.431 724.592 332.897C724.13 333.363 723.504 333.625 722.852 333.625ZM587.5 230.938C578.439 230.938 571.094 238.353 571.094 247.5C571.094 256.647 578.439 264.062 587.5 264.062C596.561 264.062 603.906 256.647 603.906 247.5C603.906 238.353 596.561 230.938 587.5 230.938ZM574.375 313.75H705.625V280.625L669.73 244.388C667.808 242.448 664.692 242.448 662.769 244.388L613.75 293.875L597.543 277.513C595.621 275.573 592.504 275.573 590.582 277.513L574.375 293.875V313.75Z"/></svg>