<svg width="168" height="207" viewBox="0 0 168 207" fill="none" xmlns="http://www.w3.org/2000/svg">
<rect width="167.165" height="206.963" fill="#EBEBEB"/>
<path d="M113.156 76.125H53.8438C50.064 76.125 47 79.189 47 82.9688V124.031C47 127.811 50.064 130.875 53.8438 130.875H113.156C116.936 130.875 120 127.811 120 124.031V82.9688C120 79.189 116.936 76.125 113.156 76.125ZM112.301 124.031H54.6992C54.4723 124.031 54.2547 123.941 54.0943 123.781C53.9339 123.62 53.8438 123.403 53.8438 123.176V83.8242C53.8438 83.5973 53.9339 83.3797 54.0943 83.2193C54.2547 83.0589 54.4723 82.9688 54.6992 82.9688H112.301C112.528 82.9688 112.745 83.0589 112.906 83.2193C113.066 83.3797 113.156 83.5973 113.156 83.8242V123.176C113.156 123.403 113.066 123.62 112.906 123.781C112.745 123.941 112.528 124.031 112.301 124.031ZM65.25 88.6719C62.1003 88.6719 59.5469 91.2253 59.5469 94.375C59.5469 97.5247 62.1003 100.078 65.25 100.078C68.3997 100.078 70.9531 97.5247 70.9531 94.375C70.9531 91.2253 68.3997 88.6719 65.25 88.6719ZM60.6875 117.188H106.312V105.781L93.8348 93.3035C93.1667 92.6354 92.0833 92.6354 91.4151 93.3035L74.375 110.344L68.741 104.71C68.0729 104.042 66.9896 104.042 66.3213 104.71L60.6875 110.344V117.188Z" fill="#C9CFD5"/>
</svg>
