<svg width="560" height="560" viewBox="0 0 560 560" fill="none" xmlns="http://www.w3.org/2000/svg">
<rect width="560" height="560" fill="#EBEBEB"/>
<path d="M343.375 221.625H216.625C208.548 221.625 202 228.215 202 236.344V324.656C202 332.785 208.548 339.375 216.625 339.375H343.375C351.452 339.375 358 332.785 358 324.656V236.344C358 228.215 351.452 221.625 343.375 221.625ZM341.547 324.656H218.453C217.968 324.656 217.503 324.462 217.16 324.117C216.818 323.772 216.625 323.304 216.625 322.816V238.184C216.625 237.696 216.818 237.228 217.16 236.883C217.503 236.538 217.968 236.344 218.453 236.344H341.547C342.032 236.344 342.497 236.538 342.84 236.883C343.182 237.228 343.375 237.696 343.375 238.184V322.816C343.375 323.304 343.182 323.772 342.84 324.117C342.497 324.462 342.032 324.656 341.547 324.656ZM241 248.609C234.269 248.609 228.812 254.101 228.812 260.875C228.812 267.649 234.269 273.141 241 273.141C247.731 273.141 253.188 267.649 253.188 260.875C253.188 254.101 247.731 248.609 241 248.609ZM231.25 309.938H328.75V285.406L302.085 258.571C300.658 257.134 298.342 257.134 296.914 258.571L260.5 295.219L248.46 283.102C247.033 281.665 244.717 281.665 243.289 283.102L231.25 295.219V309.938Z" fill="#C9CFD5"/>
</svg>
