<svg xmlns="http://www.w3.org/2000/svg" width="275" height="69" fill="none" viewBox="0 0 275 69"><g clip-path="url(#clip0_1523_4705)" opacity=".1"><path fill="url(#paint0_linear_1523_4705)" d="M53.5511 2.41703e-06C55.0226 -0.00111439 56.4685 0.384808 57.7431 1.11893C59.0178 1.85304 60.0762 2.90945 60.812 4.18182L75.8841 30.3182C76.616 31.5875 77.0012 33.0264 77.0012 34.491C77.0012 35.9557 76.616 37.3946 75.8841 38.6639L60.812 64.8182C60.0762 66.0906 59.0178 67.147 57.7431 67.8811C56.4685 68.6152 55.0226 69.0011 53.5511 69H23.4488C21.9773 69.0011 20.5315 68.6152 19.2568 67.8811C17.9822 67.147 16.9237 66.0906 16.188 64.8182L1.11587 38.6729C0.38399 37.4036 -0.0012207 35.9646 -0.0012207 34.5C-0.0012207 33.0354 0.38399 31.5964 1.11587 30.3271L16.188 4.18182C16.9237 2.90945 17.9822 1.85304 19.2568 1.11893C20.5315 0.384808 21.9773 -0.00111439 23.4488 2.41703e-06H53.5511Z"/><mask id="mask0_1523_4705" style="mask-type:luminance" width="51" height="53" x="13" y="9" maskUnits="userSpaceOnUse"><path fill="#fff" d="M63.2173 9.9856H13.5972V61.2666H63.2173V9.9856Z"/></mask><g mask="url(#mask0_1523_4705)"><path fill="#fff" fill-rule="evenodd" d="M45.2642 14.1196C53.8892 15.8192 57.6857 35.5455 48.0555 37.6722C48.8423 38.3712 50.9963 39.2464 52.7584 41.6927C56.7523 47.2396 54.6791 51.1168 54.7957 53.3988C56.0984 52.3984 57.2596 51.2268 58.2481 49.916C62.2271 44.8052 64.1447 38.6311 62.7775 32.0716C62.3557 32.5973 62.3288 32.9677 61.6916 33.5651C61.898 25.3657 54.338 13.6716 45.2642 14.1226M40.7767 54.4772C34.6288 51.983 19.7511 51.4573 14.2704 44.384C17.1035 50.5044 23.7899 52.7835 30.2519 54.1994C36.2622 55.5166 43.6816 54.6026 45.5095 61.2696C46.6553 58.4768 43.7534 55.6809 40.7857 54.4772M44.7586 61.1591C43.2628 56.0334 31.6371 56.1827 22.1864 53.354C20.8311 52.9478 17.2351 51.6574 16.6996 51.2631C26.6051 58.8471 36.1456 55.6301 42.9157 59.6059C44.1124 60.3317 43.9449 60.4572 44.7586 61.1651M48.6688 29.4191C48.6179 24.7444 44.8454 24.7056 42.2336 24.5831C41.6353 24.5533 38.4492 23.4929 36.1635 24.619L34.7036 24.5981C33.7223 24.5981 32.394 24.7086 31.5623 24.0783L30.8563 23.3823C30.8234 23.3495 30.7725 23.2898 30.7246 23.2479C30.7391 24.349 31.1477 25.4085 31.8764 26.2349C32.2923 26.6979 33.465 27.609 34.3087 27.6269L33.2975 30.6438C31.2901 38.6101 36.4926 39.9244 41.7759 43.7448C44.5642 45.761 47.7593 48.6794 47.2986 52.4848C47.3135 51.5887 45.9852 49.4142 45.5036 48.7421C40.0916 41.3612 16.8851 36.2653 29.516 17.5457C32.6632 12.88 37.9825 9.87508 44.2141 10.3918C43.6607 10.2843 43.0593 10.1588 42.6704 10.12C28.083 8.6265 15.9756 19.4813 15.4222 33.9803L14.2763 31.4443C13.2981 33.6159 13.4267 38.7923 14.5426 41.0685C16.8612 46.7946 24.4361 49.2559 29.9049 50.6269C37.4799 52.5057 47.8849 52.2548 46.1827 60.7081C49.5244 59.8926 54.2991 52.0457 53.7217 47.8221C53.3885 45.3527 52.3145 43.0419 50.641 41.1934C48.9676 39.345 46.7729 38.0456 44.3458 37.4661C43.3974 37.2451 42.9786 37.2242 42.1828 36.7134C41.4977 36.2773 41.0968 35.6142 40.5733 35.3931C40.313 34.7061 39.9211 34.1147 39.7864 33.3022C39.6528 32.4031 39.7591 31.4847 40.0948 30.6398C40.4305 29.7948 40.9835 29.0533 41.6981 28.4901C44.0646 26.5486 46.5506 27.9107 48.6897 29.434M40.1036 25.6465L40.4027 25.8556C40.4359 25.8814 40.4625 25.9147 40.4803 25.9528C40.4981 25.9908 40.5066 26.0325 40.5051 26.0745C40.5037 26.1164 40.4923 26.1575 40.4719 26.1942C40.4515 26.2309 40.4226 26.2623 40.3878 26.2857L40.0886 26.4769C40.0433 26.5037 39.9917 26.5182 39.939 26.5187L38.7154 26.4799C38.6614 26.4795 38.6089 26.4616 38.5658 26.4291L38.2667 26.22C38.2309 26.1956 38.2016 26.1629 38.1814 26.1246C38.1611 26.0863 38.1506 26.0437 38.1506 26.0005C38.1506 25.9572 38.1611 25.9146 38.1814 25.8763C38.2016 25.8381 38.2309 25.8053 38.2667 25.7809L38.5658 25.5898C38.6105 25.5614 38.6625 25.5469 38.7154 25.5479L39.942 25.5868C40.001 25.5883 40.0578 25.6093 40.1036 25.6465Z" clip-rule="evenodd"/></g></g><path fill="#16181F" d="M0.135 59L3.855 48.8H5.22L8.94 59H7.5L6.57 56.39H2.46L1.53 59H0.135ZM2.895 55.16H6.135L4.515 50.525L2.895 55.16ZM14.4171 59V48.8H20.9571V50.03H15.7671V53.165H20.2071V54.395H15.7671V59H14.4171ZM26.1135 59.18C23.5335 59.18 22.4385 58.115 22.4385 55.64V48.8H23.7885V55.625C23.7885 57.32 24.4185 57.95 26.1285 57.95C27.8535 57.95 28.4835 57.32 28.4835 55.625V48.8H29.7885V55.64C29.7885 58.115 28.6935 59.18 26.1135 59.18ZM32.2882 59V48.8H33.6382V57.755H38.5582V59H32.2882ZM40.0372 59V48.8H41.3872V57.755H46.3072V59H40.0372ZM46.1692 55.25V53.945H50.6992V55.25H46.1692ZM55.4845 59.18C53.0545 59.18 51.8095 58.16 51.8095 56.105H53.1595C53.1595 57.335 53.9545 57.95 55.4995 57.95C56.9845 57.95 57.7345 57.395 57.7345 56.315C57.7345 55.22 57.0745 54.71 55.1995 54.455C52.8595 54.14 51.9895 53.345 51.9895 51.59C51.9895 49.64 53.2345 48.62 55.5295 48.62C57.7795 48.62 58.9195 49.61 58.9195 51.605H57.5695C57.5695 50.42 56.8945 49.85 55.4845 49.85C54.0895 49.85 53.3245 50.42 53.3245 51.455C53.3245 52.475 53.9545 52.955 55.6795 53.18C58.1395 53.495 59.0695 54.335 59.0695 56.195C59.0695 58.19 57.8695 59.18 55.4845 59.18ZM62.7391 59V50.045H59.7241V48.8H67.1041V50.045H64.0891V59H62.7391ZM66.3606 59L70.0806 48.8H71.4456L75.1656 59H73.7256L72.7956 56.39H68.6856L67.7556 59H66.3606ZM69.1206 55.16H72.3606L70.7406 50.525L69.1206 55.16ZM79.8868 59.18C77.3218 59.18 76.0768 57.83 76.0768 55.145V52.655C76.0768 49.97 77.3218 48.62 79.8868 48.62C82.2868 48.62 83.5168 49.79 83.6068 52.16H82.2868C82.2118 50.585 81.4468 49.85 79.8868 49.85C78.1768 49.85 77.4268 50.72 77.4268 52.685V55.115C77.4268 57.08 78.1768 57.95 79.8868 57.95C81.4468 57.95 82.2118 57.215 82.2868 55.655H83.6068C83.5168 58.01 82.2868 59.18 79.8868 59.18ZM85.7257 59V48.8H87.0757V54.215L91.8157 48.8H93.4807L89.8507 52.97L93.5257 59H91.9507L88.9207 54.005L87.0757 56.06V59H85.7257ZM98.9386 59V48.8H102.449C105.119 48.8 106.319 50.045 106.319 52.76V55.04C106.319 57.755 105.119 59 102.449 59H98.9386ZM100.289 57.77H102.284C104.204 57.77 104.969 56.99 104.969 55.025V52.775C104.969 50.81 104.204 50.03 102.284 50.03H100.289V57.77ZM108.636 59V48.8H115.311V50.03H109.986V53.165H114.561V54.395H109.986V57.77H115.461V59H108.636ZM120.45 59.18C118.02 59.18 116.775 58.16 116.775 56.105H118.125C118.125 57.335 118.92 57.95 120.465 57.95C121.95 57.95 122.7 57.395 122.7 56.315C122.7 55.22 122.04 54.71 120.165 54.455C117.825 54.14 116.955 53.345 116.955 51.59C116.955 49.64 118.2 48.62 120.495 48.62C122.745 48.62 123.885 49.61 123.885 51.605H122.535C122.535 50.42 121.86 49.85 120.45 49.85C119.055 49.85 118.29 50.42 118.29 51.455C118.29 52.475 118.92 52.955 120.645 53.18C123.105 53.495 124.035 54.335 124.035 56.195C124.035 58.19 122.835 59.18 120.45 59.18ZM125.98 59V48.8H127.33V59H125.98ZM133.576 59.18C131.011 59.18 129.661 57.815 129.661 55.235V52.565C129.661 50.015 131.011 48.62 133.516 48.62C135.796 48.62 137.161 49.775 137.251 51.95H135.931C135.856 50.63 135.061 49.85 133.501 49.85C131.821 49.85 131.011 50.765 131.011 52.64V55.16C131.011 57.065 131.821 57.95 133.591 57.95C135.286 57.95 136.036 57.14 136.036 55.28V54.725H133.861V53.48H137.356V55.28C137.356 57.875 136.096 59.18 133.576 59.18ZM139.632 59V48.8H141.237L145.932 56.555V48.8H147.237V59H145.917L140.937 50.78V59H139.632ZM150.003 59V48.8H156.678V50.03H151.353V53.165H155.928V54.395H151.353V57.77H156.828V59H150.003ZM158.748 59V48.8H162.663C164.988 48.8 165.948 49.685 165.948 51.83C165.948 53.57 165.318 54.485 163.833 54.77L166.323 59H164.763L162.333 54.86H160.098V59H158.748ZM160.098 53.63H162.543C164.073 53.63 164.598 53.135 164.598 51.83C164.598 50.525 164.073 50.03 162.543 50.03H160.098V53.63Z"/><path fill="#16181F" d="M31.198 39L36.654 24.04H38.656L44.112 39H42L40.636 35.172H34.608L33.244 39H31.198ZM35.246 33.368H39.998L37.622 26.57L35.246 33.368ZM46.3443 39V24.04H52.1303C55.3423 24.04 56.8823 25.25 56.8823 27.912C56.8823 29.584 56.2883 30.64 54.9243 31.146V31.19C56.6403 31.718 57.3883 32.884 57.3883 34.864C57.3883 37.68 55.8703 39 52.5703 39H46.3443ZM48.3243 30.464H51.9983C54.0883 30.464 54.9243 29.826 54.9243 28.176C54.9243 26.504 54.0663 25.844 51.9763 25.844H48.3243V30.464ZM48.3243 37.196H52.2843C54.5283 37.196 55.4083 36.47 55.4083 34.732C55.4083 32.95 54.4843 32.268 52.0423 32.268H48.3243V37.196ZM60.4166 39V24.04H65.5646C69.4806 24.04 71.2406 25.866 71.2406 29.848V33.192C71.2406 37.174 69.4806 39 65.5646 39H60.4166ZM62.3966 37.196H65.3226C68.1386 37.196 69.2606 36.052 69.2606 33.17V29.87C69.2606 26.988 68.1386 25.844 65.3226 25.844H62.3966V37.196ZM79.6552 39.264C75.8712 39.264 74.2652 37.702 74.2652 34.072V24.04H76.2452V34.05C76.2452 36.536 77.1692 37.46 79.6772 37.46C82.2072 37.46 83.1312 36.536 83.1312 34.05V24.04H85.0452V34.072C85.0452 37.702 83.4392 39.264 79.6552 39.264ZM88.7115 39V24.04H90.6915V37.174H97.9075V39H88.7115ZM100.077 39V24.04H102.057V37.174H109.273V39H100.077ZM109.616 39L115.072 24.04H117.074L122.53 39H120.418L119.054 35.172H113.026L111.662 39H109.616ZM113.664 33.368H118.416L116.04 26.57L113.664 33.368ZM124.762 39V24.04H126.742V30.42H133.98V24.04H135.96V39H133.98V32.268H126.742V39H124.762Z"/><path fill="#F8C25B" d="M145.817 39V24.04H151.559C154.969 24.04 156.377 25.338 156.377 28.484C156.377 31.036 155.453 32.378 153.275 32.796L156.927 39H154.639L151.075 32.928H147.797V39H145.817ZM147.797 31.124H151.383C153.627 31.124 154.397 30.398 154.397 28.484C154.397 26.57 153.627 25.844 151.383 25.844H147.797V31.124ZM157.87 39L163.326 24.04H165.328L170.784 39H168.672L167.308 35.172H161.28L159.916 39H157.87ZM161.918 33.368H166.67L164.294 26.57L161.918 33.368ZM173.016 39V24.04H175.986L180.496 35.788L185.006 24.04H187.954V39H185.974V26.592L181.178 39H179.748L174.93 26.548V39H173.016ZM190.182 39L195.638 24.04H197.64L203.096 39H200.984L199.62 35.172H193.592L192.228 39H190.182ZM194.23 33.368H198.982L196.606 26.57L194.23 33.368ZM205.329 39V24.04H210.477C214.393 24.04 216.153 25.866 216.153 29.848V33.192C216.153 37.174 214.393 39 210.477 39H205.329ZM207.309 37.196H210.235C213.051 37.196 214.173 36.052 214.173 33.17V29.87C214.173 26.988 213.051 25.844 210.235 25.844H207.309V37.196ZM217.468 39L222.924 24.04H224.926L230.382 39H228.27L226.906 35.172H220.878L219.514 39H217.468ZM221.516 33.368H226.268L223.892 26.57L221.516 33.368ZM232.614 39V24.04H234.968L241.854 35.414V24.04H243.768V39H241.832L234.528 26.944V39H232.614Z"/><path fill="#868E96" d="M144.385 18V9.84H147.457C149.365 9.84 150.181 10.596 150.181 12.348C150.181 14.1 149.365 14.844 147.457 14.844H145.465V18H144.385ZM145.465 13.86H147.385C148.645 13.86 149.101 13.44 149.101 12.348C149.101 11.256 148.645 10.824 147.385 10.824H145.465V13.86ZM151.592 18V9.84H152.672V13.32H156.62V9.84H157.7V18H156.62V14.328H152.672V18H151.592ZM159.913 18V9.84H165.253V10.824H160.993V13.332H164.653V14.316H160.993V17.016H165.373V18H159.913ZM166.909 18V9.84H168.193L171.949 16.044V9.84H172.993V18H171.937L167.953 11.424V18H166.909ZM175.206 18V9.84H176.286V18H175.206ZM177.539 18L180.107 13.776L177.623 9.84H178.883L180.875 13.008L182.771 9.84H183.971L181.487 13.92L184.055 18H182.795L180.731 14.688L178.739 18H177.539ZM189.863 18V10.836H187.451V9.84H193.355V10.836H190.943V18H189.863ZM197.244 18.144C195.12 18.144 194.076 17.052 194.076 14.892V12.948C194.076 10.788 195.12 9.696 197.244 9.696C199.368 9.696 200.412 10.788 200.412 12.948V14.892C200.412 17.052 199.368 18.144 197.244 18.144ZM197.244 17.16C198.684 17.16 199.332 16.452 199.332 14.892V12.948C199.332 11.388 198.684 10.68 197.244 10.68C195.804 10.68 195.156 11.388 195.156 12.948V14.892C195.156 16.452 195.804 17.16 197.244 17.16ZM205.096 18.144C202.972 18.144 201.928 17.052 201.928 14.892V12.948C201.928 10.788 202.972 9.696 205.096 9.696C207.22 9.696 208.264 10.788 208.264 12.948V14.892C208.264 17.052 207.22 18.144 205.096 18.144ZM205.096 17.16C206.536 17.16 207.184 16.452 207.184 14.892V12.948C207.184 11.388 206.536 10.68 205.096 10.68C203.656 10.68 203.008 11.388 203.008 12.948V14.892C203.008 16.452 203.656 17.16 205.096 17.16ZM210.127 18V9.84H211.207V17.004H215.143V18H210.127ZM218.724 18.144C216.78 18.144 215.784 17.328 215.784 15.684H216.864C216.864 16.668 217.5 17.16 218.736 17.16C219.924 17.16 220.524 16.716 220.524 15.852C220.524 14.976 219.996 14.568 218.496 14.364C216.624 14.112 215.928 13.476 215.928 12.072C215.928 10.512 216.924 9.696 218.76 9.696C220.56 9.696 221.472 10.488 221.472 12.084H220.392C220.392 11.136 219.852 10.68 218.724 10.68C217.608 10.68 216.996 11.136 216.996 11.964C216.996 12.78 217.5 13.164 218.88 13.344C220.848 13.596 221.592 14.268 221.592 15.756C221.592 17.352 220.632 18.144 218.724 18.144ZM229.011 18.144C226.959 18.144 225.963 17.064 225.963 14.916V12.924C225.963 10.776 226.959 9.696 229.011 9.696C230.931 9.696 231.915 10.632 231.987 12.528H230.931C230.871 11.268 230.259 10.68 229.011 10.68C227.643 10.68 227.043 11.376 227.043 12.948V14.892C227.043 16.464 227.643 17.16 229.011 17.16C230.259 17.16 230.871 16.572 230.931 15.324H231.987C231.915 17.208 230.931 18.144 229.011 18.144ZM233.682 18V9.84H236.814C238.674 9.84 239.442 10.548 239.442 12.264C239.442 13.656 238.938 14.388 237.75 14.616L239.742 18H238.494L236.55 14.688H234.762V18H233.682ZM234.762 13.704H236.718C237.942 13.704 238.362 13.308 238.362 12.264C238.362 11.22 237.942 10.824 236.718 10.824H234.762V13.704ZM241.252 18V9.84H246.592V10.824H242.332V13.332H245.992V14.316H242.332V17.016H246.712V18H241.252ZM247.253 18L250.229 9.84H251.321L254.297 18H253.145L252.401 15.912H249.113L248.369 18H247.253ZM249.461 14.928H252.053L250.757 11.22L249.461 14.928ZM256.121 18V10.836H253.709V9.84H259.613V10.836H257.201V18H256.121ZM263.502 18.144C261.378 18.144 260.334 17.052 260.334 14.892V12.948C260.334 10.788 261.378 9.696 263.502 9.696C265.626 9.696 266.67 10.788 266.67 12.948V14.892C266.67 17.052 265.626 18.144 263.502 18.144ZM263.502 17.16C264.942 17.16 265.59 16.452 265.59 14.892V12.948C265.59 11.388 264.942 10.68 263.502 10.68C262.062 10.68 261.414 11.388 261.414 12.948V14.892C261.414 16.452 262.062 17.16 263.502 17.16ZM268.534 18V9.84H271.666C273.526 9.84 274.294 10.548 274.294 12.264C274.294 13.656 273.79 14.388 272.602 14.616L274.594 18H273.346L271.402 14.688H269.614V18H268.534ZM269.614 13.704H271.57C272.794 13.704 273.214 13.308 273.214 12.264C273.214 11.22 272.794 10.824 271.57 10.824H269.614V13.704Z"/><defs><linearGradient id="paint0_linear_1523_4705" x1="11.048" x2="73.405" y1="17.113" y2="56.731" gradientUnits="userSpaceOnUse"><stop stop-color="#F8C35B"/><stop offset=".48" stop-color="#F9AE5C"/><stop offset=".98" stop-color="#FB955D"/></linearGradient><clipPath id="clip0_1523_4705"><rect width="77" height="69" fill="#fff"/></clipPath></defs></svg>