<svg xmlns="http://www.w3.org/2000/svg" xmlns:xlink="http://www.w3.org/1999/xlink" width="24" height="24" aria-hidden="true" focusable="false" viewBox="0 0 24 24"><path fill="#FFF" d="M19 3H5c-1.1 0-2 .9-2 2v14c0 1.1.9 2 2 2h14c1.1 0 2-.9 2-2V5c0-1.1-.9-2-2-2zm.5 16c0 .3-.2.5-.5.5H5c-.3 0-.5-.2-.5-.5V9.8l4.7-5.3H19c.3 0 .5.2.5.5v14zM13.2 7.7c-.4.4-.7 1.1-.7 1.9v3.7c-.4-.3-.8-.4-1.3-.4-1.2 0-2.2 1-2.2 2.2 0 1.2 1 2.2 2.2 2.2.5 0 1-.2 1.4-.5.9-.6 1.4-1.6 1.4-2.6V9.6c0-.4.1-.6.2-.8.3-.3 1-.3 1.6-.3h.2V7h-.2c-.7 0-1.8 0-2.6.7z"/></svg>