<svg xmlns="http://www.w3.org/2000/svg" xmlns:xlink="http://www.w3.org/1999/xlink" width="24" height="24" aria-hidden="true" focusable="false" viewBox="0 0 44 44"><path fill="#FFF" d="M32.59521,22.001l4.31885-4.84473-6.34131-1.38379.646-6.459-5.94336,2.61035L22,6.31934l-3.27344,5.60351L12.78418,9.3125l.645,6.458L7.08643,17.15234,11.40479,21.999,7.08594,26.84375l6.34131,1.38379-.64551,6.458,5.94287-2.60938L22,37.68066l3.27344-5.60351,5.94287,2.61035-.64551-6.458,6.34277-1.38183Zm.44385,2.75244L30.772,23.97827l-1.59558-2.07391,1.97888.735Zm-8.82147,6.1579L22.75,33.424V30.88977l1.52228-2.22168ZM18.56226,13.48816,19.819,15.09534l-2.49219-.88642L15.94037,12.337Zm6.87719.00116,2.62043-1.15027-1.38654,1.86981L24.183,15.0946Zm3.59357,2.6029-1.22546,1.7381.07525-2.73486,1.44507-1.94867ZM22,29.33008l-2.16406-3.15686L22,23.23688l2.16406,2.93634Zm-4.25458-9.582-.10528-3.836,3.60986,1.284v3.73242Zm5.00458-2.552,3.60986-1.284-.10528,3.836L22.75,20.92853Zm-7.78174-1.10559-.29352-2.94263,1.44245,1.94739.07519,2.73321Zm2.30982,5.08319,3.50817,1.18164-2.16247,2.9342-3.678-1.08447Zm2.4486,7.49285L21.25,30.88977v2.53485L19.78052,30.91Zm3.48707-6.31121,3.50817-1.18164,2.33228,3.03137-3.678,1.08447Zm10.87219-4.28113-2.714,3.04529L28.16418,19.928l1.92176-2.72565ZM24.06036,12.81769l-2.06012,2.6322-2.059-2.63318L22,9.292ZM9.91455,18.07227l4.00079-.87195,1.921,2.72735-3.20794,1.19019Zm2.93024,4.565,1.9801-.73462L13.228,23.97827l-2.26838.77429Zm-1.55591,3.58819L13.701,25.4021l2.64935.78058-2.14447.67853Zm3.64868,1.977L18.19,27.17334l.08313,3.46332L14.52979,32.2793Zm10.7876,2.43549.08447-3.464,3.25165,1.03052.407,4.07684Zm4.06824-3.77478-2.14545-.68,2.65063-.781,2.41266.825Z"/></svg>