<svg width="32" height="32" viewBox="0 0 32 32" fill="none" xmlns="http://www.w3.org/2000/svg">
<path d="M23.749 10.8537C24.2911 11.1196 24.515 11.7746 24.2491 12.3167L22.1204 16.6562C20.6299 19.695 16.2489 19.5466 14.9675 16.4139C14.4002 15.0273 12.461 14.9617 11.8012 16.3066L9.67251 20.6462C9.40661 21.1883 8.75161 21.4122 8.20952 21.1462C7.66745 20.8803 7.44357 20.2254 7.70947 19.6833L9.83813 15.3437C11.3287 12.3051 15.7096 12.4535 16.9912 15.5861C17.5583 16.9726 19.4976 17.0384 20.1574 15.6933L22.2861 11.3538C22.552 10.8117 23.2069 10.5878 23.749 10.8537Z" fill="black"/>
<path fill-rule="evenodd" clip-rule="evenodd" d="M15.5637 0.0103093C15.8407 -0.00343643 16.1181 -0.00343643 16.3949 0.0103093C17.4639 0.0633826 18.4481 0.373995 19.5452 0.883126C20.6132 1.37876 21.8544 2.09533 23.4244 3.00185L23.5134 3.05319C25.0831 3.95946 26.3249 4.67639 27.288 5.3534C28.2774 6.04898 29.0385 6.74597 29.6189 7.6452C29.7693 7.87814 29.9081 8.1184 30.0346 8.36508C30.5231 9.31739 30.7463 10.325 30.8538 11.5297C30.9586 12.7025 30.9586 14.1355 30.9586 15.9485V16.0514C30.9586 17.8644 30.9586 19.2975 30.8538 20.4703C30.7463 21.6749 30.5231 22.6826 30.0346 23.6349C29.9081 23.8815 29.7693 24.1219 29.6189 24.3548C29.0385 25.254 28.2774 25.9509 27.288 26.6465C26.3247 27.3238 25.0835 28.0403 23.5134 28.9469L23.4246 28.9982L23.4212 29.0001C21.8526 29.9057 20.6126 30.6216 19.5452 31.1169C18.4481 31.626 17.4639 31.9365 16.3949 31.9897C16.1181 32.0034 15.8407 32.0034 15.5637 31.9897C14.4947 31.9365 13.5106 31.626 12.4134 31.1169C11.3464 30.6217 10.1066 29.9059 8.5386 29.0006L8.44502 28.9467L8.44101 28.9444C6.87284 28.039 5.63309 27.3232 4.67066 26.6465C3.68119 25.9509 2.92012 25.254 2.33966 24.3548C2.1893 24.1219 2.05059 23.8816 1.92404 23.6349C1.4355 22.6826 1.21242 21.675 1.10478 20.4703C1 19.2976 1 17.8648 1 16.0521V15.9486C1 14.1359 1 12.7023 1.10478 11.5297C1.21242 10.325 1.4355 9.3174 1.92404 8.36508C2.05058 8.1184 2.18929 7.87815 2.33966 7.64522C2.92012 6.74598 3.68119 6.04898 4.67066 5.3534C5.63394 4.67626 6.87504 3.95972 8.4452 3.0532L8.53411 3.00186C10.1039 2.09552 11.3455 1.37869 12.4134 0.883126C13.5106 0.373995 14.4947 0.0633826 15.5637 0.0103093ZM16.2866 2.19412C16.0818 2.18394 15.8768 2.18394 15.6722 2.19412C14.9828 2.22833 14.284 2.42549 13.3338 2.86646C12.3646 3.31624 11.2073 3.98323 9.5829 4.92107C7.9585 5.85893 6.80222 6.52766 5.9281 7.14215C5.07109 7.7446 4.55092 8.25124 4.17668 8.83101C4.06553 9.00317 3.96301 9.18076 3.86947 9.36308C3.5545 9.97708 3.37582 10.6809 3.28259 11.7243C3.18749 12.7886 3.18649 14.1242 3.18649 15.9999C3.18649 17.8757 3.18749 19.2114 3.28259 20.2757C3.37582 21.3191 3.5545 22.0228 3.86947 22.6369C3.96301 22.8192 4.06553 22.9968 4.17668 23.169C4.55092 23.7487 5.07109 24.2554 5.9281 24.8578C6.80224 25.4724 7.9585 26.141 9.5829 27.0789C11.2073 28.0167 12.3646 28.6838 13.3338 29.1336C14.284 29.5745 14.9828 29.7716 15.6722 29.8059C15.8768 29.8161 16.0818 29.8161 16.2866 29.8059C16.9757 29.7716 17.6746 29.5745 18.6248 29.1336C19.594 28.6838 20.7514 28.0167 22.3758 27.0789C24.0001 26.141 25.1564 25.4724 26.0306 24.8578C26.8875 24.2554 27.4078 23.7487 27.782 23.169C27.893 22.9968 27.9957 22.8192 28.0891 22.6369C28.4041 22.0228 28.5828 21.3191 28.6761 20.2757C28.7711 19.2114 28.7721 17.8757 28.7721 15.9999C28.7721 14.1242 28.7711 12.7886 28.6761 11.7243C28.5828 10.6809 28.4041 9.97708 28.0891 9.36308C27.9957 9.18076 27.893 9.00317 27.782 8.83101C27.4078 8.25123 26.8875 7.7446 26.0306 7.14215C25.1564 6.52766 24.0001 5.85893 22.3758 4.92107C20.7514 3.98323 19.594 3.31624 18.6248 2.86646C17.6746 2.42549 16.9757 2.22833 16.2866 2.19412Z" fill="black"/>
</svg>
