<svg width="32" height="32" viewBox="0 0 32 32" fill="none" xmlns="http://www.w3.org/2000/svg">
<path d="M5.895 7.33301C4.965 7.33301 4.211 8.10901 4.211 9.06701C4.211 10.024 4.965 10.8 5.895 10.8H26.105C27.035 10.8 27.789 10.024 27.789 9.06701C27.789 8.10901 27.035 7.33301 26.105 7.33301H5.895Z" fill="black"/>
<path fill-rule="evenodd" clip-rule="evenodd" d="M2.526 3C1.131 3 0 4.164 0 5.6V12.533C0 13.969 1.131 15.133 2.526 15.133H29.474C30.869 15.133 32 13.969 32 12.533V5.6C32 4.164 30.869 3 29.474 3H2.526ZM29.474 4.733H2.526C2.29941 4.73642 2.08344 4.82966 1.92556 4.99223C1.76768 5.1548 1.68079 5.3734 1.684 5.6V12.533C1.684 13.012 2.061 13.4 2.526 13.4H29.474C29.7006 13.3966 29.9166 13.3033 30.0744 13.1408C30.2323 12.9782 30.3192 12.7596 30.316 12.533V5.6C30.3192 5.3734 30.2323 5.1548 30.0744 4.99223C29.9166 4.82966 29.7006 4.73642 29.474 4.733Z" fill="black"/>
<path d="M5.05298 22.933C5.05298 21.976 5.80698 21.2 6.73698 21.2C7.66698 21.2 8.42098 21.976 8.42098 22.933C8.42098 23.891 7.66698 24.667 6.73698 24.667C5.80698 24.667 5.05298 23.891 5.05298 22.933ZM11.79 21.2C10.86 21.2 10.105 21.976 10.105 22.933C10.105 23.891 10.859 24.667 11.789 24.667H25.263C26.193 24.667 26.947 23.891 26.947 22.933C26.947 21.976 26.193 21.2 25.263 21.2H11.79Z" fill="black"/>
<path fill-rule="evenodd" clip-rule="evenodd" d="M2.526 16.867C1.131 16.867 0 18.03 0 19.467V26.4C0 27.836 1.131 29 2.526 29H29.474C30.869 29 32 27.836 32 26.4V19.467C32 18.031 30.869 16.867 29.474 16.867H2.526ZM29.474 18.6H2.526C2.29941 18.6034 2.08344 18.6967 1.92556 18.8592C1.76768 19.0218 1.68079 19.2404 1.684 19.467V26.4C1.684 26.879 2.061 27.267 2.526 27.267H29.474C29.7006 27.2636 29.9166 27.1703 30.0744 27.0078C30.2323 26.8452 30.3192 26.6266 30.316 26.4V19.467C30.3192 19.2404 30.2323 19.0218 30.0744 18.8592C29.9166 18.6967 29.7006 18.6034 29.474 18.6Z" fill="black"/>
</svg>
