<svg width="32" height="32" viewBox="0 0 32 32" fill="none" xmlns="http://www.w3.org/2000/svg">
<g clip-path="url(#clip0_1847_10504)">
<path fill-rule="evenodd" clip-rule="evenodd" d="M6 30H26C28.2091 30 30 28.2091 30 26V22.4H26V23.6667C26 25.3235 24.6569 26.6667 23 26.6667H9C7.34315 26.6667 6 25.3235 6 23.6667V22.9497C5.92104 22.9277 5.84297 22.8984 5.76669 22.8615C5.5421 22.7528 5.3611 22.5915 5.23149 22.4H2V26C2 28.2091 3.79086 30 6 30ZM8 15.3352V9.4C8 8.84772 8.44772 8.4 9 8.4H23C23.5523 8.4 24 8.84772 24 9.4V10.1518C23.7485 10.2801 23.5349 10.4864 23.4006 10.7566L20.7339 16.1208C19.9074 17.7836 17.4781 17.7023 16.7676 15.9884C15.2143 12.2417 10.0265 11.9483 8 15.3352ZM8 21.4376L10.266 16.879C11.0925 15.2164 13.5218 15.2975 14.2325 17.0117C15.8378 20.8841 21.3259 21.0675 23.193 17.3111L24 15.6879V23.6667C24 24.219 23.5523 24.6667 23 24.6667H9C8.44772 24.6667 8 24.219 8 23.6667V21.4376ZM26 11.7333H30V6C30 3.79086 28.2091 2 26 2H6C3.79086 2 2 3.79086 2 6V11.7333H6V9.4C6 7.74315 7.34315 6.4 9 6.4H23C24.6569 6.4 26 7.74315 26 9.4V11.7333ZM6 32C2.68629 32 0 29.3137 0 26V6C0 2.68629 2.68629 0 6 0H26C29.3137 0 32 2.68629 32 6V26C32 29.3137 29.3137 32 26 32H6Z" fill="black"/>
</g>
<defs>
<clipPath id="clip0_1847_10504">
<rect width="32" height="32" fill="white"/>
</clipPath>
</defs>
</svg>
