<svg width="32" height="32" viewBox="0 0 32 32" fill="none" xmlns="http://www.w3.org/2000/svg">
<g clip-path="url(#clip0_1847_10527)">
<path d="M28.4 0H3.6C1.6 0 0 1.6 0 3.6V28.5333C0 30.4 1.6 32 3.6 32H28.5333C30.5333 32 32.1333 30.4 32.1333 28.4V3.6C32 1.6 30.4 0 28.4 0ZM29.3333 28.4C29.3333 28.9333 28.9333 29.3333 28.4 29.3333H3.6C3.06667 29.3333 2.66667 28.9333 2.66667 28.4V12.1333L11.0667 2.66667H28.5333C28.9333 2.66667 29.3333 3.06667 29.3333 3.6V28.4ZM18.6667 11.6L23.0667 16L18.6667 20.9333L20.6667 22.6667L26.6667 16L20.4 9.73333L18.6667 11.6ZM13.3333 11.6L11.6 9.73333L5.33333 16L11.6 22.8L13.6 21.0667L8.93333 16L13.3333 11.6Z" fill="#1E1E1E"/>
</g>
<defs>
<clipPath id="clip0_1847_10527">
<rect width="32" height="32" fill="white"/>
</clipPath>
</defs>
</svg>
