<svg width="32" height="32" viewBox="0 0 32 32" fill="none" xmlns="http://www.w3.org/2000/svg">
<path d="M28.5714 6.74359H22.8571V5.59487C22.8571 4.98555 23.098 4.40119 23.5266 3.97034C23.9553 3.53949 24.5366 3.29744 25.1429 3.29744C25.446 3.29744 25.7367 3.17641 25.951 2.96098C26.1653 2.74556 26.2857 2.45338 26.2857 2.14872C26.2857 1.84406 26.1653 1.55188 25.951 1.33645C25.7367 1.12103 25.446 1 25.1429 1C24.4938 1.00083 23.8523 1.14057 23.2612 1.40994C22.67 1.67931 22.1427 2.07213 21.7143 2.56226C21.2859 2.07213 20.7586 1.67931 20.1674 1.40994C19.5762 1.14057 18.9348 1.00083 18.2857 1C17.9826 1 17.6919 1.12103 17.4776 1.33645C17.2633 1.55188 17.1429 1.84406 17.1429 2.14872C17.1429 2.45338 17.2633 2.74556 17.4776 2.96098C17.6919 3.17641 17.9826 3.29744 18.2857 3.29744C18.8919 3.29744 19.4733 3.53949 19.902 3.97034C20.3306 4.40119 20.5714 4.98555 20.5714 5.59487V6.74359H3.42857C2.51926 6.74359 1.64719 7.10667 1.00421 7.75295C0.361224 8.39922 0 9.27577 0 10.1897V21.6769C0 22.5909 0.361224 23.4674 1.00421 24.1137C1.64719 24.76 2.51926 25.1231 3.42857 25.1231H20.5714V26.2718C20.5714 26.8811 20.3306 27.4655 19.902 27.8963C19.4733 28.3272 18.8919 28.5692 18.2857 28.5692C17.9826 28.5692 17.6919 28.6903 17.4776 28.9057C17.2633 29.1211 17.1429 29.4133 17.1429 29.718C17.1429 30.0226 17.2633 30.3148 17.4776 30.5302C17.6919 30.7456 17.9826 30.8667 18.2857 30.8667C18.9348 30.8658 19.5762 30.7261 20.1674 30.4567C20.7586 30.1874 21.2859 29.7945 21.7143 29.3044C22.1427 29.7945 22.67 30.1874 23.2612 30.4567C23.8523 30.7261 24.4938 30.8658 25.1429 30.8667C25.446 30.8667 25.7367 30.7456 25.951 30.5302C26.1653 30.3148 26.2857 30.0226 26.2857 29.718C26.2857 29.4133 26.1653 29.1211 25.951 28.9057C25.7367 28.6903 25.446 28.5692 25.1429 28.5692C24.5366 28.5692 23.9553 28.3272 23.5266 27.8963C23.098 27.4655 22.8571 26.8811 22.8571 26.2718V25.1231H28.5714C29.4807 25.1231 30.3528 24.76 30.9958 24.1137C31.6388 23.4674 32 22.5909 32 21.6769V10.1897C32 9.27577 31.6388 8.39922 30.9958 7.75295C30.3528 7.10667 29.4807 6.74359 28.5714 6.74359ZM3.42857 22.8256C3.12547 22.8256 2.83478 22.7046 2.62045 22.4892C2.40612 22.2738 2.28571 21.9816 2.28571 21.6769V10.1897C2.28571 9.88509 2.40612 9.5929 2.62045 9.37748C2.83478 9.16205 3.12547 9.04103 3.42857 9.04103H20.5714V22.8256H3.42857ZM29.7143 21.6769C29.7143 21.9816 29.5939 22.2738 29.3796 22.4892C29.1652 22.7046 28.8745 22.8256 28.5714 22.8256H22.8571V9.04103H28.5714C28.8745 9.04103 29.1652 9.16205 29.3796 9.37748C29.5939 9.5929 29.7143 9.88509 29.7143 10.1897V21.6769Z" fill="black"/>
<path d="M9.6 11.6667H5.33333C5.05044 11.6667 4.77913 11.779 4.57909 11.9791C4.37905 12.1791 4.26667 12.4504 4.26667 12.7333C4.26667 13.0162 4.37905 13.2875 4.57909 13.4876C4.77913 13.6876 5.05044 13.8 5.33333 13.8H6.4V19.1333C6.4 19.4162 6.51238 19.6875 6.71242 19.8876C6.91246 20.0876 7.18377 20.2 7.46667 20.2C7.74956 20.2 8.02088 20.0876 8.22091 19.8876C8.42095 19.6875 8.53333 19.4162 8.53333 19.1333V13.8H9.6C9.8829 13.8 10.1542 13.6876 10.3542 13.4876C10.5543 13.2875 10.6667 13.0162 10.6667 12.7333C10.6667 12.4504 10.5543 12.1791 10.3542 11.9791C10.1542 11.779 9.8829 11.6667 9.6 11.6667Z" fill="black"/>
</svg>
