<svg width="32" height="28" viewBox="0 0 32 28" fill="none" xmlns="http://www.w3.org/2000/svg">
<path fill-rule="evenodd" clip-rule="evenodd" d="M4 0C1.79086 0 0 1.79086 0 4V9C0 11.2091 1.79086 13 4 13H9C11.2091 13 13 11.2091 13 9V4C13 1.79086 11.2091 0 9 0H4ZM24 2H25C27.2091 2 29 3.79086 29 6V7C29 9.20914 27.2091 11 25 11H24C21.7909 11 20 9.20914 20 7V6C20 3.79086 21.7909 2 24 2ZM18 6C18 2.68629 20.6863 0 24 0H25C28.3137 0 31 2.68629 31 6V7C31 10.3137 28.3137 13 25 13H24C20.6863 13 18 10.3137 18 7V6ZM25 17C24.4477 17 24 17.4477 24 18V21H21C20.4477 21 20 21.4477 20 22C20 22.5523 20.4477 23 21 23H24V26C24 26.5523 24.4477 27 25 27C25.5523 27 26 26.5523 26 26V23H29C29.5523 23 30 22.5523 30 22C30 21.4477 29.5523 21 29 21H26V18C26 17.4477 25.5523 17 25 17ZM4 15C1.79086 15 0 16.7909 0 19V24C0 26.2091 1.79086 28 4 28H9C11.2091 28 13 26.2091 13 24V19C13 16.7909 11.2091 15 9 15H4Z" fill="black"/>
</svg>
