<svg width="32" height="32" viewBox="0 0 32 32" fill="none" xmlns="http://www.w3.org/2000/svg">
<path fill-rule="evenodd" clip-rule="evenodd" d="M16.1999 4.5H22.9999C25.4852 4.5 27.4999 6.51472 27.4999 9V15.8C27.4999 18.2853 25.4852 20.3 22.9999 20.3H22.8V16.2C22.8 12.334 19.666 9.20001 15.8 9.20001H11.6999V9C11.6999 6.51472 13.7146 4.5 16.1999 4.5ZM9.19989 9.20001V9C9.19989 5.13401 12.3339 2 16.1999 2H22.9999C26.8659 2 29.9999 5.13401 29.9999 9V15.8C29.9999 19.666 26.8659 22.8 22.9999 22.8H22.8V23C22.8 26.866 19.666 30 15.8 30H9C5.13401 30 2 26.866 2 23V16.2C2 12.334 5.13401 9.20001 9 9.20001H9.19989ZM20.3 22.8V23C20.3 25.4853 18.2853 27.5 15.8 27.5H9C6.51472 27.5 4.5 25.4853 4.5 23V16.2C4.5 13.7147 6.51472 11.7 9 11.7H9.19989V15.8C9.19989 19.666 12.3339 22.8 16.1999 22.8H20.3ZM20.3 20.3H16.1999C13.7146 20.3 11.6999 18.2853 11.6999 15.8V11.7H15.8C18.2853 11.7 20.3 13.7147 20.3 16.2V20.3Z" fill="black"/>
</svg>
