<svg width="32" height="32" viewBox="0 0 32 32" fill="none" xmlns="http://www.w3.org/2000/svg">
<path fill-rule="evenodd" clip-rule="evenodd" d="M15.7142 3.5H23.9999C26.4852 3.5 28.4999 5.51472 28.4999 8V16.2857C28.4999 18.771 26.4852 20.7857 24 20.7857H23.2857V15.7143C23.2857 11.8483 20.1517 8.71429 16.2857 8.71429H11.2142V8C11.2142 5.51472 13.229 3.5 15.7142 3.5ZM8.71423 8.71429V8C8.71423 4.13401 11.8482 1 15.7142 1H23.9999C27.8659 1 30.9999 4.13401 30.9999 8V16.2857C30.9999 20.1517 27.8659 23.2857 24 23.2857H23.2857V24C23.2857 27.866 20.1517 31 16.2857 31H8C4.13401 31 1 27.866 1 24V15.7143C1 11.8483 4.13401 8.71429 8 8.71429H8.71423ZM20.7857 23.2857V24C20.7857 26.4853 18.771 28.5 16.2857 28.5H8C5.51472 28.5 3.5 26.4853 3.5 24V15.7143C3.5 13.229 5.51472 11.2143 8 11.2143H8.71423V16.2857C8.71423 20.1517 11.8482 23.2857 15.7142 23.2857H20.7857ZM20.7857 20.7857H15.7142C13.229 20.7857 11.2142 18.771 11.2142 16.2857V11.2143H16.2857C18.771 11.2143 20.7857 13.229 20.7857 15.7143V20.7857Z" fill="black"/>
</svg>
