<svg width="32" height="32" viewBox="0 0 32 32" fill="none" xmlns="http://www.w3.org/2000/svg">
<g clip-path="url(#clip0_1847_10539)">
<path d="M16 0C7.06667 0 0 7.06667 0 16C0 24.9333 7.06667 32 16 32C24.9333 32 32 24.9333 32 16C32 7.06667 24.9333 0 16 0ZM16 2.66667C23.3333 2.66667 29.3333 8.66667 29.3333 16V16.1333C26.8 14.6667 23.4667 13.0667 23.3333 12.9333C22.9333 12.8 22.4 12.8 21.8667 13.0667L16.6667 16.8L10.6667 14.8C10.2667 14.6667 10 14.8 9.6 14.9333L3.06667 18.8C2.93333 17.8667 2.66667 17.0667 2.66667 16.1333C2.66667 8.66667 8.66667 2.66667 16 2.66667Z" fill="#1E1E1E"/>
</g>
<defs>
<clipPath id="clip0_1847_10539">
<rect width="32" height="32" fill="white"/>
</clipPath>
</defs>
</svg>
