<svg width="32" height="32" viewBox="0 0 32 32" fill="none" xmlns="http://www.w3.org/2000/svg">
<path d="M32 7.18033V6.13211H27.4927V7.18033H29.2222V24.8196H27.4927V25.8678H32V24.8196H30.2705V7.18033H32Z" fill="#333E48"/>
<path d="M0.194478 21.6014L5.46974 9.6886C5.83753 8.86713 6.50752 8.36969 7.41584 8.36969H7.61041C8.51816 8.36969 9.16698 8.86703 9.53439 9.6886L14.8098 21.6014C14.918 21.8393 14.983 22.0554 14.983 22.2717C14.983 23.1581 14.2911 23.8715 13.4046 23.8715C12.6263 23.8715 12.1073 23.4176 11.8047 22.7256L10.7887 20.3475H4.12957L3.07015 22.8339C2.78902 23.4824 2.22704 23.8715 1.53512 23.8715C0.669993 23.8715 0 23.1797 0 22.3149C0 22.077 0.0863718 21.8393 0.194478 21.6014ZM9.55622 17.4071L7.45893 12.4128L5.36183 17.4071H9.55622Z" fill="#1E252B"/>
<path d="M16.5604 20.4123V20.369C16.5604 17.8394 18.4846 16.6719 21.2304 16.6719C22.398 16.6719 23.2413 16.8665 24.0629 17.1476V16.9531C24.0629 15.5909 23.2196 14.8343 21.5764 14.8343C20.6684 14.8343 19.9333 14.964 19.3063 15.1586C19.1118 15.2235 18.982 15.245 18.8304 15.245C18.0739 15.245 17.4686 14.6613 17.4686 13.9046C17.4686 13.3208 17.836 12.8236 18.3548 12.6289C19.3926 12.2398 20.517 12.0236 22.052 12.0236C23.8464 12.0236 25.1437 12.4992 25.9654 13.3207C26.8301 14.1855 27.2193 15.4612 27.2193 17.0179V22.2931C27.2193 23.1797 26.5058 23.8715 25.6193 23.8715C24.668 23.8715 24.0411 23.2013 24.0411 22.5094V22.4877C23.2412 23.3741 22.1383 23.9578 20.5386 23.9578C18.3548 23.958 16.5604 22.7042 16.5604 20.4123ZM24.1059 19.6555V19.0718C23.5438 18.8124 22.8087 18.6394 22.0088 18.6394C20.6033 18.6394 19.7386 19.2015 19.7386 20.2392V20.2825C19.7386 21.169 20.4737 21.6878 21.533 21.6878C23.0681 21.6879 24.1059 20.8448 24.1059 19.6555Z" fill="#1E252B"/>
</svg>
