<svg width="32" height="32" viewBox="0 0 32 32" fill="none" xmlns="http://www.w3.org/2000/svg">
<path d="M32 7.1803V6.13208H27.4927V7.1803H29.2222V24.8195H27.4927V25.8678H32V24.8195H30.2705V7.1803H32Z" fill="#1E252B"/>
<path fill-rule="evenodd" clip-rule="evenodd" d="M0.194478 21.6014L5.46974 9.68857C5.83753 8.8671 6.50752 8.36966 7.41584 8.36966H7.61041C8.51816 8.36966 9.16698 8.867 9.53439 9.68857L14.8098 21.6014C14.918 21.8392 14.983 22.0554 14.983 22.2717C14.983 23.1581 14.2911 23.8715 13.4046 23.8715C12.6263 23.8715 12.1073 23.4175 11.8047 22.7255L10.7887 20.3475H4.12957L3.07015 22.8338C2.78902 23.4824 2.22704 23.8715 1.53512 23.8715C0.669993 23.8715 0 23.1797 0 22.3148C0 22.077 0.0863718 21.8392 0.194478 21.6014ZM9.55622 17.4071L7.45893 12.4128L5.36183 17.4071H9.55622Z" fill="#1E252B"/>
<path fill-rule="evenodd" clip-rule="evenodd" d="M16.5604 20.3689V20.4122C16.5604 22.7042 18.3548 23.958 20.5386 23.9578C22.1383 23.9578 23.2412 23.3741 24.0411 22.4877V22.5093C24.0411 23.2012 24.668 23.8714 25.6193 23.8714C26.5058 23.8714 27.2193 23.1797 27.2193 22.2931V17.0179C27.2193 15.4612 26.8301 14.1855 25.9654 13.3207C25.1437 12.4991 23.8464 12.0235 22.052 12.0235C20.517 12.0235 19.3926 12.2397 18.3548 12.6289C17.836 12.8236 17.4686 13.3208 17.4686 13.9046C17.4686 14.6613 18.0739 15.245 18.8304 15.245C18.982 15.245 19.1118 15.2234 19.3063 15.1586C19.9333 14.9639 20.6684 14.8343 21.5764 14.8343C23.2196 14.8343 24.0629 15.5908 24.0629 16.953V17.1476C23.2413 16.8665 22.398 16.6719 21.2304 16.6719C18.4846 16.6719 16.5604 17.8394 16.5604 20.3689ZM24.1059 19.0718V19.6555C24.1059 20.8447 23.0681 21.6879 21.533 21.6878C20.4737 21.6878 19.7386 21.169 19.7386 20.2825V20.2392C19.7386 19.2015 20.6033 18.6393 22.0088 18.6393C22.8087 18.6393 23.5438 18.8124 24.1059 19.0718Z" fill="#1E252B"/>
</svg>
