<svg width="32" height="32" viewBox="0 0 32 32" fill="none" xmlns="http://www.w3.org/2000/svg">
<path d="M18.5263 8.75H15.9832C14.9221 8.75 13.8779 9.25625 13.3053 9.93125L11.7895 5.375H6.95579L2.93053 17.1875H5.77684L7.02316 13.8125H11.7895V20.5625H3.36842C1.51579 20.5625 0 19.0438 0 17.1875V5.375C0 3.51875 1.51579 2 3.36842 2H15.1579C17.0105 2 18.5263 3.51875 18.5263 5.375V8.75ZM10.9642 12.125H7.56211L9.24632 7.18063L10.9642 12.125ZM16.8421 10.4375H28.6316C30.4842 10.4375 32 11.9562 32 13.8125V25.625C32 27.4812 30.4842 29 28.6316 29H16.8421C14.9895 29 13.4737 27.4812 13.4737 25.625V13.8125C13.4737 11.9562 14.9895 10.4375 16.8421 10.4375ZM29.0526 18.875V17.0525H23.7137V13.3906H21.76V17.0525H16.4211V18.875H18.5768C18.7621 20.3094 19.52 21.9969 20.7326 23.2962C19.2674 23.9037 17.5495 24.3425 16.8421 24.3425C16.8253 24.3763 17.2126 25.9794 17.1789 26.8063C18.5937 26.8063 20.9011 25.9625 22.7032 24.8656C24.5389 25.9625 26.88 26.8063 28.3284 26.8063C28.2947 25.9794 28.6653 24.3763 28.6653 24.3425C27.9411 24.3425 26.1558 23.8869 24.6568 23.2794C25.8358 21.98 26.5768 20.2925 26.7621 18.875H29.0526ZM22.6358 22.1319C21.7937 21.3556 21.2042 20.225 20.9347 18.875H24.4547C24.1684 20.225 23.5958 21.3556 22.7705 22.1319L22.7032 22.1825C22.7032 22.1825 22.6526 22.1488 22.6358 22.1319Z" fill="#1E1E1E"/>
</svg>
