<svg width="32" height="32" viewBox="0 0 32 32" fill="none" xmlns="http://www.w3.org/2000/svg">
<path d="M11.9998 30.3333H19.9998C27.2398 30.3333 30.3332 27.2399 30.3332 19.9999V11.9999C30.3332 7.38657 29.0665 4.51989 26.3732 2.98656C25.6932 2.59989 24.5065 2.2799 22.7598 1.9999C22.2265 1.90657 21.7065 2.27989 21.6132 2.82656C21.5198 3.37322 21.8932 3.89325 22.4398 3.97325C24.4665 4.29325 25.1732 4.61322 25.3865 4.73322C27.4265 5.89322 28.3332 8.13324 28.3332 11.9999V19.9999C28.3332 26.1466 26.1465 28.3333 19.9998 28.3333H11.9998C5.85317 28.3333 3.6665 26.1466 3.6665 19.9999V15.9999C3.6665 15.4533 3.21317 14.9999 2.6665 14.9999C2.11984 14.9999 1.6665 15.4533 1.6665 15.9999V19.9999C1.6665 27.2399 4.75984 30.3333 11.9998 30.3333Z" fill="black"/>
<path d="M23.9999 18.3333H17.3333C16.7866 18.3333 16.3333 17.8799 16.3333 17.3333C16.3333 16.7866 16.7866 16.3333 17.3333 16.3333H23.9999C24.5466 16.3333 24.9999 16.7866 24.9999 17.3333C24.9999 17.8799 24.5466 18.3333 23.9999 18.3333Z" fill="black"/>
<path d="M14.6665 23.6666H23.9998C24.5465 23.6666 24.9998 23.2133 24.9998 22.6666C24.9998 22.1199 24.5465 21.6666 23.9998 21.6666H14.6665C14.1198 21.6666 13.6665 22.1199 13.6665 22.6666C13.6665 23.2133 14.1198 23.6666 14.6665 23.6666Z" fill="black"/>
<path d="M14.2057 7.79435C15.7025 9.29115 15.7988 11.6699 14.4914 13.2775C14.3085 13.504 14.4098 13.3908 12.0029 15.7977C10.4005 17.4001 7.80564 17.4015 6.2024 15.7977C4.59954 14.1954 4.59886 11.6007 6.2024 9.99718C7.16255 9.03703 7.721 8.4767 8.06008 8.13809C8.27873 7.91977 8.65572 8.06912 8.66026 8.37809C8.66571 8.75149 8.71234 9.12315 8.7993 9.48633C8.8276 9.60437 8.79133 9.72858 8.70549 9.8144L7.36226 11.1573C6.40264 12.1175 6.39878 13.6737 7.36226 14.6378C8.32247 15.5974 9.87863 15.6013 10.8427 14.6378L13.0456 12.4347C14.0041 11.4759 14.0058 9.91477 13.0456 8.9545C12.851 8.75962 12.6251 8.59889 12.3772 8.47904C12.2417 8.41362 12.1668 8.26664 12.185 8.11734C12.2247 7.79151 12.3694 7.47618 12.619 7.22657L12.7472 7.0984C12.8534 6.99217 13.016 6.96381 13.1503 7.03119C13.5311 7.22233 13.8882 7.47683 14.2057 7.79435ZM18.7976 3.20235C17.1944 1.5985 14.5995 1.59993 12.9971 3.20235C10.5902 5.60927 10.6915 5.49601 10.5086 5.72247C9.2012 7.33008 9.29747 9.70887 10.7943 11.2057C11.1118 11.5232 11.4689 11.7777 11.8497 11.9688C11.9839 12.0362 12.1466 12.0078 12.2528 11.9016L12.381 11.7734C12.6306 11.5239 12.7753 11.2085 12.815 10.8827C12.8332 10.7334 12.7582 10.5864 12.6228 10.521C12.3749 10.4011 12.149 10.2404 11.9544 10.0455C10.9942 9.08525 10.9959 7.52408 11.9544 6.56534L14.1573 4.36222C15.1214 3.39873 16.6775 3.4026 17.6377 4.36222C18.6012 5.32632 18.5974 6.88248 17.6377 7.84269L16.2945 9.18566C16.2087 9.27147 16.1724 9.39568 16.2007 9.51372C16.2877 9.8769 16.3343 10.2486 16.3398 10.622C16.3443 10.9309 16.7213 11.0803 16.9399 10.862C17.279 10.5234 17.8375 9.96302 18.7976 9.00287C20.4011 7.39931 20.4005 4.80463 18.7976 3.20235Z" fill="black"/>
</svg>
