<svg width="32" height="32" viewBox="0 0 32 32" fill="none" xmlns="http://www.w3.org/2000/svg">
<path fill-rule="evenodd" clip-rule="evenodd" d="M24.184 15C24.598 13.839 25.698 13 27 13C28.654 13 30.001 14.348 30.001 16.002C30.001 17.656 28.655 19.002 27.001 19.002C25.699 19.002 24.599 18.163 24.185 17.002H18.99C18.9875 17.0196 18.9867 17.0369 18.986 17.0543C18.9852 17.0716 18.9845 17.0891 18.982 17.107L19.497 17.401C19.728 17.533 19.897 17.753 19.966 18.01C20.035 18.267 19.998 18.542 19.864 18.772L17.846 22.236C17.568 22.711 16.963 22.875 16.485 22.6L15.96 22.3C15.367 22.76 14.71 23.137 14.018 23.416V24C14.018 24.552 13.57 25 13.018 25H12V28H21V19C21 18.448 21.448 18 22 18C22.552 18 23 18.448 23 19V29C23 29.552 22.552 30 22 30H11C10.448 30 10 29.552 10 29V25H8.982C8.43 25 7.982 24.552 7.982 24V23.416C7.29 23.137 6.633 22.76 6.04 22.3L5.515 22.6C5.04 22.874 4.431 22.71 4.154 22.235L2.136 18.771C2.002 18.541 1.965 18.266 2.034 18.009C2.103 17.752 2.272 17.532 2.503 17.4L3.019 17.106C2.964 16.733 2.937 16.364 2.937 16C2.937 15.636 2.964 15.267 3.018 14.894L2.503 14.6C2.272 14.468 2.103 14.248 2.034 13.991C1.965 13.734 2.002 13.459 2.136 13.229L4.154 9.765C4.431 9.29 5.039 9.128 5.515 9.4L6.04 9.701C6.633 9.24 7.29 8.863 7.982 8.584V8C7.982 7.448 8.43 7 8.982 7H10V3C10 2.448 10.448 2 11 2H22C22.552 2 23 2.448 23 3V13C23 13.552 22.552 14 22 14C21.448 14 21 13.552 21 13V4H12V7H13.018C13.57 7 14.018 7.448 14.018 8V8.584C14.71 8.863 15.367 9.24 15.96 9.7L16.485 9.4C16.961 9.127 17.569 9.29 17.846 9.766L19.864 13.23C19.998 13.46 20.035 13.735 19.966 13.992C19.897 14.249 19.728 14.469 19.497 14.601L18.982 14.895C18.9845 14.9126 18.9853 14.9299 18.986 14.9473C18.9868 14.9646 18.9875 14.9821 18.99 15H24.184ZM16.344 20.215L16.617 20.371L17.626 18.637L17.367 18.489C16.982 18.268 16.788 17.82 16.891 17.388C17.004 16.915 17.061 16.449 17.061 16.001C17.061 15.553 17.004 15.087 16.891 14.614C16.788 14.182 16.982 13.734 17.367 13.513L17.626 13.365L16.615 11.63L16.342 11.786C15.961 12.004 15.483 11.948 15.162 11.648C14.471 11 13.631 10.518 12.734 10.253C12.309 10.128 12.017 9.737 12.017 9.294V9H9.981V9.293C9.981 9.736 9.689 10.127 9.264 10.252C8.367 10.517 7.527 10.999 6.836 11.647C6.516 11.948 6.037 12.004 5.656 11.785L5.383 11.629L4.372 13.364L4.631 13.512C5.017 13.733 5.211 14.182 5.107 14.614C4.994 15.084 4.937 15.551 4.937 16C4.937 16.449 4.994 16.916 5.107 17.386C5.211 17.819 5.017 18.267 4.631 18.488L4.372 18.636L5.383 20.371L5.656 20.215C6.037 19.997 6.516 20.054 6.836 20.353C7.528 21 8.368 21.482 9.265 21.747C9.69 21.872 9.982 22.263 9.982 22.706V23H12.019V22.707C12.019 22.264 12.311 21.873 12.736 21.748C13.633 21.483 14.473 21.001 15.164 20.353C15.485 20.054 15.964 19.997 16.344 20.215ZM26 16C26 16.551 26.449 17 27 17C27.551 17 28 16.551 28 16C28 15.449 27.551 15 27 15C26.449 15 26 15.449 26 16ZM9.70701 13.293C9.31601 12.902 8.68401 12.902 8.29301 13.293L6.29301 15.293C5.90201 15.684 5.90201 16.316 6.29301 16.707L8.29301 18.707C8.48801 18.902 8.74401 19 9.00001 19C9.25601 19 9.51201 18.902 9.70701 18.707C10.098 18.316 10.098 17.684 9.70701 17.293L8.41401 16L9.70701 14.707C10.098 14.316 10.098 13.684 9.70701 13.293ZM13.707 13.293C13.316 12.902 12.684 12.902 12.293 13.293C11.902 13.684 11.902 14.316 12.293 14.707L13.586 16L12.293 17.293C11.902 17.684 11.902 18.316 12.293 18.707C12.488 18.902 12.744 19 13 19C13.256 19 13.512 18.902 13.707 18.707L15.707 16.707C16.098 16.316 16.098 15.684 15.707 15.293L13.707 13.293Z" fill="black"/>
</svg>
