<svg width="32" height="32" viewBox="0 0 32 32" fill="none" xmlns="http://www.w3.org/2000/svg">
<g clip-path="url(#clip0_1847_10523)">
<path d="M28.4 0H3.6C1.6 0 0 1.6 0 3.6V28.5333C0 30.4 1.6 32 3.6 32H28.5333C30.5333 32 32.1333 30.4 32.1333 28.4V3.6C32 1.6 30.4 0 28.4 0ZM29.3333 28.4C29.3333 28.9333 28.9333 29.3333 28.4 29.3333H3.6C3.06667 29.3333 2.66667 28.9333 2.66667 28.4V12.1333L11.0667 2.66667H28.5333C28.9333 2.66667 29.3333 3.06667 29.3333 3.6V28.4ZM12.4 21.3333L21.3333 16L12.4 10.6667V21.3333Z" fill="#1E1E1E"/>
</g>
<defs>
<clipPath id="clip0_1847_10523">
<rect width="32" height="32" fill="white"/>
</clipPath>
</defs>
</svg>
