<svg width="32" height="32" viewBox="0 0 32 32" fill="none" xmlns="http://www.w3.org/2000/svg">
<g clip-path="url(#clip0_1847_10531)">
<path fill-rule="evenodd" clip-rule="evenodd" d="M16 30C8.26801 30 2 23.732 2 16C2 8.26801 8.26801 2 16 2C23.732 2 30 8.26801 30 16C30 23.732 23.732 30 16 30ZM0 16C0 7.16344 7.16344 0 16 0C24.8366 0 32 7.16344 32 16C32 24.8366 24.8366 32 16 32C7.16344 32 0 24.8366 0 16ZM9 10C8.44771 10 8 10.4477 8 11C8 11.5523 8.44771 12 9 12H24C24.5523 12 25 11.5523 25 11C25 10.4477 24.5523 10 24 10H9ZM8 16C8 15.4477 8.44771 15 9 15H24C24.5523 15 25 15.4477 25 16C25 16.5523 24.5523 17 24 17H9C8.44771 17 8 16.5523 8 16ZM9 20C8.44771 20 8 20.4477 8 21C8 21.5523 8.44771 22 9 22H24C24.5523 22 25 21.5523 25 21C25 20.4477 24.5523 20 24 20H9Z" fill="black"/>
</g>
<defs>
<clipPath id="clip0_1847_10531">
<rect width="32" height="32" fill="white"/>
</clipPath>
</defs>
</svg>
