<svg width="32" height="32" viewBox="0 0 32 32" fill="none" xmlns="http://www.w3.org/2000/svg">
<path fill-rule="evenodd" clip-rule="evenodd" d="M17.1867 29.6801C17.48 29.7868 17.7867 29.8401 18.0933 29.8401C18.8 29.8401 19.4933 29.5468 19.9867 28.9868L30.08 17.5201C30.7467 16.7601 30.9067 15.7201 30.4934 14.8001C30.08 13.8801 29.2 13.3067 28.1867 13.3067H25.0666V4.70673C25.0666 3.64006 24.4267 2.70673 23.4267 2.3334C22.4267 1.94673 21.3334 2.22673 20.6267 3.02673L10.5333 14.4935C9.86663 15.2535 9.70663 16.2935 10.12 17.2135C10.5333 18.1335 11.4133 18.7068 12.4266 18.7068H15.5467V27.3068C15.5467 28.3735 16.1867 29.3068 17.1867 29.6801ZM22.12 4.34673C22.24 4.20006 22.3867 4.16006 22.5067 4.16006C22.5867 4.16006 22.6667 4.1734 22.7067 4.20006C22.8134 4.24006 23.0534 4.3734 23.0534 4.70673V14.3068C23.0534 14.8535 23.5067 15.3068 24.0534 15.3068H28.1733C28.4933 15.3068 28.6267 15.5335 28.6667 15.6268C28.7067 15.7201 28.7867 15.9601 28.5734 16.2001L18.4799 27.6801C18.2666 27.9335 18 27.8668 17.8933 27.8268C17.7867 27.7868 17.5467 27.6535 17.5467 27.3201V17.7201C17.5467 17.1735 17.0933 16.7201 16.5467 16.7201H12.4266C12.1066 16.7201 11.9733 16.4935 11.9333 16.4001C11.8933 16.3068 11.8133 16.0668 12.0266 15.8268L22.12 4.34673ZM2 6.33334H11.3333C11.88 6.33334 12.3333 5.88001 12.3333 5.33334C12.3333 4.78668 11.88 4.33334 11.3333 4.33334H2C1.45333 4.33334 1 4.78668 1 5.33334C1 5.88001 1.45333 6.33334 2 6.33334ZM11 26.6667C11 27.2133 10.5467 27.6667 10 27.6667H2C1.45333 27.6667 1 27.2133 1 26.6667C1 26.12 1.45333 25.6667 2 25.6667H10C10.5467 25.6667 11 26.12 11 26.6667ZM2 17H6C6.54667 17 7 16.5467 7 16C7 15.4533 6.54667 15 6 15H2C1.45333 15 1 15.4533 1 16C1 16.5467 1.45333 17 2 17Z" fill="black"/>
</svg>
