<svg width="31" height="32" viewBox="0 0 31 32" fill="none" xmlns="http://www.w3.org/2000/svg">
<path fill-rule="evenodd" clip-rule="evenodd" d="M19.7335 2.57879C25.1058 3.64298 27.4735 15.9517 21.473 17.2766C21.9603 17.7039 23.3022 18.2596 24.4006 19.7853C26.888 23.2471 25.5973 25.6662 25.6828 27.0893C26.4913 26.4654 27.2103 25.7335 27.8197 24.9139C30.3027 21.7214 31.4952 17.8749 30.6447 13.8019C30.4521 14.1358 30.2243 14.4482 29.9652 14.7337C30.0934 9.605 25.3836 2.33945 19.7335 2.60016M16.9428 27.7603C13.1134 26.2046 3.83056 25.8756 0.411481 21.4607C2.17659 25.2815 6.34359 26.7046 10.3696 27.5851C14.1134 28.4099 18.7378 27.8372 19.8704 32C20.5841 30.2563 18.7762 28.5125 16.9256 27.7603M19.4002 31.9316C18.4728 28.7305 11.2286 28.8245 5.33923 27.0594C4.16878 26.7086 3.02595 26.2715 1.92015 25.7516C8.10441 30.4827 14.0536 28.4911 18.2719 30.9571C19.0155 31.4101 18.9087 31.4871 19.4173 31.9316M21.8534 12.1266C21.8234 9.2118 19.4728 9.18615 17.8445 9.10923C17.4685 9.10923 15.4853 8.42968 14.0621 9.13059H13.1476C12.5364 9.13059 11.7115 9.19898 11.1901 8.80579L10.7628 8.3784C10.7381 8.34776 10.7109 8.31917 10.6815 8.29292C10.6877 8.98172 10.9428 9.64504 11.3995 10.1606C11.656 10.4469 12.3911 11.0154 12.9168 11.0154L12.2842 12.9001C11.0362 17.8706 14.2759 18.6912 17.5668 21.0718C19.3062 22.3538 21.2978 24.1532 20.9858 26.5252C20.9858 25.9567 20.1652 24.6104 19.8618 24.1917C16.4983 19.5802 2.03981 16.4004 9.90798 4.71998C10.8898 3.21886 12.2596 2.01149 13.8721 1.22594C15.4845 0.440377 17.2797 0.105933 19.0668 0.258083C18.7207 0.189701 18.3445 0.112771 18.1052 0.0871281C9.01902 -0.853119 1.4714 5.92949 1.12948 14.9773L0.411481 13.3959C-0.199679 14.7507 -0.118476 17.9775 0.578159 19.4006C2.01844 22.9736 6.74106 24.5293 10.1473 25.3542C14.8699 26.5295 21.3534 26.3542 20.2934 31.6453C22.3749 31.1367 25.3494 26.2473 24.9946 23.6061C24.7879 22.0642 24.1184 20.6211 23.0746 19.4674C22.0308 18.3137 20.6618 17.5037 19.1481 17.144C18.6697 17.0843 18.2095 16.9241 17.7975 16.674C17.3701 16.4004 17.1222 15.9901 16.7975 15.8491C16.5865 15.4324 16.4217 14.9938 16.3059 14.5413C16.2249 13.9818 16.2923 13.4109 16.5016 12.8858C16.7109 12.3607 17.0547 11.8998 17.4983 11.5496C18.9728 10.3401 20.52 11.1906 21.8534 12.1394M16.5496 9.79732C16.5893 9.82338 16.6219 9.8589 16.6444 9.90068C16.6669 9.94246 16.6787 9.98919 16.6787 10.0367C16.6787 10.0841 16.6669 10.1309 16.6444 10.1726C16.6219 10.2144 16.5893 10.2499 16.5496 10.276C16.5016 10.3082 16.4449 10.3246 16.3872 10.323L15.699 10.3016C15.6418 10.3001 15.5865 10.2807 15.5409 10.2461C15.5012 10.2195 15.4687 10.1836 15.4462 10.1415C15.4238 10.0993 15.4121 10.0523 15.4121 10.0046C15.4121 9.95686 15.4238 9.90986 15.4462 9.86773C15.4687 9.82562 15.5012 9.78969 15.5409 9.76313C15.5895 9.73272 15.6461 9.71782 15.7033 9.72039L16.3915 9.74176C16.4486 9.74355 16.5038 9.76296 16.5496 9.79732Z" fill="#121212"/>
</svg>
