<svg width="36" height="36" viewBox="0 0 36 36" fill="none" xmlns="http://www.w3.org/2000/svg">
<path d="M32.9489 16.5123C32.9489 17.0646 33.3966 17.5123 33.9489 17.5123C34.5011 17.5123 34.9489 17.0646 34.9489 16.5123H32.9489ZM13.2342 27.6717L14.1087 27.1867C13.9325 26.8689 13.5976 26.6717 13.2342 26.6717V27.6717ZM16.335 33.2634L15.4605 33.7484L15.4605 33.7484L16.335 33.2634ZM18.6424 33.2634L19.5169 33.7484L19.5169 33.7484L18.6424 33.2634ZM21.7432 27.6717V26.6717C21.3798 26.6717 21.045 26.8689 20.8687 27.1867L21.7432 27.6717ZM34.9489 23.4869C34.9489 22.9346 34.5011 22.4869 33.9489 22.4869C33.3966 22.4869 32.9489 22.9346 32.9489 23.4869H34.9489ZM26.2768 15.3501C26.829 15.3501 27.2768 14.9024 27.2768 14.3501C27.2768 13.7978 26.829 13.3501 26.2768 13.3501V15.3501ZM8.70067 13.3501C8.14838 13.3501 7.70067 13.7978 7.70067 14.3501C7.70067 14.9024 8.14838 15.3501 8.70067 15.3501V13.3501ZM18.6047 20.9298C19.1569 20.9298 19.6047 20.4821 19.6047 19.9298C19.6047 19.3776 19.1569 18.9298 18.6047 18.9298V20.9298ZM8.70067 18.9298C8.14838 18.9298 7.70067 19.3776 7.70067 19.9298C7.70067 20.4821 8.14838 20.9298 8.70067 20.9298V18.9298ZM33.9489 7.67803C34.5011 7.67803 34.9489 7.23031 34.9489 6.67803C34.9489 6.12574 34.5011 5.67803 33.9489 5.67803V7.67803ZM1.02856 5.67803C0.47628 5.67803 0.0285645 6.12574 0.0285645 6.67803C0.0285645 7.23031 0.47628 7.67803 1.02856 7.67803V5.67803ZM34.9489 16.5123V3.81842H32.9489V16.5123H34.9489ZM34.9489 3.81842C34.9489 1.72537 33.2521 0.0285645 31.159 0.0285645V2.02856C32.1475 2.02856 32.9489 2.82994 32.9489 3.81842H34.9489ZM31.159 0.0285645H3.81842V2.02856H31.159V0.0285645ZM3.81842 0.0285645C1.72537 0.0285645 0.0285645 1.72537 0.0285645 3.81842H2.02856C2.02856 2.82994 2.82994 2.02856 3.81842 2.02856V0.0285645ZM0.0285645 3.81842V23.4869H2.02856V3.81842H0.0285645ZM0.0285645 23.4869C0.0285645 26.3504 2.34988 28.6717 5.21335 28.6717V26.6717C3.45445 26.6717 2.02856 25.2458 2.02856 23.4869H0.0285645ZM5.21335 28.6717H13.2342V26.6717H5.21335V28.6717ZM12.3597 28.1567L15.4605 33.7484L17.2096 32.7784L14.1087 27.1867L12.3597 28.1567ZM15.4605 33.7484C16.3437 35.341 18.6337 35.341 19.5169 33.7484L17.7679 32.7784C17.6463 32.9977 17.3311 32.9977 17.2096 32.7784L15.4605 33.7484ZM19.5169 33.7484L22.6178 28.1567L20.8687 27.1867L17.7679 32.7784L19.5169 33.7484ZM21.7432 28.6717H29.7641V26.6717H21.7432V28.6717ZM29.7641 28.6717C32.6276 28.6717 34.9489 26.3504 34.9489 23.4869H32.9489C32.9489 25.2458 31.523 26.6717 29.7641 26.6717V28.6717ZM26.2768 13.3501H8.70067V15.3501H26.2768V13.3501ZM18.6047 18.9298H8.70067V20.9298H18.6047V18.9298ZM33.9489 5.67803H1.02856V7.67803H33.9489V5.67803ZM34.8791 3.81842C34.8791 1.72537 33.1823 0.028565 31.0893 0.028565V2.02856C32.0777 2.02856 32.8791 2.82994 32.8791 3.81842H34.8791ZM31.0893 0.028565C28.9962 0.028565 27.2994 1.72537 27.2994 3.81842H29.2994C29.2994 2.82994 30.1008 2.02856 31.0893 2.02856V0.028565ZM27.2994 3.81842C27.2994 5.91147 28.9962 7.60828 31.0893 7.60828V5.60828C30.1008 5.60828 29.2994 4.8069 29.2994 3.81842H27.2994ZM31.0893 7.60828C33.1823 7.60828 34.8791 5.91147 34.8791 3.81842H32.8791C32.8791 4.8069 32.0777 5.60828 31.0893 5.60828V7.60828ZM29.2994 3.81842C29.2994 1.72537 27.6026 0.028565 25.5096 0.028565V2.02856C26.498 2.02856 27.2994 2.82994 27.2994 3.81842H29.2994ZM25.5096 0.028565C23.4165 0.028565 21.7197 1.72537 21.7197 3.81842H23.7197C23.7197 2.82994 24.5211 2.02856 25.5096 2.02856V0.028565ZM21.7197 3.81842C21.7197 5.91147 23.4165 7.60828 25.5096 7.60828V5.60828C24.5211 5.60828 23.7197 4.8069 23.7197 3.81842H21.7197ZM25.5096 7.60828C27.6026 7.60828 29.2994 5.91147 29.2994 3.81842H27.2994C27.2994 4.8069 26.498 5.60828 25.5096 5.60828V7.60828Z" fill="black"/>
</svg>
