<svg width="36" height="36" viewBox="0 0 36 36" fill="none" xmlns="http://www.w3.org/2000/svg">
<path d="M32.9491 16.5123C32.9491 17.0646 33.3968 17.5123 33.9491 17.5123C34.5014 17.5123 34.9491 17.0646 34.9491 16.5123H32.9491ZM13.2344 27.6717L14.109 27.1867C13.9327 26.8689 13.5979 26.6717 13.2344 26.6717V27.6717ZM16.3353 33.2634L15.4608 33.7484L15.4608 33.7484L16.3353 33.2634ZM18.6426 33.2634L19.5172 33.7484L19.5172 33.7484L18.6426 33.2634ZM21.7435 27.6717V26.6717C21.38 26.6717 21.0452 26.8689 20.869 27.1867L21.7435 27.6717ZM34.9491 23.4869C34.9491 22.9346 34.5014 22.4869 33.9491 22.4869C33.3968 22.4869 32.9491 22.9346 32.9491 23.4869H34.9491ZM26.277 15.3501C26.8293 15.3501 27.277 14.9024 27.277 14.3501C27.277 13.7978 26.8293 13.3501 26.277 13.3501V15.3501ZM8.70091 13.3501C8.14863 13.3501 7.70091 13.7978 7.70091 14.3501C7.70091 14.9024 8.14863 15.3501 8.70091 15.3501V13.3501ZM18.6049 20.9298C19.1572 20.9298 19.6049 20.4821 19.6049 19.9298C19.6049 19.3776 19.1572 18.9298 18.6049 18.9298V20.9298ZM8.70091 18.9298C8.14863 18.9298 7.70091 19.3776 7.70091 19.9298C7.70091 20.4821 8.14863 20.9298 8.70091 20.9298V18.9298ZM33.9491 7.67803C34.5014 7.67803 34.9491 7.23031 34.9491 6.67803C34.9491 6.12574 34.5014 5.67803 33.9491 5.67803V7.67803ZM1.02881 5.67803C0.476524 5.67803 0.0288086 6.12574 0.0288086 6.67803C0.0288086 7.23031 0.476524 7.67803 1.02881 7.67803V5.67803ZM34.9491 16.5123V3.81842H32.9491V16.5123H34.9491ZM34.9491 3.81842C34.9491 1.72537 33.2523 0.0285645 31.1593 0.0285645V2.02856C32.1477 2.02856 32.9491 2.82994 32.9491 3.81842H34.9491ZM31.1593 0.0285645H3.81866V2.02856H31.1593V0.0285645ZM3.81866 0.0285645C1.72561 0.0285645 0.0288086 1.72537 0.0288086 3.81842H2.02881C2.02881 2.82994 2.83018 2.02856 3.81866 2.02856V0.0285645ZM0.0288086 3.81842V23.4869H2.02881V3.81842H0.0288086ZM0.0288086 23.4869C0.0288086 26.3504 2.35012 28.6717 5.21359 28.6717V26.6717C3.45469 26.6717 2.02881 25.2458 2.02881 23.4869H0.0288086ZM5.21359 28.6717H13.2344V26.6717H5.21359V28.6717ZM12.3599 28.1567L15.4608 33.7484L17.2098 32.7784L14.109 27.1867L12.3599 28.1567ZM15.4608 33.7484C16.3439 35.341 18.634 35.341 19.5172 33.7484L17.7681 32.7784C17.6465 32.9977 17.3314 32.9977 17.2098 32.7784L15.4608 33.7484ZM19.5172 33.7484L22.618 28.1567L20.869 27.1867L17.7681 32.7784L19.5172 33.7484ZM21.7435 28.6717H29.7643V26.6717H21.7435V28.6717ZM29.7643 28.6717C32.6278 28.6717 34.9491 26.3504 34.9491 23.4869H32.9491C32.9491 25.2458 31.5232 26.6717 29.7643 26.6717V28.6717ZM26.277 13.3501H8.70091V15.3501H26.277V13.3501ZM18.6049 18.9298H8.70091V20.9298H18.6049V18.9298ZM33.9491 5.67803H1.02881V7.67803H33.9491V5.67803ZM34.8794 3.81842C34.8794 1.72537 33.1826 0.028565 31.0895 0.028565V2.02856C32.078 2.02856 32.8794 2.82994 32.8794 3.81842H34.8794ZM31.0895 0.028565C28.9965 0.028565 27.2997 1.72537 27.2997 3.81842H29.2997C29.2997 2.82994 30.101 2.02856 31.0895 2.02856V0.028565ZM27.2997 3.81842C27.2997 5.91147 28.9965 7.60828 31.0895 7.60828V5.60828C30.101 5.60828 29.2997 4.8069 29.2997 3.81842H27.2997ZM31.0895 7.60828C33.1826 7.60828 34.8794 5.91147 34.8794 3.81842H32.8794C32.8794 4.8069 32.078 5.60828 31.0895 5.60828V7.60828ZM29.2997 3.81842C29.2997 1.72537 27.6028 0.028565 25.5098 0.028565V2.02856C26.4983 2.02856 27.2997 2.82994 27.2997 3.81842H29.2997ZM25.5098 0.028565C23.4167 0.028565 21.7199 1.72537 21.7199 3.81842H23.7199C23.7199 2.82994 24.5213 2.02856 25.5098 2.02856V0.028565ZM21.7199 3.81842C21.7199 5.91147 23.4167 7.60828 25.5098 7.60828V5.60828C24.5213 5.60828 23.7199 4.8069 23.7199 3.81842H21.7199ZM25.5098 7.60828C27.6028 7.60828 29.2997 5.91147 29.2997 3.81842H27.2997C27.2997 4.8069 26.4983 5.60828 25.5098 5.60828V7.60828Z" fill="black"/>
</svg>
