<svg width="32" height="32" viewBox="0 0 32 32" fill="none" xmlns="http://www.w3.org/2000/svg">
<g clip-path="url(#clip0_936_1414)">
<path d="M28.6667 16C28.6667 18.9333 26.2667 21.3333 23.3333 21.3333C20.8 21.3333 18.8 19.6 18.1333 17.3333L16.8 13.6C15.7333 10.1333 12.4 7.46668 8.53333 7.46668C3.86667 7.33334 0 11.2 0 16C0 20.8 3.86667 24.6667 8.66667 24.6667C9.73333 24.6667 10.8 24.4 11.8667 24.1333L10.6667 21.0667C10 21.2 9.33333 21.3333 8.66667 21.3333C5.73333 21.3333 3.33333 18.9333 3.33333 16C3.33333 13.0667 5.73333 10.6667 8.66667 10.6667C11.2 10.6667 13.2 12.4 13.8667 14.6667L15.0667 18.2667C16 22 19.4667 24.6667 23.4667 24.6667C28.2667 24.6667 32.1333 20.8 32.1333 16C32.1333 11.2 28.2667 7.33334 23.4667 7.33334C22.4 7.33334 21.3333 7.60001 20.2667 7.86668L21.4667 10.9333C22 10.8 22.6667 10.6667 23.3333 10.6667C26.2667 10.6667 28.6667 13.0667 28.6667 16Z" fill="#1E1E1E"/>
</g>
<defs>
<clipPath id="clip0_936_1414">
<rect width="32" height="32" fill="white"/>
</clipPath>
</defs>
</svg>
