<svg width="32" height="32" viewBox="0 0 32 32" fill="none" xmlns="http://www.w3.org/2000/svg">
<g clip-path="url(#clip0_1847_10513)">
<path d="M28.6667 15.9999C28.6667 18.9333 26.2667 21.3333 23.3333 21.3333C20.8 21.3333 18.8 19.5999 18.1333 17.3333L16.8 13.5999C15.7333 10.1333 12.4 7.46659 8.53333 7.46659C3.86667 7.33325 0 11.1999 0 15.9999C0 20.7999 3.86667 24.6666 8.66667 24.6666C9.73333 24.6666 10.8 24.3999 11.8667 24.1333L10.6667 21.0666C10 21.1999 9.33333 21.3333 8.66667 21.3333C5.73333 21.3333 3.33333 18.9333 3.33333 15.9999C3.33333 13.0666 5.73333 10.6666 8.66667 10.6666C11.2 10.6666 13.2 12.3999 13.8667 14.6666L15.0667 18.2666C16 21.9999 19.4667 24.6666 23.4667 24.6666C28.2667 24.6666 32.1333 20.7999 32.1333 15.9999C32.1333 11.1999 28.2667 7.33325 23.4667 7.33325C22.4 7.33325 21.3333 7.59992 20.2667 7.86659L21.4667 10.9333C22 10.7999 22.6667 10.6666 23.3333 10.6666C26.2667 10.6666 28.6667 13.0666 28.6667 15.9999Z" fill="#1E1E1E"/>
</g>
<defs>
<clipPath id="clip0_1847_10513">
<rect width="32" height="32" fill="white"/>
</clipPath>
</defs>
</svg>
