<svg width="32" height="32" viewBox="0 0 32 32" fill="none" xmlns="http://www.w3.org/2000/svg">
<path fill-rule="evenodd" clip-rule="evenodd" d="M8.04 21.0933C8.48 21.3467 8.95999 21.4667 9.43999 21.4667C9.95999 21.4667 10.4799 21.32 10.9599 21.0267L12.1866 20.2267C12.92 19.7867 13.48 18.76 13.48 17.84V13.9733C13.48 13.52 13.7333 12.9067 14.04 12.6533L17.9466 9.19999C18.5333 8.61332 19.1333 7.46668 19.1333 6.42668V4.45333C19.1333 2.90667 17.88 1.65332 16.3333 1.65332H4.4666C2.89327 1.65332 1.66663 2.93333 1.66663 4.54667V6.61332C1.66663 7.42665 2.11996 8.49332 2.74663 9.10665L6.10665 12.64C6.38665 12.9733 6.61332 13.56 6.61332 13.9067V18.6667C6.61332 19.68 7.14667 20.5867 8.04 21.0933ZM3.66663 4.56001C3.66663 4.05335 4.01327 3.66667 4.4666 3.66667V3.65332H16.3333C16.7733 3.65332 17.1333 4.01333 17.1333 4.45333V6.42668C17.1333 6.85335 16.8133 7.50667 16.5733 7.74667L12.7333 11.1467C11.9999 11.7733 11.4799 12.9333 11.4799 13.9867V17.8533C11.4799 18.08 11.2933 18.4533 11.1333 18.5467L9.89327 19.3467C9.59993 19.5333 9.25333 19.4667 9.04 19.3467C8.88 19.2667 8.62659 19.0667 8.62659 18.6667V13.9067C8.62659 12.9867 8.13325 11.96 7.62659 11.3333L4.18664 7.72001C3.89331 7.42668 3.66663 6.85333 3.66663 6.62667V4.56001Z" fill="black"/>
<path d="M12 30.3333H20C27.24 30.3333 30.3333 27.24 30.3333 20V12C30.3333 7.38665 29.0666 4.51997 26.3733 2.98663C25.6933 2.59997 24.5066 2.27998 22.76 1.99998C22.2266 1.90665 21.7066 2.27997 21.6133 2.82663C21.52 3.3733 21.8933 3.89333 22.44 3.97333C24.4666 4.29333 25.1733 4.6133 25.3866 4.7333C27.4266 5.8933 28.3333 8.13331 28.3333 12V20C28.3333 26.1467 26.1466 28.3333 20 28.3333H12C5.85329 28.3333 3.66663 26.1467 3.66663 20V16C3.66663 15.4533 3.21329 15 2.66663 15C2.11996 15 1.66663 15.4533 1.66663 16V20C1.66663 27.24 4.75996 30.3333 12 30.3333Z" fill="black"/>
<path d="M24 18.3333H17.3334C16.7867 18.3333 16.3334 17.88 16.3334 17.3333C16.3334 16.7867 16.7867 16.3333 17.3334 16.3333H24C24.5467 16.3333 25 16.7867 25 17.3333C25 17.88 24.5467 18.3333 24 18.3333Z" fill="black"/>
<path d="M14.6666 23.6667H24C24.5466 23.6667 25 23.2133 25 22.6667C25 22.12 24.5466 21.6667 24 21.6667H14.6666C14.12 21.6667 13.6666 22.12 13.6666 22.6667C13.6666 23.2133 14.12 23.6667 14.6666 23.6667Z" fill="black"/>
</svg>
