<svg width="32" height="32" viewBox="0 0 32 32" fill="none" xmlns="http://www.w3.org/2000/svg">
<path fill-rule="evenodd" clip-rule="evenodd" d="M8.03988 21.0933C8.47988 21.3467 8.95986 21.4667 9.43986 21.4667C9.95986 21.4667 10.4798 21.32 10.9598 21.0267L12.1865 20.2267C12.9199 19.7867 13.4798 18.76 13.4798 17.84V13.9733C13.4798 13.52 13.7332 12.9067 14.0398 12.6533L17.9465 9.19999C18.5332 8.61332 19.1332 7.46668 19.1332 6.42668V4.45333C19.1332 2.90667 17.8798 1.65332 16.3332 1.65332H4.46648C2.89314 1.65332 1.6665 2.93333 1.6665 4.54667V6.61332C1.6665 7.42665 2.11984 8.49332 2.7465 9.10665L6.10653 12.64C6.38653 12.9733 6.6132 13.56 6.6132 13.9067V18.6667C6.6132 19.68 7.14654 20.5867 8.03988 21.0933ZM3.6665 4.56001C3.6665 4.05335 4.01314 3.66667 4.46648 3.66667V3.65332H16.3332C16.7732 3.65332 17.1332 4.01333 17.1332 4.45333V6.42668C17.1332 6.85335 16.8132 7.50667 16.5732 7.74667L12.7332 11.1467C11.9998 11.7733 11.4798 12.9333 11.4798 13.9867V17.8533C11.4798 18.08 11.2931 18.4533 11.1331 18.5467L9.89314 19.3467C9.59981 19.5333 9.25321 19.4667 9.03988 19.3467C8.87988 19.2667 8.62646 19.0667 8.62646 18.6667V13.9067C8.62646 12.9867 8.13313 11.96 7.62646 11.3333L4.18652 7.72001C3.89318 7.42668 3.6665 6.85333 3.6665 6.62667V4.56001Z" fill="black"/>
<path d="M11.9998 30.3333H19.9998C27.2398 30.3333 30.3332 27.24 30.3332 20V12C30.3332 7.38665 29.0665 4.51997 26.3732 2.98663C25.6932 2.59997 24.5065 2.27998 22.7598 1.99998C22.2265 1.90665 21.7065 2.27997 21.6132 2.82663C21.5198 3.3733 21.8932 3.89333 22.4398 3.97333C24.4665 4.29333 25.1732 4.6133 25.3865 4.7333C27.4265 5.8933 28.3332 8.13331 28.3332 12V20C28.3332 26.1467 26.1465 28.3333 19.9998 28.3333H11.9998C5.85317 28.3333 3.6665 26.1467 3.6665 20V16C3.6665 15.4533 3.21317 15 2.6665 15C2.11984 15 1.6665 15.4533 1.6665 16V20C1.6665 27.24 4.75984 30.3333 11.9998 30.3333Z" fill="black"/>
<path d="M23.9999 18.3333H17.3333C16.7866 18.3333 16.3333 17.88 16.3333 17.3333C16.3333 16.7867 16.7866 16.3333 17.3333 16.3333H23.9999C24.5466 16.3333 24.9999 16.7867 24.9999 17.3333C24.9999 17.88 24.5466 18.3333 23.9999 18.3333Z" fill="black"/>
<path d="M14.6665 23.6667H23.9998C24.5465 23.6667 24.9998 23.2133 24.9998 22.6667C24.9998 22.12 24.5465 21.6667 23.9998 21.6667H14.6665C14.1198 21.6667 13.6665 22.12 13.6665 22.6667C13.6665 23.2133 14.1198 23.6667 14.6665 23.6667Z" fill="black"/>
</svg>
