<svg width="32" height="32" viewBox="0 0 32 32" fill="none" xmlns="http://www.w3.org/2000/svg">
<g clip-path="url(#clip0_1847_10515)">
<path fill-rule="evenodd" clip-rule="evenodd" d="M4 3H10C10.2652 3 10.5196 3.10536 10.7071 3.29289C10.8946 3.48043 11 3.73478 11 4V10C11 10.2652 10.8946 10.5196 10.7071 10.7071C10.5196 10.8946 10.2652 11 10 11H4C3.73478 11 3.48043 10.8946 3.29289 10.7071C3.10536 10.5196 3 10.2652 3 10V4C3 3.73478 3.10536 3.48043 3.29289 3.29289C3.48043 3.10536 3.73478 3 4 3ZM0 4C0 2.93913 0.421427 1.92172 1.17157 1.17157C1.92172 0.421427 2.93913 0 4 0H10C11.0609 0 12.0783 0.421427 12.8284 1.17157C13.5786 1.92172 14 2.93913 14 4V10C14 11.0609 13.5786 12.0783 12.8284 12.8284C12.0783 13.5786 11.0609 14 10 14H4C2.93913 14 1.92172 13.5786 1.17157 12.8284C0.421427 12.0783 0 11.0609 0 10V4ZM22 3H28C28.2652 3 28.5196 3.10536 28.7071 3.29289C28.8946 3.48043 29 3.73478 29 4V10C29 10.2652 28.8946 10.5196 28.7071 10.7071C28.5196 10.8946 28.2652 11 28 11H22C21.7348 11 21.4804 10.8946 21.2929 10.7071C21.1054 10.5196 21 10.2652 21 10V4C21 3.73478 21.1054 3.48043 21.2929 3.29289C21.4804 3.10536 21.7348 3 22 3ZM18 4C18 2.93913 18.4214 1.92172 19.1716 1.17157C19.9217 0.421427 20.9391 0 22 0H28C29.0609 0 30.0783 0.421427 30.8284 1.17157C31.5786 1.92172 32 2.93913 32 4V10C32 11.0609 31.5786 12.0783 30.8284 12.8284C30.0783 13.5786 29.0609 14 28 14H22C20.9391 14 19.9217 13.5786 19.1716 12.8284C18.4214 12.0783 18 11.0609 18 10V4ZM28 21H22C21.7348 21 21.4804 21.1054 21.2929 21.2929C21.1054 21.4804 21 21.7348 21 22V28C21 28.2652 21.1054 28.5196 21.2929 28.7071C21.4804 28.8946 21.7348 29 22 29H28C28.2652 29 28.5196 28.8946 28.7071 28.7071C28.8946 28.5196 29 28.2652 29 28V22C29 21.7348 28.8946 21.4804 28.7071 21.2929C28.5196 21.1054 28.2652 21 28 21ZM22 18C20.9391 18 19.9217 18.4214 19.1716 19.1716C18.4214 19.9217 18 20.9391 18 22V28C18 29.0609 18.4214 30.0783 19.1716 30.8284C19.9217 31.5786 20.9391 32 22 32H28C29.0609 32 30.0783 31.5786 30.8284 30.8284C31.5786 30.0783 32 29.0609 32 28V22C32 20.9391 31.5786 19.9217 30.8284 19.1716C30.0783 18.4214 29.0609 18 28 18H22ZM4 21H10C10.2652 21 10.5196 21.1054 10.7071 21.2929C10.8946 21.4804 11 21.7348 11 22V28C11 28.2652 10.8946 28.5196 10.7071 28.7071C10.5196 28.8946 10.2652 29 10 29H4C3.73478 29 3.48043 28.8946 3.29289 28.7071C3.10536 28.5196 3 28.2652 3 28V22C3 21.7348 3.10536 21.4804 3.29289 21.2929C3.48043 21.1054 3.73478 21 4 21ZM0 22C0 20.9391 0.421427 19.9217 1.17157 19.1716C1.92172 18.4214 2.93913 18 4 18H10C11.0609 18 12.0783 18.4214 12.8284 19.1716C13.5786 19.9217 14 20.9391 14 22V28C14 29.0609 13.5786 30.0783 12.8284 30.8284C12.0783 31.5786 11.0609 32 10 32H4C2.93913 32 1.92172 31.5786 1.17157 30.8284C0.421427 30.0783 0 29.0609 0 28V22Z" fill="#1E1E1E"/>
</g>
<defs>
<clipPath id="clip0_1847_10515">
<rect width="32" height="32" fill="white"/>
</clipPath>
</defs>
</svg>
