<svg width="32" height="32" viewBox="0 0 32 32" fill="none" xmlns="http://www.w3.org/2000/svg">
<path fill-rule="evenodd" clip-rule="evenodd" d="M16.0004 30.3335C15.1071 30.3335 14.2004 30.1068 13.4004 29.6401L5.48037 25.0668C3.88037 24.1335 2.88037 22.4135 2.88037 20.5601V11.4401C2.88037 9.58681 3.88037 7.86681 5.48037 6.93348L13.4004 2.36016C15.0004 1.42682 16.9871 1.42682 18.6004 2.36016L26.5204 6.93348C28.1204 7.86681 29.1204 9.58681 29.1204 11.4401V20.5601C29.1204 22.4135 28.1204 24.1335 26.5204 25.0668L18.6004 29.6401C17.8004 30.1068 16.8938 30.3335 16.0004 30.3335ZM16.0004 3.6668C15.4538 3.6668 14.8938 3.81346 14.4004 4.09346L6.48037 8.6668C5.4937 9.24013 4.88037 10.2935 4.88037 11.4401V20.5601C4.88037 21.6935 5.4937 22.7601 6.48037 23.3335L14.4004 27.9068C15.3871 28.4801 16.6138 28.4801 17.6004 27.9068L25.5204 23.3335C26.5071 22.7601 27.1204 21.7068 27.1204 20.5601V11.4401C27.1204 10.3068 26.5071 9.24013 25.5204 8.6668L17.6004 4.09346C17.1071 3.81346 16.5471 3.6668 16.0004 3.6668ZM16.0001 15.6668C13.7334 15.6668 11.8934 13.8267 11.8934 11.5601C11.8934 9.29339 13.7334 7.45346 16.0001 7.45346C18.2667 7.45346 20.1067 9.29339 20.1067 11.5601C20.1067 13.8267 18.2667 15.6668 16.0001 15.6668ZM16.0001 9.45346C14.8401 9.45346 13.8934 10.4001 13.8934 11.5601C13.8934 12.7201 14.8401 13.6668 16.0001 13.6668C17.1601 13.6668 18.1067 12.7201 18.1067 11.5601C18.1067 10.4001 17.1601 9.45346 16.0001 9.45346ZM20.3335 22.2135C20.3335 22.7601 20.7869 23.2135 21.3335 23.2135C21.8802 23.2135 22.3335 22.7601 22.3335 22.2135C22.3335 19.2668 19.4935 16.8668 16.0002 16.8668C12.5069 16.8668 9.66687 19.2668 9.66687 22.2135C9.66687 22.7601 10.1202 23.2135 10.6669 23.2135C11.2135 23.2135 11.6669 22.7601 11.6669 22.2135C11.6669 20.3735 13.6135 18.8668 16.0002 18.8668C18.3869 18.8668 20.3335 20.3735 20.3335 22.2135Z" fill="black"/>
</svg>
