<svg width="32" height="32" viewBox="0 0 32 32" fill="none" xmlns="http://www.w3.org/2000/svg">
<path fill-rule="evenodd" clip-rule="evenodd" d="M10.8 29C8.13301 29 5.87244 27.2599 5.09165 24.8532C4.99485 24.5548 4.92079 24.2461 4.87152 23.9292C4.82444 23.6264 4.8 23.3161 4.8 23V10C4.8 9.60136 4.83888 9.2118 4.91304 8.83491C4.96558 8.56794 5.03582 8.30733 5.1225 8.05435C5.93062 5.69562 8.16729 4 10.8 4H21.2C23.8327 4 26.0694 5.69562 26.8775 8.05436C26.9642 8.30734 27.0344 8.56794 27.087 8.83491C27.1611 9.2118 27.2 9.60136 27.2 10V23C27.2 23.3161 27.1756 23.6264 27.1285 23.9292C27.0792 24.2461 27.0052 24.5548 26.9083 24.8532C26.1276 27.2599 23.867 29 21.2 29H10.8ZM28.8 8.83491C28.8 8.54463 28.8553 8.26987 28.9542 8.02444C29.2109 7.38748 29.7612 6.94811 30.4 6.94811C31.285 6.94811 32 7.79127 32 8.83491V23.9292C32 24.9729 31.285 25.816 30.4 25.816C29.7901 25.816 29.2609 25.4156 28.9909 24.825C28.8691 24.5587 28.8 24.2536 28.8 23.9292V23V10V8.83491ZM3.2 23.9292C3.2 24.2536 3.13091 24.5587 3.00911 24.825C2.73907 25.4156 2.20991 25.816 1.6 25.816C0.715 25.816 0 24.9729 0 23.9292V8.83491C0 7.79127 0.715 6.94811 1.6 6.94811C2.23885 6.94811 2.78911 7.38747 3.04579 8.02444C3.14469 8.26986 3.2 8.54463 3.2 8.83491V10V23V23.9292ZM21.2 27H10.8C8.59086 27 6.8 25.2091 6.8 23V21H25.2V23C25.2 25.2091 23.4091 27 21.2 27ZM25.2 12H6.8V10C6.8 7.79086 8.59086 6 10.8 6H21.2C23.4091 6 25.2 7.79086 25.2 10V12Z" fill="black"/>
</svg>
