<svg width="32" height="32" viewBox="0 0 32 32" fill="none" xmlns="http://www.w3.org/2000/svg">
<path d="M4.8 29H27.2V4H4.8V29ZM1.6 6.94811C0.715 6.94811 0 7.79127 0 8.83491V23.9292C0 24.9729 0.715 25.816 1.6 25.816C2.485 25.816 3.2 24.9729 3.2 23.9292V8.83491C3.2 7.79127 2.485 6.94811 1.6 6.94811ZM30.4 6.94811C29.515 6.94811 28.8 7.79127 28.8 8.83491V23.9292C28.8 24.9729 29.515 25.816 30.4 25.816C31.285 25.816 32 24.9729 32 23.9292V8.83491C32 7.79127 31.285 6.94811 30.4 6.94811Z" fill="black"/>
</svg>
