<svg width="32" height="32" viewBox="0 0 32 32" fill="none" xmlns="http://www.w3.org/2000/svg">
<g clip-path="url(#clip0_936_1399)">
<path d="M9.93103 0C11.7586 0 13.2414 1.48207 13.2414 3.31034V9.93103C13.2414 11.7586 11.7586 13.2414 9.93103 13.2414H3.31034C1.48207 13.2414 0 11.7586 0 9.93103V3.31034C0 1.48207 1.48207 0 3.31034 0H9.93103ZM9.93103 17.6552C11.7586 17.6552 13.2414 19.1379 13.2414 20.9655V27.5862C13.2414 29.4138 11.7586 30.8966 9.93103 30.8966H3.31034C1.48207 30.8966 0 29.4138 0 27.5862V20.9655C0 19.1379 1.48207 17.6552 3.31034 17.6552H9.93103ZM17.6552 3.31034C17.6552 1.48207 19.1379 0 20.9655 0H27.5862C29.4138 0 30.8966 1.48207 30.8966 3.31034V9.93103C30.8966 11.7586 29.4138 13.2414 27.5862 13.2414H20.9655C19.1379 13.2414 17.6552 11.7586 17.6552 9.93103V3.31034ZM24.2759 16.5517C25.1931 16.5517 25.931 17.2897 25.931 18.2069V22.6207H30.3448C31.2621 22.6207 32 23.3586 32 24.2759C32 25.1931 31.2621 25.931 30.3448 25.931H25.931V30.3448C25.931 31.2621 25.1931 32 24.2759 32C23.3586 32 22.6207 31.2621 22.6207 30.3448V25.931H18.2069C17.2897 25.931 16.5517 25.1931 16.5517 24.2759C16.5517 23.3586 17.2897 22.6207 18.2069 22.6207H22.6207V18.2069C22.6207 17.2897 23.3586 16.5517 24.2759 16.5517Z" fill="black"/>
</g>
<defs>
<clipPath id="clip0_936_1399">
<rect width="32" height="32" fill="white"/>
</clipPath>
</defs>
</svg>
