<svg height="512" viewBox="0 0 48 48" width="512" xmlns="http://www.w3.org/2000/svg"><g id="_18._Switch_button" data-name="18. Switch button"><path d="m10 23h28a10 10 0 0 0 0-20h-28a10 10 0 0 0 0 20zm0-18h28a8 8 0 0 1 0 16h-28a8 8 0 0 1 0-16z"/><path d="m38 25h-28a10 10 0 0 0 0 20h28a10 10 0 0 0 0-20zm0 18h-28a8 8 0 0 1 0-16h28a8 8 0 0 1 0 16z"/><path d="m10 19a6 6 0 1 0 -6-6 6 6 0 0 0 6 6zm0-10a4 4 0 1 1 -4 4 4 4 0 0 1 4-4z"/><path d="m38 29a6 6 0 1 0 6 6 6 6 0 0 0 -6-6zm0 10a4 4 0 1 1 4-4 4 4 0 0 1 -4 4z"/><path d="m24 18a4 4 0 0 0 4-4v-2a4 4 0 0 0 -8 0v2a4 4 0 0 0 4 4zm-2-6a2 2 0 0 1 4 0v2a2 2 0 0 1 -4 0z"/><path d="m32 17v-5c4.62 6.16 4.33 6 5 6a1 1 0 0 0 1-1v-8a1 1 0 0 0 -2 0v5c-4.49-6-4.4-6.25-5.32-5.95s-.68.44-.68 8.95a1 1 0 0 0 2 0z"/><path d="m10 30a4 4 0 0 0 -4 4v2a4 4 0 0 0 8 0v-2a4 4 0 0 0 -4-4zm2 6a2 2 0 0 1 -4 0v-2a2 2 0 0 1 4 0z"/><path d="m21 32a1 1 0 0 0 0-2c-3.58 0-5-.35-5 1v8a1 1 0 0 0 1 1c1.34 0 1-1.56 1-4h3a1 1 0 0 0 1-1c0-1.34-1.56-1-4-1v-2z"/><path d="m29 32a1 1 0 0 0 0-2c-3.58 0-5-.35-5 1v8a1 1 0 0 0 1 1c1.34 0 1-1.56 1-4h3a1 1 0 0 0 1-1c0-1.34-1.56-1-4-1v-2z"/></g></svg>