<svg width="32" height="32" viewBox="0 0 32 32" fill="none" xmlns="http://www.w3.org/2000/svg">
<g clip-path="url(#clip0_936_1420)">
<path d="M29.6 32H2.4C1.075 32 0 30.925 0 29.6V2.4C0 1.075 1.075 0 2.4 0H29.6C30.925 0 32 1.075 32 2.4V29.6C32 30.925 30.925 32 29.6 32ZM2.4 1.06875C1.6625 1.06875 1.06875 1.66875 1.06875 2.4V29.6C1.06875 30.3375 1.66875 30.9312 2.4 30.9312H29.6C30.3375 30.9312 30.9312 30.3313 30.9312 29.6V2.4C30.9312 1.6625 30.3313 1.06875 29.6 1.06875H2.4Z" fill="black"/>
<path d="M11.7313 3.20001H12.8V4.26876H11.7313V3.20001ZM3.20001 3.20001H4.26876V4.26876H3.20001V3.20001ZM7.46876 3.20001H8.53751V4.26876H7.46876V3.20001Z" fill="black"/>
<path d="M29.6 0H2.4C1.075 0 0 1.075 0 2.4V6.93125C0 7.225 0.2375 7.4625 0.53125 7.4625H31.4625C31.7562 7.4625 31.9937 7.225 31.9937 6.93125V2.4C32 1.075 30.925 0 29.6 0ZM13.8687 2.66875V4.8C13.8687 5.09375 13.6312 5.33125 13.3375 5.33125H11.2063C10.9125 5.33125 10.675 5.09375 10.675 4.8V2.66875C10.675 2.375 10.9125 2.1375 11.2063 2.1375H13.3375C13.625 2.13125 13.8687 2.36875 13.8687 2.66875ZM9.6 2.66875V4.8C9.6 5.09375 9.3625 5.33125 9.06875 5.33125H6.9375C6.64375 5.33125 6.40625 5.09375 6.40625 4.8V2.66875C6.40625 2.375 6.64375 2.1375 6.9375 2.1375H9.06875C9.3625 2.13125 9.6 2.36875 9.6 2.66875ZM4.8 2.13125C5.09375 2.13125 5.33125 2.36875 5.33125 2.6625V4.79375C5.33125 5.0875 5.09375 5.325 4.8 5.325H2.66875C2.375 5.325 2.1375 5.0875 2.1375 4.79375V2.66875C2.1375 2.375 2.375 2.1375 2.66875 2.1375H4.8V2.13125ZM4 17.6H3.73125V17.3312C3.73125 17.0375 3.49375 16.8 3.2 16.8C2.90625 16.8 2.66875 17.0375 2.66875 17.3312V18.1313C2.66875 18.425 2.90625 18.6625 3.2 18.6625H4C4.29375 18.6625 4.53125 18.425 4.53125 18.1313C4.53125 17.8375 4.29375 17.6 4 17.6ZM3.2 15.3438C3.49375 15.3438 3.73125 15.1062 3.73125 14.8125V12.9187C3.73125 12.625 3.49375 12.3875 3.2 12.3875C2.90625 12.3875 2.66875 12.625 2.66875 12.9187V14.8125C2.66875 15.1062 2.90625 15.3438 3.2 15.3438ZM4 9.06875H3.2C2.90625 9.06875 2.66875 9.30625 2.66875 9.6V10.4C2.66875 10.6937 2.90625 10.9312 3.2 10.9312C3.49375 10.9312 3.73125 10.6937 3.73125 10.4V10.1313H4C4.29375 10.1313 4.53125 9.89375 4.53125 9.6C4.53125 9.30625 4.29375 9.06875 4 9.06875ZM18.6063 9.06875H17.0438C16.75 9.06875 16.5125 9.30625 16.5125 9.6C16.5125 9.89375 16.75 10.1313 17.0438 10.1313H18.6063C18.9 10.1313 19.1375 9.89375 19.1375 9.6C19.1438 9.30625 18.9 9.06875 18.6063 9.06875ZM13.3938 10.1313H14.9563C15.25 10.1313 15.4875 9.89375 15.4875 9.6C15.4875 9.30625 15.25 9.06875 14.9563 9.06875H13.3938C13.1 9.06875 12.8625 9.30625 12.8625 9.6C12.8563 9.89375 13.0938 10.1313 13.3938 10.1313ZM25.9125 9.06875H24.35C24.0563 9.06875 23.8188 9.30625 23.8188 9.6C23.8188 9.89375 24.0563 10.1313 24.35 10.1313H25.9125C26.2063 10.1313 26.4438 9.89375 26.4438 9.6C26.4438 9.30625 26.2063 9.06875 25.9125 9.06875ZM11.3062 9.06875H9.74375C9.45 9.06875 9.2125 9.30625 9.2125 9.6C9.2125 9.89375 9.45 10.1313 9.74375 10.1313H11.3062C11.6 10.1313 11.8375 9.89375 11.8375 9.6C11.8375 9.30625 11.6 9.06875 11.3062 9.06875ZM7.65 9.06875H6.0875C5.79375 9.06875 5.55625 9.30625 5.55625 9.6C5.55625 9.89375 5.79375 10.1313 6.0875 10.1313H7.65C7.94375 10.1313 8.18125 9.89375 8.18125 9.6C8.1875 9.30625 7.94375 9.06875 7.65 9.06875ZM22.2625 9.06875H20.7C20.4063 9.06875 20.1688 9.30625 20.1688 9.6C20.1688 9.89375 20.4063 10.1313 20.7 10.1313H22.2625C22.5563 10.1313 22.7938 9.89375 22.7938 9.6C22.7938 9.30625 22.5563 9.06875 22.2625 9.06875ZM28.8 9.06875H28C27.7063 9.06875 27.4688 9.30625 27.4688 9.6C27.4688 9.89375 27.7063 10.1313 28 10.1313H28.2687V10.4C28.2687 10.6937 28.5062 10.9312 28.8 10.9312C29.0937 10.9312 29.3312 10.6937 29.3312 10.4V9.6C29.3312 9.30625 29.0937 9.06875 28.8 9.06875ZM28.8 12.3875C28.5062 12.3875 28.2687 12.625 28.2687 12.9187V14.8125C28.2687 15.1062 28.5062 15.3438 28.8 15.3438C29.0937 15.3438 29.3312 15.1062 29.3312 14.8125V12.9187C29.3312 12.625 29.0937 12.3875 28.8 12.3875ZM28.8 16.8C28.5062 16.8 28.2687 17.0375 28.2687 17.3312V17.6H28C27.7063 17.6 27.4688 17.8375 27.4688 18.1313C27.4688 18.425 27.7063 18.6625 28 18.6625H28.8C29.0937 18.6625 29.3312 18.425 29.3312 18.1313V17.3312C29.3312 17.0375 29.0937 16.8 28.8 16.8ZM7.65 17.6H6.0875C5.79375 17.6 5.55625 17.8375 5.55625 18.1313C5.55625 18.425 5.79375 18.6625 6.0875 18.6625H7.65C7.94375 18.6625 8.18125 18.425 8.18125 18.1313C8.18125 17.8375 7.94375 17.6 7.65 17.6ZM22.2625 17.6H20.7C20.4063 17.6 20.1688 17.8375 20.1688 18.1313C20.1688 18.425 20.4063 18.6625 20.7 18.6625H22.2625C22.5563 18.6625 22.7938 18.425 22.7938 18.1313C22.7938 17.8375 22.5563 17.6 22.2625 17.6ZM11.3062 17.6H9.74375C9.45 17.6 9.2125 17.8375 9.2125 18.1313C9.2125 18.425 9.45 18.6625 9.74375 18.6625H11.3062C11.6 18.6625 11.8375 18.425 11.8375 18.1313C11.8375 17.8375 11.6 17.6 11.3062 17.6ZM25.9125 17.6H24.35C24.0563 17.6 23.8188 17.8375 23.8188 18.1313C23.8188 18.425 24.0563 18.6625 24.35 18.6625H25.9125C26.2063 18.6625 26.4438 18.425 26.4438 18.1313C26.4438 17.8375 26.2063 17.6 25.9125 17.6ZM18.6063 17.6H17.0438C16.75 17.6 16.5125 17.8375 16.5125 18.1313C16.5125 18.425 16.75 18.6625 17.0438 18.6625H18.6063C18.9 18.6625 19.1375 18.425 19.1375 18.1313C19.1375 17.8375 18.9 17.6 18.6063 17.6ZM14.9563 17.6H13.3938C13.1 17.6 12.8625 17.8375 12.8625 18.1313C12.8625 18.425 13.1 18.6625 13.3938 18.6625H14.9563C15.25 18.6625 15.4875 18.425 15.4875 18.1313C15.4875 17.8375 15.25 17.6 14.9563 17.6ZM16.5312 14.4H17.6C17.8938 14.4 18.1313 14.1625 18.1313 13.8687C18.1313 13.575 17.8938 13.3375 17.6 13.3375H16.5312V12.2688C16.5312 11.975 16.2937 11.7375 16 11.7375C15.7063 11.7375 15.4688 11.975 15.4688 12.2688V13.3375H14.4C14.1062 13.3375 13.8687 13.575 13.8687 13.8687C13.8687 14.1625 14.1062 14.4 14.4 14.4H15.4688V15.4688C15.4688 15.7625 15.7063 16 16 16C16.2937 16 16.5312 15.7625 16.5312 15.4688V14.4ZM28.8 20.2687H3.2C2.90625 20.2687 2.66875 20.5062 2.66875 20.8V28.8C2.66875 29.0937 2.90625 29.3312 3.2 29.3312H28.8C29.0937 29.3312 29.3312 29.0937 29.3312 28.8V20.8C29.3312 20.5062 29.0937 20.2687 28.8 20.2687Z" fill="black"/>
</g>
<defs>
<clipPath id="clip0_936_1420">
<rect width="32" height="32" fill="white"/>
</clipPath>
</defs>
</svg>
