<?xml version="1.0" encoding="utf-8"?>
<!-- Generator: Adobe Illustrator 26.3.1, SVG Export Plug-In . SVG Version: 6.00 Build 0)  -->
<svg version="1.1" id="Layer_1" focusable="false" xmlns="http://www.w3.org/2000/svg" xmlns:xlink="http://www.w3.org/1999/xlink"
	 x="0px" y="0px" viewBox="0 0 24 24" style="enable-background:new 0 0 24 24;" xml:space="preserve">
<style type="text/css">
	.st0{fill:#1E1E1E;}
</style>
<path class="st0" d="M21.3,4.4h-7.9L12.7,3c-0.4-0.9-1.3-1.5-2.4-1.5H2.7C1.2,1.5,0,2.7,0,4.1v15.7c0,1.5,1.2,2.7,2.7,2.7h18.6
	c1.5,0,2.7-1.2,2.7-2.7V7.1C24,5.6,22.8,4.4,21.3,4.4z M22,19.9c0,0.4-0.3,0.7-0.7,0.7H2.7c-0.4,0-0.7-0.3-0.7-0.7V4.1
	c0-0.4,0.3-0.7,0.7-0.7h7.7c0.3,0,0.5,0.1,0.5,0.4l1.3,2.7h9c0.4,0,0.7,0.3,0.7,0.7V19.9z M6.7,13.2h10.6v-2H6.7V13.2z M6.7,17.2
	h10.6v-2H6.7V17.2z"/>
</svg>
