<?xml version="1.0" encoding="utf-8"?>
<!-- Generator: Adobe Illustrator 26.3.1, SVG Export Plug-In . SVG Version: 6.00 Build 0)  -->
<svg version="1.1" id="Layer_1" focusable="false" xmlns="http://www.w3.org/2000/svg" xmlns:xlink="http://www.w3.org/1999/xlink"
	 x="0px" y="0px" viewBox="0 0 24 24" style="enable-background:new 0 0 24 24;" xml:space="preserve">
<style type="text/css">
	.st0{fill:#1E1E1E;}
</style>
<path class="st0" d="M19.9,0c-1.8,0-4.3,0-5.8,1.5c-0.9,0.9-1.4,2.3-1.4,4v9.3c-0.9-0.9-2.3-1.5-3.8-1.5c-2.9,0-5.4,2.4-5.4,5.4
	S6,24,8.9,24c2.3,0,4.3-1.5,5-3.5c0.8-1.2,1.1-2.8,1.1-3.8V5.5c0-1.1,0.3-1.8,0.8-2.4c0.9-0.9,2.8-0.9,4.3-0.9h0.5V0
	C20.5,0,19.9,0,19.9,0z"/>
</svg>
