<svg xmlns="http://www.w3.org/2000/svg" xmlns:xlink="http://www.w3.org/1999/xlink" id="Layer_1" x="0" y="0" focusable="false" version="1.1" viewBox="0 0 24 24" style="enable-background:new 0 0 24 24" xml:space="preserve"><style type="text/css">.st0{fill-rule:evenodd;clip-rule:evenodd;fill:#1e1e1e}</style><path d="M4.9,18.7C1.2,14.7,1.4,8.6,5.3,4.9s10.1-3.5,13.8,0.5c3.5,3.7,3.5,9.6,0,13.3V18c0-2.3-1.8-4.1-4.1-4.1H9	c-2.3,0-4.1,1.8-4.1,4.1V18.7z M7.1,20.4c1.5,0.9,3.2,1.3,4.9,1.3c1.7,0,3.4-0.4,4.9-1.3V18c0-1-0.8-1.9-1.9-1.9H9	c-1,0-1.9,0.8-1.9,1.9C7.1,18,7.1,20.4,7.1,20.4z M0,12C0,5.4,5.4,0,12,0s12,5.4,12,12s-5.4,12-12,12S0,18.6,0,12z M15,9	c0,1.7-1.3,3-3,3s-3-1.3-3-3s1.3-3,3-3S15,7.3,15,9z" class="st0"/></svg>