<svg xmlns="http://www.w3.org/2000/svg" width="512" height="448" viewBox="0 0 512 448"><path id="server" d="M448,32H64A64,64,0,0,0,0,96v64a64,64,0,0,0,64,64H448a64,64,0,0,0,64-64V96A64.027,64.027,0,0,0,448,32Zm32,128a32.042,32.042,0,0,1-32,32H64a32.068,32.068,0,0,1-32-32V96A32.042,32.042,0,0,1,64,64H448a32.042,32.042,0,0,1,32,32ZM310,104a24,24,0,1,0,24,24A24,24,0,0,0,310,104Zm-96,0a24,24,0,1,0,24,24A24,24,0,0,0,214,104ZM448,288H64A64,64,0,0,0,0,352v64a64,64,0,0,0,64,64H448a64,64,0,0,0,64-64V352A64.059,64.059,0,0,0,448,288Zm32,128a32.042,32.042,0,0,1-32,32H64a32.042,32.042,0,0,1-32-32V352a32.042,32.042,0,0,1,32-32H448a32.042,32.042,0,0,1,32,32ZM310,360a24,24,0,1,0,24,24A24,24,0,0,0,310,360Zm-96,0a24,24,0,1,0,24,24A24,24,0,0,0,214,360Z" transform="translate(0 -32)"/></svg>