<?xml version="1.0" encoding="utf-8"?>
<!-- Generator: Adobe Illustrator 26.3.1, SVG Export Plug-In . SVG Version: 6.00 Build 0)  -->
<svg version="1.1" id="Layer_1" focusable="false" xmlns="http://www.w3.org/2000/svg" xmlns:xlink="http://www.w3.org/1999/xlink"
	 x="0px" y="0px" viewBox="0 0 24 24" style="enable-background:new 0 0 24 24;" xml:space="preserve">
<style type="text/css">
	.st0{fill:#1E1E1E;}
</style>
<path class="st0" d="M18.7,0H5.3C3.9,0,2.7,1.2,2.7,2.7V8c0,1.5,1.2,2.7,2.7,2.7h13.3c1.5,0,2.7-1.2,2.7-2.7V2.7
	C21.3,1.2,20.1,0,18.7,0z M19.3,8c0,0.4-0.3,0.7-0.7,0.7H5.3C4.9,8.7,4.7,8.4,4.7,8V2.7C4.7,2.3,4.9,2,5.3,2h13.3
	c0.4,0,0.7,0.3,0.7,0.7V8z M8.7,6.4h6.7V4.3H8.7C8.7,4.3,8.7,6.4,8.7,6.4z M18.7,13.3H5.3c-1.5,0-2.7,1.2-2.7,2.7v5.3
	c0,1.5,1.2,2.7,2.7,2.7h13.3c1.5,0,2.7-1.2,2.7-2.7V16C21.3,14.5,20.1,13.3,18.7,13.3z M19.3,21.3c0,0.4-0.3,0.7-0.7,0.7H5.3
	c-0.4,0-0.7-0.3-0.7-0.7V16c0-0.4,0.3-0.7,0.7-0.7h13.3c0.4,0,0.7,0.3,0.7,0.7V21.3z M8.7,19.7h6.7v-2H8.7V19.7z"/>
</svg>
