<?xml version="1.0" encoding="utf-8"?>
<!-- Generator: Adobe Illustrator 26.3.1, SVG Export Plug-In . SVG Version: 6.00 Build 0)  -->
<svg version="1.1" id="Layer_1" focusable="false" xmlns="http://www.w3.org/2000/svg" xmlns:xlink="http://www.w3.org/1999/xlink"
	 x="0px" y="0px" viewBox="0 0 24 24" style="enable-background:new 0 0 24 24;" xml:space="preserve">
<style type="text/css">
	.st0{fill:#1E1E1E;}
</style>
<path class="st0" d="M21.3,0H2.7C1.2,0,0,1.2,0,2.7v18.7C0,22.8,1.2,24,2.7,24h18.7c1.5,0,2.7-1.2,2.7-2.7V2.7C24,1.2,22.8,0,21.3,0
	z M22,21.3c0,0.4-0.3,0.7-0.7,0.7H2.7C2.3,22,2,21.7,2,21.3v-16h20V21.3z M8,9.3H5.3V12H8V9.3z M8,14.7H5.3v2.7H8V14.7z M13.3,9.3
	h-2.7V12h2.7V9.3z M18.7,9.3H16V12h2.7V9.3z M13.3,14.7h-2.7v2.7h2.7V14.7z M18.7,14.7H16v2.7h2.7V14.7z"/>
</svg>
