<svg xmlns="http://www.w3.org/2000/svg" xmlns:xlink="http://www.w3.org/1999/xlink" id="Layer_1" x="0" y="0" focusable="false" version="1.1" viewBox="0 0 24 24" style="enable-background:new 0 0 24 24" xml:space="preserve"><style type="text/css">.st0{fill:#1e1e1e}</style><path d="M21.6,4.2H2.4C1.1,4.2,0,5.3,0,6.6v10.8c0,1.3,1.1,2.4,2.4,2.4h19.2c1.3,0,2.4-1.1,2.4-2.4V6.6	C24,5.3,22.9,4.2,21.6,4.2z M22.2,17.4c0,0.4-0.2,0.6-0.6,0.6H2.4c-0.4,0-0.6-0.2-0.6-0.6V6.6C1.8,6.3,2.1,6,2.4,6h19.2	c0.4,0,0.6,0.2,0.6,0.6V17.4z M9.6,9H7.2v2.4h2.4V9z M3.6,11.4H6V9H3.6V11.4z M13.2,9h-2.4v2.4h2.4V9z M7.2,16.2h9.6v-2.4H7.2V16.2z M14.4,11.4h2.4V9h-2.4V11.4z M18,11.4h2.4V9H18V11.4z M18,16.2h2.4v-2.4H18V16.2z M3.6,16.2H6v-2.4H3.6V16.2z" class="st0"/></svg>