<svg xmlns="http://www.w3.org/2000/svg" xmlns:xlink="http://www.w3.org/1999/xlink" id="Layer_1" x="0" y="0" focusable="false" version="1.1" viewBox="0 0 24 24" style="enable-background:new 0 0 24 24" xml:space="preserve"><style type="text/css">.st0{fill:#1e1e1e}</style><path d="M19.7,10.3c-0.8-1.5-1.8-3.2-3.2-4.8c-0.9-1.3-2-2.5-3.2-3.9L11.8,0l-1.5,1.6C9.4,3,8.4,4.2,7.3,5.5	c-1.2,1.8-2.2,3.5-3,4.8c-0.9,1.8-1.5,3.3-1.5,4.5c0,5.1,4,9.2,9.2,9.2s9.2-4.1,9.2-9.2C21.2,13.6,20.7,12.1,19.7,10.3z M12,21.8	c-3.8,0-6.9-3.2-6.9-6.9c0-0.4,0.1-1.5,1.2-3.4C7,10,8,8.5,9.3,6.8c1.1-1.4,2-2.5,2.7-3.5c1,1.2,2,2.4,2.7,3.5	c1.2,1.7,2.2,3.3,3,4.7c1,1.9,1.2,3,1.2,3.4C18.9,18.6,15.8,21.8,12,21.8z" class="st0"/></svg>