<?xml version="1.0" encoding="utf-8"?>
<!-- Generator: Adobe Illustrator 26.3.1, SVG Export Plug-In . SVG Version: 6.00 Build 0)  -->
<svg version="1.1" id="Layer_1" focusable="false" xmlns="http://www.w3.org/2000/svg" xmlns:xlink="http://www.w3.org/1999/xlink"
	 x="0px" y="0px" viewBox="0 0 24 24" style="enable-background:new 0 0 24 24;" xml:space="preserve">
<style type="text/css">
	.st0{fill:#1E1E1E;}
</style>
<path class="st0" d="M21.2,2.8H2.8C1.2,2.8,0,4.1,0,5.6v12.7c0,1.6,1.3,2.8,2.8,2.8h18.4c1.6,0,2.8-1.3,2.8-2.8V5.6
	C24,4.1,22.8,2.8,21.2,2.8z M15.4,4.9v14.2H8.5V4.9H15.4z M2.1,18.4V5.6c0-0.4,0.3-0.7,0.7-0.7h3.5v14.2H2.8
	C2.4,19.1,2.1,18.8,2.1,18.4z M21.9,18.4c0,0.4-0.3,0.7-0.7,0.7h-3.7V4.9h3.7c0.4,0,0.7,0.3,0.7,0.7V18.4z"/>
</svg>
