<?xml version="1.0" encoding="utf-8"?>
<!-- Generator: Adobe Illustrator 26.3.1, SVG Export Plug-In . SVG Version: 6.00 Build 0)  -->
<svg version="1.1" id="Layer_1" focusable="false" xmlns="http://www.w3.org/2000/svg" xmlns:xlink="http://www.w3.org/1999/xlink"
	 x="0px" y="0px" viewBox="0 0 24 24" style="enable-background:new 0 0 24 24;" xml:space="preserve">
<style type="text/css">
	.st0{fill:#1E1E1E;}
</style>
<path class="st0" d="M14.5,8.9V1.2C14.5,0.5,14,0,13.2,0h-10C2.5,0,2,0.5,2,1.2v10.4c0,0.4,0.2,0.9,0.7,1c0.1,0.1,0.2,0.1,0.4,0.1
	c0.2,0,0.6-0.1,0.7-0.4l2.2-2.2h7.1C14,10.1,14.5,9.6,14.5,8.9z M12.6,8.2H5.4L3.9,9.7V1.9h8.7V8.2z M20.7,11.2h-10
	c-0.7,0-1.2,0.5-1.2,1.2v7.6c0,0.7,0.5,1.2,1.2,1.2h7.1l2.2,2.2c0.1,0.2,0.5,0.4,0.7,0.4c0.1,0,0.2,0,0.4-0.1c0.5-0.1,0.7-0.6,0.7-1
	V12.5C22,11.7,21.5,11.2,20.7,11.2z M20.1,21l-1.5-1.5h-7.2v-6.4h8.7V21z"/>
</svg>
