<svg xmlns="http://www.w3.org/2000/svg" xmlns:xlink="http://www.w3.org/1999/xlink" id="Layer_1" x="0" y="0" focusable="false" version="1.1" viewBox="0 0 24 24" style="enable-background:new 0 0 24 24" xml:space="preserve"><style type="text/css">.st0{fill:#1e1e1e}</style><path d="M13.3,5.3H1.5v2h11.9V5.3z M1.5,0v2h21.1V0H1.5z M13.3,10.5H2.8c-0.8,0-1.3,0.5-1.3,1.3v10.9	c0,0.4,0.3,0.9,0.8,1.1C2.4,24,2.5,24,2.6,24c0.3,0,0.7-0.1,0.8-0.4l2.4-2.4h7.5c0.8,0,1.3-0.5,1.3-1.3v-8	C14.6,11.1,14.1,10.5,13.3,10.5z M12.7,19.3H5l-1.6,1.6v-8.3h9.2V19.3z" class="st0"/></svg>