<?xml version="1.0" encoding="utf-8"?>
<!-- Generator: Adobe Illustrator 26.3.1, SVG Export Plug-In . SVG Version: 6.00 Build 0)  -->
<svg version="1.1" id="Layer_1" xmlns="http://www.w3.org/2000/svg" xmlns:xlink="http://www.w3.org/1999/xlink" x="0px" y="0px"
	 viewBox="0 0 640 512" style="enable-background:new 0 0 640 512;" xml:space="preserve">
<path d="M96,470h448V46H96V470z M32,96c-17.7,0-32,14.3-32,32v256c0,17.7,14.3,32,32,32s32-14.3,32-32V128C64,110.3,49.7,96,32,96z
	 M608,96c-17.7,0-32,14.3-32,32v256c0,17.7,14.3,32,32,32s32-14.3,32-32V128C640,110.3,625.7,96,608,96z"/>
</svg>
