<?xml version="1.0" encoding="utf-8"?>
<!-- Generator: Adobe Illustrator 26.3.1, SVG Export Plug-In . SVG Version: 6.00 Build 0)  -->
<svg version="1.1" id="Layer_1" focusable="false" xmlns="http://www.w3.org/2000/svg" xmlns:xlink="http://www.w3.org/1999/xlink"
	 x="0px" y="0px" viewBox="0 0 24 24" style="enable-background:new 0 0 24 24;" xml:space="preserve">
<style type="text/css">
	.st0{fill:#1E1E1E;}
</style>
<path class="st0" d="M21.3,0H2.7C1.2,0,0,1.2,0,2.7v18.7C0,22.8,1.2,24,2.7,24h18.7c1.5,0,2.7-1.2,2.7-2.7V2.7C24,1.2,22.8,0,21.3,0
	z M22,21.3c0,0.4-0.3,0.7-0.7,0.7H2.7C2.3,22,2,21.7,2,21.3V9.1L8.3,2h13.1C21.7,2,22,2.3,22,2.7V21.3z M14,8.7l3.3,3.3L14,15.7
	l1.5,1.3L20,12l-4.7-4.7L14,8.7z M10,8.7L8.7,7.3L4,12l4.7,5.1l1.5-1.3L6.7,12L10,8.7z"/>
</svg>
