<svg xmlns="http://www.w3.org/2000/svg" xmlns:xlink="http://www.w3.org/1999/xlink" id="Layer_1" x="0" y="0" focusable="false" version="1.1" viewBox="0 0 24 24" style="enable-background:new 0 0 24 24" xml:space="preserve"><style type="text/css">.st0{fill:#1e1e1e}</style><path d="M21.3,0H2.7C1.2,0,0,1.2,0,2.7v18.7C0,22.8,1.2,24,2.7,24h18.7c1.5,0,2.7-1.2,2.7-2.7V2.7C24,1.2,22.8,0,21.3,0	z M22,21.3c0,0.4-0.3,0.7-0.7,0.7H2.7C2.3,22,2,21.7,2,21.3V9.1L8.3,2h13.1C21.7,2,22,2.3,22,2.7V21.3z M13.6,6.3	c-0.5,0.5-0.9,1.5-0.9,2.5v4.9c-0.5-0.4-1.1-0.5-1.7-0.5c-1.6,0-2.9,1.3-2.9,2.9c0,1.6,1.3,2.9,2.9,2.9c0.7,0,1.3-0.3,1.9-0.7	c1.2-0.8,1.9-2.1,1.9-3.5V8.8c0-0.5,0.1-0.8,0.3-1.1c0.4-0.4,1.3-0.4,2.1-0.4h0.3v-2h-0.3C16.1,5.3,14.7,5.3,13.6,6.3z" class="st0"/></svg>