<svg xmlns="http://www.w3.org/2000/svg" xmlns:xlink="http://www.w3.org/1999/xlink" id="Layer_1" x="0" y="0" focusable="false" version="1.1" viewBox="0 0 24 24" style="enable-background:new 0 0 24 24" xml:space="preserve"><style type="text/css">.st0{fill:#1e1e1e}</style><path d="M21.4,4.4h-7.9l-0.8-1.5c-0.4-0.9-1.3-1.5-2.4-1.5H2.6C1.2,1.4,0,2.6,0,4.1v15.8c0,1.5,1.2,2.7,2.7,2.7h18.7	c1.5,0,2.7-1.2,2.7-2.7V7C24,5.6,22.8,4.4,21.4,4.4z M22,19.9c0,0.4-0.3,0.7-0.7,0.7H2.6c-0.4,0-0.7-0.3-0.7-0.7V4.1	c0-0.4,0.3-0.7,0.7-0.7h7.8c0.3,0,0.5,0.1,0.5,0.4l1.3,2.7h9.1c0.4,0,0.7,0.3,0.7,0.7V19.9z" class="st0"/></svg>