<svg xmlns="http://www.w3.org/2000/svg" xmlns:xlink="http://www.w3.org/1999/xlink" id="Layer_1" x="0" y="0" focusable="false" version="1.1" viewBox="0 0 24 24" style="enable-background:new 0 0 24 24" xml:space="preserve"><style type="text/css">.st0{fill:#1e1e1e}</style><path d="M22.1,6.4v14.1c0,0.9-0.8,1.5-1.5,1.5H3.9V24h16.7c1.9,0,3.5-1.5,3.5-3.6v-14H22.1z M19.3,17.2V2.1	c0-1.2-0.9-2.1-2.1-2.1H2.1C0.9,0,0,0.9,0,2.1v15.1c0,1.2,0.9,2.1,2.1,2.1h15.1C18.4,19.3,19.3,18.4,19.3,17.2z M1.9,2.1	c0-0.1,0.1-0.1,0.1-0.1h15.1c0.1,0,0.1,0.1,0.1,0.1v9.5l-3-2.2c-0.4-0.3-0.8-0.3-1.2,0l-3.7,2.7l-3.1-1.4c-0.3-0.1-0.6-0.1-0.9,0	l-3.7,1.9V2.1H1.9z M1.9,17.2v-2.3L6,12.7l3.1,1.5c0.3,0.1,0.6,0.1,1-0.1l3.6-2.6l3.6,2.6v3.2c0,0.1-0.1,0.1-0.1,0.1H2.1	C2.1,17.3,1.9,17.2,1.9,17.2z" class="st0"/></svg>