<?xml version="1.0" encoding="utf-8"?>
<!-- Generator: Adobe Illustrator 26.3.1, SVG Export Plug-In . SVG Version: 6.00 Build 0)  -->
<svg version="1.1" id="Layer_1" focusable="false" xmlns="http://www.w3.org/2000/svg" xmlns:xlink="http://www.w3.org/1999/xlink"
	 x="0px" y="0px" viewBox="0 0 24 24" style="enable-background:new 0 0 24 24;" xml:space="preserve">
<style type="text/css">
	.st0{fill:#1E1E1E;}
</style>
<path class="st0" d="M4.2,11.7h-3V9.1H0v6.7h1.2v-2.9h3v2.9h1.2V9.1H4.2V11.7z M6.4,10.3h1.9v5.5h1.2v-5.5h1.9V9.1h-5
	C6.4,9.1,6.4,10.3,6.4,10.3z M17,9.1l-1.7,3l-1.6-3h-1l-0.9,6.7h1.2l0.6-4.5l1.7,3.1l1.7-3.1l0.6,4.5h1.2l-0.9-6.7H17z M21.2,14.6
	V9.1H20v6.7h4v-1.1H21.2z"/>
</svg>
