<?xml version="1.0" encoding="utf-8"?>
<!-- Generator: Adobe Illustrator 26.3.1, SVG Export Plug-In . SVG Version: 6.00 Build 0)  -->
<svg version="1.1" id="Layer_1" focusable="false" xmlns="http://www.w3.org/2000/svg" xmlns:xlink="http://www.w3.org/1999/xlink"
	 x="0px" y="0px" viewBox="0 0 24 24" style="enable-background:new 0 0 24 24;" xml:space="preserve">
<style type="text/css">
	.st0{fill:#1E1E1E;}
</style>
<path class="st0" d="M21,0H3C1.4,0,0,1.4,0,3v19.3C0,23.2,0.8,24,1.6,24c0.5,0,0.8-0.2,1.2-0.4l3.9-4.1H21c1.7,0,3-1.3,3-3V3
	C24,1.4,22.7,0,21,0z M21.8,16.5c0,0.5-0.3,0.8-0.8,0.8H5.9l-3.6,3.6V3c0-0.5,0.3-0.8,0.8-0.8h18c0.4,0,0.8,0.3,0.8,0.8V16.5z"/>
</svg>
