<?xml version="1.0" encoding="utf-8"?>
<!-- Generator: Adobe Illustrator 26.3.1, SVG Export Plug-In . SVG Version: 6.00 Build 0)  -->
<svg version="1.1" id="Layer_1" focusable="false" xmlns="http://www.w3.org/2000/svg" xmlns:xlink="http://www.w3.org/1999/xlink"
	 x="0px" y="0px" viewBox="0 0 24 24" style="enable-background:new 0 0 24 24;" xml:space="preserve">
<style type="text/css">
	.st0{fill:#1E1E1E;}
</style>
<path class="st0" d="M21,0H3C1.4,0,0,1.4,0,3v18c0,1.7,1.4,3,3,3h18c1.7,0,3-1.3,3-3V3C24,1.4,22.7,0,21,0z M21.8,21
	c0,0.4-0.3,0.8-0.8,0.8H3c-0.5,0-0.8-0.3-0.8-0.8V3c0-0.5,0.3-0.8,0.8-0.8h18c0.4,0,0.8,0.3,0.8,0.8V21z M4.5,10.5h3v-3h-3V10.5z
	 M4.5,16.5h3v-3h-3V16.5z M9,10.5h10.5v-3H9V10.5z M9,16.5h10.5v-3H9V16.5z"/>
</svg>
