<svg xmlns="http://www.w3.org/2000/svg" xmlns:xlink="http://www.w3.org/1999/xlink" id="Layer_1" x="0" y="0" focusable="false" version="1.1" viewBox="0 0 24 24" style="enable-background:new 0 0 24 24" xml:space="preserve"><style type="text/css">.st0{fill:#1e1e1e}</style><path d="M10.5,16.3l1.9,1.9l5.1-5.1l0.9-0.9l-1-1L12.2,6l-1.7,1.7l2.9,2.9H0.2v2.6h13.2L10.5,16.3z M20.4,0h-12	C6.5,0,5,1.5,5,3.4V6h2.6V3.4c0-0.5,0.3-0.9,0.9-0.9h12c0.5,0,0.9,0.3,0.9,0.9v17.1c0,0.5-0.3,0.9-0.9,0.9h-12	c-0.5,0-0.9-0.3-0.9-0.9V18H5v2.6C5,22.5,6.5,24,8.4,24h12c1.9,0,3.4-1.5,3.4-3.4V3.4C23.8,1.5,22.3,0,20.4,0z" class="st0"/></svg>