<?xml version="1.0" encoding="utf-8"?>
<!-- Generator: Adobe Illustrator 26.3.1, SVG Export Plug-In . SVG Version: 6.00 Build 0)  -->
<svg version="1.1" id="Layer_1" focusable="false" xmlns="http://www.w3.org/2000/svg" xmlns:xlink="http://www.w3.org/1999/xlink"
	 x="0px" y="0px" viewBox="0 0 24 24" style="enable-background:new 0 0 24 24;" xml:space="preserve">
<style type="text/css">
	.st0{fill:#1E1E1E;}
</style>
<path class="st0" d="M5.9,4.1c0-1,0.9-1.7,1.7-1.7h8.7c1,0,1.7,0.9,1.7,1.7v4.3h2.2V4.1c0-2.2-1.7-4-4-4H7.7c-2.2,0-4,1.9-4,4v4.3
	h2.2V4.1H5.9z M18.1,19.9c0,1-0.9,1.7-1.7,1.7H7.7c-1,0-1.7-0.9-1.7-1.7v-4.3H3.6v4.3c0,2.2,1.7,4,4,4h8.7c2.2,0,4-1.7,4-4v-4.3
	h-2.2v4.3H18.1z M0.5,11.3v1.4h23.1v-1.4H0.5z"/>
</svg>
