<svg xmlns="http://www.w3.org/2000/svg" xmlns:xlink="http://www.w3.org/1999/xlink" id="Layer_1" x="0" y="0" focusable="false" version="1.1" viewBox="0 0 24 24" style="enable-background:new 0 0 24 24" xml:space="preserve"><style type="text/css">.st0{fill:#1e1e1e}</style><path d="M4.9,14.4h7.3v-1.8H4.9V14.4z M18.3,17.1V2.4c0-1.3-1.1-2.4-2.4-2.4H3.7C2.3,0,1.2,1.1,1.2,2.4v14.6	c0,1.3,1.1,2.4,2.4,2.4h12.2C17.2,19.5,18.3,18.4,18.3,17.1z M3,17.1V2.4c0-0.4,0.2-0.6,0.6-0.6h12.2c0.4,0,0.6,0.2,0.6,0.6v14.6	c0,0.4-0.2,0.6-0.6,0.6H3.7C3.3,17.7,3,17.4,3,17.1z M4.9,10.4h9.7V8.5H4.9V10.4z M4.9,6.3h9.7V4.6H4.9C4.9,4.6,4.9,6.3,4.9,6.3z M21,4.9v15.8c0,0.9-0.7,1.5-1.5,1.5H6.1V24h13.4c1.8,0,3.3-1.5,3.3-3.4V4.9H21z" class="st0"/></svg>