<?xml version="1.0" encoding="utf-8"?>
<!-- Generator: Adobe Illustrator 26.3.1, SVG Export Plug-In . SVG Version: 6.00 Build 0)  -->
<svg version="1.1" id="Layer_1" focusable="false" xmlns="http://www.w3.org/2000/svg" xmlns:xlink="http://www.w3.org/1999/xlink"
	 x="0px" y="0px" viewBox="0 0 24 24" style="enable-background:new 0 0 24 24;" xml:space="preserve">
<style type="text/css">
	.st0{fill:#1E1E1E;}
</style>
<path class="st0" d="M12.3,0c-6.6,0-10,4.2-10,8.8c0,2.1,1.2,4.8,3.1,5.6c0.3,0.1,0.4,0.1,0.5-0.2c0.1-0.2,0.3-1.2,0.4-1.7
	c0-0.1,0-0.3-0.1-0.4c-0.6-0.7-1.1-2.1-1.1-3.3c0-3.2,2.5-6.3,6.9-6.3c3.7,0,6.3,2.4,6.3,5.9c0,3.9-2.1,6.7-4.8,6.7
	c-1.5,0-2.6-1.2-2.3-2.6c0.4-1.7,1.3-3.6,1.3-4.8c0-1.1-0.6-2.1-1.9-2.1c-1.5,0-2.7,1.5-2.7,3.5c0,1.3,0.5,2.2,0.5,2.2
	s-1.5,6.1-1.8,7.2c-0.5,1.9,0.1,5,0.1,5.3c0,0.1,0.2,0.2,0.3,0.1c0.1-0.2,2-2.8,2.5-4.7c0.2-0.7,0.9-3.5,0.9-3.5
	c0.5,0.9,1.9,1.7,3.5,1.7c4.6,0,7.9-4,7.9-9.1C21.7,3.6,17.6,0,12.3,0"/>
</svg>
