<?xml version="1.0" encoding="utf-8"?>
<!-- Generator: Adobe Illustrator 26.3.1, SVG Export Plug-In . SVG Version: 6.00 Build 0)  -->
<svg version="1.1" id="Layer_1" focusable="false" xmlns="http://www.w3.org/2000/svg" xmlns:xlink="http://www.w3.org/1999/xlink"
	 x="0px" y="0px" viewBox="0 0 24 24" style="enable-background:new 0 0 24 24;" xml:space="preserve">
<style type="text/css">
	.st0{fill:#1E1E1E;}
</style>
<path class="st0" d="M21.9,0H2.1C1.3,0,0.7,0.6,0.7,1.4v9.9c0,0.7,0.6,1.4,1.4,1.4h19.8c0.7,0,1.4-0.6,1.4-1.4V1.4
	C23.3,0.6,22.7,0,21.9,0z M2.8,10.6V10l2.5-1.8l1.8,1.1c0.4,0.3,1,0.3,1.3-0.1l2.1-2l3.4,3.4H2.8z M21.2,10.6h-4.1l-5.6-5.6
	c-0.4-0.4-1.1-0.4-1.6,0L7.6,7.1L5.9,5.9c-0.4-0.3-0.8-0.3-1.3,0L2.8,7.3V2.1h18.4V10.6z M0.7,24h12.7v-2.1H0.7V24z M0.7,18.4h22.6
	v-2.1H0.7V18.4z"/>
</svg>
