<svg xmlns="http://www.w3.org/2000/svg" xmlns:xlink="http://www.w3.org/1999/xlink" id="Layer_1" x="0" y="0" focusable="false" version="1.1" viewBox="0 0 24 24" style="enable-background:new 0 0 24 24" xml:space="preserve"><style type="text/css">.st0{fill-rule:evenodd;clip-rule:evenodd;fill:#1e1e1e}</style><path d="M24,0H0v2.2h24V0z M21,13.5h-4.5c-1.7,0-3,1.3-3,3V21c0,1.7,1.3,3,3,3H21c1.7,0,3-1.3,3-3v-4.5	C24,14.8,22.7,13.5,21,13.5z M21.8,21c0,0.4-0.3,0.8-0.8,0.8h-4.5c-0.5,0-0.8-0.3-0.8-0.8v-4.5c0-0.5,0.3-0.8,0.8-0.8H21	c0.4,0,0.8,0.3,0.8,0.8V21z M0,8.2h13.5V6H0V8.2z M7.5,13.5H3c-1.6,0-3,1.3-3,3V21c0,1.7,1.4,3,3,3h4.5c1.7,0,3-1.3,3-3v-4.5	C10.5,14.8,9.2,13.5,7.5,13.5z M8.2,21c0,0.4-0.3,0.8-0.8,0.8H3c-0.5,0-0.8-0.3-0.8-0.8v-4.5c0-0.5,0.3-0.8,0.8-0.8h4.5	c0.5,0,0.8,0.3,0.8,0.8V21z" class="st0"/></svg>