<svg xmlns="http://www.w3.org/2000/svg" xmlns:xlink="http://www.w3.org/1999/xlink" id="Layer_1" x="0" y="0" focusable="false" version="1.1" viewBox="0 0 24 24" style="enable-background:new 0 0 24 24" xml:space="preserve"><style type="text/css">.st0{fill:#1e1e1e}</style><path d="M6.4,13c0.1,0.1,0.4,0.4,0.7,0.4c0.3,0.1,0.6,0.1,0.9,0.1c0.3,0,0.6,0,0.9-0.1c0.3-0.1,0.6-0.3,0.7-0.4l4.3-4.3	c0.4-0.4,0.7-1,0.7-1.6c0-0.6-0.3-1.2-0.7-1.6L8.7,0.3C8.5,0,8.2-0.1,8-0.1H1.9C1.3-0.1,0.7,0.5,0.7,1v6.1c0,0.3,0.1,0.6,0.3,0.7	C1,7.8,6.4,13,6.4,13z M3.1,2.2h4.5l4.9,4.9v0.1l-4.3,4.3l0.7,0.7l-1-0.7L3.1,6.7C3.1,6.7,3.1,2.2,3.1,2.2z M0.5,24.1h13V22h-13	V24.1z M0.5,16.2v2.2h23.1v-2.2H0.5z" class="st0"/></svg>