<?xml version="1.0" encoding="utf-8"?>
<!-- Generator: Adobe Illustrator 26.3.1, SVG Export Plug-In . SVG Version: 6.00 Build 0)  -->
<svg version="1.1" id="Layer_1" focusable="false" xmlns="http://www.w3.org/2000/svg" xmlns:xlink="http://www.w3.org/1999/xlink"
	 x="0px" y="0px" viewBox="0 0 24 24" style="enable-background:new 0 0 24 24;" xml:space="preserve">
<style type="text/css">
	.st0{fill:#1E1E1E;}
</style>
<path class="st0" d="M0,15.8h24V18H0V15.8z M0,21.8h13.5V24H0V21.8z M0,0h4.5C7.5,0,9,1.3,9,3.9c0,1.3-0.4,2.3-1.1,3
	c-0.8,0.7-1.9,1-3.3,1H2.3V12H0V0z M4.3,6c0.8,0,1.4-0.2,1.8-0.5c0.4-0.3,0.6-0.9,0.6-1.6c0-0.7-0.2-1.2-0.6-1.6
	C5.7,2,5,1.8,4.2,1.8H2.3V6C2.3,6,4.3,6,4.3,6z"/>
</svg>
