<?xml version="1.0" encoding="utf-8"?>
<!-- Generator: Adobe Illustrator 26.3.1, SVG Export Plug-In . SVG Version: 6.00 Build 0)  -->
<svg version="1.1" id="Layer_1" focusable="false" xmlns="http://www.w3.org/2000/svg" xmlns:xlink="http://www.w3.org/1999/xlink"
	 x="0px" y="0px" viewBox="0 0 24 24" style="enable-background:new 0 0 24 24;" xml:space="preserve">
<style type="text/css">
	.st0{fill:#1E1E1E;}
</style>
<path class="st0" d="M21,6H3C1.4,6,0,7.3,0,9v6c0,1.7,1.4,3,3,3h18c1.7,0,3-1.3,3-3V9C24,7.3,22.7,6,21,6z M21.8,15
	c0,0.5-0.3,0.8-0.8,0.8H3c-0.5,0-0.8-0.3-0.8-0.8V9c0-0.5,0.3-0.8,0.8-0.8h18c0.4,0,0.8,0.3,0.8,0.8V15z M0,0v2.2h24V0H0z M0,24h24
	v-2.2H0V24z"/>
</svg>
