<svg xmlns="http://www.w3.org/2000/svg" xmlns:xlink="http://www.w3.org/1999/xlink" id="Layer_1" x="0" y="0" focusable="false" version="1.1" viewBox="0 0 24 24" style="enable-background:new 0 0 24 24" xml:space="preserve"><style type="text/css">.st0{fill:#1e1e1e}</style><path d="M13.8,1.5v9.2h7.9v6.1c0,1.2-0.3,2.1-0.8,2.6c-0.9,0.9-2.4,0.9-3.8,0.8h-0.5v2.3h0.8c1.5,0,3.5-0.2,5-1.5	c0.9-0.9,1.5-2.4,1.5-4.3V1.5H13.8z M0,10.7h7.9v6.1c0,1.2-0.3,2.1-0.8,2.6c-0.9,0.9-2.4,0.9-3.8,0.8H2.9v2.3h0.8	c1.5,0,3.5-0.2,5-1.5c0.9-0.9,1.5-2.4,1.5-4.3V1.5H0V10.7z" class="st0"/></svg>