<?xml version="1.0" encoding="utf-8"?>
<!-- Generator: Adobe Illustrator 26.3.1, SVG Export Plug-In . SVG Version: 6.00 Build 0)  -->
<svg version="1.1" id="Layer_1" focusable="false" xmlns="http://www.w3.org/2000/svg" xmlns:xlink="http://www.w3.org/1999/xlink"
	 x="0px" y="0px" viewBox="0 0 24 24" style="enable-background:new 0 0 24 24;" xml:space="preserve">
<style type="text/css">
	.st0{fill:#1E1E1E;}
</style>
<path class="st0" d="M21.5,12c0,2.2-1.8,4-4,4c-1.9,0-3.4-1.3-3.9-3l0,0l0,0l-1-2.8l0,0c-0.8-2.6-3.3-4.6-6.2-4.6
	C2.9,5.5,0,8.4,0,12c0,3.6,2.9,6.5,6.5,6.5c0.8,0,1.6-0.2,2.4-0.4l-0.9-2.3C7.5,15.9,7,16,6.5,16c-2.2,0-4-1.8-4-4c0-2.2,1.8-4,4-4
	c1.9,0,3.4,1.3,3.9,3l0,0l0.9,2.7c0.7,2.8,3.3,4.8,6.3,4.8c3.6,0,6.5-2.9,6.5-6.5c0-3.6-2.9-6.5-6.5-6.5c-0.8,0-1.6,0.2-2.4,0.4
	l0.9,2.3C16.5,8.1,17,8,17.5,8C19.7,8,21.5,9.8,21.5,12z"/>
</svg>
