<?xml version="1.0" encoding="utf-8"?>
<!-- Generator: Adobe Illustrator 26.3.1, SVG Export Plug-In . SVG Version: 6.00 Build 0)  -->
<svg version="1.1" id="Layer_1" focusable="false" xmlns="http://www.w3.org/2000/svg" xmlns:xlink="http://www.w3.org/1999/xlink"
	 x="0px" y="0px" viewBox="0 0 24 24" style="enable-background:new 0 0 24 24;" xml:space="preserve">
<style type="text/css">
	.st0{fill:#1E1E1E;}
</style>
<path class="st0" d="M24,11.8c0-1.5-1.2-2.7-2.7-2.7c-0.7,0-1.3,0.3-1.8,0.7c-1.8-1.2-4.1-1.9-6.8-2l1.4-4.4l3.8,0.9
	c0,1.2,1,2.2,2.3,2.2c1.2,0,2.3-1,2.3-2.3c0-1.2-1-2.3-2.3-2.3c-0.9,0-1.7,0.6-2.1,1.4l-4.2-1c-0.2-0.1-0.5,0.1-0.6,0.3l-1.6,5.1
	c-2.8,0-5.3,0.8-7.2,2C4,9.3,3.4,9,2.7,9C1.2,9,0,10.3,0,11.8c0,1,0.5,1.8,1.3,2.3c0,0.3-0.1,0.5-0.1,0.8c0,4,4.8,7.2,10.7,7.2
	s10.7-3.2,10.7-7.2c0-0.3,0-0.5-0.1-0.8C23.4,13.7,24,12.8,24,11.8L24,11.8z M20.1,2.9c0.7,0,1.3,0.6,1.3,1.3s-0.6,1.3-1.3,1.3
	c-0.7,0-1.3-0.6-1.3-1.3S19.4,2.9,20.1,2.9z M0.9,11.8c0-1,0.8-1.8,1.8-1.8c0.4,0,0.7,0.1,1,0.3c-1,0.8-1.8,1.8-2.2,2.8
	C1.2,12.8,0.9,12.3,0.9,11.8L0.9,11.8z M12,21.1c-5.4,0-9.8-2.8-9.8-6.2S6.5,8.7,12,8.7s9.8,2.8,9.8,6.2S17.4,21.1,12,21.1z
	 M22.4,13.2c-0.4-1.1-1.1-2-2.2-2.9c0.3-0.2,0.7-0.4,1.1-0.4c1,0,1.8,0.8,1.8,1.8C23.1,12.4,22.8,12.9,22.4,13.2L22.4,13.2z
	 M8.4,15.2c-0.9,0-1.7-0.7-1.7-1.7c0-0.9,0.8-1.7,1.7-1.7s1.7,0.8,1.7,1.7C10,14.5,9.3,15.2,8.4,15.2L8.4,15.2z M17.3,13.6
	c0,0.9-0.7,1.7-1.6,1.7c-0.9,0-1.7-0.7-1.7-1.7c0-0.9,0.8-1.7,1.7-1.7C16.5,11.9,17.3,12.7,17.3,13.6L17.3,13.6z M15.9,17.6
	c0.2,0.2,0.2,0.5,0,0.7c-0.8,0.8-2.1,1.2-3.9,1.2l0,0l0,0c-1.8,0-3.1-0.4-3.9-1.2c-0.2-0.2-0.2-0.5,0-0.7c0.2-0.2,0.5-0.2,0.7,0
	c0.6,0.6,1.7,0.9,3.2,0.9l0,0l0,0c1.5,0,2.6-0.3,3.2-0.9C15.4,17.5,15.7,17.5,15.9,17.6z"/>
</svg>
