<?xml version="1.0" encoding="utf-8"?>
<!-- Generator: Adobe Illustrator 26.3.1, SVG Export Plug-In . SVG Version: 6.00 Build 0)  -->
<svg version="1.1" id="Layer_1" focusable="false" xmlns="http://www.w3.org/2000/svg" xmlns:xlink="http://www.w3.org/1999/xlink"
	 x="0px" y="0px" viewBox="0 0 24 24" style="enable-background:new 0 0 24 24;" xml:space="preserve">
<style type="text/css">
	.st0{fill:#1E1E1E;}
</style>
<path class="st0" d="M7.8,3.8H0V6h7.8c0.5,0,0.7,0.3,0.7,0.8v10.5c0,0.5-0.3,0.8-0.7,0.8H0v2.2h7.8c1.7,0,3-1.3,3-3V6.8
	C10.8,5.1,9.6,3.8,7.8,3.8z M16.2,6H24V3.8h-7.8c-1.7,0-3,1.4-3,3v10.5c0,1.7,1.3,3,3,3H24V18h-7.8c-0.5,0-0.8-0.3-0.8-0.8V6.8
	C15.3,6.3,15.8,6,16.2,6z"/>
</svg>
