<?xml version="1.0" encoding="utf-8"?>
<!-- Generator: Adobe Illustrator 26.3.1, SVG Export Plug-In . SVG Version: 6.00 Build 0)  -->
<svg version="1.1" id="Layer_1" focusable="false" xmlns="http://www.w3.org/2000/svg" xmlns:xlink="http://www.w3.org/1999/xlink"
	 x="0px" y="0px" viewBox="0 0 24 24" style="enable-background:new 0 0 24 24;" xml:space="preserve">
<style type="text/css">
	.st0{fill:#1E1E1E;}
</style>
<path class="st0" d="M1.5,9.1H0.3v2.3h1.2c2.9,0,5.8,1.2,7.7,3.2c2.1,2.1,3.2,4.9,3.2,7.7v1.2h2.3v-1.1c0-3.5-1.4-6.8-3.9-9.4
	C8.4,10.6,5,9.1,1.5,9.1z M17.3,6.7C13.1,2.4,7.4,0,1.5,0H0.3v2.3h1.2c5.3,0,10.5,2.1,14.3,5.9s5.9,8.8,5.9,14.3v1.2H24v-1.2
	C24,16.6,21.6,10.9,17.3,6.7z M0,24h4.6v-4.6H0V24z"/>
</svg>
