<svg xmlns="http://www.w3.org/2000/svg" xmlns:xlink="http://www.w3.org/1999/xlink" id="Layer_1" x="0" y="0" focusable="false" version="1.1" viewBox="0 0 24 24" style="enable-background:new 0 0 24 24" xml:space="preserve"><style type="text/css">.st0{fill:#1e1e1e}</style><path d="M14.2,0.8c-5.3,0-9.8,4.4-9.8,9.8c0,2,0.5,3.7,1.6,5.3l-6,5.3l1.8,2l6-5.2c1.8,1.6,3.9,2.5,6.4,2.5	c5.3,0,9.8-4.4,9.8-9.8C24,5.2,19.6,0.8,14.2,0.8z M14.2,17.7c-3.9,0-7.1-3.2-7.1-7.1s3.2-7.1,7.1-7.1s7.1,3.2,7.1,7.1	S18.1,17.7,14.2,17.7z" class="st0"/></svg>