<?xml version="1.0" encoding="utf-8"?>
<!-- Generator: Adobe Illustrator 26.3.1, SVG Export Plug-In . SVG Version: 6.00 Build 0)  -->
<svg version="1.1" id="Layer_1" focusable="false" xmlns="http://www.w3.org/2000/svg" xmlns:xlink="http://www.w3.org/1999/xlink"
	 x="0px" y="0px" viewBox="0 0 24 24" style="enable-background:new 0 0 24 24;" xml:space="preserve">
<style type="text/css">
	.st0{fill:#1E1E1E;}
</style>
<path class="st0" d="M14.2,0.8c-5.3,0-9.8,4.4-9.8,9.8c0,2,0.5,3.7,1.6,5.3l-6,5.3l1.8,2l6-5.2c1.8,1.6,3.9,2.5,6.4,2.5
	c5.3,0,9.8-4.4,9.8-9.8C24,5.2,19.6,0.8,14.2,0.8z M14.2,17.7c-3.9,0-7.1-3.2-7.1-7.1s3.2-7.1,7.1-7.1s7.1,3.2,7.1,7.1
	S18.1,17.7,14.2,17.7z"/>
</svg>
