<?xml version="1.0" encoding="utf-8"?>
<!-- Generator: Adobe Illustrator 26.3.1, SVG Export Plug-In . SVG Version: 6.00 Build 0)  -->
<svg version="1.1" id="Layer_1" focusable="false" xmlns="http://www.w3.org/2000/svg" xmlns:xlink="http://www.w3.org/1999/xlink"
	 x="0px" y="0px" viewBox="0 0 24 24" style="enable-background:new 0 0 24 24;" xml:space="preserve">
<style type="text/css">
	.st0{fill:#1E1E1E;}
</style>
<path class="st0" d="M12,0C5.3,0,0,5.3,0,12s5.3,12,12,12s12-5.3,12-12S18.7,0,12,0z M12,2c5.5,0,10,4.5,10,10v0.1
	c-1.9-1.1-4.4-2.3-4.5-2.4c-0.3-0.1-0.7-0.1-1.1,0.1l-3.9,2.8L8,11.1c-0.3-0.1-0.5,0-0.8,0.1l-4.9,2.9c-0.1-0.7-0.3-1.3-0.3-2
	C2,6.5,6.5,2,12,2z M12,22c-4.1,0-7.6-2.5-9.2-6l4.9-2.9l4.7,1.6c0.3,0.1,0.7,0,0.9-0.1l3.9-2.8c1.1,0.5,3.3,1.6,4.7,2.5
	C20.7,18.7,16.7,22,12,22z"/>
</svg>
