<?xml version="1.0" encoding="utf-8"?>
<!-- Generator: Adobe Illustrator 26.3.1, SVG Export Plug-In . SVG Version: 6.00 Build 0)  -->
<svg version="1.1" id="Layer_1" focusable="false" xmlns="http://www.w3.org/2000/svg" xmlns:xlink="http://www.w3.org/1999/xlink"
	 x="0px" y="0px" viewBox="0 0 24 24" style="enable-background:new 0 0 24 24;" xml:space="preserve">
<style type="text/css">
	.st0{fill:#1E1E1E;}
</style>
<path class="st0" d="M21.3,0H2.7C1.2,0,0,1.2,0,2.7v18.7C0,22.8,1.2,24,2.7,24h18.7c1.5,0,2.7-1.2,2.7-2.7V2.7C24,1.2,22.8,0,21.3,0
	z M8.3,2h13.1C21.7,2,22,2.3,22,2.7v11.2L18,10c-0.4-0.4-1.1-0.4-1.3,0l-4.8,4.7L8,12c-0.4-0.3-0.8-0.3-1.1,0l-4.8,3.5V9.1L8.3,2z
	 M21.3,22H2.7C2.3,22,2,21.7,2,21.3v-3.2l5.5-4l4,2.5c0.4,0.3,0.9,0.3,1.2-0.1l4.7-4.5l4.7,4.5v4.8C22,21.7,21.7,22,21.3,22z"/>
</svg>
