<svg xmlns="http://www.w3.org/2000/svg" xmlns:xlink="http://www.w3.org/1999/xlink" id="Layer_1" x="0" y="0" focusable="false" version="1.1" viewBox="0 0 24 24" style="enable-background:new 0 0 24 24" xml:space="preserve"><style type="text/css">.st0{fill:#1e1e1e}</style><path d="M7.5,11.7L16.6,5c0.1,0.6,0.6,1,1.3,1h3c0.9,0,1.5-0.6,1.5-1.5v-3C22.5,0.6,21.9,0,21,0h-3	c-0.9,0-1.5,0.6-1.5,1.5v0.6L6.9,9.3C6.6,9.2,6.3,9,6,9H3c-0.9,0-1.5,0.6-1.5,1.5v3C1.5,14.4,2.1,15,3,15h3c0.3,0,0.6-0.1,0.9-0.3	l9.6,7.2v0.6c0,0.9,0.6,1.5,1.5,1.5h3c0.9,0,1.5-0.6,1.5-1.5v-3c0-0.9-0.6-1.5-1.5-1.5h-3c-0.7,0-1.2,0.4-1.3,1l-9.1-6.7V11.7z" class="st0"/></svg>