<?xml version="1.0" encoding="utf-8"?>
<!-- Generator: Adobe Illustrator 26.3.1, SVG Export Plug-In . SVG Version: 6.00 Build 0)  -->
<svg version="1.1" id="Layer_1" focusable="false" xmlns="http://www.w3.org/2000/svg" xmlns:xlink="http://www.w3.org/1999/xlink"
	 x="0px" y="0px" viewBox="0 0 24 24" style="enable-background:new 0 0 24 24;" xml:space="preserve">
<style type="text/css">
	.st0{fill:#1E1E1E;}
</style>
<path class="st0" d="M18,0v7.8c0,0.5-0.3,0.7-0.8,0.7H6.8C6.3,8.7,6,8.2,6,7.8V0H3.8v7.8c0,1.7,1.4,3,3,3h10.5c1.7,0,3-1.3,3-3V0H18
	z M17.2,13.2H6.8c-1.6,0-3,1.3-3,3V24H6v-7.8c0-0.5,0.3-0.8,0.8-0.8h10.5c0.5,0,0.8,0.3,0.8,0.8V24h2.2v-7.8
	C20.2,14.4,18.9,13.2,17.2,13.2z"/>
</svg>
