<svg xmlns="http://www.w3.org/2000/svg" xmlns:xlink="http://www.w3.org/1999/xlink" id="Layer_1" x="0" y="0" focusable="false" version="1.1" viewBox="0 0 24 24" style="enable-background:new 0 0 24 24" xml:space="preserve"><style type="text/css">.st0{fill:#1e1e1e}</style><path d="M23.1,10.1l-9.8-9.8C13.2,0.2,12.9,0,12.6,0H1.1C0.5-0.1-0.1,0.5-0.1,1v11.4c0,0.3,0.1,0.6,0.3,0.7l9.8,9.8	c0.3,0.3,0.7,0.6,1,0.7c0.3,0.1,0.9,0.3,1.3,0.3c0.4,0,0.9-0.1,1.3-0.3c0.4-0.1,0.7-0.4,1.2-0.7l8.2-8.2c0.6-0.6,1-1.5,1-2.3	C24.1,11.6,23.7,10.7,23.1,10.1z M21.5,13.3l-8.2,8.2c-0.1,0.1-0.3,0.1-0.4,0.3c-0.3,0.1-0.6,0.1-0.9,0c-0.1,0-0.3-0.1-0.4-0.3	L2.1,12V2.2H12l9.5,9.5c0.3,0.3,0.3,0.6,0.3,0.9C21.8,12.7,21.8,13,21.5,13.3z M6.9,5.4C6,5.4,5.4,6,5.4,6.9S6,8.3,6.9,8.3	s1.5-0.6,1.5-1.5S7.8,5.4,6.9,5.4z" class="st0"/></svg>