<?xml version="1.0" encoding="utf-8"?>
<!-- Generator: Adobe Illustrator 26.3.1, SVG Export Plug-In . SVG Version: 6.00 Build 0)  -->
<svg version="1.1" id="Layer_1" focusable="false" xmlns="http://www.w3.org/2000/svg" xmlns:xlink="http://www.w3.org/1999/xlink"
	 x="0px" y="0px" viewBox="0 0 24 24" style="enable-background:new 0 0 24 24;" xml:space="preserve">
<style type="text/css">
	.st0{fill:#1E1E1E;}
</style>
<path class="st0" d="M23.4,10.5l-6.8-6.8c-0.9-0.9-2.2-0.9-3.1,0l-6.8,6.8c-0.9,0.9-0.9,2.2,0,3.1l6.8,6.8c0.4,0.4,1,0.6,1.5,0.6
	s1.1-0.2,1.5-0.6l6.8-6.8C24.2,12.7,24.2,11.3,23.4,10.5z M1.9,11.8l7.7-7.7L8.3,2.8l-7.7,7.7c-0.9,0.9-0.9,2.2,0,3.1l7.7,7.6
	l1.3-1.3L2,12.1C1.7,12.1,1.7,11.9,1.9,11.8z"/>
</svg>
