<svg xmlns="http://www.w3.org/2000/svg" xmlns:xlink="http://www.w3.org/1999/xlink" id="Layer_1" x="0" y="0" focusable="false" version="1.1" viewBox="0 0 24 24" style="enable-background:new 0 0 24 24" xml:space="preserve"><style type="text/css">.st0{fill:#1da1f2}</style><g><path d="M24.2,4.5c-0.9,0.4-1.9,0.7-2.9,0.8c1-0.6,1.8-1.6,2.2-2.8c-1,0.6-2,1-3.2,1.2c-0.9-1-2.2-1.6-3.6-1.6 c-2.8,0-5,2.2-5,5c0,0.4,0,0.8,0.1,1.1C7.7,8,4,6.1,1.5,3C1.1,3.8,0.9,4.6,0.9,5.5c0,1.7,0.9,3.3,2.2,4.2c-0.8,0-1.6-0.3-2.3-0.6 v0.1c0,2.4,1.7,4.4,4,4.9c-0.4,0.1-0.9,0.2-1.3,0.2c-0.3,0-0.6,0-0.9-0.1c0.6,2,2.5,3.4,4.7,3.5c-1.7,1.3-3.9,2.1-6.2,2.1 c-0.4,0-0.8,0-1.2-0.1c2.2,1.4,4.8,2.2,7.6,2.2c9.2,0,14.2-7.6,14.2-14.2c0-0.2,0-0.4,0-0.6C22.6,6.3,23.5,5.5,24.2,4.5L24.2,4.5z" class="st0"/></g></svg>