<svg xmlns="http://www.w3.org/2000/svg" xmlns:xlink="http://www.w3.org/1999/xlink" id="Layer_1" x="0" y="0" focusable="false" version="1.1" viewBox="0 0 24 24" style="enable-background:new 0 0 24 24" xml:space="preserve"><style type="text/css">.st0{fill:#1e1e1e}</style><path d="M5,5.8L0,19.5h2.2L3.4,16h5.2l1.3,3.6h2.2l-5-13.7H5z M4.1,14.2L6,8.7l1.9,5.5C7.9,14.2,4.1,14.2,4.1,14.2z M23.6,18.5c-0.1,0.1-0.3,0.3-0.4,0.3c-0.1,0.1-0.3,0.1-0.5,0.1c-0.3,0-0.4-0.1-0.5-0.3c-0.1-0.1-0.1-0.4-0.1-0.8v-5.7	c0-0.6,0-1.3-0.1-1.8c-0.1-0.5-0.4-0.9-0.6-1.3c-0.3-0.3-0.6-0.5-1.1-0.6c-0.5,0-1-0.1-1.7-0.1s-1.3,0.1-1.8,0.3	c-0.5,0.1-0.9,0.4-1.3,0.5c-0.3,0.3-0.5,0.4-0.8,0.6c-0.1,0.3-0.3,0.5-0.3,0.9s0.1,0.6,0.3,1c0.3,0.3,0.5,0.4,1,0.4	c0.4,0,0.8-0.1,1-0.4s0.4-0.5,0.4-0.9s-0.1-0.6-0.3-0.9c-0.3-0.3-0.5-0.4-0.8-0.5C16.4,9.1,16.6,9,17,8.8c0.4-0.1,0.8-0.1,1-0.1	c0.4,0,0.8,0,1,0.1c0.3,0.1,0.5,0.4,0.6,0.6c0.1,0.3,0.3,0.6,0.3,1.1V12c0,0.4-0.1,0.6-0.4,0.8c-0.3,0.3-0.6,0.4-1.1,0.5	c-0.4,0.1-0.9,0.4-1.4,0.5c-0.5,0.1-1,0.4-1.4,0.6c-0.4,0.3-0.8,0.5-1,0.9c-0.3,0.4-0.4,0.9-0.4,1.5c0,0.8,0.3,1.4,0.6,1.8	c0.4,0.5,1.1,0.6,2,0.6c0.6,0,1.3-0.1,1.8-0.4c0.5-0.3,1-0.8,1.4-1.4c0,0.5,0.1,0.9,0.4,1.3c0.3,0.4,0.8,0.5,1.5,0.5	c0.5,0,0.9-0.1,1.1-0.3c0.3-0.1,0.6-0.4,0.9-0.5C24,18.5,23.6,18.5,23.6,18.5z M19.8,17.4c-0.3,0.5-0.6,0.9-1,1	c-0.4,0.3-0.8,0.3-1,0.3c-0.5,0-0.8-0.1-1.1-0.4c-0.3-0.3-0.4-0.8-0.4-1.4s0.1-1.1,0.4-1.5c0.3-0.4,0.6-0.6,1-0.9	c0.4-0.3,0.9-0.4,1.3-0.6c0.4-0.1,0.8-0.4,0.9-0.8C19.8,13,19.8,17.4,19.8,17.4z" class="st0"/></svg>