<?xml version="1.0" encoding="utf-8"?>
<!-- Generator: Adobe Illustrator 26.3.1, SVG Export Plug-In . SVG Version: 6.00 Build 0)  -->
<svg version="1.1" id="Layer_1" focusable="false" xmlns="http://www.w3.org/2000/svg" xmlns:xlink="http://www.w3.org/1999/xlink"
	 x="0px" y="0px" viewBox="0 0 24 24" style="enable-background:new 0 0 24 24;" xml:space="preserve">
<style type="text/css">
	.st0{fill:#1E1E1E;}
</style>
<path class="st0" d="M19.9,0l-1.2,0.4c-0.1,0-4.8,1.3-6.9,2.8C9.5,4.7,8.5,6,8,6.8C7.2,8,5.7,13.1,5.7,15.2l-1.2,3.1
	c-0.3,0.5,0,1.1,0.5,1.3c0.1,0,0.3,0.1,0.4,0.1c0.4,0,0.8-0.3,0.9-0.7l0.8-2c0.4,0,0.9-0.1,1.6-0.3c0.9-0.1,1.9-0.4,2.9-0.7
	s2.1-0.7,3.2-1.1c0.9-0.4,1.9-0.9,2.5-1.6c0.7-0.7,1.1-1.6,1.3-2.5c0.3-0.9,0.4-2.1,0.5-3.2s0.1-2.3,0.3-3.3c0-1.1,0.1-2,0.3-2.8
	C19.9,1.6,19.9,0,19.9,0z M17.3,7.5c-0.1,1.1-0.3,2-0.4,2.8c-0.3,0.8-0.5,1.3-0.8,1.7c-0.4,0.4-1.1,0.8-1.9,1.2
	c-0.9,0.4-1.9,0.7-2.9,1.1c-0.8,0.3-1.7,0.4-2.4,0.5l7.2-7.5c0.4-0.4,0.8-0.9,1.3-1.5C17.5,6.4,17.5,6.9,17.3,7.5z M4.1,24h10.7v-2
	H4.1V24z"/>
</svg>
