<svg xmlns="http://www.w3.org/2000/svg" xmlns:xlink="http://www.w3.org/1999/xlink" id="Layer_1" x="0" y="0" focusable="false" version="1.1" viewBox="0 0 24 24" style="enable-background:new 0 0 24 24" xml:space="preserve"><style type="text/css">.st0{fill:#1e1e1e}</style><path d="M20.9,0H3.1C1.3,0,0,1.3,0,3.1v17.9C0,22.7,1.3,24,3.1,24h17.9c1.7,0,3.1-1.3,3.1-3.1V3.1C24,1.3,22.7,0,20.9,0	z M22,20.9c0,0.5-0.5,1.1-1.1,1.1H3.1C2.5,22,2,21.5,2,20.9V3.1C2,2.5,2.5,2,3.1,2h17.9C21.5,2,22,2.5,22,3.1V20.9z M9.3,16l6.7-4	L9.3,8V16z" class="st0"/></svg>