<svg xmlns="http://www.w3.org/2000/svg" xmlns:xlink="http://www.w3.org/1999/xlink" id="Layer_1" x="0" y="0" focusable="false" version="1.1" viewBox="0 0 24 24" style="enable-background:new 0 0 24 24" xml:space="preserve"><style type="text/css">.st0{fill:#1e1e1e}</style><path d="M21.3,0H2.7C1.2,0,0,1.2,0,2.7v18.7C0,22.8,1.2,24,2.7,24h18.7c1.5,0,2.7-1.2,2.7-2.7V2.7C24,1.2,22.8,0,21.3,0	z M22,21.3c0,0.4-0.3,0.7-0.7,0.7H2.7C2.3,22,2,21.7,2,21.3V9.1L8.3,2h13.1C21.7,2,22,2.3,22,2.7V21.3z M9.3,16l6.7-4L9.3,8V16z" class="st0"/></svg>