<?xml version="1.0" encoding="utf-8"?>
<!-- Generator: Adobe Illustrator 26.3.1, SVG Export Plug-In . SVG Version: 6.00 Build 0)  -->
<svg version="1.1" id="Layer_1" focusable="false" xmlns="http://www.w3.org/2000/svg" xmlns:xlink="http://www.w3.org/1999/xlink"
	 x="0px" y="0px" viewBox="0 0 24 24" style="enable-background:new 0 0 24 24;" xml:space="preserve">
<style type="text/css">
	.st0{fill:#1E1E1E;}
</style>
<path class="st0" d="M20.1,12l3.3-3.7l-4.9-1.1l0.5-4.9l-4.5,2L12,0L9.5,4.3l-4.5-2l0.5,4.9L0.6,8.3L3.9,12l-3.3,3.7l4.9,1.1
	l-0.5,4.9l4.5-2L12,24l2.5-4.3l4.5,2l-0.5-4.9l4.9-1.1L20.1,12z M20.4,14.1l-1.7-0.6l-1.2-1.6l1.5,0.6L20.4,14.1z M13.7,18.8
	l-1.1,1.9v-1.9l1.2-1.7L13.7,18.8z M9.4,5.5l1,1.2L8.4,6L7.4,4.6L9.4,5.5z M14.6,5.5l2-0.9L15.6,6l-1.9,0.7L14.6,5.5z M17.4,7.5
	l-0.9,1.3l0.1-2.1l1.1-1.5L17.4,7.5z M12,17.6l-1.7-2.4l1.7-2.2l1.7,2.2L12,17.6z M8.7,10.3L8.7,7.3l2.8,1v2.9L8.7,10.3z M12.6,8.3
	l2.8-1l-0.1,2.9l-2.7,0.9V8.3z M6.6,7.5L6.4,5.2l1.1,1.5l0.1,2.1L6.6,7.5z M8.4,11.4l2.7,0.9l-1.7,2.2l-2.8-0.8L8.4,11.4z
	 M10.3,17.1l1.2,1.7v1.9l-1.1-1.9L10.3,17.1z M12.9,12.3l2.7-0.9l1.8,2.3l-2.8,0.8L12.9,12.3z M21.2,9l-2.1,2.3l-2.5-0.9l1.5-2.1
	L21.2,9z M13.6,5L12,7l-1.6-2L12,2.3L13.6,5z M2.8,9l3.1-0.7l1.5,2.1l-2.5,0.9L2.8,9z M5,12.5l1.5-0.6l-1.2,1.6l-1.7,0.6L5,12.5z
	 M3.8,15.2l1.8-0.6l2,0.6L6,15.7L3.8,15.2z M6.6,16.7L9.1,16l0.1,2.7l-2.9,1.3L6.6,16.7z M14.9,18.6l0.1-2.7l2.5,0.8l0.3,3.1
	L14.9,18.6z M18,15.7l-1.6-0.5l2-0.6l1.8,0.6L18,15.7z"/>
</svg>
