<svg xmlns="http://www.w3.org/2000/svg" width="245" height="146" fill="none" viewBox="0 0 245 146"><path fill="#7F54B3" fill-rule="evenodd" d="M221.8 0.200012H22.7C10.1 0.200012 -0.100003 10.5 -3.36004e-06 23V99C-3.36004e-06 111.6 10.2 121.8 22.8 121.8H117.1L160.2 145.8L150.4 121.8H221.8C234.4 121.8 244.6 111.6 244.6 99V23C244.6 10.4 234.4 0.200012 221.8 0.200012ZM18.5001 17.8C15.7001 18 13.6001 19 12.2001 20.9C10.8001 22.7 10.3001 25 10.6001 27.6C16.5001 65.1 22.0001 90.4 27.1001 103.5C29.1001 108.3 31.4001 110.6 34.1001 110.4C38.3001 110.1 43.3001 104.3 49.2001 93C52.3001 86.6 57.1001 77 63.6001 64.2C69.0001 83.1 76.4001 97.3 85.7001 106.8C88.3001 109.5 91.0001 110.7 93.6001 110.5C95.9001 110.3 97.7001 109.1 98.9001 106.9C99.9001 105 100.3 102.8 100.1 100.3C99.5001 91.2 100.4 78.5 102.9 62.2C105.5 45.4 108.7 33.3 112.6 26.1C113.4 24.6 113.7 23.1 113.6 21.3C113.4 19 112.4 17.1 110.5 15.6C108.6 14.1 106.5 13.4 104.2 13.6C101.3 13.8 99.1001 15.2 97.6001 18C91.4001 29.3 87.0001 47.6 84.4001 73C80.6001 63.4 77.4001 52.1 74.9001 38.8C73.8001 32.9 71.1001 30.1 66.7001 30.4C63.7001 30.6 61.2001 32.6 59.2001 36.4L37.3001 78.1C33.7001 63.6 30.3001 45.9 27.2001 25C26.5001 19.8 23.6001 17.4 18.5001 17.8ZM211.2 25C218.3 26.5 223.6 30.3 227.2 36.6C230.4 42 232 48.5 232 56.3C232 66.6 229.4 76 224.2 84.6C218.2 94.6 210.4 99.6 200.7 99.6C199 99.6 197.2 99.4 195.3 99C188.2 97.5 182.9 93.7 179.3 87.4C176.1 81.9 174.5 75.3 174.5 67.6C174.5 57.3 177.1 47.9 182.3 39.4C188.4 29.4 196.2 24.4 205.8 24.4C207.5 24.4 209.3 24.6 211.2 25ZM207 79.1C210.7 75.8 213.2 70.9 214.6 64.3C215 62 215.3 59.5 215.3 56.9C215.3 54 214.7 50.9 213.5 47.8C212 43.9 210 41.8 207.6 41.3C204 40.6 200.5 42.6 197.2 47.5C194.5 51.3 192.8 55.3 191.9 59.4C191.4 61.7 191.2 64.2 191.2 66.7C191.2 69.6 191.8 72.7 193 75.8C194.5 79.7 196.5 81.8 198.9 82.3C201.4 82.8 204.1 81.7 207 79.1ZM148.5 25C155.5 26.5 160.9 30.3 164.5 36.6C167.7 42 169.3 48.5 169.3 56.3C169.3 66.6 166.7 76 161.5 84.6C155.5 94.6 147.7 99.6 138 99.6C136.3 99.6 134.5 99.4 132.6 99C125.5 97.5 120.2 93.7 116.6 87.4C113.4 81.9 111.8 75.3 111.8 67.6C111.8 57.3 114.4 47.9 119.6 39.4C125.7 29.4 133.5 24.4 143.1 24.4C144.8 24.4 146.6 24.6 148.5 25ZM144.3 79.1C148 75.8 150.5 70.9 151.9 64.3C152.4 62 152.6 59.5 152.6 56.9C152.6 54 152 50.9 150.8 47.8C149.3 43.9 147.3 41.8 144.9 41.3C141.3 40.6 137.8 42.6 134.5 47.5C131.8 51.3 130.1 55.3 129.2 59.4C128.7 61.7 128.5 64.2 128.5 66.7C128.5 69.6 129.1 72.7 130.3 75.8C131.8 79.7 133.8 81.8 136.2 82.3C138.7 82.8 141.4 81.7 144.3 79.1Z" clip-rule="evenodd"/></svg>