<svg xmlns="http://www.w3.org/2000/svg" xmlns:xlink="http://www.w3.org/1999/xlink" id="Layer_1" x="0" y="0" focusable="false" version="1.1" viewBox="0 0 24 24" style="enable-background:new 0 0 24 24" xml:space="preserve"><style type="text/css">.st0{fill:#0073aa}</style><g><path d="M12.2,12.9L9,22.4c1,0.3,2,0.4,3,0.4c1.3,0,2.5-0.2,3.6-0.6c0,0-0.1-0.1-0.1-0.1L12.2,12.9L12.2,12.9z M1.2,12 c0,4.3,2.5,8,6.1,9.7L2.1,7.6C1.5,9,1.2,10.4,1.2,12z M19.3,11.5c0-1.3-0.5-2.3-0.9-3c-0.5-0.9-1.1-1.6-1.1-2.5 c0-1,0.8-1.9,1.8-1.9c0,0,0.1,0,0.1,0c-1.9-1.8-4.5-2.8-7.3-2.8c-3.8,0-7.1,1.9-9,4.9c0.3,0,0.5,0,0.7,0C4.8,6.1,6.6,6,6.6,6 c0.6,0,0.6,0.8,0.1,0.9c0,0-0.6,0.1-1.2,0.1l3.9,11.7l2.4-7.1L10,6.9c-0.6,0-1.1-0.1-1.1-0.1C8.3,6.8,8.4,5.9,8.9,6 c0,0,1.8,0.1,2.8,0.1c1.1,0,2.9-0.1,2.9-0.1c0.6,0,0.7,0.8,0.1,0.9c0,0-0.6,0.1-1.2,0.1l3.9,11.6l1.1-3.6 C19,13.5,19.3,12.4,19.3,11.5L19.3,11.5z M21.5,6.8c0,0.3,0.1,0.7,0.1,1.1c0,1.1-0.2,2.3-0.8,3.9l-3.3,9.5c3.2-1.9,5.4-5.3,5.4-9.3 C22.8,10.1,22.3,8.4,21.5,6.8L21.5,6.8z M12,24C5.4,24,0,18.6,0,12S5.4,0,12,0s12,5.4,12,12S18.6,24,12,24z" class="st0"/></g></svg>