<svg xmlns="http://www.w3.org/2000/svg" xmlns:xlink="http://www.w3.org/1999/xlink" id="Layer_1" x="0" y="0" version="1.1" viewBox="0 0 512 512" style="enable-background:new 0 0 512 512" xml:space="preserve"><path d="M0,24C0,10.7,10.7,0,24,0s24,10.7,24,24v464c0,13.2-10.7,24-24,24S0,501.2,0,488V24z M464,24c0-13.3,10.7-24,24-24	s24,10.7,24,24v464c0,13.2-10.7,24-24,24s-24-10.8-24-24V24z M464,336c0,26.5-19.7,48-43.9,48h-58.6c-24.3,0-43.9-21.5-43.9-48V176	c0-26.5,19.7-48,43.9-48h58.6c24.3,0,43.9,21.5,43.9,48V336z M194.5,336c0,26.5-19.7,48-43.9,48H91.9C67.7,384,48,362.5,48,336V176	c0-26.5,19.7-48,43.9-48h58.6c24.3,0,43.9,21.5,43.9,48V336z"/></svg>