<svg xmlns="http://www.w3.org/2000/svg" xmlns:xlink="http://www.w3.org/1999/xlink" id="Layer_1" x="0" y="0" version="1.1" viewBox="0 0 512 512" style="enable-background:new 0 0 512 512" xml:space="preserve"><path d="M512,488c0,13.3-10.7,24-24,24s-24-10.7-24-24V24c0-13.2,10.7-24,24-24s24,10.8,24,24V488z M48,488c0,13.3-10.7,24-24,24	S0,501.3,0,488V24C0,10.8,10.7,0,24,0s24,10.8,24,24V488z M327.5,288c23.7,0,42.9,21.5,42.9,48v64c0,26.5-19.2,48-42.9,48H184.5	c-23.7,0-42.9-21.5-42.9-48v-64c0-26.5,19.2-48,42.9-48H327.5z M327.5,65c23.7,0,42.9,21.5,42.9,48v64c0,26.5-19.2,48-42.9,48H184.5	c-23.7,0-42.9-21.5-42.9-48v-64c0-26.5,19.2-48,42.9-48H327.5z"/></svg>