<svg width="32" height="12" viewBox="0 0 32 12" fill="none" xmlns="http://www.w3.org/2000/svg">
<g clip-path="url(#clip0_1064_2322)">
<path d="M5.05298 6.06601C5.05298 5.10901 5.80698 4.33301 6.73698 4.33301C7.66698 4.33301 8.42098 5.10901 8.42098 6.06601C8.42098 7.02401 7.66698 7.80001 6.73698 7.80001C5.80698 7.80001 5.05298 7.02401 5.05298 6.06601ZM11.79 4.33301C10.86 4.33301 10.105 5.10901 10.105 6.06601C10.105 7.02401 10.859 7.80001 11.789 7.80001H25.263C26.193 7.80001 26.947 7.02401 26.947 6.06601C26.947 5.10901 26.193 4.33301 25.263 4.33301H11.79Z" fill="black"/>
<path fill-rule="evenodd" clip-rule="evenodd" d="M2.526 0C1.131 0 0 1.163 0 2.6V9.533C0 10.969 1.131 12.133 2.526 12.133H29.474C30.869 12.133 32 10.969 32 9.533V2.6C32 1.164 30.869 0 29.474 0H2.526ZM29.474 1.733H2.526C2.29941 1.73642 2.08344 1.82966 1.92556 1.99223C1.76768 2.1548 1.68079 2.3734 1.684 2.6V9.533C1.684 10.012 2.061 10.4 2.526 10.4H29.474C29.7006 10.3966 29.9166 10.3033 30.0744 10.1408C30.2323 9.9782 30.3192 9.7596 30.316 9.533V2.6C30.3192 2.3734 30.2323 2.1548 30.0744 1.99223C29.9166 1.82966 29.7006 1.73642 29.474 1.733Z" fill="black"/>
</g>
<defs>
<clipPath id="clip0_1064_2322">
<rect width="32" height="12" fill="white"/>
</clipPath>
</defs>
</svg>
