<svg viewBox="0 0 512 512"><path d="M473.6 512H38.4C17.2 512 0 494.8 0 473.6V38.4C0 17.2 17.2 0 38.4 0h435.2C494.8 0 512 17.2 512 38.4v435.2c0 21.2-17.2 38.4-38.4 38.4zM38.4 17.1c-11.8 0-21.3 9.6-21.3 21.3v435.2c0 11.8 9.6 21.3 21.3 21.3h435.2c11.8 0 21.3-9.6 21.3-21.3V38.4c0-11.8-9.6-21.3-21.3-21.3H38.4z"/><path d="M187.7 51.2h17.1v17.1h-17.1zm-136.5 0h17.1v17.1H51.2zm68.3 0h17.1v17.1h-17.1z"/><path d="M473.6 0H38.4C17.2 0 0 17.2 0 38.4v72.5c0 4.7 3.8 8.5 8.5 8.5h494.9c4.7 0 8.5-3.8 8.5-8.5V38.4C512 17.2 494.8 0 473.6 0zM221.9 42.7v34.1c0 4.7-3.8 8.5-8.5 8.5h-34.1c-4.7 0-8.5-3.8-8.5-8.5V42.7c0-4.7 3.8-8.5 8.5-8.5h34.1c4.6-.1 8.5 3.7 8.5 8.5zm-68.3 0v34.1c0 4.7-3.8 8.5-8.5 8.5H111c-4.7 0-8.5-3.8-8.5-8.5V42.7c0-4.7 3.8-8.5 8.5-8.5h34.1c4.7-.1 8.5 3.7 8.5 8.5zm-76.8-8.6c4.7 0 8.5 3.8 8.5 8.5v34.1c0 4.7-3.8 8.5-8.5 8.5H42.7c-4.7 0-8.5-3.8-8.5-8.5v-34c0-4.7 3.8-8.5 8.5-8.5h34.1v-.1zM264.1 265c0 1.6 1.1 2.5 3.1 2.5 1.9 0 3-1 4.2-2.3v-4.6c-5.6.7-7.3 2.5-7.3 4.4zm-98.6-14.9c-3.6 0-4.9 3.3-4.9 8.5s1.4 8.5 4.9 8.5 4.9-3.3 4.9-8.5-1.4-8.5-4.9-8.5zm199.6-.5c-2.6 0-4.8 1.5-5.5 4.9h10.1c.1-2.6-1-4.9-4.6-4.9z"/><path d="M446.5 152.9h-382c-9.2 0-16.7 7.5-16.7 16.7v171.8c0 9.2 7.5 16.7 16.7 16.7h382c9.2 0 16.7-7.5 16.7-16.7V169.6c0-9.2-7.5-16.7-16.7-16.7zm-316 123.6c-11.3 0-21.2-7.5-21.2-22.7 0-14.9 10.2-23.4 21.4-23.4 5.9 0 10.7 2.7 13.8 5.9l-6.1 7.5c-2.2-1.9-4.4-3.3-7.4-3.3-5.2 0-9.7 4.8-9.7 12.8 0 8.3 3.8 13 9.6 13 3.4 0 6.1-1.8 8.1-3.8l6.1 7.4c-3.7 4.4-8.9 6.6-14.6 6.6zm35 0c-8.7 0-16.9-6.6-16.9-17.9 0-11.3 8.2-17.9 16.9-17.9s16.9 6.6 16.9 17.9c0 11.3-8.2 17.9-16.9 17.9zm55.1-.8h-11.7v-19.5c0-4.4-1.1-5.5-3.4-5.5-2.2 0-3.4 1-5.2 2.6v22.4h-11.7v-34.1h9.6l.8 4.1h.3c2.7-2.6 6.1-4.9 10.8-4.9 7.5 0 10.7 5.5 10.7 13.9v21zm21.8.8c-8.9 0-12.6-5.6-12.6-13.9v-11.9h-4.5V242l5.2-.4 1.4-8.9h9.7v8.9h7.8v9.2h-7.8v11.7c0 3.8 1.9 5 4.1 5 1.1 0 2.2-.3 3-.5l1.8 8.5c-1.9.3-4.4 1-8.1 1zm40.8-.8h-9.6l-.8-3.3h-.3c-2.7 2.5-5.7 4.1-9.4 4.1-6.4 0-10.2-4.9-10.2-10.5 0-7.1 5.5-11.1 18.6-12.4-.3-2.5-1.8-3.6-4.8-3.6-2.5 0-5.1 1-8.6 2.9l-4.1-7.6c4.8-2.9 9.7-4.5 15-4.5 8.9 0 14.2 4.8 14.2 16v18.9zm19.4 0h-11.7v-34.1h11.7v34.1zm-5.9-38.4c-3.8 0-6.6-2.5-6.6-5.9s2.7-5.9 6.6-5.9 6.6 2.5 6.6 5.9-2.8 5.9-6.6 5.9zm45.9 38.4h-11.7v-19.5c0-4.4-1.1-5.5-3.4-5.5-2.2 0-3.4 1-5.2 2.6v22.4h-11.7v-34.1h9.6l.8 4.1h.3c2.7-2.6 6.1-4.9 10.8-4.9 7.5 0 10.7 5.5 10.7 13.9v21zm36.7-13.6h-19.5c1.1 4.1 4.1 5.5 7.9 5.5 2.3 0 4.5-.7 7-2l3.8 7c-3.7 2.6-8.6 4-12.4 4-10 0-17.6-6.6-17.6-17.9 0-11.1 8.1-17.9 16.4-17.9 10.1 0 14.9 7.4 14.9 16.5-.1 2-.3 4-.5 4.8zm29.5-10.6c-1.2-.3-2.3-.5-3.8-.5-2.5 0-5.5 1.5-7.1 5.7v19h-11.7v-34.1h9.6l.8 5.9h.3c2.5-4.6 6.4-6.7 9.7-6.7 2.1 0 3.3.3 4.2.7l-2 10z"/><path fill="#1e1e1e" d="M446.6 456H64.4c-9.2 0-16.6-7.4-16.6-16.6v-37.8c0-9.2 7.4-16.6 16.6-16.6h382.2c9.2 0 16.6 7.4 16.6 16.6v37.8c0 9.2-7.4 16.6-16.6 16.6z"/></svg>