<svg id="Capa_1" enable-background="new 0 0 512 512" height="512" viewBox="0 0 512 512" width="512" xmlns="http://www.w3.org/2000/svg"><g><g id="Page-1_66_"><g id="_x30_67---Click-Button"><path id="Shape_335_" d="m384.018 85.333h-256c-70.692 0-128 57.308-128 128s57.308 128 128 128h178.142l-31.249 63.471c-2.947 5.897-2.234 12.965 1.832 18.154 4.066 5.19 10.757 7.573 17.188 6.123l47.42-10.854v76.706c0 9.426 7.641 17.067 17.067 17.067h51.2c9.426 0 17.067-7.641 17.067-17.067l-.06-76.723 47.531 10.889c6.42 1.43 13.091-.956 17.147-6.135s4.775-12.226 1.848-18.117l-40.96-83.209c48.238-30.385 70.567-89.009 54.764-143.785-15.802-54.776-65.927-92.499-122.937-92.52zm46.371 316.229c-5.054-1.124-10.346.108-14.384 3.349s-6.388 8.139-6.386 13.317v76.706h-51.2v-76.706c0-5.186-2.358-10.091-6.409-13.329-4.05-3.239-9.354-4.46-14.413-3.319l-47.394 10.803 93.815-190.566 49.493 100.429v.085l.043.051 44.331 90.069zm32.076-109.782c-5.435 5.426-11.421 10.27-17.86 14.455l-45.32-91.998c-2.885-5.797-8.803-9.462-15.279-9.462s-12.394 3.665-15.279 9.462l-54.161 110.029h-186.548c-61.267 0-110.933-49.667-110.933-110.933s49.667-110.933 110.933-110.933h256c44.872-.004 85.327 27.024 102.499 68.48 17.173 41.455 7.68 89.173-24.052 120.9z"/><path id="Shape_334_" d="m128.018 119.467c-24.919-.032-48.822 9.873-66.415 27.52-2.224 2.136-3.121 5.306-2.349 8.291.773 2.985 3.096 5.321 6.076 6.111s6.156-.091 8.305-2.302c14.401-14.459 33.975-22.577 54.383-22.554 4.713 0 8.533-3.821 8.533-8.533.001-4.713-3.82-8.533-8.533-8.533z"/><path id="Shape_333_" d="m247.485 8.533v42.667c0 4.713 3.821 8.533 8.533 8.533 4.713 0 8.533-3.821 8.533-8.533v-42.667c0-4.713-3.821-8.533-8.533-8.533s-8.533 3.821-8.533 8.533z"/><path id="Shape_332_" d="m185.252 19.567c-3.348-3.234-8.671-3.188-11.962.104s-3.338 8.614-.104 11.962l34.133 34.133c3.348 3.234 8.671 3.188 11.962-.104 3.292-3.292 3.338-8.614.104-11.962z"/><path id="Shape_331_" d="m326.785 19.567-34.133 34.133c-2.218 2.143-3.108 5.315-2.327 8.299s3.111 5.313 6.094 6.094 6.156-.109 8.299-2.327l34.133-34.133c2.218-2.143 3.108-5.315 2.327-8.299s-3.111-5.313-6.094-6.094-6.156.109-8.299 2.327z"/><path id="Shape_330_" d="m170.685 119.467h-8.533c-4.713 0-8.533 3.821-8.533 8.533 0 4.713 3.821 8.533 8.533 8.533h8.533c4.713 0 8.533-3.821 8.533-8.533 0-4.713-3.82-8.533-8.533-8.533z"/></g></g></g></svg>