<svg width="32" height="32" viewBox="0 0 32 32" fill="none" xmlns="http://www.w3.org/2000/svg">
<path d="M12 30.3333H20C27.24 30.3333 30.3333 27.24 30.3333 20V12C30.3333 7.38665 29.0666 4.51997 26.3733 2.98663C25.6933 2.59997 24.5066 2.27998 22.76 1.99998C22.2266 1.90665 21.7066 2.27997 21.6133 2.82663C21.52 3.3733 21.8933 3.89333 22.44 3.97333C24.4666 4.29333 25.1733 4.6133 25.3866 4.7333C27.4266 5.8933 28.3333 8.13331 28.3333 12V20C28.3333 26.1467 26.1466 28.3333 20 28.3333H12C5.85329 28.3333 3.66663 26.1467 3.66663 20V16C3.66663 15.4533 3.21329 15 2.66663 15C2.11996 15 1.66663 15.4533 1.66663 16V20C1.66663 27.24 4.75996 30.3333 12 30.3333Z" fill="black"/>
<path d="M24 18.3333H17.3334C16.7867 18.3333 16.3334 17.88 16.3334 17.3333C16.3334 16.7867 16.7867 16.3333 17.3334 16.3333H24C24.5467 16.3333 25 16.7867 25 17.3333C25 17.88 24.5467 18.3333 24 18.3333Z" fill="black"/>
<path d="M14.6666 23.6667H24C24.5466 23.6667 25 23.2133 25 22.6667C25 22.12 24.5466 21.6667 24 21.6667H14.6666C14.12 21.6667 13.6666 22.12 13.6666 22.6667C13.6666 23.2133 14.12 23.6667 14.6666 23.6667Z" fill="black"/>
<path d="M14.2057 7.79435C15.7025 9.29115 15.7988 11.6699 14.4914 13.2775C14.3085 13.504 14.4098 13.3908 12.0029 15.7977C10.4005 17.4001 7.80564 17.4015 6.2024 15.7977C4.59954 14.1954 4.59886 11.6007 6.2024 9.99718C7.16255 9.03703 7.721 8.4767 8.06008 8.13809C8.27873 7.91977 8.65572 8.06912 8.66026 8.37809C8.66571 8.75149 8.71234 9.12315 8.7993 9.48633C8.8276 9.60437 8.79133 9.72858 8.70549 9.8144L7.36226 11.1573C6.40264 12.1175 6.39878 13.6737 7.36226 14.6378C8.32247 15.5974 9.87863 15.6013 10.8427 14.6378L13.0456 12.4347C14.0041 11.4759 14.0058 9.91477 13.0456 8.9545C12.851 8.75962 12.6251 8.59889 12.3772 8.47904C12.2417 8.41362 12.1668 8.26664 12.185 8.11734C12.2247 7.79151 12.3694 7.47618 12.619 7.22657L12.7472 7.0984C12.8534 6.99217 13.016 6.96381 13.1503 7.03119C13.5311 7.22233 13.8882 7.47683 14.2057 7.79435ZM18.7976 3.20235C17.1944 1.5985 14.5995 1.59993 12.9971 3.20235C10.5902 5.60927 10.6915 5.49601 10.5086 5.72247C9.2012 7.33008 9.29747 9.70887 10.7943 11.2057C11.1118 11.5232 11.4689 11.7777 11.8497 11.9688C11.9839 12.0362 12.1466 12.0078 12.2528 11.9016L12.381 11.7734C12.6306 11.5239 12.7753 11.2085 12.815 10.8827C12.8332 10.7334 12.7582 10.5864 12.6228 10.521C12.3749 10.4011 12.149 10.2404 11.9544 10.0455C10.9942 9.08525 10.9959 7.52408 11.9544 6.56534L14.1573 4.36222C15.1214 3.39873 16.6775 3.4026 17.6377 4.36222C18.6012 5.32632 18.5974 6.88248 17.6377 7.84269L16.2945 9.18566C16.2087 9.27147 16.1724 9.39568 16.2007 9.51372C16.2877 9.8769 16.3343 10.2486 16.3398 10.622C16.3443 10.9309 16.7213 11.0803 16.9399 10.862C17.279 10.5234 17.8375 9.96302 18.7976 9.00287C20.4011 7.39931 20.4005 4.80463 18.7976 3.20235Z" fill="black"/>
</svg>
